<svg class="main-svg" xmlns="http://www.w3.org/2000/svg" xmlns:xlink="http://www.w3.org/1999/xlink" width="3000" height="2000" style="" viewBox="0 0 1200 800"><rect x="0" y="0" width="1200" height="800" style="fill: rgb(255, 255, 255); fill-opacity: 1;"/><defs id="defs-7f16b7"><g class="clips"/><g class="gradients"/><g class="patterns"/></defs><g class="bglayer"/><g class="layer-below"><g class="imagelayer"/><g class="shapelayer"/></g><g class="cartesianlayer"/><g class="polarlayer"/><g class="smithlayer"/><g class="ternarylayer"/><g class="geolayer"/><g class="funnelarealayer"/><g class="pielayer"/><g class="iciclelayer"/><g class="treemaplayer"/><g class="sunburstlayer"/><g class="glimages"/><g class="sankey" transform="translate(80,100)matrix(1 0 0 1 0 0)" style="box-sizing: content-box; position: absolute; left: 0px; shape-rendering: geometricprecision; pointer-events: auto;"><g class="sankey-links" style="fill: none;"><path class="sankey-link" d="M 204 298.6202845368777 L199 298.6202845368777A35.864297127013 35.864297127013 0 0 0 163.135702872987 334.4845816638907L163.135702872987 339.4845816638906A35.864297127013 35.864297127013 0 0 0 199 375.3488787909036L229 375.3488787909036A35.864297127013 35.864297127013 0 0 0 264.864297127013 339.4845816638906L264.864297127013 334.4845816638907A35.864297127013 35.864297127013 0 0 0 229 298.6202845368777L224 298.6202845368777L224 324.48458166389065L229 324.48458166389065A10.000000000000002 10.000000000000002 0 0 1 239 334.4845816638907L239 339.4845816638906A10.000000000000002 10.000000000000002 0 0 1 229 349.48458166389065L199 349.48458166389065A10.000000000000002 10.000000000000002 0 0 1 189 339.4845816638906L189 334.4845816638907A10.000000000000002 10.000000000000002 0 0 1 199 324.48458166389065L204 324.48458166389065Z" style="stroke: rgb(68, 68, 68); stroke-opacity: 1; fill: rgb(180, 4, 38); fill-opacity: 0.5; stroke-width: 0; opacity: 1;"/><path class="sankey-link" d="M224,246.1804652630534C316,246.1804652630534 316,248.5666089978704 408,248.5666089978704L408,252.92540061169302C316,252.92540061169302 316,250.53925687687604 224,250.53925687687604Z" style="stroke: rgb(68, 68, 68); stroke-opacity: 1; fill: rgb(59, 76, 192); fill-opacity: 0.5; stroke-width: 0; opacity: 1;"/><path class="sankey-link" d="M 204 418.92944239746674 L199 418.92944239746674A27.088357177257336 27.088357177257336 0 0 1 171.9116428227427 391.84108522020944L171.9116428227427 386.84108522020944A27.088357177257336 27.088357177257336 0 0 1 199 359.7527280429521L229 359.7527280429521A27.088357177257336 27.088357177257336 0 0 1 256.0883571772573 386.84108522020944L256.0883571772573 391.84108522020944A27.088357177257336 27.088357177257336 0 0 1 229 418.92944239746674L224 418.92944239746674L224 401.84108522020944L229 401.84108522020944A10 10 0 0 0 239 391.84108522020944L239 386.84108522020944A10 10 0 0 0 229 376.84108522020944L199 376.84108522020944A10 10 0 0 0 189 386.84108522020944L189 391.84108522020944A10 10 0 0 0 199 401.84108522020944L204 401.84108522020944Z" style="stroke: rgb(68, 68, 68); stroke-opacity: 1; fill: rgb(184, 18, 42); fill-opacity: 0.5; stroke-width: 0; opacity: 1;"/><path class="sankey-link" d="M 204 369.3753697160933 L199 369.3753697160933A22.465715504116112 22.465715504116112 0 0 0 176.53428449588387 391.84108522020944L176.53428449588387 396.84108522020944A22.465715504116112 22.465715504116112 0 0 0 199 419.30680072432557L229 419.30680072432557A22.465715504116112 22.465715504116112 0 0 0 251.46571550411613 396.84108522020944L251.46571550411613 391.84108522020944A22.465715504116112 22.465715504116112 0 0 0 229 369.3753697160933L224 369.3753697160933L224 381.84108522020944L229 381.84108522020944A10 10 0 0 1 239 391.84108522020944L239 396.84108522020944A10 10 0 0 1 229 406.84108522020944L199 406.84108522020944A10 10 0 0 1 189 396.84108522020944L189 391.84108522020944A10 10 0 0 1 199 381.84108522020944L204 381.84108522020944Z" style="stroke: rgb(68, 68, 68); stroke-opacity: 1; fill: rgb(180, 4, 38); fill-opacity: 0.5; stroke-width: 0; opacity: 1;"/><path class="sankey-link" d="M224,281.1247556186053C316,281.1247556186053 316,278.7386060643326 408,278.7386060643326L408,296.234134982605C316,296.234134982605 316,298.6202845368777 224,298.6202845368777Z" style="stroke: rgb(68, 68, 68); stroke-opacity: 1; fill: rgb(180, 4, 38); fill-opacity: 0.5; stroke-width: 0; opacity: 1;"/><path class="sankey-link" d="M632,246.09433768811698C724,246.09433768811698 724,252.491031675506 816,252.491031675506L816,267.60757284652817C724,267.60757284652817 724,261.21087885913914 632,261.21087885913914Z" style="stroke: rgb(68, 68, 68); stroke-opacity: 1; fill: rgb(247, 185, 158); fill-opacity: 0.5; stroke-width: 0; opacity: 1;"/><path class="sankey-link" d="M428,367.2383378071244C520,367.2383378071244 520,313.4462060789008 612,313.4462060789008L612,330.1775923694013C520,330.1775923694013 520,383.9697240976249 428,383.9697240976249Z" style="stroke: rgb(68, 68, 68); stroke-opacity: 1; fill: rgb(216, 86, 70); fill-opacity: 0.5; stroke-width: 0; opacity: 1;"/><path class="sankey-link" d="M428,322.34754975492166C520,322.34754975492166 520,300.1016769102891 612,300.1016769102891L612,310.53538195270306C520,310.53538195270306 520,332.78125479733563 428,332.78125479733563Z" style="stroke: rgb(68, 68, 68); stroke-opacity: 1; fill: rgb(59, 76, 192); fill-opacity: 0.5; stroke-width: 0; opacity: 1;"/><path class="sankey-link" d="M428,248.5666089978704C520,248.5666089978704 520,246.09433768811698 612,246.09433768811698L612,256.26633475457913C520,256.26633475457913 520,258.73860606433254 428,258.73860606433254Z" style="stroke: rgb(68, 68, 68); stroke-opacity: 1; fill: rgb(59, 76, 192); fill-opacity: 0.5; stroke-width: 0; opacity: 1;"/><path class="sankey-link" d="M224,418.9294423974668C316,418.9294423974668 316,367.2383378071244 408,367.2383378071244L408,391.95271411066864C316,391.95271411066864 316,443.643818701011 224,443.643818701011Z" style="stroke: rgb(68, 68, 68); stroke-opacity: 1; fill: rgb(184, 18, 42); fill-opacity: 0.5; stroke-width: 0; opacity: 1;"/><path class="sankey-link" d="M224,344.48458166389065C316,344.48458166389065 316,322.34754975492166 408,322.34754975492166L408,347.2383378071244C316,347.2383378071244 316,369.3753697160934 224,369.3753697160934Z" style="stroke: rgb(68, 68, 68); stroke-opacity: 1; fill: rgb(180, 4, 38); fill-opacity: 0.5; stroke-width: 0; opacity: 1;"/><path class="sankey-link" d="M20,238.70832610734658C112,238.70832610734658 112,281.1247556186053 204,281.1247556186053L204,296.06904597415763C112,296.06904597415763 112,253.65261646289883 20,253.65261646289883Z" style="stroke: rgb(68, 68, 68); stroke-opacity: 1; fill: rgb(180, 4, 38); fill-opacity: 0.5; stroke-width: 0; opacity: 1;"/><path class="sankey-link" d="M20,223.76403575179432C112,223.76403575179432 112,246.1804652630534 204,246.1804652630534L204,261.12475561860566C112,261.12475561860566 112,238.70832610734658 20,238.70832610734658Z" style="stroke: rgb(68, 68, 68); stroke-opacity: 1; fill: rgb(180, 4, 38); fill-opacity: 0.5; stroke-width: 0; opacity: 1;"/><path class="sankey-link" d="M20,268.5969068184511C112,268.5969068184511 112,418.9294423974668 204,418.9294423974668L204,433.8737327530191C112,433.8737327530191 112,283.5411971740034 20,283.5411971740034Z" style="stroke: rgb(68, 68, 68); stroke-opacity: 1; fill: rgb(180, 4, 38); fill-opacity: 0.5; stroke-width: 0; opacity: 1;"/><path class="sankey-link" d="M20,253.65261646289886C112,253.65261646289886 112,344.48458166389065 204,344.48458166389065L204,359.42887201944296C112,359.42887201944296 112,268.59690681845115 20,268.59690681845115Z" style="stroke: rgb(68, 68, 68); stroke-opacity: 1; fill: rgb(180, 4, 38); fill-opacity: 0.5; stroke-width: 0; opacity: 1;"/><path class="sankey-link" d="M632,313.4462060789008C826,313.4462060789008 826,265.2835581739335 1020,265.2835581739335L1020,283.54119717400334C826,283.54119717400334 826,331.70384507897063 632,331.70384507897063Z" style="stroke: rgb(68, 68, 68); stroke-opacity: 1; fill: rgb(247, 185, 158); fill-opacity: 0.5; stroke-width: 0; opacity: 1;"/><path class="sankey-link" d="M428,278.7386060643326C724,278.7386060643326 724,231.50452509217817 1020,231.50452509217817L1020,255.11346878276717C724,255.11346878276717 724,302.34754975492166 428,302.34754975492166Z" style="stroke: rgb(68, 68, 68); stroke-opacity: 1; fill: rgb(180, 4, 38); fill-opacity: 0.5; stroke-width: 0; opacity: 1;"/><path class="sankey-link" d="M836,252.491031675506C928,252.491031675506 928,223.76403575179432 1020,223.76403575179432L1020,231.5045250921782C928,231.5045250921782 928,260.2315210158899 836,260.2315210158899Z" style="stroke: rgb(68, 68, 68); stroke-opacity: 1; fill: rgb(59, 76, 192); fill-opacity: 0.5; stroke-width: 0; opacity: 1;"/><path class="sankey-link" d="M632,300.1016769102891C826,300.1016769102891 826,255.11346878276717 1020,255.11346878276717L1020,265.28355817393344C826,265.28355817393344 826,310.27176630145533 632,310.27176630145533Z" style="stroke: rgb(68, 68, 68); stroke-opacity: 1; fill: rgb(107, 141, 240); fill-opacity: 0.5; stroke-width: 0; opacity: 1;"/></g><g class="sankey-node-set" style="cursor: move;"><g class="sankey-node" transform="translate(612.000,246.094)" style="opacity: 1;"><rect class="node-rect" width="20" height="15.11654117102205" style="stroke-width: 2; stroke: rgb(255, 255, 255); stroke-opacity: 1; fill: rgb(247, 185, 158); fill-opacity: 0.5;"/><text class="node-label" data-notex="1" x="0" y="0" text-anchor="start" transform="translate(24,12.808270585511025)" style="cursor: default; font-family: Arial; font-size: 15px; fill: rgb(42, 63, 95); fill-opacity: 1; white-space: pre; text-shadow: white 1px 1px 1px, white -1px -1px 1px, white 1px -1px 1px, white -1px 1px 1px;">Apoptosis</text></g><g class="sankey-node" transform="translate(204.000,246.180)" style="opacity: 1;"><rect class="node-rect" width="20" height="14.944290355551914" style="stroke-width: 2; stroke: rgb(255, 255, 255); stroke-opacity: 1; fill: rgb(59, 76, 192); fill-opacity: 0.5;"/><text class="node-label" data-notex="1" x="0" y="0" text-anchor="start" transform="translate(24,12.722145177775957)" style="cursor: default; font-family: Arial; font-size: 15px; fill: rgb(42, 63, 95); fill-opacity: 1; white-space: pre; text-shadow: white 1px 1px 1px, white -1px -1px 1px, white 1px -1px 1px, white -1px 1px 1px;">Apoptotic cleavage of cellular proteins</text></g><g class="sankey-node" transform="translate(1020.000,223.764)" style="opacity: 1;"><rect class="node-rect" width="20" height="59.777161422209076" style="stroke-width: 2; stroke: rgb(255, 255, 255); stroke-opacity: 1; fill: rgb(0, 0, 0); fill-opacity: 1;"/><text class="node-label" data-notex="1" x="0" y="0" text-anchor="end" transform="translate(-4,35.13858071110454)" style="cursor: default; font-family: Arial; font-size: 15px; fill: rgb(42, 63, 95); fill-opacity: 1; white-space: pre; text-shadow: white 1px 1px 1px, white -1px -1px 1px, white 1px -1px 1px, white -1px 1px 1px;">Output</text></g><g class="sankey-node" transform="translate(0.000,223.764)" style="opacity: 1;"><rect class="node-rect" width="20" height="59.777161422209076" style="stroke-width: 2; stroke: rgb(255, 255, 255); stroke-opacity: 1; fill: rgb(180, 4, 38); fill-opacity: 0.5;"/><text class="node-label" data-notex="1" x="0" y="0" text-anchor="start" transform="translate(24,35.13858071110454)" style="cursor: default; font-family: Arial; font-size: 15px; fill: rgb(42, 63, 95); fill-opacity: 1; white-space: pre; text-shadow: white 1px 1px 1px, white -1px -1px 1px, white 1px -1px 1px, white -1px 1px 1px;">GELS</text></g><g class="sankey-node" transform="translate(204.000,281.125)" style="opacity: 1;"><rect class="node-rect" width="20" height="43.35982604528533" style="stroke-width: 2; stroke: rgb(255, 255, 255); stroke-opacity: 1; fill: rgb(180, 4, 38); fill-opacity: 0.5;"/><text class="node-label" data-notex="1" x="0" y="0" text-anchor="start" transform="translate(24,26.929913022642666)" style="cursor: default; font-family: Arial; font-size: 15px; fill: rgb(42, 63, 95); fill-opacity: 1; white-space: pre; text-shadow: white 1px 1px 1px, white -1px -1px 1px, white 1px -1px 1px, white -1px 1px 1px;">Amyloid fiber formation</text></g><g class="sankey-node" transform="translate(816.000,252.491)" style="opacity: 1;"><rect class="node-rect" width="20" height="15.116541171022106" style="stroke-width: 2; stroke: rgb(255, 255, 255); stroke-opacity: 1; fill: rgb(59, 76, 192); fill-opacity: 0.5;"/><text class="node-label" data-notex="1" x="0" y="0" text-anchor="start" transform="translate(24,12.808270585511053)" style="cursor: default; font-family: Arial; font-size: 15px; fill: rgb(42, 63, 95); fill-opacity: 1; white-space: pre; text-shadow: white 1px 1px 1px, white -1px -1px 1px, white 1px -1px 1px, white -1px 1px 1px;">Programmed Cell Death</text></g><g class="sankey-node" transform="translate(408.000,278.739)" style="opacity: 1;"><rect class="node-rect" width="20" height="23.608943690589058" style="stroke-width: 2; stroke: rgb(255, 255, 255); stroke-opacity: 1; fill: rgb(180, 4, 38); fill-opacity: 0.5;"/><text class="node-label" data-notex="1" x="0" y="0" text-anchor="start" transform="translate(24,17.05447184529453)" style="cursor: default; font-family: Arial; font-size: 15px; fill: rgb(42, 63, 95); fill-opacity: 1; white-space: pre; text-shadow: white 1px 1px 1px, white -1px -1px 1px, white 1px -1px 1px, white -1px 1px 1px;">Metabolism of proteins</text></g><g class="sankey-node" transform="translate(204.000,344.485)" style="opacity: 1;"><rect class="node-rect" width="20" height="37.356503556318785" style="stroke-width: 2; stroke: rgb(255, 255, 255); stroke-opacity: 1; fill: rgb(180, 4, 38); fill-opacity: 0.5;"/><text class="node-label" data-notex="1" x="0" y="0" text-anchor="start" transform="translate(24,23.928251778159392)" style="cursor: default; font-family: Arial; font-size: 15px; fill: rgb(42, 63, 95); fill-opacity: 1; white-space: pre; text-shadow: white 1px 1px 1px, white -1px -1px 1px, white 1px -1px 1px, white -1px 1px 1px;">Sensory processing of sound by outer hair cells of the cochlea</text></g><g class="sankey-node" transform="translate(612.000,300.102)" style="opacity: 1;"><rect class="node-rect" width="20" height="10.433705042413976" style="stroke-width: 2; stroke: rgb(255, 255, 255); stroke-opacity: 1; fill: rgb(107, 141, 240); fill-opacity: 0.5;"/><text class="node-label" data-notex="1" x="0" y="0" text-anchor="start" transform="translate(24,10.466852521206988)" style="cursor: default; font-family: Arial; font-size: 15px; fill: rgb(42, 63, 95); fill-opacity: 1; white-space: pre; text-shadow: white 1px 1px 1px, white -1px -1px 1px, white 1px -1px 1px, white -1px 1px 1px;">Sensory Perception</text></g><g class="sankey-node" transform="translate(408.000,322.348)" style="opacity: 1;"><rect class="node-rect" width="20" height="24.890788052202765" style="stroke-width: 2; stroke: rgb(255, 255, 255); stroke-opacity: 1; fill: rgb(59, 76, 192); fill-opacity: 0.5;"/><text class="node-label" data-notex="1" x="0" y="0" text-anchor="start" transform="translate(24,17.695394026101383)" style="cursor: default; font-family: Arial; font-size: 15px; fill: rgb(42, 63, 95); fill-opacity: 1; white-space: pre; text-shadow: white 1px 1px 1px, white -1px -1px 1px, white 1px -1px 1px, white -1px 1px 1px;">Sensory processing of sound</text></g><g class="sankey-node" transform="translate(408.000,367.238)" style="opacity: 1;"><rect class="node-rect" width="20" height="24.714376303544213" style="stroke-width: 2; stroke: rgb(255, 255, 255); stroke-opacity: 1; fill: rgb(216, 86, 70); fill-opacity: 0.5;"/><text class="node-label" data-notex="1" x="0" y="0" text-anchor="start" transform="translate(24,17.607188151772107)" style="cursor: default; font-family: Arial; font-size: 15px; fill: rgb(42, 63, 95); fill-opacity: 1; white-space: pre; text-shadow: white 1px 1px 1px, white -1px -1px 1px, white 1px -1px 1px, white -1px 1px 1px;">Innate Immunity</text></g><g class="sankey-node" transform="translate(204.000,401.841)" style="opacity: 1;"><rect class="node-rect" width="20" height="41.80273348080152" style="stroke-width: 2; stroke: rgb(255, 255, 255); stroke-opacity: 1; fill: rgb(184, 18, 42); fill-opacity: 0.5;"/><text class="node-label" data-notex="1" x="0" y="0" text-anchor="start" transform="translate(24,26.15136674040076)" style="cursor: default; font-family: Arial; font-size: 15px; fill: rgb(42, 63, 95); fill-opacity: 1; white-space: pre; text-shadow: white 1px 1px 1px, white -1px -1px 1px, white 1px -1px 1px, white -1px 1px 1px;">Neutrophil degranulation</text></g><g class="sankey-node" transform="translate(408.000,248.567)" style="opacity: 1;"><rect class="node-rect" width="20" height="10.171997066462211" style="stroke-width: 2; stroke: rgb(255, 255, 255); stroke-opacity: 1; fill: rgb(59, 76, 192); fill-opacity: 0.5;"/><text class="node-label" data-notex="1" x="0" y="0" text-anchor="start" transform="translate(24,10.335998533231106)" style="cursor: default; font-family: Arial; font-size: 15px; fill: rgb(42, 63, 95); fill-opacity: 1; white-space: pre; text-shadow: white 1px 1px 1px, white -1px -1px 1px, white 1px -1px 1px, white -1px 1px 1px;">Apoptotic execution phase</text></g><g class="sankey-node" transform="translate(612.000,313.446)" style="opacity: 1;"><rect class="node-rect" width="20" height="18.257639000069844" style="stroke-width: 2; stroke: rgb(255, 255, 255); stroke-opacity: 1; fill: rgb(247, 185, 158); fill-opacity: 0.5;"/><text class="node-label" data-notex="1" x="0" y="0" text-anchor="start" transform="translate(24,14.378819500034922)" style="cursor: default; font-family: Arial; font-size: 15px; fill: rgb(42, 63, 95); fill-opacity: 1; white-space: pre; text-shadow: white 1px 1px 1px, white -1px -1px 1px, white 1px -1px 1px, white -1px 1px 1px;">Immune System</text></g></g></g><defs id="topdefs-7f16b7"><g class="clips"/></defs><g class="layer-above"><g class="imagelayer"/><g class="shapelayer"/></g><g class="infolayer"><g class="g-gtitle"/><g class="first-render"/></g></svg>