<svg class="main-svg" xmlns="http://www.w3.org/2000/svg" xmlns:xlink="http://www.w3.org/1999/xlink" width="3000" height="2000" style="" viewBox="0 0 1200 800"><rect x="0" y="0" width="1200" height="800" style="fill: rgb(255, 255, 255); fill-opacity: 1;"/><defs id="defs-5384e2"><g class="clips"/><g class="gradients"/><g class="patterns"/></defs><g class="bglayer"/><g class="layer-below"><g class="imagelayer"/><g class="shapelayer"/></g><g class="cartesianlayer"/><g class="polarlayer"/><g class="smithlayer"/><g class="ternarylayer"/><g class="geolayer"/><g class="funnelarealayer"/><g class="pielayer"/><g class="iciclelayer"/><g class="treemaplayer"/><g class="sunburstlayer"/><g class="glimages"/><g class="sankey" transform="translate(80,100)matrix(1 0 0 1 0 0)" style="box-sizing: content-box; position: absolute; left: 0px; shape-rendering: geometricprecision; pointer-events: auto;"><g class="sankey-links" style="fill: none;"><path class="sankey-link" d="M20,592.3562786571326C265,592.3562786571326 265,612.3562786571326 510,612.3562786571326L510,618.9097183897538C265,618.9097183897538 265,598.9097183897538 20,598.9097183897538Z" style="stroke: rgb(68, 68, 68); stroke-opacity: 1; fill: rgb(88, 117, 225); fill-opacity: 0.5; stroke-width: 0; opacity: 1;"/><path class="sankey-link" d="M20,550.5750160351608C265,550.5750160351608 265,420.6668518584851 510,420.6668518584851L510,421.9957287252977C265,421.9957287252977 265,551.9038929019734 20,551.9038929019734Z" style="stroke: rgb(68, 68, 68); stroke-opacity: 1; fill: rgb(62, 81, 197); fill-opacity: 0.5; stroke-width: 0; opacity: 1;"/><path class="sankey-link" d="M20,251.14053880367294C265,251.14053880367294 265,172.69151759609846 510,172.69151759609846L510,210.57255431329688C265,210.57255431329688 265,289.02157552087135 20,289.02157552087135Z" style="stroke: rgb(68, 68, 68); stroke-opacity: 1; fill: rgb(242, 203, 183); fill-opacity: 0.5; stroke-width: 0; opacity: 1;"/><path class="sankey-link" d="M20,289.02157552087135C265,289.02157552087135 265,538.8224223724721 510,538.8224223724721L510,576.7034590896706C265,576.7034590896706 265,326.90261223806976 20,326.90261223806976Z" style="stroke: rgb(68, 68, 68); stroke-opacity: 1; fill: rgb(242, 203, 183); fill-opacity: 0.5; stroke-width: 0; opacity: 1;"/><path class="sankey-link" d="M20,346.9026122380702C265,346.9026122380702 265,210.5725543132969 510,210.5725543132969L510,221.19379735669787C265,221.19379735669787 265,357.5238552814711 20,357.5238552814711Z" style="stroke: rgb(68, 68, 68); stroke-opacity: 1; fill: rgb(110, 144, 242); fill-opacity: 0.5; stroke-width: 0; opacity: 1;"/><path class="sankey-link" d="M20,188.6003837243813C265,188.6003837243813 265,442.44811448045704 510,442.44811448045704L510,484.98826955974874C265,484.98826955974874 265,231.140538803673 20,231.140538803673Z" style="stroke: rgb(68, 68, 68); stroke-opacity: 1; fill: rgb(247, 181, 153); fill-opacity: 0.5; stroke-width: 0; opacity: 1;"/><path class="sankey-link" d="M20,146.06022864508958C265,146.06022864508958 265,130.15136251680678 510,130.15136251680678L510,172.6915175960985C265,172.6915175960985 265,188.6003837243813 20,188.6003837243813Z" style="stroke: rgb(68, 68, 68); stroke-opacity: 1; fill: rgb(247, 181, 153); fill-opacity: 0.5; stroke-width: 0; opacity: 1;"/><path class="sankey-link" d="M20,-5.684341886080801e-13C265,-5.684341886080801e-13 265,67.12124819426174 510,67.12124819426174L510,130.15136251680678C265,130.15136251680678 265,63.03011432254449 20,63.03011432254449Z" style="stroke: rgb(68, 68, 68); stroke-opacity: 1; fill: rgb(180, 4, 38); fill-opacity: 0.5; stroke-width: 0; opacity: 1;"/><path class="sankey-link" d="M20,63.0301143225445C265,63.0301143225445 265,348.9506994467832 510,348.9506994467832L510,411.9808137693282C265,411.9808137693282 265,126.06022864508955 20,126.06022864508955Z" style="stroke: rgb(68, 68, 68); stroke-opacity: 1; fill: rgb(180, 4, 38); fill-opacity: 0.5; stroke-width: 0; opacity: 1;"/><path class="sankey-link" d="M20,390.5833388110798C265,390.5833388110798 265,484.9882695597487 510,484.9882695597487L510,498.04775308935734C265,498.04775308935734 265,403.64282234068844 20,403.64282234068844Z" style="stroke: rgb(68, 68, 68); stroke-opacity: 1; fill: rgb(123, 159, 249); fill-opacity: 0.5; stroke-width: 0; opacity: 1;"/><path class="sankey-link" d="M20,377.5238552814711C265,377.5238552814711 265,221.19379735669784 510,221.19379735669784L510,234.2532808863065C265,234.2532808863065 265,390.5833388110798 20,390.5833388110798Z" style="stroke: rgb(68, 68, 68); stroke-opacity: 1; fill: rgb(123, 159, 249); fill-opacity: 0.5; stroke-width: 0; opacity: 1;"/><path class="sankey-link" d="M20,403.64282234068844C265,403.64282234068844 265,576.7034590896706 510,576.7034590896706L510,589.7629426192791C265,589.7629426192791 265,416.7023058702971 20,416.7023058702971Z" style="stroke: rgb(68, 68, 68); stroke-opacity: 1; fill: rgb(123, 159, 249); fill-opacity: 0.5; stroke-width: 0; opacity: 1;"/><path class="sankey-link" d="M20,436.7023058702971C265,436.7023058702971 265,234.2532808863065 510,234.2532808863065L510,248.68221050940858C265,248.68221050940858 265,451.13123549339923 20,451.13123549339923Z" style="stroke: rgb(68, 68, 68); stroke-opacity: 1; fill: rgb(132, 167, 252); fill-opacity: 0.5; stroke-width: 0; opacity: 1;"/><path class="sankey-link" d="M20,451.1312354933992C265,451.1312354933992 265,589.7629426192792 510,589.7629426192792L510,604.1918722423812C265,604.1918722423812 265,465.5601651165013 20,465.5601651165013Z" style="stroke: rgb(68, 68, 68); stroke-opacity: 1; fill: rgb(132, 167, 252); fill-opacity: 0.5; stroke-width: 0; opacity: 1;"/><path class="sankey-link" d="M20,514.2462032056583C265,514.2462032056583 265,248.6822105094086 510,248.6822105094086L510,256.8466169241599C265,256.8466169241599 265,522.4106096204096 20,522.4106096204096Z" style="stroke: rgb(68, 68, 68); stroke-opacity: 1; fill: rgb(97, 128, 233); fill-opacity: 0.5; stroke-width: 0; opacity: 1;"/><path class="sankey-link" d="M20,522.4106096204096C265,522.4106096204096 265,604.1918722423814 510,604.1918722423814L510,612.3562786571326C265,612.3562786571326 265,530.5750160351608 20,530.5750160351608Z" style="stroke: rgb(68, 68, 68); stroke-opacity: 1; fill: rgb(97, 128, 233); fill-opacity: 0.5; stroke-width: 0; opacity: 1;"/><path class="sankey-link" d="M20,571.9038929019734C265,571.9038929019734 265,421.9957287252977 510,421.9957287252977L510,422.44811448045687C265,422.44811448045687 265,572.3562786571326 20,572.3562786571326Z" style="stroke: rgb(59, 76, 192); stroke-opacity: 0.5; fill: rgb(59, 76, 192); fill-opacity: 0.5; stroke-width: 1; opacity: 1;"/><path class="sankey-link" d="M20,618.9097183897538C265,618.9097183897538 265,618.9097183897538 510,618.9097183897538L510,620C265,620 265,620 20,620Z" style="stroke: rgb(68, 68, 68); stroke-opacity: 1; fill: rgb(61, 80, 195); fill-opacity: 0.5; stroke-width: 0; opacity: 1;"/><path class="sankey-link" d="M20,485.56016511650137C265,485.56016511650137 265,411.9808137693282 510,411.9808137693282L510,420.66685185848513C265,420.66685185848513 265,494.2462032056583 20,494.2462032056583Z" style="stroke: rgb(68, 68, 68); stroke-opacity: 1; fill: rgb(99, 132, 235); fill-opacity: 0.5; stroke-width: 0; opacity: 1;"/><path class="sankey-link" d="M530,442.44811448045704C775,442.44811448045704 775,387.18072020047725 1020,387.18072020047725L1020,463.55502809249265C775,463.55502809249265 775,518.8224223724724 530,518.8224223724724Z" style="stroke: rgb(68, 68, 68); stroke-opacity: 1; fill: rgb(125, 160, 249); fill-opacity: 0.5; stroke-width: 0; opacity: 1;"/><path class="sankey-link" d="M530,67.12124819426171C775,67.12124819426171 775,97.3553069475704 1020,97.3553069475704L1020,359.1847582000923C775,359.1847582000923 775,328.9506994467836 530,328.9506994467836Z" style="stroke: rgb(68, 68, 68); stroke-opacity: 1; fill: rgb(180, 4, 38); fill-opacity: 0.5; stroke-width: 0; opacity: 1;"/><path class="sankey-link" d="M530,538.8224223724721C775,538.8224223724721 775,463.55502809249265 1020,463.55502809249265L1020,497.3553069475705C775,497.3553069475705 775,572.6227012275499 530,572.6227012275499Z" style="stroke: rgb(68, 68, 68); stroke-opacity: 1; fill: rgb(66, 87, 201); fill-opacity: 0.5; stroke-width: 0; opacity: 1;"/><path class="sankey-link" d="M530,348.9506994467832C775,348.9506994467832 775,359.1847582000923 1020,359.1847582000923L1020,387.1807202004772C775,387.1807202004772 775,376.9466614471681 530,376.9466614471681Z" style="stroke: rgb(68, 68, 68); stroke-opacity: 1; fill: rgb(59, 76, 192); fill-opacity: 0.5; stroke-width: 0; opacity: 1;"/></g><g class="sankey-node-set" style="cursor: move;"><g class="sankey-node" transform="translate(0.000,485.560)" style="opacity: 1;"><rect class="node-rect" width="20" height="8.68603808915691" style="stroke-width: 2; stroke: rgb(255, 255, 255); stroke-opacity: 1; fill: rgb(99, 132, 235); fill-opacity: 0.5;"/><text class="node-label" data-notex="1" x="0" y="0" text-anchor="start" transform="translate(24,9.593019044578455)" style="cursor: default; font-family: Arial; font-size: 15px; fill: rgb(42, 63, 95); fill-opacity: 1; white-space: pre; text-shadow: white 1px 1px 1px, white -1px -1px 1px, white 1px -1px 1px, white -1px 1px 1px;">PDIA1</text></g><g class="sankey-node" transform="translate(0.000,251.141)" style="opacity: 1;"><rect class="node-rect" width="20" height="75.76207343439731" style="stroke-width: 2; stroke: rgb(255, 255, 255); stroke-opacity: 1; fill: rgb(242, 203, 183); fill-opacity: 0.5;"/><text class="node-label" data-notex="1" x="0" y="0" text-anchor="start" transform="translate(24,43.131036717198654)" style="cursor: default; font-family: Arial; font-size: 15px; fill: rgb(42, 63, 95); fill-opacity: 1; white-space: pre; text-shadow: white 1px 1px 1px, white -1px -1px 1px, white 1px -1px 1px, white -1px 1px 1px;">APOA1</text></g><g class="sankey-node" transform="translate(0.000,377.524)" style="opacity: 1;"><rect class="node-rect" width="20" height="39.17845058882597" style="stroke-width: 2; stroke: rgb(255, 255, 255); stroke-opacity: 1; fill: rgb(123, 159, 249); fill-opacity: 0.5;"/><text class="node-label" data-notex="1" x="0" y="0" text-anchor="start" transform="translate(24,24.839225294412984)" style="cursor: default; font-family: Arial; font-size: 15px; fill: rgb(42, 63, 95); fill-opacity: 1; white-space: pre; text-shadow: white 1px 1px 1px, white -1px -1px 1px, white 1px -1px 1px, white -1px 1px 1px;">APOC2</text></g><g class="sankey-node" transform="translate(0.000,550.575)" style="opacity: 1;"><rect class="node-rect" width="20" height="1.3288768668126067" style="stroke-width: 2; stroke: rgb(255, 255, 255); stroke-opacity: 1; fill: rgb(62, 81, 197); fill-opacity: 0.5;"/><text class="node-label" data-notex="1" x="0" y="0" text-anchor="start" transform="translate(24,5.914438433406303)" style="cursor: default; font-family: Arial; font-size: 15px; fill: rgb(42, 63, 95); fill-opacity: 1; white-space: pre; text-shadow: white 1px 1px 1px, white -1px -1px 1px, white 1px -1px 1px, white -1px 1px 1px;">APOA</text></g><g class="sankey-node" transform="translate(1020.000,97.355)" style="opacity: 1;"><rect class="node-rect" width="20" height="399.9999999999999" style="stroke-width: 2; stroke: rgb(255, 255, 255); stroke-opacity: 1; fill: rgb(0, 0, 0); fill-opacity: 1;"/><text class="node-label" data-notex="1" x="0" y="0" text-anchor="end" transform="translate(-4,205.24999999999994)" style="cursor: default; font-family: Arial; font-size: 15px; fill: rgb(42, 63, 95); fill-opacity: 1; white-space: pre; text-shadow: white 1px 1px 1px, white -1px -1px 1px, white 1px -1px 1px, white -1px 1px 1px;">Plasma lipoprotein remodeling</text></g><g class="sankey-node" transform="translate(0.000,-0.000)" style="opacity: 1;"><rect class="node-rect" width="20" height="126.06022864509018" style="stroke-width: 2; stroke: rgb(255, 255, 255); stroke-opacity: 1; fill: rgb(180, 4, 38); fill-opacity: 0.5;"/><text class="node-label" data-notex="1" x="0" y="0" text-anchor="start" transform="translate(24,68.28011432254509)" style="cursor: default; font-family: Arial; font-size: 15px; fill: rgb(42, 63, 95); fill-opacity: 1; white-space: pre; text-shadow: white 1px 1px 1px, white -1px -1px 1px, white 1px -1px 1px, white -1px 1px 1px;">APOB</text></g><g class="sankey-node" transform="translate(0.000,346.903)" style="opacity: 1;"><rect class="node-rect" width="20" height="10.62124304340091" style="stroke-width: 2; stroke: rgb(255, 255, 255); stroke-opacity: 1; fill: rgb(110, 144, 242); fill-opacity: 0.5;"/><text class="node-label" data-notex="1" x="0" y="0" text-anchor="start" transform="translate(24,10.560621521700455)" style="cursor: default; font-family: Arial; font-size: 15px; fill: rgb(42, 63, 95); fill-opacity: 1; white-space: pre; text-shadow: white 1px 1px 1px, white -1px -1px 1px, white 1px -1px 1px, white -1px 1px 1px;">APOA2</text></g><g class="sankey-node" transform="translate(510.000,442.448)" style="opacity: 1;"><rect class="node-rect" width="20" height="76.37430789201511" style="stroke-width: 2; stroke: rgb(255, 255, 255); stroke-opacity: 1; fill: rgb(125, 160, 249); fill-opacity: 0.5;"/><text class="node-label" data-notex="1" x="0" y="0" text-anchor="start" transform="translate(24,43.437153946007555)" style="cursor: default; font-family: Arial; font-size: 15px; fill: rgb(42, 63, 95); fill-opacity: 1; white-space: pre; text-shadow: white 1px 1px 1px, white -1px -1px 1px, white 1px -1px 1px, white -1px 1px 1px;">Assembly of active LPL and LIPC lipase complexes</text></g><g class="sankey-node" transform="translate(0.000,571.904)" style="opacity: 1;"><rect class="node-rect" width="20" height="0.5" style="stroke-width: 2; stroke: rgb(255, 255, 255); stroke-opacity: 1; fill: rgb(59, 76, 192); fill-opacity: 0.5;"/><text class="node-label" data-notex="1" x="0" y="0" text-anchor="start" transform="translate(24,5.5)" style="cursor: default; font-family: Arial; font-size: 15px; fill: rgb(42, 63, 95); fill-opacity: 1; white-space: pre; text-shadow: white 1px 1px 1px, white -1px -1px 1px, white 1px -1px 1px, white -1px 1px 1px;">APOF</text></g><g class="sankey-node" transform="translate(510.000,538.822)" style="opacity: 1;"><rect class="node-rect" width="20" height="81.17757762752785" style="stroke-width: 2; stroke: rgb(255, 255, 255); stroke-opacity: 1; fill: rgb(66, 87, 201); fill-opacity: 0.5;"/><text class="node-label" data-notex="1" x="0" y="0" text-anchor="start" transform="translate(24,45.83878881376393)" style="cursor: default; font-family: Arial; font-size: 15px; fill: rgb(42, 63, 95); fill-opacity: 1; white-space: pre; text-shadow: white 1px 1px 1px, white -1px -1px 1px, white 1px -1px 1px, white -1px 1px 1px;">HDL remodeling</text></g><g class="sankey-node" transform="translate(0.000,592.356)" style="opacity: 1;"><rect class="node-rect" width="20" height="6.5534397326212" style="stroke-width: 2; stroke: rgb(255, 255, 255); stroke-opacity: 1; fill: rgb(88, 117, 225); fill-opacity: 0.5;"/><text class="node-label" data-notex="1" x="0" y="0" text-anchor="start" transform="translate(24,8.5267198663106)" style="cursor: default; font-family: Arial; font-size: 15px; fill: rgb(42, 63, 95); fill-opacity: 1; white-space: pre; text-shadow: white 1px 1px 1px, white -1px -1px 1px, white 1px -1px 1px, white -1px 1px 1px;">ALBU</text></g><g class="sankey-node" transform="translate(0.000,436.702)" style="opacity: 1;"><rect class="node-rect" width="20" height="28.85785924620427" style="stroke-width: 2; stroke: rgb(255, 255, 255); stroke-opacity: 1; fill: rgb(132, 167, 252); fill-opacity: 0.5;"/><text class="node-label" data-notex="1" x="0" y="0" text-anchor="start" transform="translate(24,19.678929623102135)" style="cursor: default; font-family: Arial; font-size: 15px; fill: rgb(42, 63, 95); fill-opacity: 1; white-space: pre; text-shadow: white 1px 1px 1px, white -1px -1px 1px, white 1px -1px 1px, white -1px 1px 1px;">APOC3</text></g><g class="sankey-node" transform="translate(510.000,67.121)" style="opacity: 1;"><rect class="node-rect" width="20" height="261.82945125252144" style="stroke-width: 2; stroke: rgb(255, 255, 255); stroke-opacity: 1; fill: rgb(180, 4, 38); fill-opacity: 0.5;"/><text class="node-label" data-notex="1" x="0" y="0" text-anchor="start" transform="translate(24,136.16472562626072)" style="cursor: default; font-family: Arial; font-size: 15px; fill: rgb(42, 63, 95); fill-opacity: 1; white-space: pre; text-shadow: white 1px 1px 1px, white -1px -1px 1px, white 1px -1px 1px, white -1px 1px 1px;">Chylomicron remodeling</text></g><g class="sankey-node" transform="translate(510.000,348.951)" style="opacity: 1;"><rect class="node-rect" width="20" height="73.49741503367386" style="stroke-width: 2; stroke: rgb(255, 255, 255); stroke-opacity: 1; fill: rgb(59, 76, 192); fill-opacity: 0.5;"/><text class="node-label" data-notex="1" x="0" y="0" text-anchor="start" transform="translate(24,41.99870751683693)" style="cursor: default; font-family: Arial; font-size: 15px; fill: rgb(42, 63, 95); fill-opacity: 1; white-space: pre; text-shadow: white 1px 1px 1px, white -1px -1px 1px, white 1px -1px 1px, white -1px 1px 1px;">LDL remodeling</text></g><g class="sankey-node" transform="translate(0.000,618.910)" style="opacity: 1;"><rect class="node-rect" width="20" height="1.0902816102461657" style="stroke-width: 2; stroke: rgb(255, 255, 255); stroke-opacity: 1; fill: rgb(61, 80, 195); fill-opacity: 0.5;"/><text class="node-label" data-notex="1" x="0" y="0" text-anchor="start" transform="translate(24,5.795140805123083)" style="cursor: default; font-family: Arial; font-size: 15px; fill: rgb(42, 63, 95); fill-opacity: 1; white-space: pre; text-shadow: white 1px 1px 1px, white -1px -1px 1px, white 1px -1px 1px, white -1px 1px 1px;">LCAT</text></g><g class="sankey-node" transform="translate(0.000,146.060)" style="opacity: 1;"><rect class="node-rect" width="20" height="85.0803101585833" style="stroke-width: 2; stroke: rgb(255, 255, 255); stroke-opacity: 1; fill: rgb(247, 181, 153); fill-opacity: 0.5;"/><text class="node-label" data-notex="1" x="0" y="0" text-anchor="start" transform="translate(24,47.79015507929165)" style="cursor: default; font-family: Arial; font-size: 15px; fill: rgb(42, 63, 95); fill-opacity: 1; white-space: pre; text-shadow: white 1px 1px 1px, white -1px -1px 1px, white 1px -1px 1px, white -1px 1px 1px;">APOA4</text></g><g class="sankey-node" transform="translate(0.000,514.246)" style="opacity: 1;"><rect class="node-rect" width="20" height="16.328812829502567" style="stroke-width: 2; stroke: rgb(255, 255, 255); stroke-opacity: 1; fill: rgb(97, 128, 233); fill-opacity: 0.5;"/><text class="node-label" data-notex="1" x="0" y="0" text-anchor="start" transform="translate(24,13.414406414751284)" style="cursor: default; font-family: Arial; font-size: 15px; fill: rgb(42, 63, 95); fill-opacity: 1; white-space: pre; text-shadow: white 1px 1px 1px, white -1px -1px 1px, white 1px -1px 1px, white -1px 1px 1px;">APOE</text></g></g></g><defs id="topdefs-5384e2"><g class="clips"/></defs><g class="layer-above"><g class="imagelayer"/><g class="shapelayer"/></g><g class="infolayer"><g class="g-gtitle"/><g class="first-render"/></g></svg>