<svg class="main-svg" xmlns="http://www.w3.org/2000/svg" xmlns:xlink="http://www.w3.org/1999/xlink" width="3000" height="2000" style="" viewBox="0 0 1200 800"><rect x="0" y="0" width="1200" height="800" style="fill: rgb(255, 255, 255); fill-opacity: 1;"/><defs id="defs-dc24f1"><g class="clips"/><g class="gradients"/><g class="patterns"/></defs><g class="bglayer"/><g class="layer-below"><g class="imagelayer"/><g class="shapelayer"/></g><g class="cartesianlayer"/><g class="polarlayer"/><g class="smithlayer"/><g class="ternarylayer"/><g class="geolayer"/><g class="funnelarealayer"/><g class="pielayer"/><g class="iciclelayer"/><g class="treemaplayer"/><g class="sunburstlayer"/><g class="glimages"/><g class="sankey" transform="translate(80,100)matrix(1 0 0 1 0 0)" style="box-sizing: content-box; position: absolute; left: 0px; shape-rendering: geometricprecision; pointer-events: auto;"><g class="sankey-links" style="fill: none;"><path class="sankey-link" d="M20,283.0278332531035C112,283.0278332531035 112,479.48440126222937 204,479.48440126222937L204,484.138225854274C112,484.138225854274 112,287.68165784514815 20,287.68165784514815Z" style="stroke: rgb(68, 68, 68); stroke-opacity: 1; fill: rgb(180, 4, 38); fill-opacity: 0.5; stroke-width: 0; opacity: 1;"/><path class="sankey-link" d="M20,269.06635947696935C112,269.06635947696935 112,392.83907968830493 204,392.83907968830493L204,397.4929042803496C112,397.4929042803496 112,273.720184069014 20,273.720184069014Z" style="stroke: rgb(68, 68, 68); stroke-opacity: 1; fill: rgb(180, 4, 38); fill-opacity: 0.5; stroke-width: 0; opacity: 1;"/><path class="sankey-link" d="M20,264.41253488492464C112,264.41253488492464 112,368.1852550962603 204,368.1852550962603L204,372.83907968830493C112,372.83907968830493 112,269.0663594769693 20,269.0663594769693Z" style="stroke: rgb(68, 68, 68); stroke-opacity: 1; fill: rgb(180, 4, 38); fill-opacity: 0.5; stroke-width: 0; opacity: 1;"/><path class="sankey-link" d="M20,255.10488570083518C112,255.10488570083518 112,312.08348306042313 204,312.08348306042313L204,316.7373076524678C112,316.7373076524678 112,259.75871029287987 20,259.75871029287987Z" style="stroke: rgb(68, 68, 68); stroke-opacity: 1; fill: rgb(180, 4, 38); fill-opacity: 0.5; stroke-width: 0; opacity: 1;"/><path class="sankey-link" d="M20,259.7587102928799C112,259.7587102928799 112,343.5314305042155 204,343.5314305042155L204,348.18525509626016C112,348.18525509626016 112,264.4125348849246 20,264.4125348849246Z" style="stroke: rgb(68, 68, 68); stroke-opacity: 1; fill: rgb(180, 4, 38); fill-opacity: 0.5; stroke-width: 0; opacity: 1;"/><path class="sankey-link" d="M20,245.79723651674578C112,245.79723651674578 112,262.7758338763337 204,262.7758338763337L204,267.42965846837836C112,267.42965846837836 112,250.4510611087905 20,250.4510611087905Z" style="stroke: rgb(68, 68, 68); stroke-opacity: 1; fill: rgb(180, 4, 38); fill-opacity: 0.5; stroke-width: 0; opacity: 1;"/><path class="sankey-link" d="M20,250.4510611087905C112,250.4510611087905 112,287.4296584683784 204,287.4296584683784L204,292.0834830604231C112,292.0834830604231 112,255.1048857008352 20,255.1048857008352Z" style="stroke: rgb(68, 68, 68); stroke-opacity: 1; fill: rgb(180, 4, 38); fill-opacity: 0.5; stroke-width: 0; opacity: 1;"/><path class="sankey-link" d="M20,241.14341192470107C112,241.14341192470107 112,238.1220092842891 204,238.1220092842891L204,242.77583387633382C112,242.77583387633382 112,245.79723651674578 20,245.79723651674578Z" style="stroke: rgb(68, 68, 68); stroke-opacity: 1; fill: rgb(180, 4, 38); fill-opacity: 0.5; stroke-width: 0; opacity: 1;"/><path class="sankey-link" d="M20,278.3740086610588C112,278.3740086610588 112,442.8244139374586 204,442.8244139374586L204,447.47823852950324C112,447.47823852950324 112,283.02783325310344 20,283.02783325310344Z" style="stroke: rgb(68, 68, 68); stroke-opacity: 1; fill: rgb(180, 4, 38); fill-opacity: 0.5; stroke-width: 0; opacity: 1;"/><path class="sankey-link" d="M20,236.48958733265636C112,236.48958733265636 112,208.87445491314205 204,208.87445491314205L204,213.52827950518676C112,213.52827950518676 112,241.14341192470107 20,241.14341192470107Z" style="stroke: rgb(68, 68, 68); stroke-opacity: 1; fill: rgb(180, 4, 38); fill-opacity: 0.5; stroke-width: 0; opacity: 1;"/><path class="sankey-link" d="M20,287.6816578451482C112,287.6816578451482 112,515.7295144741014 204,515.7295144741014L204,520.383339066146C112,520.383339066146 112,292.33548243719287 20,292.33548243719287Z" style="stroke: rgb(68, 68, 68); stroke-opacity: 1; fill: rgb(180, 4, 38); fill-opacity: 0.5; stroke-width: 0; opacity: 1;"/><path class="sankey-link" d="M20,273.72018406901407C112,273.72018406901407 112,418.1705893454138 204,418.1705893454138L204,422.8244139374585C112,422.8244139374585 112,278.3740086610587 20,278.3740086610587Z" style="stroke: rgb(68, 68, 68); stroke-opacity: 1; fill: rgb(180, 4, 38); fill-opacity: 0.5; stroke-width: 0; opacity: 1;"/><path class="sankey-link" d="M 204 486.0444762509933 L199 486.0444762509933A19.685038223108055 19.685038223108055 0 0 0 179.31496177689195 505.7295144741014L179.31496177689195 510.72951447410134A19.685038223108055 19.685038223108055 0 0 0 199 530.4145526972094L229 530.4145526972094A19.685038223108055 19.685038223108055 0 0 0 248.68503822310805 510.72951447410134L248.68503822310805 505.7295144741014A19.685038223108055 19.685038223108055 0 0 0 229 486.0444762509933L224 486.0444762509933L224 495.7295144741014L229 495.7295144741014A10 10 0 0 1 239 505.7295144741014L239 510.72951447410134A10 10 0 0 1 229 520.7295144741014L199 520.7295144741014A10 10 0 0 1 189 510.72951447410134L189 505.7295144741014A10 10 0 0 1 199 495.7295144741014L204 495.7295144741014Z" style="stroke: rgb(68, 68, 68); stroke-opacity: 1; fill: rgb(169, 198, 253); fill-opacity: 0.5; stroke-width: 0; opacity: 1;"/><path class="sankey-link" d="M224,392.83907968830493C316,392.83907968830493 316,424.98479848542826 408,424.98479848542826L408,430.316308142537C316,430.316308142537 316,398.1705893454137 224,398.1705893454137Z" style="stroke: rgb(68, 68, 68); stroke-opacity: 1; fill: rgb(211, 219, 231); fill-opacity: 0.5; stroke-width: 0; opacity: 1;"/><path class="sankey-link" d="M224,368.1852550962603C316,368.1852550962603 316,404.57260322360463 408,404.57260322360463L408,404.65743045972266C316,404.65743045972266 316,368.2700823323783 224,368.2700823323783Z" style="stroke: rgb(59, 76, 192); stroke-opacity: 0.5; fill: rgb(59, 76, 192); fill-opacity: 0.5; stroke-width: 1; opacity: 1;"/><path class="sankey-link" d="M224,312.08348306042313C316,312.08348306042313 316,367.2852101696754 408,367.2852101696754L408,378.73315761346777C316,378.73315761346777 316,323.5314305042155 224,323.5314305042155Z" style="stroke: rgb(68, 68, 68); stroke-opacity: 1; fill: rgb(180, 4, 38); fill-opacity: 0.5; stroke-width: 0; opacity: 1;"/><path class="sankey-link" d="M224,343.5314305042155C316,343.5314305042155 316,378.73315761346777 408,378.73315761346777L408,380.1873186824352C316,380.1873186824352 316,344.98559157318294 224,344.98559157318294Z" style="stroke: rgb(68, 68, 68); stroke-opacity: 1; fill: rgb(95, 127, 232); fill-opacity: 0.5; stroke-width: 0; opacity: 1;"/><path class="sankey-link" d="M224,262.7758338763337C316,262.7758338763337 316,283.42094397233507 408,283.42094397233507L408,286.368668818321C316,286.368668818321 316,265.72355872231964 224,265.72355872231964Z" style="stroke: rgb(68, 68, 68); stroke-opacity: 1; fill: rgb(141, 176, 254); fill-opacity: 0.5; stroke-width: 0; opacity: 1;"/><path class="sankey-link" d="M224,287.4296584683784C316,287.4296584683784 316,308.83657950151394 408,308.83657950151394L408,309.2459189073886C316,309.2459189073886 316,287.8389978742531 224,287.8389978742531Z" style="stroke: rgb(67, 88, 203); stroke-opacity: 0.5; fill: rgb(67, 88, 203); fill-opacity: 0.5; stroke-width: 1; opacity: 1;"/><path class="sankey-link" d="M 204 238.1220092842891 L199 238.1220092842891A13.783458554176612 13.783458554176612 0 0 1 185.2165414458234 224.3385507301125L185.2165414458234 219.3385507301125A13.783458554176612 13.783458554176612 0 0 1 199 205.5550921759359L229 205.5550921759359A13.783458554176612 13.783458554176612 0 0 1 242.7834585541766 219.3385507301125L242.7834585541766 224.3385507301125A13.783458554176612 13.783458554176612 0 0 1 229 238.1220092842891L224 238.1220092842891L224 234.3385507301125L229 234.3385507301125A10 10 0 0 0 239 224.3385507301125L239 219.3385507301125A10 10 0 0 0 229 209.3385507301125L199 209.3385507301125A10 10 0 0 0 189 219.3385507301125L189 224.3385507301125A10 10 0 0 0 199 234.3385507301125L204 234.3385507301125Z" style="stroke: rgb(68, 68, 68); stroke-opacity: 1; fill: rgb(125, 160, 249); fill-opacity: 0.5; stroke-width: 0; opacity: 1;"/><path class="sankey-link" d="M 204 450.5937220023821 L199 450.5937220023821A18.890679259847296 18.890679259847296 0 0 0 180.10932074015273 469.48440126222937L180.10932074015273 474.48440126222937A18.890679259847296 18.890679259847296 0 0 0 199 493.37508052207664L229 493.37508052207664A18.890679259847296 18.890679259847296 0 0 0 247.89067925984727 474.48440126222937L247.89067925984727 469.48440126222937A18.890679259847296 18.890679259847296 0 0 0 229 450.5937220023821L224 450.5937220023821L224 459.48440126222937L229 459.48440126222937A10 10 0 0 1 239 469.48440126222937L239 474.48440126222937A10 10 0 0 1 229 484.48440126222937L199 484.48440126222937A10 10 0 0 1 189 474.48440126222937L189 469.48440126222937A10 10 0 0 1 199 459.48440126222937L204 459.48440126222937Z" style="stroke: rgb(68, 68, 68); stroke-opacity: 1; fill: rgb(188, 210, 247); fill-opacity: 0.5; stroke-width: 0; opacity: 1;"/><path class="sankey-link" d="M224,211.93592627652603C316,211.93592627652603 316,261.0183195187485 408,261.0183195187485L408,263.42094397233507C316,263.42094397233507 316,214.33855073011253 224,214.33855073011253Z" style="stroke: rgb(68, 68, 68); stroke-opacity: 1; fill: rgb(111, 146, 243); fill-opacity: 0.5; stroke-width: 0; opacity: 1;"/><path class="sankey-link" d="M 204 208.87445491314202 L199 208.87445491314202A12.402624453586515 12.402624453586515 0 0 1 186.5973755464135 196.47183045955552L186.5973755464135 191.47183045955552A12.402624453586515 12.402624453586515 0 0 1 199 179.06920600596902L229 179.06920600596902A12.402624453586515 12.402624453586515 0 0 1 241.4026244535865 191.47183045955552L241.4026244535865 196.47183045955552A12.402624453586515 12.402624453586515 0 0 1 229 208.87445491314202L224 208.87445491314202L224 206.47183045955552L229 206.47183045955552A10 10 0 0 0 239 196.47183045955552L239 191.47183045955552A10 10 0 0 0 229 181.47183045955552L199 181.47183045955552A10 10 0 0 0 189 191.47183045955552L189 196.47183045955552A10 10 0 0 0 199 206.47183045955552L204 206.47183045955552Z" style="stroke: rgb(68, 68, 68); stroke-opacity: 1; fill: rgb(111, 146, 243); fill-opacity: 0.5; stroke-width: 0; opacity: 1;"/><path class="sankey-link" d="M 204 522.1179962947546 L199 522.1179962947546A16.70707347509451 16.70707347509451 0 0 0 182.2929265249055 538.8250697698492L182.2929265249055 543.8250697698492A16.70707347509451 16.70707347509451 0 0 0 199 560.5321432449438L229 560.5321432449438A16.70707347509451 16.70707347509451 0 0 0 245.7070734750945 543.8250697698492L245.7070734750945 538.8250697698492A16.70707347509451 16.70707347509451 0 0 0 229 522.1179962947546L224 522.1179962947546L224 528.8250697698492L229 528.8250697698492A10 10 0 0 1 239 538.8250697698492L239 543.8250697698492A10 10 0 0 1 229 553.8250697698492L199 553.8250697698492A10 10 0 0 1 189 543.8250697698492L189 538.8250697698492A10 10 0 0 1 199 528.8250697698492L204 528.8250697698492Z" style="stroke: rgb(68, 68, 68); stroke-opacity: 1; fill: rgb(179, 205, 251); fill-opacity: 0.5; stroke-width: 0; opacity: 1;"/><path class="sankey-link" d="M224,418.1705893454138C316,418.1705893454138 316,488.8610513542322 408,488.8610513542322L408,489.15993838152195C316,489.15993838152195 316,418.4694763727036 224,418.4694763727036Z" style="stroke: rgb(63, 83, 198); stroke-opacity: 0.5; fill: rgb(63, 83, 198); fill-opacity: 0.5; stroke-width: 1; opacity: 1;"/><path class="sankey-link" d="M224,479.48440126222937C418,479.48440126222937 418,353.18039677835077 612,353.18039677835077L612,359.7404717671145C418,359.7404717671145 418,486.0444762509931 224,486.0444762509931Z" style="stroke: rgb(68, 68, 68); stroke-opacity: 1; fill: rgb(169, 198, 253); fill-opacity: 0.5; stroke-width: 0; opacity: 1;"/><path class="sankey-link" d="M428,459.738959822042C520,459.738959822042 520,379.7404717671145 612,379.7404717671145L612,388.8625632993047C520,388.8625632993047 520,468.8610513542322 428,468.8610513542322Z" style="stroke: rgb(68, 68, 68); stroke-opacity: 1; fill: rgb(210, 219, 232); fill-opacity: 0.5; stroke-width: 0; opacity: 1;"/><path class="sankey-link" d="M632,273.8651189439611C724,273.8651189439611 724,230.94272855707794 816,230.94272855707794L816,231.01322845731477C724,231.01322845731477 724,273.93561884419785 632,273.93561884419785Z" style="stroke: rgb(59, 76, 192); stroke-opacity: 0.5; fill: rgb(59, 76, 192); fill-opacity: 0.5; stroke-width: 1; opacity: 1;"/><path class="sankey-link" d="M632,410.79822354587213C724,410.79822354587213 724,268.92331368999425 816,268.92331368999425L816,288.7488899666758C724,288.7488899666758 724,430.6237998225537 632,430.6237998225537Z" style="stroke: rgb(68, 68, 68); stroke-opacity: 1; fill: rgb(180, 4, 38); fill-opacity: 0.5; stroke-width: 0; opacity: 1;"/><path class="sankey-link" d="M428,329.2459189073886C520,329.2459189073886 520,342.58260120372665 612,342.58260120372665L612,345.41108871342715C520,345.41108871342715 520,332.0744064170891 428,332.0744064170891Z" style="stroke: rgb(68, 68, 68); stroke-opacity: 1; fill: rgb(102, 135, 237); fill-opacity: 0.5; stroke-width: 0; opacity: 1;"/><path class="sankey-link" d="M632,463.2519731982386C724,463.2519731982386 724,355.69620204693155 816,355.69620204693155L816,357.75717217045013C724,357.75717217045013 724,465.3129433217572 632,465.3129433217572Z" style="stroke: rgb(68, 68, 68); stroke-opacity: 1; fill: rgb(89, 119, 227); fill-opacity: 0.5; stroke-width: 0; opacity: 1;"/><path class="sankey-link" d="M224,442.8244139374586C418,442.8244139374586 418,345.4110887134272 612,345.4110887134272L612,353.1803967783507C418,353.1803967783507 418,450.5937220023821 224,450.5937220023821Z" style="stroke: rgb(68, 68, 68); stroke-opacity: 1; fill: rgb(188, 210, 247); fill-opacity: 0.5; stroke-width: 0; opacity: 1;"/><path class="sankey-link" d="M632,294.65659053724903C724,294.65659053724903 724,289.6314895324572 816,289.6314895324572L816,293.3602506329513C724,293.3602506329513 724,298.38535163774316 632,298.38535163774316Z" style="stroke: rgb(68, 68, 68); stroke-opacity: 1; fill: rgb(118, 153, 246); fill-opacity: 0.5; stroke-width: 0; opacity: 1;"/><path class="sankey-link" d="M632,320.072226066428C724,320.072226066428 724,293.36025063295136 816,293.36025063295136L816,295.87062577025C724,295.87062577025 724,322.58260120372665 632,322.58260120372665Z" style="stroke: rgb(68, 68, 68); stroke-opacity: 1; fill: rgb(97, 128, 233); fill-opacity: 0.5; stroke-width: 0; opacity: 1;"/><path class="sankey-link" d="M428,237.95684815536458C520,237.95684815536458 520,250.11682838560228 612,250.11682838560228L612,251.48657885633088C520,251.48657885633088 520,239.3265986260932 428,239.3265986260932Z" style="stroke: rgb(68, 68, 68); stroke-opacity: 1; fill: rgb(78, 104, 216); fill-opacity: 0.5; stroke-width: 0; opacity: 1;"/><path class="sankey-link" d="M836,355.69620204693155C928,355.69620204693155 928,287.8761716260155 1020,287.8761716260155L1020,292.33548243719275C928,292.33548243719275 928,360.1555128581088 836,360.1555128581088Z" style="stroke: rgb(68, 68, 68); stroke-opacity: 1; fill: rgb(78, 104, 216); fill-opacity: 0.5; stroke-width: 0; opacity: 1;"/><path class="sankey-link" d="M836,230.94272855707794C928,230.94272855707794 928,236.48958733265636 1020,236.48958733265636L1020,245.64779246752528C928,245.64779246752528 928,240.10093369194686 836,240.10093369194686Z" style="stroke: rgb(68, 68, 68); stroke-opacity: 1; fill: rgb(219, 220, 222); fill-opacity: 0.5; stroke-width: 0; opacity: 1;"/><path class="sankey-link" d="M632,342.58260120372665C826,342.58260120372665 826,269.6457190048139 1020,269.6457190048139L1020,276.81841984725787C826,276.81841984725787 826,349.75530204617064 632,349.75530204617064Z" style="stroke: rgb(68, 68, 68); stroke-opacity: 1; fill: rgb(162, 193, 255); fill-opacity: 0.5; stroke-width: 0; opacity: 1;"/><path class="sankey-link" d="M632,250.11682838560228C826,250.11682838560228 826,245.64779246752528 1020,245.64779246752528L1020,249.39608302588408C826,249.39608302588408 826,253.86511894396108 632,253.86511894396108Z" style="stroke: rgb(68, 68, 68); stroke-opacity: 1; fill: rgb(59, 76, 192); fill-opacity: 0.5; stroke-width: 0; opacity: 1;"/><path class="sankey-link" d="M836,289.6314895324572C928,289.6314895324572 928,264.1266233010731 1020,264.1266233010731L1020,269.64571900481394C928,269.64571900481394 928,295.150585236198 836,295.150585236198Z" style="stroke: rgb(68, 68, 68); stroke-opacity: 1; fill: rgb(110, 144, 242); fill-opacity: 0.5; stroke-width: 0; opacity: 1;"/><path class="sankey-link" d="M836,268.92331368999425C928,268.92331368999425 928,249.3960830258841 1020,249.3960830258841L1020,264.1266233010731C928,264.1266233010731 928,283.65385396518326 836,283.65385396518326Z" style="stroke: rgb(68, 68, 68); stroke-opacity: 1; fill: rgb(180, 4, 38); fill-opacity: 0.5; stroke-width: 0; opacity: 1;"/><path class="sankey-link" d="M632,379.7404717671145C826,379.7404717671145 826,276.8184198472578 1020,276.8184198472578L1020,287.87617162601543C826,287.87617162601543 826,390.79822354587213 632,390.79822354587213Z" style="stroke: rgb(68, 68, 68); stroke-opacity: 1; fill: rgb(247, 184, 156); fill-opacity: 0.5; stroke-width: 0; opacity: 1;"/><path class="sankey-link" d="M428,488.8610513542322C520,488.8610513542322 520,463.2519731982386 612,463.2519731982386L612,466.9850330283791C520,466.9850330283791 520,492.5941111843727 428,492.5941111843727Z" style="stroke: rgb(68, 68, 68); stroke-opacity: 1; fill: rgb(125, 160, 249); fill-opacity: 0.5; stroke-width: 0; opacity: 1;"/><path class="sankey-link" d="M428,261.0183195187485C520,261.0183195187485 520,273.8651189439611 612,273.8651189439611L612,274.65659053724903C520,274.65659053724903 520,261.80979111203646 428,261.80979111203646Z" style="stroke: rgb(68, 90, 204); stroke-opacity: 0.5; fill: rgb(68, 90, 204); fill-opacity: 0.5; stroke-width: 1; opacity: 1;"/><path class="sankey-link" d="M428,283.42094397233507C520,283.42094397233507 520,294.65659053724903 612,294.65659053724903L612,300.0722260664279C520,300.0722260664279 520,288.83657950151394 428,288.83657950151394Z" style="stroke: rgb(68, 68, 68); stroke-opacity: 1; fill: rgb(159, 191, 255); fill-opacity: 0.5; stroke-width: 0; opacity: 1;"/><path class="sankey-link" d="M428,424.98479848542826C520,424.98479848542826 520,428.49781186162494 612,428.49781186162494L612,443.25197319823866C520,443.25197319823866 520,439.738959822042 428,439.738959822042Z" style="stroke: rgb(68, 68, 68); stroke-opacity: 1; fill: rgb(227, 108, 85); fill-opacity: 0.5; stroke-width: 0; opacity: 1;"/><path class="sankey-link" d="M428,404.57260322360463C520,404.57260322360463 520,428.08561659980137 612,428.08561659980137L612,428.497811861625C520,428.497811861625 520,404.98479848542826 428,404.98479848542826Z" style="stroke: rgb(61, 80, 195); stroke-opacity: 0.5; fill: rgb(61, 80, 195); fill-opacity: 0.5; stroke-width: 1; opacity: 1;"/><path class="sankey-link" d="M428,367.2852101696754C520,367.2852101696754 520,410.79822354587213 612,410.79822354587213L612,428.08561659980137C520,428.08561659980137 520,384.57260322360463 428,384.57260322360463Z" style="stroke: rgb(68, 68, 68); stroke-opacity: 1; fill: rgb(180, 4, 38); fill-opacity: 0.5; stroke-width: 0; opacity: 1;"/><path class="sankey-link" d="M224,238.1220092842891C316,238.1220092842891 316,329.2459189073886 408,329.2459189073886L408,332.99062617655807C316,332.99062617655807 316,241.86671655345856 224,241.86671655345856Z" style="stroke: rgb(68, 68, 68); stroke-opacity: 1; fill: rgb(125, 160, 249); fill-opacity: 0.5; stroke-width: 0; opacity: 1;"/><path class="sankey-link" d="M224,208.87445491314205C316,208.87445491314205 316,237.95684815536458 408,237.95684815536458L408,241.01831951874857C316,241.01831951874857 316,211.93592627652603 224,211.93592627652603Z" style="stroke: rgb(68, 68, 68); stroke-opacity: 1; fill: rgb(111, 146, 243); fill-opacity: 0.5; stroke-width: 0; opacity: 1;"/><path class="sankey-link" d="M224,515.7295144741014C316,515.7295144741014 316,459.738959822042 408,459.738959822042L408,466.12744164269515C316,466.12744164269515 316,522.1179962947546 224,522.1179962947546Z" style="stroke: rgb(68, 68, 68); stroke-opacity: 1; fill: rgb(179, 205, 251); fill-opacity: 0.5; stroke-width: 0; opacity: 1;"/><path class="sankey-link" d="M428,308.83657950151394C520,308.83657950151394 520,320.072226066428 612,320.072226066428L612,320.329544112784C520,320.329544112784 520,309.0938975478699 428,309.0938975478699Z" style="stroke: rgb(59, 76, 192); stroke-opacity: 0.5; fill: rgb(59, 76, 192); fill-opacity: 0.5; stroke-width: 1; opacity: 1;"/></g><g class="sankey-node-set" style="cursor: move;"><g class="sankey-node" transform="translate(204.000,343.531)" style="opacity: 1;"><rect class="node-rect" width="20" height="4.653824592044771" style="stroke-width: 2; stroke: rgb(255, 255, 255); stroke-opacity: 1; fill: rgb(95, 127, 232); fill-opacity: 0.5;"/><text class="node-label" data-notex="1" x="0" y="0" text-anchor="start" transform="translate(24,7.576912296022385)" style="cursor: default; font-family: Arial; font-size: 15px; fill: rgb(42, 63, 95); fill-opacity: 1; white-space: pre; text-shadow: white 1px 1px 1px, white -1px -1px 1px, white 1px -1px 1px, white -1px 1px 1px;">HDL remodeling</text></g><g class="sankey-node" transform="translate(0.000,236.490)" style="opacity: 1;"><rect class="node-rect" width="20" height="55.84589510453645" style="stroke-width: 2; stroke: rgb(255, 255, 255); stroke-opacity: 1; fill: rgb(180, 4, 38); fill-opacity: 0.5;"/><text class="node-label" data-notex="1" x="0" y="0" text-anchor="start" transform="translate(24,33.172947552268226)" style="cursor: default; font-family: Arial; font-size: 15px; fill: rgb(42, 63, 95); fill-opacity: 1; white-space: pre; text-shadow: white 1px 1px 1px, white -1px -1px 1px, white 1px -1px 1px, white -1px 1px 1px;">APOE</text></g><g class="sankey-node" transform="translate(816.000,289.631)" style="opacity: 1;"><rect class="node-rect" width="20" height="6.23913623779282" style="stroke-width: 2; stroke: rgb(255, 255, 255); stroke-opacity: 1; fill: rgb(110, 144, 242); fill-opacity: 0.5;"/><text class="node-label" data-notex="1" x="0" y="0" text-anchor="start" transform="translate(24,8.36956811889641)" style="cursor: default; font-family: Arial; font-size: 15px; fill: rgb(42, 63, 95); fill-opacity: 1; white-space: pre; text-shadow: white 1px 1px 1px, white -1px -1px 1px, white 1px -1px 1px, white -1px 1px 1px;">Signal Transduction</text></g><g class="sankey-node" transform="translate(204.000,418.171)" style="opacity: 1;"><rect class="node-rect" width="20" height="4.653824592044771" style="stroke-width: 2; stroke: rgb(255, 255, 255); stroke-opacity: 1; fill: rgb(63, 83, 198); fill-opacity: 0.5;"/><text class="node-label" data-notex="1" x="0" y="0" text-anchor="start" transform="translate(24,7.576912296022385)" style="cursor: default; font-family: Arial; font-size: 15px; fill: rgb(42, 63, 95); fill-opacity: 1; white-space: pre; text-shadow: white 1px 1px 1px, white -1px -1px 1px, white 1px -1px 1px, white -1px 1px 1px;">Transcriptional regulation by the AP-2 (TFAP2) family of transcription factors</text></g><g class="sankey-node" transform="translate(408.000,329.246)" style="opacity: 1;"><rect class="node-rect" width="20" height="3.744707269169453" style="stroke-width: 2; stroke: rgb(255, 255, 255); stroke-opacity: 1; fill: rgb(102, 135, 237); fill-opacity: 0.5;"/><text class="node-label" data-notex="1" x="0" y="0" text-anchor="start" transform="translate(24,7.1223536345847265)" style="cursor: default; font-family: Arial; font-size: 15px; fill: rgb(42, 63, 95); fill-opacity: 1; white-space: pre; text-shadow: white 1px 1px 1px, white -1px -1px 1px, white 1px -1px 1px, white -1px 1px 1px;">Post-translational modification</text></g><g class="sankey-node" transform="translate(204.000,392.839)" style="opacity: 1;"><rect class="node-rect" width="20" height="5.331509657108882" style="stroke-width: 2; stroke: rgb(255, 255, 255); stroke-opacity: 1; fill: rgb(211, 219, 231); fill-opacity: 0.5;"/><text class="node-label" data-notex="1" x="0" y="0" text-anchor="start" transform="translate(24,7.915754828554441)" style="cursor: default; font-family: Arial; font-size: 15px; fill: rgb(42, 63, 95); fill-opacity: 1; white-space: pre; text-shadow: white 1px 1px 1px, white -1px -1px 1px, white 1px -1px 1px, white -1px 1px 1px;">Chylomicron assembly</text></g><g class="sankey-node" transform="translate(408.000,459.739)" style="opacity: 1;"><rect class="node-rect" width="20" height="9.122091532190211" style="stroke-width: 2; stroke: rgb(255, 255, 255); stroke-opacity: 1; fill: rgb(210, 219, 232); fill-opacity: 0.5;"/><text class="node-label" data-notex="1" x="0" y="0" text-anchor="start" transform="translate(24,9.811045766095106)" style="cursor: default; font-family: Arial; font-size: 15px; fill: rgb(42, 63, 95); fill-opacity: 1; white-space: pre; text-shadow: white 1px 1px 1px, white -1px -1px 1px, white 1px -1px 1px, white -1px 1px 1px;">Binding and Uptake by Scavenger Receptors</text></g><g class="sankey-node" transform="translate(408.000,404.573)" style="opacity: 1;"><rect class="node-rect" width="20" height="0.5" style="stroke-width: 2; stroke: rgb(255, 255, 255); stroke-opacity: 1; fill: rgb(61, 80, 195); fill-opacity: 0.5;"/><text class="node-label" data-notex="1" x="0" y="0" text-anchor="start" transform="translate(24,5.5)" style="cursor: default; font-family: Arial; font-size: 15px; fill: rgb(42, 63, 95); fill-opacity: 1; white-space: pre; text-shadow: white 1px 1px 1px, white -1px -1px 1px, white 1px -1px 1px, white -1px 1px 1px;">Plasma lipoprotein clearance</text></g><g class="sankey-node" transform="translate(612.000,294.657)" style="opacity: 1;"><rect class="node-rect" width="20" height="5.415635529178985" style="stroke-width: 2; stroke: rgb(255, 255, 255); stroke-opacity: 1; fill: rgb(118, 153, 246); fill-opacity: 0.5;"/><text class="node-label" data-notex="1" x="0" y="0" text-anchor="start" transform="translate(24,7.9578177645894925)" style="cursor: default; font-family: Arial; font-size: 15px; fill: rgb(42, 63, 95); fill-opacity: 1; white-space: pre; text-shadow: white 1px 1px 1px, white -1px -1px 1px, white 1px -1px 1px, white -1px 1px 1px;">Signaling by Nuclear Receptors</text></g><g class="sankey-node" transform="translate(408.000,308.837)" style="opacity: 1;"><rect class="node-rect" width="20" height="0.5" style="stroke-width: 2; stroke: rgb(255, 255, 255); stroke-opacity: 1; fill: rgb(59, 76, 192); fill-opacity: 0.5;"/><text class="node-label" data-notex="1" x="0" y="0" text-anchor="start" transform="translate(24,5.5)" style="cursor: default; font-family: Arial; font-size: 15px; fill: rgb(42, 63, 95); fill-opacity: 1; white-space: pre; text-shadow: white 1px 1px 1px, white -1px -1px 1px, white 1px -1px 1px, white -1px 1px 1px;">Signaling by ERBB4</text></g><g class="sankey-node" transform="translate(816.000,230.943)" style="opacity: 1;"><rect class="node-rect" width="20" height="9.158205134868865" style="stroke-width: 2; stroke: rgb(255, 255, 255); stroke-opacity: 1; fill: rgb(219, 220, 222); fill-opacity: 0.5;"/><text class="node-label" data-notex="1" x="0" y="0" text-anchor="start" transform="translate(24,9.829102567434433)" style="cursor: default; font-family: Arial; font-size: 15px; fill: rgb(42, 63, 95); fill-opacity: 1; white-space: pre; text-shadow: white 1px 1px 1px, white -1px -1px 1px, white 1px -1px 1px, white -1px 1px 1px;">Metabolism</text></g><g class="sankey-node" transform="translate(612.000,273.865)" style="opacity: 1;"><rect class="node-rect" width="20" height="0.7914715932879517" style="stroke-width: 2; stroke: rgb(255, 255, 255); stroke-opacity: 1; fill: rgb(59, 76, 192); fill-opacity: 0.5;"/><text class="node-label" data-notex="1" x="0" y="0" text-anchor="start" transform="translate(24,5.645735796643976)" style="cursor: default; font-family: Arial; font-size: 15px; fill: rgb(42, 63, 95); fill-opacity: 1; white-space: pre; text-shadow: white 1px 1px 1px, white -1px -1px 1px, white 1px -1px 1px, white -1px 1px 1px;">Metabolism of vitamins and cofactors</text></g><g class="sankey-node" transform="translate(612.000,410.798)" style="opacity: 1;"><rect class="node-rect" width="20" height="32.45374965236647" style="stroke-width: 2; stroke: rgb(255, 255, 255); stroke-opacity: 1; fill: rgb(180, 4, 38); fill-opacity: 0.5;"/><text class="node-label" data-notex="1" x="0" y="0" text-anchor="start" transform="translate(24,21.476874826183234)" style="cursor: default; font-family: Arial; font-size: 15px; fill: rgb(42, 63, 95); fill-opacity: 1; white-space: pre; text-shadow: white 1px 1px 1px, white -1px -1px 1px, white 1px -1px 1px, white -1px 1px 1px;">Lipoprotein assembly remodeling and clearance</text></g><g class="sankey-node" transform="translate(408.000,367.285)" style="opacity: 1;"><rect class="node-rect" width="20" height="17.287393053929236" style="stroke-width: 2; stroke: rgb(255, 255, 255); stroke-opacity: 1; fill: rgb(180, 4, 38); fill-opacity: 0.5;"/><text class="node-label" data-notex="1" x="0" y="0" text-anchor="start" transform="translate(24,13.893696526964618)" style="cursor: default; font-family: Arial; font-size: 15px; fill: rgb(42, 63, 95); fill-opacity: 1; white-space: pre; text-shadow: white 1px 1px 1px, white -1px -1px 1px, white 1px -1px 1px, white -1px 1px 1px;">Plasma lipoprotein remodeling</text></g><g class="sankey-node" transform="translate(408.000,283.421)" style="opacity: 1;"><rect class="node-rect" width="20" height="5.415635529178871" style="stroke-width: 2; stroke: rgb(255, 255, 255); stroke-opacity: 1; fill: rgb(159, 191, 255); fill-opacity: 0.5;"/><text class="node-label" data-notex="1" x="0" y="0" text-anchor="start" transform="translate(24,7.957817764589436)" style="cursor: default; font-family: Arial; font-size: 15px; fill: rgb(42, 63, 95); fill-opacity: 1; white-space: pre; text-shadow: white 1px 1px 1px, white -1px -1px 1px, white 1px -1px 1px, white -1px 1px 1px;">NR1H2 and NR1H3-mediated signaling</text></g><g class="sankey-node" transform="translate(612.000,250.117)" style="opacity: 1;"><rect class="node-rect" width="20" height="3.7482905583588035" style="stroke-width: 2; stroke: rgb(255, 255, 255); stroke-opacity: 1; fill: rgb(59, 76, 192); fill-opacity: 0.5;"/><text class="node-label" data-notex="1" x="0" y="0" text-anchor="start" transform="translate(24,7.124145279179402)" style="cursor: default; font-family: Arial; font-size: 15px; fill: rgb(42, 63, 95); fill-opacity: 1; white-space: pre; text-shadow: white 1px 1px 1px, white -1px -1px 1px, white 1px -1px 1px, white -1px 1px 1px;">Sensory Perception</text></g><g class="sankey-node" transform="translate(408.000,488.861)" style="opacity: 1;"><rect class="node-rect" width="20" height="3.733059830140519" style="stroke-width: 2; stroke: rgb(255, 255, 255); stroke-opacity: 1; fill: rgb(125, 160, 249); fill-opacity: 0.5;"/><text class="node-label" data-notex="1" x="0" y="0" text-anchor="start" transform="translate(24,7.1165299150702594)" style="cursor: default; font-family: Arial; font-size: 15px; fill: rgb(42, 63, 95); fill-opacity: 1; white-space: pre; text-shadow: white 1px 1px 1px, white -1px -1px 1px, white 1px -1px 1px, white -1px 1px 1px;">Generic Transcription Pathway</text></g><g class="sankey-node" transform="translate(612.000,379.740)" style="opacity: 1;"><rect class="node-rect" width="20" height="11.05775177875762" style="stroke-width: 2; stroke: rgb(255, 255, 255); stroke-opacity: 1; fill: rgb(247, 184, 156); fill-opacity: 0.5;"/><text class="node-label" data-notex="1" x="0" y="0" text-anchor="start" transform="translate(24,10.77887588937881)" style="cursor: default; font-family: Arial; font-size: 15px; fill: rgb(42, 63, 95); fill-opacity: 1; white-space: pre; text-shadow: white 1px 1px 1px, white -1px -1px 1px, white 1px -1px 1px, white -1px 1px 1px;">Vesicle-mediated transport</text></g><g class="sankey-node" transform="translate(816.000,355.696)" style="opacity: 1;"><rect class="node-rect" width="20" height="4.459310811177261" style="stroke-width: 2; stroke: rgb(255, 255, 255); stroke-opacity: 1; fill: rgb(78, 104, 216); fill-opacity: 0.5;"/><text class="node-label" data-notex="1" x="0" y="0" text-anchor="start" transform="translate(24,7.47965540558863)" style="cursor: default; font-family: Arial; font-size: 15px; fill: rgb(42, 63, 95); fill-opacity: 1; white-space: pre; text-shadow: white 1px 1px 1px, white -1px -1px 1px, white 1px -1px 1px, white -1px 1px 1px;">Gene expression (Transcription)</text></g><g class="sankey-node" transform="translate(612.000,463.252)" style="opacity: 1;"><rect class="node-rect" width="20" height="3.733059830140519" style="stroke-width: 2; stroke: rgb(255, 255, 255); stroke-opacity: 1; fill: rgb(89, 119, 227); fill-opacity: 0.5;"/><text class="node-label" data-notex="1" x="0" y="0" text-anchor="start" transform="translate(24,7.1165299150702594)" style="cursor: default; font-family: Arial; font-size: 15px; fill: rgb(42, 63, 95); fill-opacity: 1; white-space: pre; text-shadow: white 1px 1px 1px, white -1px -1px 1px, white 1px -1px 1px, white -1px 1px 1px;">RNA Polymerase II Transcription</text></g><g class="sankey-node" transform="translate(408.000,237.957)" style="opacity: 1;"><rect class="node-rect" width="20" height="3.0614713633839585" style="stroke-width: 2; stroke: rgb(255, 255, 255); stroke-opacity: 1; fill: rgb(78, 104, 216); fill-opacity: 0.5;"/><text class="node-label" data-notex="1" x="0" y="0" text-anchor="start" transform="translate(24,6.780735681691979)" style="cursor: default; font-family: Arial; font-size: 15px; fill: rgb(42, 63, 95); fill-opacity: 1; white-space: pre; text-shadow: white 1px 1px 1px, white -1px -1px 1px, white 1px -1px 1px, white -1px 1px 1px;">Visual phototransduction</text></g><g class="sankey-node" transform="translate(204.000,442.824)" style="opacity: 1;"><rect class="node-rect" width="20" height="16.659987324770782" style="stroke-width: 2; stroke: rgb(255, 255, 255); stroke-opacity: 1; fill: rgb(188, 210, 247); fill-opacity: 0.5;"/><text class="node-label" data-notex="1" x="0" y="0" text-anchor="start" transform="translate(24,13.579993662385391)" style="cursor: default; font-family: Arial; font-size: 15px; fill: rgb(42, 63, 95); fill-opacity: 1; white-space: pre; text-shadow: white 1px 1px 1px, white -1px -1px 1px, white 1px -1px 1px, white -1px 1px 1px;">IGF transport and uptake</text></g><g class="sankey-node" transform="translate(612.000,320.072)" style="opacity: 1;"><rect class="node-rect" width="20" height="2.510375137298638" style="stroke-width: 2; stroke: rgb(255, 255, 255); stroke-opacity: 1; fill: rgb(97, 128, 233); fill-opacity: 0.5;"/><text class="node-label" data-notex="1" x="0" y="0" text-anchor="start" transform="translate(24,6.505187568649319)" style="cursor: default; font-family: Arial; font-size: 15px; fill: rgb(42, 63, 95); fill-opacity: 1; white-space: pre; text-shadow: white 1px 1px 1px, white -1px -1px 1px, white 1px -1px 1px, white -1px 1px 1px;">Signaling by Receptor Tyrosine Kinases</text></g><g class="sankey-node" transform="translate(204.000,368.185)" style="opacity: 1;"><rect class="node-rect" width="20" height="4.653824592044657" style="stroke-width: 2; stroke: rgb(255, 255, 255); stroke-opacity: 1; fill: rgb(59, 76, 192); fill-opacity: 0.5;"/><text class="node-label" data-notex="1" x="0" y="0" text-anchor="start" transform="translate(24,7.5769122960223285)" style="cursor: default; font-family: Arial; font-size: 15px; fill: rgb(42, 63, 95); fill-opacity: 1; white-space: pre; text-shadow: white 1px 1px 1px, white -1px -1px 1px, white 1px -1px 1px, white -1px 1px 1px;">Chylomicron clearance</text></g><g class="sankey-node" transform="translate(204.000,206.472)" style="opacity: 1;"><rect class="node-rect" width="20" height="7.866720270556982" style="stroke-width: 2; stroke: rgb(255, 255, 255); stroke-opacity: 1; fill: rgb(111, 146, 243); fill-opacity: 0.5;"/><text class="node-label" data-notex="1" x="0" y="0" text-anchor="start" transform="translate(24,9.183360135278491)" style="cursor: default; font-family: Arial; font-size: 15px; fill: rgb(42, 63, 95); fill-opacity: 1; white-space: pre; text-shadow: white 1px 1px 1px, white -1px -1px 1px, white 1px -1px 1px, white -1px 1px 1px;">Retinoid metabolism and transport</text></g><g class="sankey-node" transform="translate(408.000,424.985)" style="opacity: 1;"><rect class="node-rect" width="20" height="14.75416133661372" style="stroke-width: 2; stroke: rgb(255, 255, 255); stroke-opacity: 1; fill: rgb(227, 108, 85); fill-opacity: 0.5;"/><text class="node-label" data-notex="1" x="0" y="0" text-anchor="start" transform="translate(24,12.62708066830686)" style="cursor: default; font-family: Arial; font-size: 15px; fill: rgb(42, 63, 95); fill-opacity: 1; white-space: pre; text-shadow: white 1px 1px 1px, white -1px -1px 1px, white 1px -1px 1px, white -1px 1px 1px;">Plasma lipoprotein assembly</text></g><g class="sankey-node" transform="translate(204.000,262.776)" style="opacity: 1;"><rect class="node-rect" width="20" height="4.653824592044714" style="stroke-width: 2; stroke: rgb(255, 255, 255); stroke-opacity: 1; fill: rgb(141, 176, 254); fill-opacity: 0.5;"/><text class="node-label" data-notex="1" x="0" y="0" text-anchor="start" transform="translate(24,7.576912296022357)" style="cursor: default; font-family: Arial; font-size: 15px; fill: rgb(42, 63, 95); fill-opacity: 1; white-space: pre; text-shadow: white 1px 1px 1px, white -1px -1px 1px, white 1px -1px 1px, white -1px 1px 1px;">NR1H3 &amp; NR1H2 regulate gene expression linked to cholesterol transport and efflux</text></g><g class="sankey-node" transform="translate(204.000,312.083)" style="opacity: 1;"><rect class="node-rect" width="20" height="11.447947443792373" style="stroke-width: 2; stroke: rgb(255, 255, 255); stroke-opacity: 1; fill: rgb(180, 4, 38); fill-opacity: 0.5;"/><text class="node-label" data-notex="1" x="0" y="0" text-anchor="start" transform="translate(24,10.973973721896186)" style="cursor: default; font-family: Arial; font-size: 15px; fill: rgb(42, 63, 95); fill-opacity: 1; white-space: pre; text-shadow: white 1px 1px 1px, white -1px -1px 1px, white 1px -1px 1px, white -1px 1px 1px;">Chylomicron remodeling</text></g><g class="sankey-node" transform="translate(612.000,342.583)" style="opacity: 1;"><rect class="node-rect" width="20" height="17.15787056338786" style="stroke-width: 2; stroke: rgb(255, 255, 255); stroke-opacity: 1; fill: rgb(162, 193, 255); fill-opacity: 0.5;"/><text class="node-label" data-notex="1" x="0" y="0" text-anchor="start" transform="translate(24,13.82893528169393)" style="cursor: default; font-family: Arial; font-size: 15px; fill: rgb(42, 63, 95); fill-opacity: 1; white-space: pre; text-shadow: white 1px 1px 1px, white -1px -1px 1px, white 1px -1px 1px, white -1px 1px 1px;">Metabolism of proteins</text></g><g class="sankey-node" transform="translate(408.000,261.018)" style="opacity: 1;"><rect class="node-rect" width="20" height="2.4026244535865544" style="stroke-width: 2; stroke: rgb(255, 255, 255); stroke-opacity: 1; fill: rgb(68, 90, 204); fill-opacity: 0.5;"/><text class="node-label" data-notex="1" x="0" y="0" text-anchor="start" transform="translate(24,6.451312226793277)" style="cursor: default; font-family: Arial; font-size: 15px; fill: rgb(42, 63, 95); fill-opacity: 1; white-space: pre; text-shadow: white 1px 1px 1px, white -1px -1px 1px, white 1px -1px 1px, white -1px 1px 1px;">Metabolism of fat-soluble vitamins</text></g><g class="sankey-node" transform="translate(204.000,287.430)" style="opacity: 1;"><rect class="node-rect" width="20" height="4.653824592044714" style="stroke-width: 2; stroke: rgb(255, 255, 255); stroke-opacity: 1; fill: rgb(67, 88, 203); fill-opacity: 0.5;"/><text class="node-label" data-notex="1" x="0" y="0" text-anchor="start" transform="translate(24,7.576912296022357)" style="cursor: default; font-family: Arial; font-size: 15px; fill: rgb(42, 63, 95); fill-opacity: 1; white-space: pre; text-shadow: white 1px 1px 1px, white -1px -1px 1px, white 1px -1px 1px, white -1px 1px 1px;">Nuclear signaling by ERBB4</text></g><g class="sankey-node" transform="translate(1020.000,236.490)" style="opacity: 1;"><rect class="node-rect" width="20" height="55.84589510453645" style="stroke-width: 2; stroke: rgb(255, 255, 255); stroke-opacity: 1; fill: rgb(0, 0, 0); fill-opacity: 1;"/><text class="node-label" data-notex="1" x="0" y="0" text-anchor="end" transform="translate(-4,33.172947552268226)" style="cursor: default; font-family: Arial; font-size: 15px; fill: rgb(42, 63, 95); fill-opacity: 1; white-space: pre; text-shadow: white 1px 1px 1px, white -1px -1px 1px, white 1px -1px 1px, white -1px 1px 1px;">Output</text></g><g class="sankey-node" transform="translate(204.000,234.339)" style="opacity: 1;"><rect class="node-rect" width="20" height="8.437283146221205" style="stroke-width: 2; stroke: rgb(255, 255, 255); stroke-opacity: 1; fill: rgb(125, 160, 249); fill-opacity: 0.5;"/><text class="node-label" data-notex="1" x="0" y="0" text-anchor="start" transform="translate(24,9.468641573110602)" style="cursor: default; font-family: Arial; font-size: 15px; fill: rgb(42, 63, 95); fill-opacity: 1; white-space: pre; text-shadow: white 1px 1px 1px, white -1px -1px 1px, white 1px -1px 1px, white -1px 1px 1px;">Post-translational protein phosphorylation</text></g><g class="sankey-node" transform="translate(816.000,268.923)" style="opacity: 1;"><rect class="node-rect" width="20" height="19.825576276681545" style="stroke-width: 2; stroke: rgb(255, 255, 255); stroke-opacity: 1; fill: rgb(180, 4, 38); fill-opacity: 0.5;"/><text class="node-label" data-notex="1" x="0" y="0" text-anchor="start" transform="translate(24,15.162788138340773)" style="cursor: default; font-family: Arial; font-size: 15px; fill: rgb(42, 63, 95); fill-opacity: 1; white-space: pre; text-shadow: white 1px 1px 1px, white -1px -1px 1px, white 1px -1px 1px, white -1px 1px 1px;">Transport of small molecules</text></g><g class="sankey-node" transform="translate(204.000,515.730)" style="opacity: 1;"><rect class="node-rect" width="20" height="13.095555295747772" style="stroke-width: 2; stroke: rgb(255, 255, 255); stroke-opacity: 1; fill: rgb(179, 205, 251); fill-opacity: 0.5;"/><text class="node-label" data-notex="1" x="0" y="0" text-anchor="start" transform="translate(24,11.797777647873886)" style="cursor: default; font-family: Arial; font-size: 15px; fill: rgb(42, 63, 95); fill-opacity: 1; white-space: pre; text-shadow: white 1px 1px 1px, white -1px -1px 1px, white 1px -1px 1px, white -1px 1px 1px;">Scavenging by Class A Receptors</text></g><g class="sankey-node" transform="translate(204.000,479.484)" style="opacity: 1;"><rect class="node-rect" width="20" height="16.245113211872024" style="stroke-width: 2; stroke: rgb(255, 255, 255); stroke-opacity: 1; fill: rgb(169, 198, 253); fill-opacity: 0.5;"/><text class="node-label" data-notex="1" x="0" y="0" text-anchor="start" transform="translate(24,13.372556605936012)" style="cursor: default; font-family: Arial; font-size: 15px; fill: rgb(42, 63, 95); fill-opacity: 1; white-space: pre; text-shadow: white 1px 1px 1px, white -1px -1px 1px, white 1px -1px 1px, white -1px 1px 1px;">Amyloid fiber formation</text></g></g></g><defs id="topdefs-dc24f1"><g class="clips"/></defs><g class="layer-above"><g class="imagelayer"/><g class="shapelayer"/></g><g class="infolayer"><g class="g-gtitle"/><g class="first-render"/></g></svg>