<svg class="main-svg" xmlns="http://www.w3.org/2000/svg" xmlns:xlink="http://www.w3.org/1999/xlink" width="3000" height="2000" style="" viewBox="0 0 1200 800"><rect x="0" y="0" width="1200" height="800" style="fill: rgb(255, 255, 255); fill-opacity: 1;"/><defs id="defs-9b0fe4"><g class="clips"/><g class="gradients"/><g class="patterns"/></defs><g class="bglayer"/><g class="layer-below"><g class="imagelayer"/><g class="shapelayer"/></g><g class="cartesianlayer"/><g class="polarlayer"/><g class="smithlayer"/><g class="ternarylayer"/><g class="geolayer"/><g class="funnelarealayer"/><g class="pielayer"/><g class="iciclelayer"/><g class="treemaplayer"/><g class="sunburstlayer"/><g class="glimages"/><g class="sankey" transform="translate(80,100)matrix(1 0 0 1 0 0)" style="box-sizing: content-box; position: absolute; left: 0px; shape-rendering: geometricprecision; pointer-events: auto;"><g class="sankey-links" style="fill: none;"><path class="sankey-link" d="M20,275.1175733065119C112,275.1175733065119 112,455.95909331807877 204,455.95909331807877L204,461.55909451915215C112,461.55909451915215 112,280.71757450758525 20,280.71757450758525Z" style="stroke: rgb(68, 68, 68); stroke-opacity: 1; fill: rgb(180, 4, 38); fill-opacity: 0.5; stroke-width: 0; opacity: 1;"/><path class="sankey-link" d="M20,252.71756850221857C112,252.71756850221857 112,351.5851894854668 204,351.5851894854668L204,357.1851906865402C112,357.1851906865402 112,258.3175697032919 20,258.3175697032919Z" style="stroke: rgb(68, 68, 68); stroke-opacity: 1; fill: rgb(180, 4, 38); fill-opacity: 0.5; stroke-width: 0; opacity: 1;"/><path class="sankey-link" d="M20,247.11756730114524C112,247.11756730114524 112,325.9851882843934 204,325.9851882843934L204,331.5851894854668C112,331.5851894854668 112,252.71756850221857 20,252.71756850221857Z" style="stroke: rgb(68, 68, 68); stroke-opacity: 1; fill: rgb(180, 4, 38); fill-opacity: 0.5; stroke-width: 0; opacity: 1;"/><path class="sankey-link" d="M20,258.3175697032919C112,258.3175697032919 112,377.18519068654007 204,377.18519068654007L204,382.78519188761345C112,382.78519188761345 112,263.9175709043653 20,263.9175709043653Z" style="stroke: rgb(68, 68, 68); stroke-opacity: 1; fill: rgb(180, 4, 38); fill-opacity: 0.5; stroke-width: 0; opacity: 1;"/><path class="sankey-link" d="M20,235.9175648989986C112,235.9175648989986 112,267.2163492969297 204,267.2163492969297L204,272.8163504980031C112,272.8163504980031 112,241.51756610007192 20,241.51756610007192Z" style="stroke: rgb(68, 68, 68); stroke-opacity: 1; fill: rgb(180, 4, 38); fill-opacity: 0.5; stroke-width: 0; opacity: 1;"/><path class="sankey-link" d="M20,269.51757210543855C112,269.51757210543855 112,428.58334400210356 204,428.58334400210356L204,434.18334520317694C112,434.18334520317694 112,275.11757330651193 20,275.11757330651193Z" style="stroke: rgb(68, 68, 68); stroke-opacity: 1; fill: rgb(180, 4, 38); fill-opacity: 0.5; stroke-width: 0; opacity: 1;"/><path class="sankey-link" d="M20,263.9175709043652C112,263.9175709043652 112,402.78519188761345 204,402.78519188761345L204,408.38519308868683C112,408.38519308868683 112,269.5175721054386 20,269.5175721054386Z" style="stroke: rgb(68, 68, 68); stroke-opacity: 1; fill: rgb(180, 4, 38); fill-opacity: 0.5; stroke-width: 0; opacity: 1;"/><path class="sankey-link" d="M20,241.51756610007192C112,241.51756610007192 112,300.1175305744779 204,300.1175305744779L204,305.71753177555127C112,305.71753177555127 112,247.11756730114524 20,247.11756730114524Z" style="stroke: rgb(68, 68, 68); stroke-opacity: 1; fill: rgb(180, 4, 38); fill-opacity: 0.5; stroke-width: 0; opacity: 1;"/><path class="sankey-link" d="M20,280.7175745075852C112,280.7175745075852 112,491.00161012745673 204,491.00161012745673L204,496.6016113285301C112,496.6016113285301 112,286.3175757086586 20,286.3175757086586Z" style="stroke: rgb(68, 68, 68); stroke-opacity: 1; fill: rgb(180, 4, 38); fill-opacity: 0.5; stroke-width: 0; opacity: 1;"/><path class="sankey-link" d="M20,230.31756369792527C112,230.31756369792527 112,235.82477298108978 204,235.82477298108978L204,241.4247741821631C112,241.4247741821631 112,235.9175648989986 20,235.9175648989986Z" style="stroke: rgb(68, 68, 68); stroke-opacity: 1; fill: rgb(180, 4, 38); fill-opacity: 0.5; stroke-width: 0; opacity: 1;"/><path class="sankey-link" d="M 204 463.1528458127799 L199 463.1528458127799A17.848764314676817 17.848764314676817 0 0 0 181.15123568532317 481.00161012745673L181.15123568532317 486.00161012745673A17.848764314676817 17.848764314676817 0 0 0 199 503.85037444213356L229 503.85037444213356A17.848764314676817 17.848764314676817 0 0 0 246.84876431467683 486.00161012745673L246.84876431467683 481.00161012745673A17.848764314676817 17.848764314676817 0 0 0 229 463.1528458127799L224 463.1528458127799L224 471.00161012745673L229 471.00161012745673A10 10 0 0 1 239 481.00161012745673L239 486.00161012745673A10 10 0 0 1 229 496.00161012745673L199 496.00161012745673A10 10 0 0 1 189 486.00161012745673L189 481.00161012745673A10 10 0 0 1 199 471.00161012745673L204 471.00161012745673Z" style="stroke: rgb(68, 68, 68); stroke-opacity: 1; fill: rgb(167, 197, 254); fill-opacity: 0.5; stroke-width: 0; opacity: 1;"/><path class="sankey-link" d="M224,351.5851894854668C316,351.5851894854668 316,308.5379557047976 408,308.5379557047976L408,309.2430452949824C316,309.2430452949824 316,352.2902790756516 224,352.2902790756516Z" style="stroke: rgb(59, 76, 192); stroke-opacity: 0.5; fill: rgb(59, 76, 192); fill-opacity: 0.5; stroke-width: 1; opacity: 1;"/><path class="sankey-link" d="M224,325.9851882843934C316,325.9851882843934 316,286.67826448984727 408,286.67826448984727L408,288.3337611082278C316,288.3337611082278 316,327.64068490277396 224,327.64068490277396Z" style="stroke: rgb(68, 68, 68); stroke-opacity: 1; fill: rgb(75, 100, 213); fill-opacity: 0.5; stroke-width: 0; opacity: 1;"/><path class="sankey-link" d="M224,377.18519068654007C316,377.18519068654007 316,372.6081922442527 408,372.6081922442527L408,375.41437914248365C316,375.41437914248365 316,379.99137758477104 224,379.99137758477104Z" style="stroke: rgb(68, 68, 68); stroke-opacity: 1; fill: rgb(98, 130, 234); fill-opacity: 0.5; stroke-width: 0; opacity: 1;"/><path class="sankey-link" d="M 204 267.21634929692965 L199 267.21634929692965A11.76956497945632 11.76956497945632 0 0 1 187.23043502054367 255.44678431747334L187.23043502054367 250.44678431747337A11.76956497945632 11.76956497945632 0 0 1 199 238.67721933801704L229 238.67721933801704A11.76956497945632 11.76956497945632 0 0 1 240.76956497945633 250.44678431747337L240.76956497945633 255.44678431747334A11.76956497945632 11.76956497945632 0 0 1 229 267.21634929692965L224 267.21634929692965L224 265.4467843174734L229 265.4467843174734A10 10 0 0 0 239 255.44678431747334L239 250.44678431747337A10 10 0 0 0 229 240.44678431747337L199 240.44678431747337A10 10 0 0 0 189 250.44678431747337L189 255.44678431747334A10 10 0 0 0 199 265.4467843174734L204 265.4467843174734Z" style="stroke: rgb(68, 68, 68); stroke-opacity: 1; fill: rgb(70, 94, 207); fill-opacity: 0.5; stroke-width: 0; opacity: 1;"/><path class="sankey-link" d="M 204 434.18334520317694 L199 434.18334520317694A11.775748114901877 11.775748114901877 0 0 0 187.2242518850981 445.95909331807877L187.2242518850981 450.95909331807877A11.775748114901877 11.775748114901877 0 0 0 199 462.7348414329806L229 462.7348414329806A11.775748114901877 11.775748114901877 0 0 0 240.7757481149019 450.95909331807877L240.7757481149019 445.95909331807877A11.775748114901877 11.775748114901877 0 0 0 229 434.18334520317694L224 434.18334520317694L224 435.95909331807877L229 435.95909331807877A10 10 0 0 1 239 445.95909331807877L239 450.95909331807877A10 10 0 0 1 229 460.95909331807877L199 460.95909331807877A10 10 0 0 1 189 450.95909331807877L189 445.95909331807877A10 10 0 0 1 199 435.95909331807877L204 435.95909331807877Z" style="stroke: rgb(68, 68, 68); stroke-opacity: 1; fill: rgb(59, 76, 192); fill-opacity: 0.5; stroke-width: 0; opacity: 1;"/><path class="sankey-link" d="M224,402.78519188761345C316,402.78519188761345 316,455.4402149091462 408,455.4402149091462L408,461.2383670236362C316,461.2383670236362 316,408.58334400210344 224,408.58334400210344Z" style="stroke: rgb(68, 68, 68); stroke-opacity: 1; fill: rgb(162, 193, 255); fill-opacity: 0.5; stroke-width: 0; opacity: 1;"/><path class="sankey-link" d="M 204 300.11753057447794 L199 300.11753057447794A17.301180076474864 17.301180076474864 0 0 1 181.69881992352515 282.81635049800303L181.69881992352515 277.81635049800303A17.301180076474864 17.301180076474864 0 0 1 199 260.5151704215281L229 260.5151704215281A17.301180076474864 17.301180076474864 0 0 1 246.30118007647485 277.81635049800303L246.30118007647485 282.81635049800303A17.301180076474864 17.301180076474864 0 0 1 229 300.11753057447794L224 300.11753057447794L224 292.81635049800303L229 292.81635049800303A10 10 0 0 0 239 282.81635049800303L239 277.81635049800303A10 10 0 0 0 229 267.81635049800303L199 267.81635049800303A10 10 0 0 0 189 277.81635049800303L189 282.81635049800303A10 10 0 0 0 199 292.81635049800303L204 292.81635049800303Z" style="stroke: rgb(68, 68, 68); stroke-opacity: 1; fill: rgb(112, 147, 243); fill-opacity: 0.5; stroke-width: 0; opacity: 1;"/><path class="sankey-link" d="M 204 499.4782314217804 L199 499.4782314217804A27.156907984803375 27.156907984803375 0 0 0 171.84309201519665 526.6351394065838L171.84309201519665 531.6351394065838A27.156907984803375 27.156907984803375 0 0 0 199 558.7920473913872L229 558.7920473913872A27.156907984803375 27.156907984803375 0 0 0 256.15690798480335 531.6351394065838L256.15690798480335 526.6351394065838A27.156907984803375 27.156907984803375 0 0 0 229 499.4782314217804L224 499.4782314217804L224 516.6351394065838L229 516.6351394065838A10 10 0 0 1 239 526.6351394065838L239 531.6351394065838A10 10 0 0 1 229 541.6351394065838L199 541.6351394065838A10 10 0 0 1 189 531.6351394065838L189 526.6351394065838A10 10 0 0 1 199 516.6351394065838L204 516.6351394065838Z" style="stroke: rgb(68, 68, 68); stroke-opacity: 1; fill: rgb(187, 209, 248); fill-opacity: 0.5; stroke-width: 0; opacity: 1;"/><path class="sankey-link" d="M 204 235.82477298108978 L199 235.82477298108978A19.18292131913374 19.18292131913374 0 0 1 179.81707868086625 216.64185166195603L179.81707868086625 211.64185166195603A19.18292131913374 19.18292131913374 0 0 1 199 192.45893034282227L229 192.45893034282227A19.18292131913374 19.18292131913374 0 0 1 248.18292131913375 211.64185166195603L248.18292131913375 216.64185166195603A19.18292131913374 19.18292131913374 0 0 1 229 235.82477298108978L224 235.82477298108978L224 226.64185166195603L229 226.64185166195603A10 10 0 0 0 239 216.64185166195603L239 211.64185166195603A10 10 0 0 0 229 201.64185166195603L199 201.64185166195603A10 10 0 0 0 189 211.64185166195603L189 216.64185166195603A10 10 0 0 0 199 226.64185166195603L204 226.64185166195603Z" style="stroke: rgb(68, 68, 68); stroke-opacity: 1; fill: rgb(165, 195, 254); fill-opacity: 0.5; stroke-width: 0; opacity: 1;"/><path class="sankey-link" d="M224,455.95909331807877C316,455.95909331807877 316,345.41443974955166 408,345.41443974955166L408,352.6081922442527C316,352.6081922442527 316,463.1528458127798 224,463.1528458127798Z" style="stroke: rgb(68, 68, 68); stroke-opacity: 1; fill: rgb(167, 197, 254); fill-opacity: 0.5; stroke-width: 0; opacity: 1;"/><path class="sankey-link" d="M428,241.88558752550364C520,241.88558752550364 520,246.8926325891387 612,246.8926325891387L612,256.8451939606763C520,256.8451939606763 520,251.8381488970412 428,251.8381488970412Z" style="stroke: rgb(68, 68, 68); stroke-opacity: 1; fill: rgb(209, 218, 233); fill-opacity: 0.5; stroke-width: 0; opacity: 1;"/><path class="sankey-link" d="M632,278.31087962001527C724,278.31087962001527 724,252.2445558430514 816,252.2445558430514L816,256.60279875561304C724,256.60279875561304 724,282.6691225325769 632,282.6691225325769Z" style="stroke: rgb(68, 68, 68); stroke-opacity: 1; fill: rgb(121, 156, 248); fill-opacity: 0.5; stroke-width: 0; opacity: 1;"/><path class="sankey-link" d="M632,302.6691225325769C724,302.6691225325769 724,258.54192358008754 816,258.54192358008754L816,258.79909779726324C724,258.79909779726324 724,302.9262967497526 632,302.9262967497526Z" style="stroke: rgb(59, 76, 192); stroke-opacity: 0.5; fill: rgb(59, 76, 192); fill-opacity: 0.5; stroke-width: 1; opacity: 1;"/><path class="sankey-link" d="M428,331.1735492283997C622,331.1735492283997 622,258.13681328808303 816,258.13681328808303L816,258.5419235800875C622,258.5419235800875 622,331.57865952040413 428,331.57865952040413Z" style="stroke: rgb(60, 78, 194); stroke-opacity: 0.5; fill: rgb(60, 78, 194); fill-opacity: 0.5; stroke-width: 1; opacity: 1;"/><path class="sankey-link" d="M632,385.6645624147328C724,385.6645624147328 724,344.4730319760443 816,344.4730319760443L816,366.1035170378838C724,366.1035170378838 724,407.29504747657234 632,407.29504747657234Z" style="stroke: rgb(68, 68, 68); stroke-opacity: 1; fill: rgb(180, 4, 38); fill-opacity: 0.5; stroke-width: 0; opacity: 1;"/><path class="sankey-link" d="M632,360.85475966498086C724,360.85475966498086 724,320.29978489444505 816,320.29978489444505L816,320.93985791468793C724,320.93985791468793 724,361.49483268522374 632,361.49483268522374Z" style="stroke: rgb(63, 83, 198); stroke-opacity: 0.5; fill: rgb(63, 83, 198); fill-opacity: 0.5; stroke-width: 1; opacity: 1;"/><path class="sankey-link" d="M428,355.29083818379115C520,355.29083818379115 520,339.26808427323124 612,339.26808427323124L612,342.354075619578C520,342.354075619578 520,358.3768295301379 428,358.3768295301379Z" style="stroke: rgb(68, 68, 68); stroke-opacity: 1; fill: rgb(99, 132, 235); fill-opacity: 0.5; stroke-width: 0; opacity: 1;"/><path class="sankey-link" d="M224,491.00161012745673C418,491.00161012745673 418,342.354075619578 612,342.354075619578L612,350.83069691390176C418,350.83069691390176 418,499.4782314217805 224,499.4782314217805Z" style="stroke: rgb(68, 68, 68); stroke-opacity: 1; fill: rgb(187, 209, 248); fill-opacity: 0.5; stroke-width: 0; opacity: 1;"/><path class="sankey-link" d="M428,286.67826448984727C520,286.67826448984727 520,278.31087962001527 612,278.31087962001527L612,280.1705708349656C520,280.1705708349656 520,288.5379557047976 428,288.5379557047976Z" style="stroke: rgb(68, 68, 68); stroke-opacity: 1; fill: rgb(62, 81, 197); fill-opacity: 0.5; stroke-width: 0; opacity: 1;"/><path class="sankey-link" d="M224,267.2163492969297C316,267.2163492969297 316,331.1735492283997 408,331.1735492283997L408,333.76105137570096C316,333.76105137570096 316,269.803851444231 224,269.803851444231Z" style="stroke: rgb(68, 68, 68); stroke-opacity: 1; fill: rgb(70, 94, 207); fill-opacity: 0.5; stroke-width: 0; opacity: 1;"/><path class="sankey-link" d="M224,428.58334400210356C316,428.58334400210356 316,333.76105137570096 408,333.76105137570096L408,335.29083818379115C316,335.29083818379115 316,430.11313081019375 224,430.11313081019375Z" style="stroke: rgb(68, 68, 68); stroke-opacity: 1; fill: rgb(59, 76, 192); fill-opacity: 0.5; stroke-width: 0; opacity: 1;"/><path class="sankey-link" d="M428,308.5379557047976C520,308.5379557047976 520,302.6691225325769 612,302.6691225325769L612,305.304716056179C520,305.304716056179 520,311.1735492283997 428,311.1735492283997Z" style="stroke: rgb(68, 68, 68); stroke-opacity: 1; fill: rgb(72, 95, 209); fill-opacity: 0.5; stroke-width: 0; opacity: 1;"/><path class="sankey-link" d="M428,372.6081922442527C520,372.6081922442527 520,385.6645624147328 612,385.6645624147328L612,412.7525289354712C520,412.7525289354712 520,399.6961587649911 428,399.6961587649911Z" style="stroke: rgb(68, 68, 68); stroke-opacity: 1; fill: rgb(180, 4, 38); fill-opacity: 0.5; stroke-width: 0; opacity: 1;"/><path class="sankey-link" d="M224,300.1175305744779C316,300.1175305744779 316,355.29083818379115 408,355.29083818379115L408,361.1584958937067C316,361.1584958937067 316,305.9851882843934 224,305.9851882843934Z" style="stroke: rgb(68, 68, 68); stroke-opacity: 1; fill: rgb(112, 147, 243); fill-opacity: 0.5; stroke-width: 0; opacity: 1;"/><path class="sankey-link" d="M428,455.4402149091462C520,455.4402149091462 520,360.85475966498086 612,360.85475966498086L612,365.6645624147328C520,365.6645624147328 520,460.2500176588982 428,460.2500176588982Z" style="stroke: rgb(68, 68, 68); stroke-opacity: 1; fill: rgb(98, 130, 234); fill-opacity: 0.5; stroke-width: 0; opacity: 1;"/><path class="sankey-link" d="M224,235.82477298108978C316,235.82477298108978 316,241.88558752550364 408,241.88558752550364L408,251.50759886188723C316,251.50759886188723 316,245.44678431747337 224,245.44678431747337Z" style="stroke: rgb(68, 68, 68); stroke-opacity: 1; fill: rgb(165, 195, 254); fill-opacity: 0.5; stroke-width: 0; opacity: 1;"/><path class="sankey-link" d="M836,252.2445558430514C928,252.2445558430514 928,241.73581072880177 1020,241.73581072880177L1020,244.39951458059886C928,244.39951458059886 928,254.90825969484848 836,254.90825969484848Z" style="stroke: rgb(68, 68, 68); stroke-opacity: 1; fill: rgb(59, 76, 192); fill-opacity: 0.5; stroke-width: 0; opacity: 1;"/><path class="sankey-link" d="M428,345.41443974955166C724,345.41443974955166 724,253.85628759211272 1020,253.85628759211272L1020,259.52701700152363C724,259.52701700152363 724,351.0851691589626 428,351.0851691589626Z" style="stroke: rgb(68, 68, 68); stroke-opacity: 1; fill: rgb(137, 172, 253); fill-opacity: 0.5; stroke-width: 0; opacity: 1;"/><path class="sankey-link" d="M836,320.29978489444505C928,320.29978489444505 928,266.93355602828433 1020,266.93355602828433L1020,271.1068031098836C928,271.1068031098836 928,324.4730319760443 836,324.4730319760443Z" style="stroke: rgb(68, 68, 68); stroke-opacity: 1; fill: rgb(95, 127, 232); fill-opacity: 0.5; stroke-width: 0; opacity: 1;"/><path class="sankey-link" d="M836,258.13681328808303C928,258.13681328808303 928,244.3995145805989 1020,244.3995145805989L1020,253.85628759211275C928,253.85628759211275 928,267.5935862995969 836,267.5935862995969Z" style="stroke: rgb(68, 68, 68); stroke-opacity: 1; fill: rgb(231, 215, 206); fill-opacity: 0.5; stroke-width: 0; opacity: 1;"/><path class="sankey-link" d="M632,339.26808427323124C826,339.26808427323124 826,259.52701700152363 1020,259.52701700152363L1020,266.93355602828433C826,266.93355602828433 826,346.67462329999194 632,346.67462329999194Z" style="stroke: rgb(68, 68, 68); stroke-opacity: 1; fill: rgb(185, 208, 249); fill-opacity: 0.5; stroke-width: 0; opacity: 1;"/><path class="sankey-link" d="M836,344.4730319760443C928,344.4730319760443 928,271.1068031098835 1020,271.1068031098835L1020,286.3175757086586C928,286.3175757086586 928,359.68380457481936 836,359.68380457481936Z" style="stroke: rgb(68, 68, 68); stroke-opacity: 1; fill: rgb(180, 4, 38); fill-opacity: 0.5; stroke-width: 0; opacity: 1;"/><path class="sankey-link" d="M632,246.8926325891387C826,246.8926325891387 826,230.31756369792527 1020,230.31756369792527L1020,241.73581072880177C826,241.73581072880177 826,258.3108796200152 632,258.3108796200152Z" style="stroke: rgb(68, 68, 68); stroke-opacity: 1; fill: rgb(247, 173, 144); fill-opacity: 0.5; stroke-width: 0; opacity: 1;"/></g><g class="sankey-node-set" style="cursor: move;"><g class="sankey-node" transform="translate(204.000,402.785)" style="opacity: 1;"><rect class="node-rect" width="20" height="5.798152114490108" style="stroke-width: 2; stroke: rgb(255, 255, 255); stroke-opacity: 1; fill: rgb(162, 193, 255); fill-opacity: 0.5;"/><text class="node-label" data-notex="1" x="0" y="0" text-anchor="start" transform="translate(24,8.149076057245054)" style="cursor: default; font-family: Arial; font-size: 15px; fill: rgb(42, 63, 95); fill-opacity: 1; white-space: pre; text-shadow: white 1px 1px 1px, white -1px -1px 1px, white 1px -1px 1px, white -1px 1px 1px;">Platelet degranulation </text></g><g class="sankey-node" transform="translate(612.000,278.311)" style="opacity: 1;"><rect class="node-rect" width="20" height="4.35824291256165" style="stroke-width: 2; stroke: rgb(255, 255, 255); stroke-opacity: 1; fill: rgb(121, 156, 248); fill-opacity: 0.5;"/><text class="node-label" data-notex="1" x="0" y="0" text-anchor="start" transform="translate(24,7.429121456280825)" style="cursor: default; font-family: Arial; font-size: 15px; fill: rgb(42, 63, 95); fill-opacity: 1; white-space: pre; text-shadow: white 1px 1px 1px, white -1px -1px 1px, white 1px -1px 1px, white -1px 1px 1px;">Cellular responses to stress</text></g><g class="sankey-node" transform="translate(408.000,331.174)" style="opacity: 1;"><rect class="node-rect" width="20" height="4.117288955391473" style="stroke-width: 2; stroke: rgb(255, 255, 255); stroke-opacity: 1; fill: rgb(60, 78, 194); fill-opacity: 0.5;"/><text class="node-label" data-notex="1" x="0" y="0" text-anchor="start" transform="translate(24,7.308644477695736)" style="cursor: default; font-family: Arial; font-size: 15px; fill: rgb(42, 63, 95); fill-opacity: 1; white-space: pre; text-shadow: white 1px 1px 1px, white -1px -1px 1px, white 1px -1px 1px, white -1px 1px 1px;">Metabolism of porphyrins</text></g><g class="sankey-node" transform="translate(408.000,345.414)" style="opacity: 1;"><rect class="node-rect" width="20" height="7.193752494701016" style="stroke-width: 2; stroke: rgb(255, 255, 255); stroke-opacity: 1; fill: rgb(137, 172, 253); fill-opacity: 0.5;"/><text class="node-label" data-notex="1" x="0" y="0" text-anchor="start" transform="translate(24,8.846876247350508)" style="cursor: default; font-family: Arial; font-size: 15px; fill: rgb(42, 63, 95); fill-opacity: 1; white-space: pre; text-shadow: white 1px 1px 1px, white -1px -1px 1px, white 1px -1px 1px, white -1px 1px 1px;">Drug ADME</text></g><g class="sankey-node" transform="translate(204.000,377.185)" style="opacity: 1;"><rect class="node-rect" width="20" height="5.600001201073383" style="stroke-width: 2; stroke: rgb(255, 255, 255); stroke-opacity: 1; fill: rgb(98, 130, 234); fill-opacity: 0.5;"/><text class="node-label" data-notex="1" x="0" y="0" text-anchor="start" transform="translate(24,8.050000600536691)" style="cursor: default; font-family: Arial; font-size: 15px; fill: rgb(42, 63, 95); fill-opacity: 1; white-space: pre; text-shadow: white 1px 1px 1px, white -1px -1px 1px, white 1px -1px 1px, white -1px 1px 1px;">HDL remodeling</text></g><g class="sankey-node" transform="translate(612.000,302.669)" style="opacity: 1;"><rect class="node-rect" width="20" height="2.635593523601983" style="stroke-width: 2; stroke: rgb(255, 255, 255); stroke-opacity: 1; fill: rgb(59, 76, 192); fill-opacity: 0.5;"/><text class="node-label" data-notex="1" x="0" y="0" text-anchor="start" transform="translate(24,6.567796761800992)" style="cursor: default; font-family: Arial; font-size: 15px; fill: rgb(42, 63, 95); fill-opacity: 1; white-space: pre; text-shadow: white 1px 1px 1px, white -1px -1px 1px, white 1px -1px 1px, white -1px 1px 1px;">Metabolism of lipids</text></g><g class="sankey-node" transform="translate(816.000,320.300)" style="opacity: 1;"><rect class="node-rect" width="20" height="4.173247081599243" style="stroke-width: 2; stroke: rgb(255, 255, 255); stroke-opacity: 1; fill: rgb(95, 127, 232); fill-opacity: 0.5;"/><text class="node-label" data-notex="1" x="0" y="0" text-anchor="start" transform="translate(24,7.336623540799621)" style="cursor: default; font-family: Arial; font-size: 15px; fill: rgb(42, 63, 95); fill-opacity: 1; white-space: pre; text-shadow: white 1px 1px 1px, white -1px -1px 1px, white 1px -1px 1px, white -1px 1px 1px;">Hemostasis</text></g><g class="sankey-node" transform="translate(408.000,355.291)" style="opacity: 1;"><rect class="node-rect" width="20" height="5.867657709915534" style="stroke-width: 2; stroke: rgb(255, 255, 255); stroke-opacity: 1; fill: rgb(99, 132, 235); fill-opacity: 0.5;"/><text class="node-label" data-notex="1" x="0" y="0" text-anchor="start" transform="translate(24,8.183828854957767)" style="cursor: default; font-family: Arial; font-size: 15px; fill: rgb(42, 63, 95); fill-opacity: 1; white-space: pre; text-shadow: white 1px 1px 1px, white -1px -1px 1px, white 1px -1px 1px, white -1px 1px 1px;">Post-translational modification</text></g><g class="sankey-node" transform="translate(816.000,252.245)" style="opacity: 1;"><rect class="node-rect" width="20" height="4.35824291256165" style="stroke-width: 2; stroke: rgb(255, 255, 255); stroke-opacity: 1; fill: rgb(59, 76, 192); fill-opacity: 0.5;"/><text class="node-label" data-notex="1" x="0" y="0" text-anchor="start" transform="translate(24,7.429121456280825)" style="cursor: default; font-family: Arial; font-size: 15px; fill: rgb(42, 63, 95); fill-opacity: 1; white-space: pre; text-shadow: white 1px 1px 1px, white -1px -1px 1px, white 1px -1px 1px, white -1px 1px 1px;">Cellular responses to stimuli</text></g><g class="sankey-node" transform="translate(204.000,226.642)" style="opacity: 1;"><rect class="node-rect" width="20" height="18.804932655517348" style="stroke-width: 2; stroke: rgb(255, 255, 255); stroke-opacity: 1; fill: rgb(165, 195, 254); fill-opacity: 0.5;"/><text class="node-label" data-notex="1" x="0" y="0" text-anchor="start" transform="translate(24,14.652466327758674)" style="cursor: default; font-family: Arial; font-size: 15px; fill: rgb(42, 63, 95); fill-opacity: 1; white-space: pre; text-shadow: white 1px 1px 1px, white -1px -1px 1px, white 1px -1px 1px, white -1px 1px 1px;">Scavenging of heme from plasma</text></g><g class="sankey-node" transform="translate(408.000,241.886)" style="opacity: 1;"><rect class="node-rect" width="20" height="9.952561371537485" style="stroke-width: 2; stroke: rgb(255, 255, 255); stroke-opacity: 1; fill: rgb(209, 218, 233); fill-opacity: 0.5;"/><text class="node-label" data-notex="1" x="0" y="0" text-anchor="start" transform="translate(24,10.226280685768742)" style="cursor: default; font-family: Arial; font-size: 15px; fill: rgb(42, 63, 95); fill-opacity: 1; white-space: pre; text-shadow: white 1px 1px 1px, white -1px -1px 1px, white 1px -1px 1px, white -1px 1px 1px;">Binding and Uptake by Scavenger Receptors</text></g><g class="sankey-node" transform="translate(408.000,308.538)" style="opacity: 1;"><rect class="node-rect" width="20" height="2.635593523602097" style="stroke-width: 2; stroke: rgb(255, 255, 255); stroke-opacity: 1; fill: rgb(72, 95, 209); fill-opacity: 0.5;"/><text class="node-label" data-notex="1" x="0" y="0" text-anchor="start" transform="translate(24,6.567796761801048)" style="cursor: default; font-family: Arial; font-size: 15px; fill: rgb(42, 63, 95); fill-opacity: 1; white-space: pre; text-shadow: white 1px 1px 1px, white -1px -1px 1px, white 1px -1px 1px, white -1px 1px 1px;">Metabolism of steroids</text></g><g class="sankey-node" transform="translate(816.000,258.137)" style="opacity: 1;"><rect class="node-rect" width="20" height="9.45677301151386" style="stroke-width: 2; stroke: rgb(255, 255, 255); stroke-opacity: 1; fill: rgb(231, 215, 206); fill-opacity: 0.5;"/><text class="node-label" data-notex="1" x="0" y="0" text-anchor="start" transform="translate(24,9.97838650575693)" style="cursor: default; font-family: Arial; font-size: 15px; fill: rgb(42, 63, 95); fill-opacity: 1; white-space: pre; text-shadow: white 1px 1px 1px, white -1px -1px 1px, white 1px -1px 1px, white -1px 1px 1px;">Metabolism</text></g><g class="sankey-node" transform="translate(612.000,385.665)" style="opacity: 1;"><rect class="node-rect" width="20" height="27.087966520738405" style="stroke-width: 2; stroke: rgb(255, 255, 255); stroke-opacity: 1; fill: rgb(180, 4, 38); fill-opacity: 0.5;"/><text class="node-label" data-notex="1" x="0" y="0" text-anchor="start" transform="translate(24,18.793983260369203)" style="cursor: default; font-family: Arial; font-size: 15px; fill: rgb(42, 63, 95); fill-opacity: 1; white-space: pre; text-shadow: white 1px 1px 1px, white -1px -1px 1px, white 1px -1px 1px, white -1px 1px 1px;">Lipoprotein assembly remodeling and clearance</text></g><g class="sankey-node" transform="translate(408.000,372.608)" style="opacity: 1;"><rect class="node-rect" width="20" height="27.08796652073852" style="stroke-width: 2; stroke: rgb(255, 255, 255); stroke-opacity: 1; fill: rgb(180, 4, 38); fill-opacity: 0.5;"/><text class="node-label" data-notex="1" x="0" y="0" text-anchor="start" transform="translate(24,18.79398326036926)" style="cursor: default; font-family: Arial; font-size: 15px; fill: rgb(42, 63, 95); fill-opacity: 1; white-space: pre; text-shadow: white 1px 1px 1px, white -1px -1px 1px, white 1px -1px 1px, white -1px 1px 1px;">Plasma lipoprotein remodeling</text></g><g class="sankey-node" transform="translate(204.000,428.583)" style="opacity: 1;"><rect class="node-rect" width="20" height="7.375749315975213" style="stroke-width: 2; stroke: rgb(255, 255, 255); stroke-opacity: 1; fill: rgb(59, 76, 192); fill-opacity: 0.5;"/><text class="node-label" data-notex="1" x="0" y="0" text-anchor="start" transform="translate(24,8.937874657987606)" style="cursor: default; font-family: Arial; font-size: 15px; fill: rgb(42, 63, 95); fill-opacity: 1; white-space: pre; text-shadow: white 1px 1px 1px, white -1px -1px 1px, white 1px -1px 1px, white -1px 1px 1px;">Heme degradation</text></g><g class="sankey-node" transform="translate(408.000,455.440)" style="opacity: 1;"><rect class="node-rect" width="20" height="5.798152114489994" style="stroke-width: 2; stroke: rgb(255, 255, 255); stroke-opacity: 1; fill: rgb(98, 130, 234); fill-opacity: 0.5;"/><text class="node-label" data-notex="1" x="0" y="0" text-anchor="start" transform="translate(24,8.149076057244997)" style="cursor: default; font-family: Arial; font-size: 15px; fill: rgb(42, 63, 95); fill-opacity: 1; white-space: pre; text-shadow: white 1px 1px 1px, white -1px -1px 1px, white 1px -1px 1px, white -1px 1px 1px;">Response to elevated platelet cytosolic Ca2+</text></g><g class="sankey-node" transform="translate(612.000,246.893)" style="opacity: 1;"><rect class="node-rect" width="20" height="11.418247030876557" style="stroke-width: 2; stroke: rgb(255, 255, 255); stroke-opacity: 1; fill: rgb(247, 173, 144); fill-opacity: 0.5;"/><text class="node-label" data-notex="1" x="0" y="0" text-anchor="start" transform="translate(24,10.959123515438279)" style="cursor: default; font-family: Arial; font-size: 15px; fill: rgb(42, 63, 95); fill-opacity: 1; white-space: pre; text-shadow: white 1px 1px 1px, white -1px -1px 1px, white 1px -1px 1px, white -1px 1px 1px;">Vesicle-mediated transport</text></g><g class="sankey-node" transform="translate(408.000,286.678)" style="opacity: 1;"><rect class="node-rect" width="20" height="1.8596912149503169" style="stroke-width: 2; stroke: rgb(255, 255, 255); stroke-opacity: 1; fill: rgb(62, 81, 197); fill-opacity: 0.5;"/><text class="node-label" data-notex="1" x="0" y="0" text-anchor="start" transform="translate(24,6.179845607475158)" style="cursor: default; font-family: Arial; font-size: 15px; fill: rgb(42, 63, 95); fill-opacity: 1; white-space: pre; text-shadow: white 1px 1px 1px, white -1px -1px 1px, white 1px -1px 1px, white -1px 1px 1px;">Cellular response to chemical stress</text></g><g class="sankey-node" transform="translate(204.000,491.002)" style="opacity: 1;"><rect class="node-rect" width="20" height="25.63352927912706" style="stroke-width: 2; stroke: rgb(255, 255, 255); stroke-opacity: 1; fill: rgb(187, 209, 248); fill-opacity: 0.5;"/><text class="node-label" data-notex="1" x="0" y="0" text-anchor="start" transform="translate(24,18.06676463956353)" style="cursor: default; font-family: Arial; font-size: 15px; fill: rgb(42, 63, 95); fill-opacity: 1; white-space: pre; text-shadow: white 1px 1px 1px, white -1px -1px 1px, white 1px -1px 1px, white -1px 1px 1px;">IGF transport and uptake</text></g><g class="sankey-node" transform="translate(612.000,360.855)" style="opacity: 1;"><rect class="node-rect" width="20" height="4.809802749751952" style="stroke-width: 2; stroke: rgb(255, 255, 255); stroke-opacity: 1; fill: rgb(63, 83, 198); fill-opacity: 0.5;"/><text class="node-label" data-notex="1" x="0" y="0" text-anchor="start" transform="translate(24,7.654901374875976)" style="cursor: default; font-family: Arial; font-size: 15px; fill: rgb(42, 63, 95); fill-opacity: 1; white-space: pre; text-shadow: white 1px 1px 1px, white -1px -1px 1px, white 1px -1px 1px, white -1px 1px 1px;">Platelet activation signaling and aggregation</text></g><g class="sankey-node" transform="translate(204.000,455.959)" style="opacity: 1;"><rect class="node-rect" width="20" height="15.042516809377958" style="stroke-width: 2; stroke: rgb(255, 255, 255); stroke-opacity: 1; fill: rgb(167, 197, 254); fill-opacity: 0.5;"/><text class="node-label" data-notex="1" x="0" y="0" text-anchor="start" transform="translate(24,12.771258404688979)" style="cursor: default; font-family: Arial; font-size: 15px; fill: rgb(42, 63, 95); fill-opacity: 1; white-space: pre; text-shadow: white 1px 1px 1px, white -1px -1px 1px, white 1px -1px 1px, white -1px 1px 1px;">Aspirin ADME</text></g><g class="sankey-node" transform="translate(204.000,351.585)" style="opacity: 1;"><rect class="node-rect" width="20" height="5.600001201073269" style="stroke-width: 2; stroke: rgb(255, 255, 255); stroke-opacity: 1; fill: rgb(59, 76, 192); fill-opacity: 0.5;"/><text class="node-label" data-notex="1" x="0" y="0" text-anchor="start" transform="translate(24,8.050000600536634)" style="cursor: default; font-family: Arial; font-size: 15px; fill: rgb(42, 63, 95); fill-opacity: 1; white-space: pre; text-shadow: white 1px 1px 1px, white -1px -1px 1px, white 1px -1px 1px, white -1px 1px 1px;">Bile acid and bile salt metabolism</text></g><g class="sankey-node" transform="translate(204.000,265.447)" style="opacity: 1;"><rect class="node-rect" width="20" height="7.3695661805296595" style="stroke-width: 2; stroke: rgb(255, 255, 255); stroke-opacity: 1; fill: rgb(70, 94, 207); fill-opacity: 0.5;"/><text class="node-label" data-notex="1" x="0" y="0" text-anchor="start" transform="translate(24,8.93478309026483)" style="cursor: default; font-family: Arial; font-size: 15px; fill: rgb(42, 63, 95); fill-opacity: 1; white-space: pre; text-shadow: white 1px 1px 1px, white -1px -1px 1px, white 1px -1px 1px, white -1px 1px 1px;">Heme biosynthesis</text></g><g class="sankey-node" transform="translate(204.000,325.985)" style="opacity: 1;"><rect class="node-rect" width="20" height="5.600001201073383" style="stroke-width: 2; stroke: rgb(255, 255, 255); stroke-opacity: 1; fill: rgb(75, 100, 213); fill-opacity: 0.5;"/><text class="node-label" data-notex="1" x="0" y="0" text-anchor="start" transform="translate(24,8.050000600536691)" style="cursor: default; font-family: Arial; font-size: 15px; fill: rgb(42, 63, 95); fill-opacity: 1; white-space: pre; text-shadow: white 1px 1px 1px, white -1px -1px 1px, white 1px -1px 1px, white -1px 1px 1px;">Cytoprotection by HMOX1</text></g><g class="sankey-node" transform="translate(0.000,230.318)" style="opacity: 1;"><rect class="node-rect" width="20" height="56.00001201073326" style="stroke-width: 2; stroke: rgb(255, 255, 255); stroke-opacity: 1; fill: rgb(180, 4, 38); fill-opacity: 0.5;"/><text class="node-label" data-notex="1" x="0" y="0" text-anchor="start" transform="translate(24,33.25000600536663)" style="cursor: default; font-family: Arial; font-size: 15px; fill: rgb(42, 63, 95); fill-opacity: 1; white-space: pre; text-shadow: white 1px 1px 1px, white -1px -1px 1px, white 1px -1px 1px, white -1px 1px 1px;">ALBU</text></g><g class="sankey-node" transform="translate(612.000,339.268)" style="opacity: 1;"><rect class="node-rect" width="20" height="11.562612640670523" style="stroke-width: 2; stroke: rgb(255, 255, 255); stroke-opacity: 1; fill: rgb(185, 208, 249); fill-opacity: 0.5;"/><text class="node-label" data-notex="1" x="0" y="0" text-anchor="start" transform="translate(24,11.031306320335261)" style="cursor: default; font-family: Arial; font-size: 15px; fill: rgb(42, 63, 95); fill-opacity: 1; white-space: pre; text-shadow: white 1px 1px 1px, white -1px -1px 1px, white 1px -1px 1px, white -1px 1px 1px;">Metabolism of proteins</text></g><g class="sankey-node" transform="translate(1020.000,230.318)" style="opacity: 1;"><rect class="node-rect" width="20" height="56.00001201073326" style="stroke-width: 2; stroke: rgb(255, 255, 255); stroke-opacity: 1; fill: rgb(0, 0, 0); fill-opacity: 1;"/><text class="node-label" data-notex="1" x="0" y="0" text-anchor="end" transform="translate(-4,33.25000600536663)" style="cursor: default; font-family: Arial; font-size: 15px; fill: rgb(42, 63, 95); fill-opacity: 1; white-space: pre; text-shadow: white 1px 1px 1px, white -1px -1px 1px, white 1px -1px 1px, white -1px 1px 1px;">Output</text></g><g class="sankey-node" transform="translate(204.000,292.816)" style="opacity: 1;"><rect class="node-rect" width="20" height="13.168837786390384" style="stroke-width: 2; stroke: rgb(255, 255, 255); stroke-opacity: 1; fill: rgb(112, 147, 243); fill-opacity: 0.5;"/><text class="node-label" data-notex="1" x="0" y="0" text-anchor="start" transform="translate(24,11.834418893195192)" style="cursor: default; font-family: Arial; font-size: 15px; fill: rgb(42, 63, 95); fill-opacity: 1; white-space: pre; text-shadow: white 1px 1px 1px, white -1px -1px 1px, white 1px -1px 1px, white -1px 1px 1px;">Post-translational protein phosphorylation</text></g><g class="sankey-node" transform="translate(816.000,344.473)" style="opacity: 1;"><rect class="node-rect" width="20" height="21.630485061839522" style="stroke-width: 2; stroke: rgb(255, 255, 255); stroke-opacity: 1; fill: rgb(180, 4, 38); fill-opacity: 0.5;"/><text class="node-label" data-notex="1" x="0" y="0" text-anchor="start" transform="translate(24,16.06524253091976)" style="cursor: default; font-family: Arial; font-size: 15px; fill: rgb(42, 63, 95); fill-opacity: 1; white-space: pre; text-shadow: white 1px 1px 1px, white -1px -1px 1px, white 1px -1px 1px, white -1px 1px 1px;">Transport of small molecules</text></g></g></g><defs id="topdefs-9b0fe4"><g class="clips"/></defs><g class="layer-above"><g class="imagelayer"/><g class="shapelayer"/></g><g class="infolayer"><g class="g-gtitle"/><g class="first-render"/></g></svg>