<svg class="main-svg" xmlns="http://www.w3.org/2000/svg" xmlns:xlink="http://www.w3.org/1999/xlink" width="3000" height="2000" style="" viewBox="0 0 1200 800"><rect x="0" y="0" width="1200" height="800" style="fill: rgb(255, 255, 255); fill-opacity: 1;"/><defs id="defs-c6eef8"><g class="clips"/><g class="gradients"/><g class="patterns"/></defs><g class="bglayer"/><g class="layer-below"><g class="imagelayer"/><g class="shapelayer"/></g><g class="cartesianlayer"/><g class="polarlayer"/><g class="smithlayer"/><g class="ternarylayer"/><g class="geolayer"/><g class="funnelarealayer"/><g class="pielayer"/><g class="iciclelayer"/><g class="treemaplayer"/><g class="sunburstlayer"/><g class="glimages"/><g class="sankey" transform="translate(80,100)matrix(1 0 0 1 0 0)" style="box-sizing: content-box; position: absolute; left: 0px; shape-rendering: geometricprecision; pointer-events: auto;"><g class="sankey-links" style="fill: none;"><path class="sankey-link" d="M632,86.91474160436721C724,86.91474160436721 724,80.3166482913855 816,80.3166482913855L816,96.13162520006502C724,96.13162520006502 724,102.72971851304672 632,102.72971851304672Z" style="stroke: rgb(68, 68, 68); stroke-opacity: 1; fill: rgb(59, 76, 192); fill-opacity: 0.5; stroke-width: 0; opacity: 1;"/><path class="sankey-link" d="M632,340.0195622782603C724,340.0195622782603 724,269.0172722906061 816,269.0172722906061L816,308.17478091247335C724,308.17478091247335 724,379.17707090012755 632,379.17707090012755Z" style="stroke: rgb(68, 68, 68); stroke-opacity: 1; fill: rgb(227, 108, 85); fill-opacity: 0.5; stroke-width: 0; opacity: 1;"/><path class="sankey-link" d="M632,262.0547801374571C724,262.0547801374571 724,174.5914838796919 816,174.5914838796919L816,216.15464684060566C724,216.15464684060566 724,303.6179430983709 632,303.6179430983709Z" style="stroke: rgb(68, 68, 68); stroke-opacity: 1; fill: rgb(203, 62, 56); fill-opacity: 0.5; stroke-width: 0; opacity: 1;"/><path class="sankey-link" d="M632,183.59492145783017C724,183.59492145783017 724,96.13162520006496 816,96.13162520006496L816,139.47218806519973C724,139.47218806519973 724,226.93548432296492 632,226.93548432296492Z" style="stroke: rgb(68, 68, 68); stroke-opacity: 1; fill: rgb(180, 4, 38); fill-opacity: 0.5; stroke-width: 0; opacity: 1;"/><path class="sankey-link" d="M224,42.82295141088543C316,42.82295141088543 316,73.05830196799418 408,73.05830196799418L408,86.84667644631777C316,86.84667644631777 316,56.611325889209034 224,56.611325889209034Z" style="stroke: rgb(68, 68, 68); stroke-opacity: 1; fill: rgb(152, 185, 255); fill-opacity: 0.5; stroke-width: 0; opacity: 1;"/><path class="sankey-link" d="M224,444.344229454036C316,444.344229454036 316,288.9706567944324 408,288.9706567944324L408,334.8378410596562C316,334.8378410596562 316,490.21141371925984 224,490.21141371925984Z" style="stroke: rgb(68, 68, 68); stroke-opacity: 1; fill: rgb(180, 4, 38); fill-opacity: 0.5; stroke-width: 0; opacity: 1;"/><path class="sankey-link" d="M224,391.777743531993C316,391.777743531993 316,262.86683973263456 408,262.86683973263456L408,280.3140298401856C316,280.3140298401856 316,409.224933639544 224,409.224933639544Z" style="stroke: rgb(68, 68, 68); stroke-opacity: 1; fill: rgb(181, 205, 250); fill-opacity: 0.5; stroke-width: 0; opacity: 1;"/><path class="sankey-link" d="M224,337.4644531117947C316,337.4644531117947 316,243.67284512692834 408,243.67284512692834L408,262.86683973263456C316,262.86683973263456 316,356.65844771750096 224,356.65844771750096Z" style="stroke: rgb(68, 68, 68); stroke-opacity: 1; fill: rgb(193, 212, 244); fill-opacity: 0.5; stroke-width: 0; opacity: 1;"/><path class="sankey-link" d="M 204 547.7846561077523 L199 547.7846561077523A35.39579507355027 35.39579507355027 0 0 0 163.6042049264497 583.1804511813026L163.6042049264497 588.1804511813026A35.39579507355027 35.39579507355027 0 0 0 199 623.5762462548529L229 623.5762462548529A35.39579507355027 35.39579507355027 0 0 0 264.3957950735503 588.1804511813026L264.3957950735503 583.1804511813026A35.39579507355027 35.39579507355027 0 0 0 229 547.7846561077523L224 547.7846561077523L224 573.1804511813026L229 573.1804511813026A10 10 0 0 1 239 583.1804511813026L239 588.1804511813026A10 10 0 0 1 229 598.1804511813026L199 598.1804511813026A10 10 0 0 1 189 588.1804511813026L189 583.1804511813026A10 10 0 0 1 199 573.1804511813026L204 573.1804511813026Z" style="stroke: rgb(68, 68, 68); stroke-opacity: 1; fill: rgb(151, 184, 255); fill-opacity: 0.5; stroke-width: 0; opacity: 1;"/><path class="sankey-link" d="M224,91.92986836103695C316,91.92986836103695 316,169.27825621120382 408,169.27825621120382L408,174.32484680812695C316,174.32484680812695 316,96.97645895796008 224,96.97645895796008Z" style="stroke: rgb(68, 68, 68); stroke-opacity: 1; fill: rgb(85, 114, 223); fill-opacity: 0.5; stroke-width: 0; opacity: 1;"/><path class="sankey-link" d="M224,141.03678531118842C316,141.03678531118842 316,174.3248468081269 408,174.3248468081269L408,176.93411418696945C316,176.93411418696945 316,143.64605269003098 224,143.64605269003098Z" style="stroke: rgb(68, 68, 68); stroke-opacity: 1; fill: rgb(68, 90, 204); fill-opacity: 0.5; stroke-width: 0; opacity: 1;"/><path class="sankey-link" d="M224,239.25061921149162C316,239.25061921149162 316,178.13541051630872 408,178.13541051630872L408,182.21610972662174C316,182.21610972662174 316,243.33131842180464 224,243.33131842180464Z" style="stroke: rgb(68, 68, 68); stroke-opacity: 1; fill: rgb(78, 104, 216); fill-opacity: 0.5; stroke-width: 0; opacity: 1;"/><path class="sankey-link" d="M224,288.3575361616432C316,288.3575361616432 316,182.21610972662174 408,182.21610972662174L408,187.4619290374442C316,187.4619290374442 316,293.60335547246564 224,293.60335547246564Z" style="stroke: rgb(68, 68, 68); stroke-opacity: 1; fill: rgb(86, 115, 224); fill-opacity: 0.5; stroke-width: 0; opacity: 1;"/><path class="sankey-link" d="M224,190.14370226134017C316,190.14370226134017 316,176.93411418696948 408,176.93411418696948L408,178.13541051630872C316,178.13541051630872 316,191.3449985906794 224,191.3449985906794Z" style="stroke: rgb(68, 68, 68); stroke-opacity: 1; fill: rgb(59, 76, 192); fill-opacity: 0.5; stroke-width: 0; opacity: 1;"/><path class="sankey-link" d="M20,4.440892098500626e-15C112,4.440892098500626e-15 112,42.822951410885345 204,42.822951410885345L204,56.81057254654488C112,56.81057254654488 112,13.987621135659541 20,13.987621135659541Z" style="stroke: rgb(68, 68, 68); stroke-opacity: 1; fill: rgb(180, 4, 38); fill-opacity: 0.5; stroke-width: 0; opacity: 1;"/><path class="sankey-link" d="M20,111.90096908527632C112,111.90096908527632 112,444.344229454036 204,444.344229454036L204,458.33185058969553C112,458.33185058969553 112,125.88859022093585 20,125.88859022093585Z" style="stroke: rgb(68, 68, 68); stroke-opacity: 1; fill: rgb(180, 4, 38); fill-opacity: 0.5; stroke-width: 0; opacity: 1;"/><path class="sankey-link" d="M20,97.91334794961678C112,97.91334794961678 112,391.777743531993 204,391.777743531993L204,405.76536466765253C112,405.76536466765253 112,111.90096908527632 20,111.90096908527632Z" style="stroke: rgb(68, 68, 68); stroke-opacity: 1; fill: rgb(180, 4, 38); fill-opacity: 0.5; stroke-width: 0; opacity: 1;"/><path class="sankey-link" d="M20,83.92572681395723C112,83.92572681395723 112,337.4644531117946 204,337.4644531117946L204,351.45207424745416C112,351.45207424745416 112,97.91334794961676 20,97.91334794961676Z" style="stroke: rgb(68, 68, 68); stroke-opacity: 1; fill: rgb(180, 4, 38); fill-opacity: 0.5; stroke-width: 0; opacity: 1;"/><path class="sankey-link" d="M20,125.88859022093587C112,125.88859022093587 112,525.330709533752 204,525.330709533752L204,539.3183306694116C112,539.3183306694116 112,139.8762113565954 20,139.8762113565954Z" style="stroke: rgb(68, 68, 68); stroke-opacity: 1; fill: rgb(180, 4, 38); fill-opacity: 0.5; stroke-width: 0; opacity: 1;"/><path class="sankey-link" d="M20,13.987621135659499C112,13.987621135659499 112,91.92986836103687 204,91.92986836103687L204,105.9174894966964C112,105.9174894966964 112,27.975242271319036 20,27.975242271319036Z" style="stroke: rgb(68, 68, 68); stroke-opacity: 1; fill: rgb(180, 4, 38); fill-opacity: 0.5; stroke-width: 0; opacity: 1;"/><path class="sankey-link" d="M20,27.975242271319047C112,27.975242271319047 112,141.03678531118837 204,141.03678531118837L204,155.0244064468479C112,155.0244064468479 112,41.962863406978585 20,41.962863406978585Z" style="stroke: rgb(68, 68, 68); stroke-opacity: 1; fill: rgb(180, 4, 38); fill-opacity: 0.5; stroke-width: 0; opacity: 1;"/><path class="sankey-link" d="M20,55.95048454263814C112,55.95048454263814 112,239.2506192114916 204,239.2506192114916L204,253.23824034715113C112,253.23824034715113 112,69.93810567829767 20,69.93810567829767Z" style="stroke: rgb(68, 68, 68); stroke-opacity: 1; fill: rgb(180, 4, 38); fill-opacity: 0.5; stroke-width: 0; opacity: 1;"/><path class="sankey-link" d="M20,69.93810567829769C112,69.93810567829769 112,288.3575361616431 204,288.3575361616431L204,302.34515729730265C112,302.34515729730265 112,83.92572681395723 20,83.92572681395723Z" style="stroke: rgb(68, 68, 68); stroke-opacity: 1; fill: rgb(180, 4, 38); fill-opacity: 0.5; stroke-width: 0; opacity: 1;"/><path class="sankey-link" d="M20,41.96286340697859C112,41.96286340697859 112,190.14370226134008 204,190.14370226134008L204,204.13132339699962C112,204.13132339699962 112,55.95048454263813 20,55.95048454263813Z" style="stroke: rgb(68, 68, 68); stroke-opacity: 1; fill: rgb(180, 4, 38); fill-opacity: 0.5; stroke-width: 0; opacity: 1;"/><path class="sankey-link" d="M428,288.97065679443233C520,288.97065679443233 520,340.0195622782603 612,340.0195622782603L612,393.3535274296546C520,393.3535274296546 520,342.3046219458266 428,342.3046219458266Z" style="stroke: rgb(68, 68, 68); stroke-opacity: 1; fill: rgb(180, 4, 38); fill-opacity: 0.5; stroke-width: 0; opacity: 1;"/><path class="sankey-link" d="M428,73.05830196799415C520,73.05830196799415 520,86.91474160436725 612,86.91474160436725L612,97.3546461946931C520,97.3546461946931 520,83.49820655832 428,83.49820655832Z" style="stroke: rgb(68, 68, 68); stroke-opacity: 1; fill: rgb(59, 76, 192); fill-opacity: 0.5; stroke-width: 0; opacity: 1;"/><path class="sankey-link" d="M428,243.67284512692834C520,243.67284512692834 520,262.0547801374571 612,262.0547801374571L612,304.9002664637684C520,304.9002664637684 520,286.5183314532396 428,286.5183314532396Z" style="stroke: rgb(68, 68, 68); stroke-opacity: 1; fill: rgb(243, 151, 120); fill-opacity: 0.5; stroke-width: 0; opacity: 1;"/><path class="sankey-link" d="M224,525.3307095337519C418,525.3307095337519 418,194.3978301723936 612,194.3978301723936L612,216.8517767463941C418,216.8517767463941 418,547.7846561077525 224,547.7846561077525Z" style="stroke: rgb(68, 68, 68); stroke-opacity: 1; fill: rgb(151, 184, 255); fill-opacity: 0.5; stroke-width: 0; opacity: 1;"/><path class="sankey-link" d="M428,169.27825621120377C520,169.27825621120377 520,183.59492145783017 612,183.59492145783017L612,194.3978301723936C520,194.3978301723936 520,180.0811649257672 428,180.0811649257672Z" style="stroke: rgb(68, 68, 68); stroke-opacity: 1; fill: rgb(61, 80, 195); fill-opacity: 0.5; stroke-width: 0; opacity: 1;"/><path class="sankey-link" d="M836,174.59148387969194C928,174.59148387969194 928,56.58149002870754 1020,56.58149002870754L1020,115.88798262512978C928,115.88798262512978 928,233.89797647611417 836,233.89797647611417Z" style="stroke: rgb(68, 68, 68); stroke-opacity: 1; fill: rgb(180, 4, 38); fill-opacity: 0.5; stroke-width: 0; opacity: 1;"/><path class="sankey-link" d="M836,80.31664829138549C928,80.31664829138549 928,-2.4868995751603507e-14 1020,-2.4868995751603507e-14L1020,56.58149002870752C928,56.58149002870752 928,136.89813832009304 836,136.89813832009304Z" style="stroke: rgb(68, 68, 68); stroke-opacity: 1; fill: rgb(207, 69, 60); fill-opacity: 0.5; stroke-width: 0; opacity: 1;"/><path class="sankey-link" d="M836,269.0172722906061C928,269.0172722906061 928,115.88798262512975 1020,115.88798262512975L1020,139.87621135659535C928,139.87621135659535 928,293.0055010220717 836,293.0055010220717Z" style="stroke: rgb(68, 68, 68); stroke-opacity: 1; fill: rgb(59, 76, 192); fill-opacity: 0.5; stroke-width: 0; opacity: 1;"/></g><g class="sankey-node-set" style="cursor: move;"><g class="sankey-node" transform="translate(612.000,183.595)" style="opacity: 1;"><rect class="node-rect" width="20" height="43.340562865134814" style="stroke-width: 2; stroke: rgb(255, 255, 255); stroke-opacity: 1; fill: rgb(180, 4, 38); fill-opacity: 0.5;"/><text class="node-label" data-notex="1" x="0" y="0" text-anchor="start" transform="translate(24,26.920281432567407)" style="cursor: default; font-family: Arial; font-size: 15px; fill: rgb(42, 63, 95); fill-opacity: 1; white-space: pre; text-shadow: white 1px 1px 1px, white -1px -1px 1px, white 1px -1px 1px, white -1px 1px 1px;">Innate Immunity</text></g><g class="sankey-node" transform="translate(204.000,91.930)" style="opacity: 1;"><rect class="node-rect" width="20" height="13.987621135659452" style="stroke-width: 2; stroke: rgb(255, 255, 255); stroke-opacity: 1; fill: rgb(85, 114, 223); fill-opacity: 0.5;"/><text class="node-label" data-notex="1" x="0" y="0" text-anchor="start" transform="translate(24,12.243810567829726)" style="cursor: default; font-family: Arial; font-size: 15px; fill: rgb(42, 63, 95); fill-opacity: 1; white-space: pre; text-shadow: white 1px 1px 1px, white -1px -1px 1px, white 1px -1px 1px, white -1px 1px 1px;">Regulation of TLR by ligand</text></g><g class="sankey-node" transform="translate(204.000,444.344)" style="opacity: 1;"><rect class="node-rect" width="20" height="45.86718426522384" style="stroke-width: 2; stroke: rgb(255, 255, 255); stroke-opacity: 1; fill: rgb(180, 4, 38); fill-opacity: 0.5;"/><text class="node-label" data-notex="1" x="0" y="0" text-anchor="start" transform="translate(24,28.18359213261192)" style="cursor: default; font-family: Arial; font-size: 15px; fill: rgb(42, 63, 95); fill-opacity: 1; white-space: pre; text-shadow: white 1px 1px 1px, white -1px -1px 1px, white 1px -1px 1px, white -1px 1px 1px;">Caspase activation via Death Receptors</text></g><g class="sankey-node" transform="translate(612.000,340.020)" style="opacity: 1;"><rect class="node-rect" width="20" height="53.33396515139424" style="stroke-width: 2; stroke: rgb(255, 255, 255); stroke-opacity: 1; fill: rgb(227, 108, 85); fill-opacity: 0.5;"/><text class="node-label" data-notex="1" x="0" y="0" text-anchor="start" transform="translate(24,31.91698257569712)" style="cursor: default; font-family: Arial; font-size: 15px; fill: rgb(42, 63, 95); fill-opacity: 1; white-space: pre; text-shadow: white 1px 1px 1px, white -1px -1px 1px, white 1px -1px 1px, white -1px 1px 1px;">Apoptosis</text></g><g class="sankey-node" transform="translate(204.000,141.037)" style="opacity: 1;"><rect class="node-rect" width="20" height="13.987621135659651" style="stroke-width: 2; stroke: rgb(255, 255, 255); stroke-opacity: 1; fill: rgb(68, 90, 204); fill-opacity: 0.5;"/><text class="node-label" data-notex="1" x="0" y="0" text-anchor="start" transform="translate(24,12.243810567829826)" style="cursor: default; font-family: Arial; font-size: 15px; fill: rgb(42, 63, 95); fill-opacity: 1; white-space: pre; text-shadow: white 1px 1px 1px, white -1px -1px 1px, white 1px -1px 1px, white -1px 1px 1px;">TLR2 Cascade</text></g><g class="sankey-node" transform="translate(612.000,86.915)" style="opacity: 1;"><rect class="node-rect" width="20" height="15.814976908679569" style="stroke-width: 2; stroke: rgb(255, 255, 255); stroke-opacity: 1; fill: rgb(59, 76, 192); fill-opacity: 0.5;"/><text class="node-label" data-notex="1" x="0" y="0" text-anchor="start" transform="translate(24,13.157488454339784)" style="cursor: default; font-family: Arial; font-size: 15px; fill: rgb(42, 63, 95); fill-opacity: 1; white-space: pre; text-shadow: white 1px 1px 1px, white -1px -1px 1px, white 1px -1px 1px, white -1px 1px 1px;">Adaptive Immune System</text></g><g class="sankey-node" transform="translate(0.000,0.000)" style="opacity: 1;"><rect class="node-rect" width="20" height="139.87621135659546" style="stroke-width: 2; stroke: rgb(255, 255, 255); stroke-opacity: 1; fill: rgb(180, 4, 38); fill-opacity: 0.5;"/><text class="node-label" data-notex="1" x="0" y="0" text-anchor="start" transform="translate(24,75.18810567829773)" style="cursor: default; font-family: Arial; font-size: 15px; fill: rgb(42, 63, 95); fill-opacity: 1; white-space: pre; text-shadow: white 1px 1px 1px, white -1px -1px 1px, white 1px -1px 1px, white -1px 1px 1px;">CD14</text></g><g class="sankey-node" transform="translate(204.000,190.144)" style="opacity: 1;"><rect class="node-rect" width="20" height="13.987621135659452" style="stroke-width: 2; stroke: rgb(255, 255, 255); stroke-opacity: 1; fill: rgb(59, 76, 192); fill-opacity: 0.5;"/><text class="node-label" data-notex="1" x="0" y="0" text-anchor="start" transform="translate(24,12.243810567829726)" style="cursor: default; font-family: Arial; font-size: 15px; fill: rgb(42, 63, 95); fill-opacity: 1; white-space: pre; text-shadow: white 1px 1px 1px, white -1px -1px 1px, white 1px -1px 1px, white -1px 1px 1px;">TLR9 Cascade</text></g><g class="sankey-node" transform="translate(204.000,337.464)" style="opacity: 1;"><rect class="node-rect" width="20" height="19.19399460570628" style="stroke-width: 2; stroke: rgb(255, 255, 255); stroke-opacity: 1; fill: rgb(193, 212, 244); fill-opacity: 0.5;"/><text class="node-label" data-notex="1" x="0" y="0" text-anchor="start" transform="translate(24,14.84699730285314)" style="cursor: default; font-family: Arial; font-size: 15px; fill: rgb(42, 63, 95); fill-opacity: 1; white-space: pre; text-shadow: white 1px 1px 1px, white -1px -1px 1px, white 1px -1px 1px, white -1px 1px 1px;">MyD88 deficiency (TLR2/4)</text></g><g class="sankey-node" transform="translate(408.000,243.673)" style="opacity: 1;"><rect class="node-rect" width="20" height="42.84548632631126" style="stroke-width: 2; stroke: rgb(255, 255, 255); stroke-opacity: 1; fill: rgb(243, 151, 120); fill-opacity: 0.5;"/><text class="node-label" data-notex="1" x="0" y="0" text-anchor="start" transform="translate(24,26.67274316315563)" style="cursor: default; font-family: Arial; font-size: 15px; fill: rgb(42, 63, 95); fill-opacity: 1; white-space: pre; text-shadow: white 1px 1px 1px, white -1px -1px 1px, white 1px -1px 1px, white -1px 1px 1px;">TLR assoc. diseases</text></g><g class="sankey-node" transform="translate(816.000,80.317)" style="opacity: 1;"><rect class="node-rect" width="20" height="59.1555397738143" style="stroke-width: 2; stroke: rgb(255, 255, 255); stroke-opacity: 1; fill: rgb(207, 69, 60); fill-opacity: 0.5;"/><text class="node-label" data-notex="1" x="0" y="0" text-anchor="start" transform="translate(24,34.82776988690715)" style="cursor: default; font-family: Arial; font-size: 15px; fill: rgb(42, 63, 95); fill-opacity: 1; white-space: pre; text-shadow: white 1px 1px 1px, white -1px -1px 1px, white 1px -1px 1px, white -1px 1px 1px;">Immune System</text></g><g class="sankey-node" transform="translate(816.000,174.591)" style="opacity: 1;"><rect class="node-rect" width="20" height="59.306492596422146" style="stroke-width: 2; stroke: rgb(255, 255, 255); stroke-opacity: 1; fill: rgb(180, 4, 38); fill-opacity: 0.5;"/><text class="node-label" data-notex="1" x="0" y="0" text-anchor="start" transform="translate(24,34.90324629821107)" style="cursor: default; font-family: Arial; font-size: 15px; fill: rgb(42, 63, 95); fill-opacity: 1; white-space: pre; text-shadow: white 1px 1px 1px, white -1px -1px 1px, white 1px -1px 1px, white -1px 1px 1px;">Disease</text></g><g class="sankey-node" transform="translate(204.000,42.823)" style="opacity: 1;"><rect class="node-rect" width="20" height="13.987621135659445" style="stroke-width: 2; stroke: rgb(255, 255, 255); stroke-opacity: 1; fill: rgb(152, 185, 255); fill-opacity: 0.5;"/><text class="node-label" data-notex="1" x="0" y="0" text-anchor="start" transform="translate(24,12.243810567829723)" style="cursor: default; font-family: Arial; font-size: 15px; fill: rgb(42, 63, 95); fill-opacity: 1; white-space: pre; text-shadow: white 1px 1px 1px, white -1px -1px 1px, white 1px -1px 1px, white -1px 1px 1px;">Antigen processing-Cross presentation</text></g><g class="sankey-node" transform="translate(204.000,391.778)" style="opacity: 1;"><rect class="node-rect" width="20" height="17.447190107550966" style="stroke-width: 2; stroke: rgb(255, 255, 255); stroke-opacity: 1; fill: rgb(181, 205, 250); fill-opacity: 0.5;"/><text class="node-label" data-notex="1" x="0" y="0" text-anchor="start" transform="translate(24,13.973595053775483)" style="cursor: default; font-family: Arial; font-size: 15px; fill: rgb(42, 63, 95); fill-opacity: 1; white-space: pre; text-shadow: white 1px 1px 1px, white -1px -1px 1px, white 1px -1px 1px, white -1px 1px 1px;">IRAK4 deficiency (TLR2/4)</text></g><g class="sankey-node" transform="translate(408.000,169.278)" style="opacity: 1;"><rect class="node-rect" width="20" height="18.183672826240496" style="stroke-width: 2; stroke: rgb(255, 255, 255); stroke-opacity: 1; fill: rgb(61, 80, 195); fill-opacity: 0.5;"/><text class="node-label" data-notex="1" x="0" y="0" text-anchor="start" transform="translate(24,14.341836413120248)" style="cursor: default; font-family: Arial; font-size: 15px; fill: rgb(42, 63, 95); fill-opacity: 1; white-space: pre; text-shadow: white 1px 1px 1px, white -1px -1px 1px, white 1px -1px 1px, white -1px 1px 1px;">TLR Cascades</text></g><g class="sankey-node" transform="translate(204.000,239.251)" style="opacity: 1;"><rect class="node-rect" width="20" height="13.987621135659452" style="stroke-width: 2; stroke: rgb(255, 255, 255); stroke-opacity: 1; fill: rgb(78, 104, 216); fill-opacity: 0.5;"/><text class="node-label" data-notex="1" x="0" y="0" text-anchor="start" transform="translate(24,12.243810567829726)" style="cursor: default; font-family: Arial; font-size: 15px; fill: rgb(42, 63, 95); fill-opacity: 1; white-space: pre; text-shadow: white 1px 1px 1px, white -1px -1px 1px, white 1px -1px 1px, white -1px 1px 1px;">TLR4 Cascade</text></g><g class="sankey-node" transform="translate(612.000,262.055)" style="opacity: 1;"><rect class="node-rect" width="20" height="42.845486326311175" style="stroke-width: 2; stroke: rgb(255, 255, 255); stroke-opacity: 1; fill: rgb(203, 62, 56); fill-opacity: 0.5;"/><text class="node-label" data-notex="1" x="0" y="0" text-anchor="start" transform="translate(24,26.672743163155587)" style="cursor: default; font-family: Arial; font-size: 15px; fill: rgb(42, 63, 95); fill-opacity: 1; white-space: pre; text-shadow: white 1px 1px 1px, white -1px -1px 1px, white 1px -1px 1px, white -1px 1px 1px;">Diseases of Immune System</text></g><g class="sankey-node" transform="translate(1020.000,0.000)" style="opacity: 1;"><rect class="node-rect" width="20" height="139.87621135659546" style="stroke-width: 2; stroke: rgb(255, 255, 255); stroke-opacity: 1; fill: rgb(0, 0, 0); fill-opacity: 1;"/><text class="node-label" data-notex="1" x="0" y="0" text-anchor="end" transform="translate(-4,75.18810567829773)" style="cursor: default; font-family: Arial; font-size: 15px; fill: rgb(42, 63, 95); fill-opacity: 1; white-space: pre; text-shadow: white 1px 1px 1px, white -1px -1px 1px, white 1px -1px 1px, white -1px 1px 1px;">Output</text></g><g class="sankey-node" transform="translate(204.000,288.358)" style="opacity: 1;"><rect class="node-rect" width="20" height="13.987621135659424" style="stroke-width: 2; stroke: rgb(255, 255, 255); stroke-opacity: 1; fill: rgb(86, 115, 224); fill-opacity: 0.5;"/><text class="node-label" data-notex="1" x="0" y="0" text-anchor="start" transform="translate(24,12.243810567829712)" style="cursor: default; font-family: Arial; font-size: 15px; fill: rgb(42, 63, 95); fill-opacity: 1; white-space: pre; text-shadow: white 1px 1px 1px, white -1px -1px 1px, white 1px -1px 1px, white -1px 1px 1px;">TLR7/8 Cascade</text></g><g class="sankey-node" transform="translate(408.000,288.971)" style="opacity: 1;"><rect class="node-rect" width="20" height="53.333965151394466" style="stroke-width: 2; stroke: rgb(255, 255, 255); stroke-opacity: 1; fill: rgb(180, 4, 38); fill-opacity: 0.5;"/><text class="node-label" data-notex="1" x="0" y="0" text-anchor="start" transform="translate(24,31.916982575697233)" style="cursor: default; font-family: Arial; font-size: 15px; fill: rgb(42, 63, 95); fill-opacity: 1; white-space: pre; text-shadow: white 1px 1px 1px, white -1px -1px 1px, white 1px -1px 1px, white -1px 1px 1px;">Caspase activ. via ext.</text></g><g class="sankey-node" transform="translate(816.000,269.017)" style="opacity: 1;"><rect class="node-rect" width="20" height="39.15750862186724" style="stroke-width: 2; stroke: rgb(255, 255, 255); stroke-opacity: 1; fill: rgb(59, 76, 192); fill-opacity: 0.5;"/><text class="node-label" data-notex="1" x="0" y="0" text-anchor="start" transform="translate(24,24.82875431093362)" style="cursor: default; font-family: Arial; font-size: 15px; fill: rgb(42, 63, 95); fill-opacity: 1; white-space: pre; text-shadow: white 1px 1px 1px, white -1px -1px 1px, white 1px -1px 1px, white -1px 1px 1px;">Programmed Cell Death</text></g><g class="sankey-node" transform="translate(204.000,525.331)" style="opacity: 1;"><rect class="node-rect" width="20" height="47.84974164755067" style="stroke-width: 2; stroke: rgb(255, 255, 255); stroke-opacity: 1; fill: rgb(151, 184, 255); fill-opacity: 0.5;"/><text class="node-label" data-notex="1" x="0" y="0" text-anchor="start" transform="translate(24,29.174870823775336)" style="cursor: default; font-family: Arial; font-size: 15px; fill: rgb(42, 63, 95); fill-opacity: 1; white-space: pre; text-shadow: white 1px 1px 1px, white -1px -1px 1px, white 1px -1px 1px, white -1px 1px 1px;">Neutrophil degranulation</text></g><g class="sankey-node" transform="translate(408.000,73.058)" style="opacity: 1;"><rect class="node-rect" width="20" height="13.788374478323675" style="stroke-width: 2; stroke: rgb(255, 255, 255); stroke-opacity: 1; fill: rgb(59, 76, 192); fill-opacity: 0.5;"/><text class="node-label" data-notex="1" x="0" y="0" text-anchor="start" transform="translate(24,12.144187239161838)" style="cursor: default; font-family: Arial; font-size: 15px; fill: rgb(42, 63, 95); fill-opacity: 1; white-space: pre; text-shadow: white 1px 1px 1px, white -1px -1px 1px, white 1px -1px 1px, white -1px 1px 1px;">MHC mediated processing &amp; presentation</text></g></g></g><defs id="topdefs-c6eef8"><g class="clips"/></defs><g class="layer-above"><g class="imagelayer"/><g class="shapelayer"/></g><g class="infolayer"><g class="g-gtitle"/><g class="first-render"/></g></svg>