<svg class="main-svg" xmlns="http://www.w3.org/2000/svg" xmlns:xlink="http://www.w3.org/1999/xlink" width="3000" height="2000" style="" viewBox="0 0 1200 800"><rect x="0" y="0" width="1200" height="800" style="fill: rgb(255, 255, 255); fill-opacity: 1;"/><defs id="defs-d56796"><g class="clips"/><g class="gradients"/><g class="patterns"/></defs><g class="bglayer"/><g class="layer-below"><g class="imagelayer"/><g class="shapelayer"/></g><g class="cartesianlayer"/><g class="polarlayer"/><g class="smithlayer"/><g class="ternarylayer"/><g class="geolayer"/><g class="funnelarealayer"/><g class="pielayer"/><g class="iciclelayer"/><g class="treemaplayer"/><g class="sunburstlayer"/><g class="glimages"/><g class="sankey" transform="translate(80,100)matrix(1 0 0 1 0 0)" style="box-sizing: content-box; position: absolute; left: 0px; shape-rendering: geometricprecision; pointer-events: auto;"><g class="sankey-links" style="fill: none;"><path class="sankey-link" d="M 340 256.95187165775417 L335 256.95187165775417A266.95187165775377 266.95187165775377 0 0 0 68.04812834224623 523.9037433155079L68.04812834224623 528.903743315508A266.95187165775377 266.95187165775377 0 0 0 335 795.8556149732618L365 795.8556149732618A266.95187165775377 266.95187165775377 0 0 0 631.9518716577538 528.903743315508L631.9518716577538 523.9037433155079A266.95187165775377 266.95187165775377 0 0 0 365 256.95187165775417L360 256.95187165775417L360 513.9037433155079L365 513.9037433155079A10 10 0 0 1 375 523.9037433155079L375 528.903743315508A10 10 0 0 1 365 538.903743315508L335 538.903743315508A10 10 0 0 1 325 528.903743315508L325 523.9037433155079A10 10 0 0 1 335 513.9037433155079L340 513.9037433155079Z" style="stroke: rgb(68, 68, 68); stroke-opacity: 1; fill: rgb(180, 4, 38); fill-opacity: 0.5; stroke-width: 0; opacity: 1;"/><path class="sankey-link" d="M360,0C520,0 520,128.47593848897444 680,128.47593848897444L680,385.42781014672823C520,385.42781014672823 520,256.95187165775377 360,256.95187165775377Z" style="stroke: rgb(68, 68, 68); stroke-opacity: 1; fill: rgb(180, 4, 38); fill-opacity: 0.5; stroke-width: 0; opacity: 1;"/><path class="sankey-link" d="M700,128.47593848897444C860,128.47593848897444 860,128.4759425552563 1020,128.4759425552563L1020,385.42781421301004C860,385.42781421301004 860,385.42781014672823 700,385.42781014672823Z" style="stroke: rgb(68, 68, 68); stroke-opacity: 1; fill: rgb(180, 4, 38); fill-opacity: 0.5; stroke-width: 0; opacity: 1;"/><path class="sankey-link" d="M20,128.4759425552563C180,128.4759425552563 180,0 340,0L340,256.95187165775377C180,256.95187165775377 180,385.42781421301004 20,385.42781421301004Z" style="stroke: rgb(68, 68, 68); stroke-opacity: 1; fill: rgb(180, 4, 38); fill-opacity: 0.5; stroke-width: 0; opacity: 1;"/></g><g class="sankey-node-set" style="cursor: move;"><g class="sankey-node" transform="translate(680.000,128.476)" style="opacity: 1;"><rect class="node-rect" width="20" height="256.95187165775326" style="stroke-width: 2; stroke: rgb(255, 255, 255); stroke-opacity: 1; fill: rgb(180, 4, 38); fill-opacity: 0.5;"/><text class="node-label" data-notex="1" x="0" y="0" text-anchor="start" transform="translate(24,133.72593582887663)" style="cursor: default; font-family: Arial; font-size: 15px; fill: rgb(42, 63, 95); fill-opacity: 1; white-space: pre; text-shadow: white 1px 1px 1px, white -1px -1px 1px, white 1px -1px 1px, white -1px 1px 1px;">Transport of small molecules</text></g><g class="sankey-node" transform="translate(1020.000,128.476)" style="opacity: 1;"><rect class="node-rect" width="20" height="256.95187165775394" style="stroke-width: 2; stroke: rgb(255, 255, 255); stroke-opacity: 1; fill: rgb(0, 0, 0); fill-opacity: 1;"/><text class="node-label" data-notex="1" x="0" y="0" text-anchor="end" transform="translate(-4,133.72593582887697)" style="cursor: default; font-family: Arial; font-size: 15px; fill: rgb(42, 63, 95); fill-opacity: 1; white-space: pre; text-shadow: white 1px 1px 1px, white -1px -1px 1px, white 1px -1px 1px, white -1px 1px 1px;">Output</text></g><g class="sankey-node" transform="translate(340.000,0.000)" style="opacity: 1;"><rect class="node-rect" width="20" height="513.903743315508" style="stroke-width: 2; stroke: rgb(255, 255, 255); stroke-opacity: 1; fill: rgb(180, 4, 38); fill-opacity: 0.5;"/><text class="node-label" data-notex="1" x="0" y="0" text-anchor="start" transform="translate(24,262.201871657754)" style="cursor: default; font-family: Arial; font-size: 15px; fill: rgb(42, 63, 95); fill-opacity: 1; white-space: pre; text-shadow: white 1px 1px 1px, white -1px -1px 1px, white 1px -1px 1px, white -1px 1px 1px;">Miscellaneous transport and binding events</text></g><g class="sankey-node" transform="translate(0.000,128.476)" style="opacity: 1;"><rect class="node-rect" width="20" height="256.95187165775394" style="stroke-width: 2; stroke: rgb(255, 255, 255); stroke-opacity: 1; fill: rgb(180, 4, 38); fill-opacity: 0.5;"/><text class="node-label" data-notex="1" x="0" y="0" text-anchor="start" transform="translate(24,133.72593582887697)" style="cursor: default; font-family: Arial; font-size: 15px; fill: rgb(42, 63, 95); fill-opacity: 1; white-space: pre; text-shadow: white 1px 1px 1px, white -1px -1px 1px, white 1px -1px 1px, white -1px 1px 1px;">ZA2G</text></g></g></g><defs id="topdefs-d56796"><g class="clips"/></defs><g class="layer-above"><g class="imagelayer"/><g class="shapelayer"/></g><g class="infolayer"><g class="g-gtitle"/><g class="first-render"/></g></svg>