<?xml version="1.0" encoding="utf-8" standalone="no"?>
<!DOCTYPE svg PUBLIC "-//W3C//DTD SVG 1.1//EN"
  "http://www.w3.org/Graphics/SVG/1.1/DTD/svg11.dtd">
<svg xmlns:xlink="http://www.w3.org/1999/xlink" width="360pt" height="360pt" viewBox="0 0 360 360" xmlns="http://www.w3.org/2000/svg" version="1.1">
 <metadata>
  <rdf:RDF xmlns:dc="http://purl.org/dc/elements/1.1/" xmlns:cc="http://creativecommons.org/ns#" xmlns:rdf="http://www.w3.org/1999/02/22-rdf-syntax-ns#">
   <cc:Work>
    <dc:type rdf:resource="http://purl.org/dc/dcmitype/StillImage"/>
    <dc:date>2022-12-11T21:31:41.028110</dc:date>
    <dc:format>image/svg+xml</dc:format>
    <dc:creator>
     <cc:Agent>
      <dc:title>Matplotlib v3.5.2, https://matplotlib.org/</dc:title>
     </cc:Agent>
    </dc:creator>
   </cc:Work>
  </rdf:RDF>
 </metadata>
 <defs>
  <style type="text/css">*{stroke-linejoin: round; stroke-linecap: butt}</style>
 </defs>
 <g id="figure_1">
  <g id="patch_1">
   <path d="M 0 360 
L 360 360 
L 360 0 
L 0 0 
z
" style="fill: #ffffff"/>
  </g>
  <g id="axes_1">
   <g id="patch_2">
    <path d="M 47.72 318.04 
L 349.2 318.04 
L 349.2 10.8 
L 47.72 10.8 
z
" style="fill: #ffffff"/>
   </g>
   <g id="PolyCollection_1">
    <defs>
     <path id="m5f0c565285" d="M 61.423636 -55.925455 
L 61.423636 -55.925455 
L 64.192048 -88.741331 
L 66.960459 -218.889063 
L 69.728871 -247.852156 
L 72.497282 -250.55588 
L 75.265693 -262.75219 
L 78.034105 -267.588987 
L 80.802516 -267.396961 
L 83.570927 -273.282015 
L 86.339339 -289.828216 
L 89.10775 -294.301053 
L 91.876162 -297.282266 
L 94.644573 -298.475244 
L 97.412984 -303.462962 
L 100.181396 -313.699464 
L 102.949807 -313.811273 
L 105.718219 -314.102144 
L 108.48663 -319.096342 
L 111.255041 -319.055587 
L 114.023453 -319.055587 
L 116.791864 -319.055587 
L 119.560275 -319.499439 
L 122.328687 -322.524642 
L 125.097098 -322.524642 
L 127.86551 -322.524642 
L 130.633921 -322.241082 
L 133.402332 -322.241082 
L 136.170744 -322.241082 
L 138.939155 -322.241082 
L 141.707567 -322.241082 
L 144.475978 -323.634569 
L 147.244389 -323.703335 
L 150.012801 -323.703335 
L 152.781212 -323.703335 
L 155.549624 -324.037171 
L 158.318035 -324.037171 
L 161.086446 -324.037171 
L 163.854858 -324.439715 
L 166.623269 -324.439715 
L 169.39168 -324.558595 
L 172.160092 -324.558595 
L 174.928503 -324.842233 
L 177.696915 -326.507204 
L 180.465326 -328.172161 
L 183.233737 -328.269731 
L 186.002149 -328.269731 
L 188.77056 -328.574672 
L 191.538972 -328.574672 
L 194.307383 -328.574672 
L 197.075794 -328.574672 
L 199.844206 -328.574672 
L 202.612617 -328.574672 
L 205.381028 -330.239644 
L 208.14944 -331.904615 
L 210.917851 -331.904615 
L 213.686263 -331.904615 
L 216.454674 -331.904615 
L 219.223085 -331.904615 
L 221.991497 -331.904615 
L 224.759908 -331.904615 
L 227.52832 -331.904615 
L 230.296731 -331.904615 
L 233.065142 -333.569574 
L 235.833554 -335.234545 
L 238.601965 -335.234545 
L 241.370376 -335.234545 
L 244.138788 -335.234545 
L 246.907199 -335.234545 
L 249.675611 -335.234545 
L 252.444022 -335.234545 
L 255.212433 -335.234545 
L 257.980845 -335.234545 
L 260.749256 -335.234545 
L 263.517668 -335.234545 
L 266.286079 -335.234545 
L 269.05449 -335.234545 
L 271.822902 -335.234545 
L 274.591313 -335.234545 
L 277.359725 -335.234545 
L 280.128136 -335.234545 
L 282.896547 -335.234545 
L 285.664959 -335.234545 
L 288.43337 -335.234545 
L 291.201781 -335.234545 
L 293.970193 -335.234545 
L 296.738604 -335.234545 
L 299.507016 -335.234545 
L 302.275427 -335.234545 
L 305.043838 -335.234545 
L 307.81225 -335.234545 
L 310.580661 -335.234545 
L 313.349073 -335.234545 
L 316.117484 -335.234545 
L 318.885895 -335.234545 
L 321.654307 -335.234545 
L 324.422718 -335.234545 
L 327.191129 -335.234545 
L 329.959541 -335.234545 
L 332.727952 -335.234545 
L 335.496364 -335.234545 
L 335.496364 -335.234545 
L 335.496364 -335.234545 
L 332.727952 -335.234545 
L 329.959541 -335.234545 
L 327.191129 -335.234545 
L 324.422718 -335.234545 
L 321.654307 -335.234545 
L 318.885895 -335.234545 
L 316.117484 -335.234545 
L 313.349073 -335.234545 
L 310.580661 -335.234545 
L 307.81225 -335.234545 
L 305.043838 -335.234545 
L 302.275427 -335.234545 
L 299.507016 -335.234545 
L 296.738604 -335.234545 
L 293.970193 -335.234545 
L 291.201781 -335.234545 
L 288.43337 -335.234545 
L 285.664959 -335.234545 
L 282.896547 -335.234545 
L 280.128136 -335.234545 
L 277.359725 -335.234545 
L 274.591313 -335.234545 
L 271.822902 -335.234545 
L 269.05449 -335.234545 
L 266.286079 -335.234545 
L 263.517668 -335.234545 
L 260.749256 -335.234545 
L 257.980845 -335.234545 
L 255.212433 -335.234545 
L 252.444022 -335.234545 
L 249.675611 -335.234545 
L 246.907199 -335.234545 
L 244.138788 -335.234545 
L 241.370376 -335.234545 
L 238.601965 -335.234545 
L 235.833554 -335.234545 
L 233.065142 -335.234545 
L 230.296731 -335.234545 
L 227.52832 -335.234545 
L 224.759908 -335.234545 
L 221.991497 -335.234545 
L 219.223085 -335.234545 
L 216.454674 -335.234545 
L 213.686263 -335.234545 
L 210.917851 -335.234545 
L 208.14944 -335.234545 
L 205.381028 -335.234545 
L 202.612617 -335.234545 
L 199.844206 -335.234545 
L 197.075794 -335.234545 
L 194.307383 -335.234545 
L 191.538972 -335.234545 
L 188.77056 -335.234545 
L 186.002149 -335.234545 
L 183.233737 -335.234545 
L 180.465326 -334.031239 
L 177.696915 -334.316899 
L 174.928503 -334.602562 
L 172.160092 -333.506904 
L 169.39168 -333.506904 
L 166.623269 -332.25662 
L 163.854858 -332.25662 
L 161.086446 -329.910692 
L 158.318035 -329.910692 
L 155.549624 -329.910692 
L 152.781212 -328.875365 
L 150.012801 -328.875365 
L 147.244389 -328.875365 
L 144.475978 -327.564823 
L 141.707567 -326.199706 
L 138.939155 -326.199706 
L 136.170744 -326.199706 
L 133.402332 -326.199706 
L 130.633921 -326.199706 
L 127.86551 -324.546993 
L 125.097098 -324.546993 
L 122.328687 -324.546993 
L 119.560275 -323.444429 
L 116.791864 -322.508973 
L 114.023453 -322.508973 
L 111.255041 -322.508973 
L 108.48663 -321.099054 
L 105.718219 -321.95534 
L 102.949807 -320.877047 
L 100.181396 -319.60956 
L 97.412984 -316.124016 
L 94.644573 -315.624936 
L 91.876162 -314.069442 
L 89.10775 -314.312328 
L 86.339339 -313.288246 
L 83.570927 -312.004899 
L 80.802516 -311.023858 
L 78.034105 -308.073227 
L 75.265693 -293.620049 
L 72.497282 -272.733349 
L 69.728871 -260.284998 
L 66.960459 -238.294981 
L 64.192048 -163.210367 
L 61.423636 -55.925455 
z
" style="stroke: #808080; stroke-opacity: 0.2"/>
    </defs>
    <g clip-path="url(#pc46dc0b6e0)">
     <use xlink:href="#m5f0c565285" x="0" y="360" style="fill: #808080; fill-opacity: 0.2; stroke: #808080; stroke-opacity: 0.2"/>
    </g>
   </g>
   <g id="matplotlib.axis_1">
    <g id="xtick_1">
     <g id="line2d_1">
      <defs>
       <path id="maacff6e05b" d="M 0 0 
L 0 3.5 
" style="stroke: #000000; stroke-width: 0.8"/>
      </defs>
      <g>
       <use xlink:href="#maacff6e05b" x="61.423636" y="318.04" style="stroke: #000000; stroke-width: 0.8"/>
      </g>
     </g>
     <g id="text_1">
      <!-- 0.0 -->
      <g transform="translate(53.472074 332.638438)scale(0.1 -0.1)">
       <defs>
        <path id="DejaVuSans-30" d="M 2034 4250 
Q 1547 4250 1301 3770 
Q 1056 3291 1056 2328 
Q 1056 1369 1301 889 
Q 1547 409 2034 409 
Q 2525 409 2770 889 
Q 3016 1369 3016 2328 
Q 3016 3291 2770 3770 
Q 2525 4250 2034 4250 
z
M 2034 4750 
Q 2819 4750 3233 4129 
Q 3647 3509 3647 2328 
Q 3647 1150 3233 529 
Q 2819 -91 2034 -91 
Q 1250 -91 836 529 
Q 422 1150 422 2328 
Q 422 3509 836 4129 
Q 1250 4750 2034 4750 
z
" transform="scale(0.015625)"/>
        <path id="DejaVuSans-2e" d="M 684 794 
L 1344 794 
L 1344 0 
L 684 0 
L 684 794 
z
" transform="scale(0.015625)"/>
       </defs>
       <use xlink:href="#DejaVuSans-30"/>
       <use xlink:href="#DejaVuSans-2e" x="63.623047"/>
       <use xlink:href="#DejaVuSans-30" x="95.410156"/>
      </g>
     </g>
    </g>
    <g id="xtick_2">
     <g id="line2d_2">
      <g>
       <use xlink:href="#maacff6e05b" x="116.238182" y="318.04" style="stroke: #000000; stroke-width: 0.8"/>
      </g>
     </g>
     <g id="text_2">
      <!-- 0.2 -->
      <g transform="translate(108.286619 332.638438)scale(0.1 -0.1)">
       <defs>
        <path id="DejaVuSans-32" d="M 1228 531 
L 3431 531 
L 3431 0 
L 469 0 
L 469 531 
Q 828 903 1448 1529 
Q 2069 2156 2228 2338 
Q 2531 2678 2651 2914 
Q 2772 3150 2772 3378 
Q 2772 3750 2511 3984 
Q 2250 4219 1831 4219 
Q 1534 4219 1204 4116 
Q 875 4013 500 3803 
L 500 4441 
Q 881 4594 1212 4672 
Q 1544 4750 1819 4750 
Q 2544 4750 2975 4387 
Q 3406 4025 3406 3419 
Q 3406 3131 3298 2873 
Q 3191 2616 2906 2266 
Q 2828 2175 2409 1742 
Q 1991 1309 1228 531 
z
" transform="scale(0.015625)"/>
       </defs>
       <use xlink:href="#DejaVuSans-30"/>
       <use xlink:href="#DejaVuSans-2e" x="63.623047"/>
       <use xlink:href="#DejaVuSans-32" x="95.410156"/>
      </g>
     </g>
    </g>
    <g id="xtick_3">
     <g id="line2d_3">
      <g>
       <use xlink:href="#maacff6e05b" x="171.052727" y="318.04" style="stroke: #000000; stroke-width: 0.8"/>
      </g>
     </g>
     <g id="text_3">
      <!-- 0.4 -->
      <g transform="translate(163.101165 332.638438)scale(0.1 -0.1)">
       <defs>
        <path id="DejaVuSans-34" d="M 2419 4116 
L 825 1625 
L 2419 1625 
L 2419 4116 
z
M 2253 4666 
L 3047 4666 
L 3047 1625 
L 3713 1625 
L 3713 1100 
L 3047 1100 
L 3047 0 
L 2419 0 
L 2419 1100 
L 313 1100 
L 313 1709 
L 2253 4666 
z
" transform="scale(0.015625)"/>
       </defs>
       <use xlink:href="#DejaVuSans-30"/>
       <use xlink:href="#DejaVuSans-2e" x="63.623047"/>
       <use xlink:href="#DejaVuSans-34" x="95.410156"/>
      </g>
     </g>
    </g>
    <g id="xtick_4">
     <g id="line2d_4">
      <g>
       <use xlink:href="#maacff6e05b" x="225.867273" y="318.04" style="stroke: #000000; stroke-width: 0.8"/>
      </g>
     </g>
     <g id="text_4">
      <!-- 0.6 -->
      <g transform="translate(217.91571 332.638438)scale(0.1 -0.1)">
       <defs>
        <path id="DejaVuSans-36" d="M 2113 2584 
Q 1688 2584 1439 2293 
Q 1191 2003 1191 1497 
Q 1191 994 1439 701 
Q 1688 409 2113 409 
Q 2538 409 2786 701 
Q 3034 994 3034 1497 
Q 3034 2003 2786 2293 
Q 2538 2584 2113 2584 
z
M 3366 4563 
L 3366 3988 
Q 3128 4100 2886 4159 
Q 2644 4219 2406 4219 
Q 1781 4219 1451 3797 
Q 1122 3375 1075 2522 
Q 1259 2794 1537 2939 
Q 1816 3084 2150 3084 
Q 2853 3084 3261 2657 
Q 3669 2231 3669 1497 
Q 3669 778 3244 343 
Q 2819 -91 2113 -91 
Q 1303 -91 875 529 
Q 447 1150 447 2328 
Q 447 3434 972 4092 
Q 1497 4750 2381 4750 
Q 2619 4750 2861 4703 
Q 3103 4656 3366 4563 
z
" transform="scale(0.015625)"/>
       </defs>
       <use xlink:href="#DejaVuSans-30"/>
       <use xlink:href="#DejaVuSans-2e" x="63.623047"/>
       <use xlink:href="#DejaVuSans-36" x="95.410156"/>
      </g>
     </g>
    </g>
    <g id="xtick_5">
     <g id="line2d_5">
      <g>
       <use xlink:href="#maacff6e05b" x="280.681818" y="318.04" style="stroke: #000000; stroke-width: 0.8"/>
      </g>
     </g>
     <g id="text_5">
      <!-- 0.8 -->
      <g transform="translate(272.730256 332.638438)scale(0.1 -0.1)">
       <defs>
        <path id="DejaVuSans-38" d="M 2034 2216 
Q 1584 2216 1326 1975 
Q 1069 1734 1069 1313 
Q 1069 891 1326 650 
Q 1584 409 2034 409 
Q 2484 409 2743 651 
Q 3003 894 3003 1313 
Q 3003 1734 2745 1975 
Q 2488 2216 2034 2216 
z
M 1403 2484 
Q 997 2584 770 2862 
Q 544 3141 544 3541 
Q 544 4100 942 4425 
Q 1341 4750 2034 4750 
Q 2731 4750 3128 4425 
Q 3525 4100 3525 3541 
Q 3525 3141 3298 2862 
Q 3072 2584 2669 2484 
Q 3125 2378 3379 2068 
Q 3634 1759 3634 1313 
Q 3634 634 3220 271 
Q 2806 -91 2034 -91 
Q 1263 -91 848 271 
Q 434 634 434 1313 
Q 434 1759 690 2068 
Q 947 2378 1403 2484 
z
M 1172 3481 
Q 1172 3119 1398 2916 
Q 1625 2713 2034 2713 
Q 2441 2713 2670 2916 
Q 2900 3119 2900 3481 
Q 2900 3844 2670 4047 
Q 2441 4250 2034 4250 
Q 1625 4250 1398 4047 
Q 1172 3844 1172 3481 
z
" transform="scale(0.015625)"/>
       </defs>
       <use xlink:href="#DejaVuSans-30"/>
       <use xlink:href="#DejaVuSans-2e" x="63.623047"/>
       <use xlink:href="#DejaVuSans-38" x="95.410156"/>
      </g>
     </g>
    </g>
    <g id="xtick_6">
     <g id="line2d_6">
      <g>
       <use xlink:href="#maacff6e05b" x="335.496364" y="318.04" style="stroke: #000000; stroke-width: 0.8"/>
      </g>
     </g>
     <g id="text_6">
      <!-- 1.0 -->
      <g transform="translate(327.544801 332.638438)scale(0.1 -0.1)">
       <defs>
        <path id="DejaVuSans-31" d="M 794 531 
L 1825 531 
L 1825 4091 
L 703 3866 
L 703 4441 
L 1819 4666 
L 2450 4666 
L 2450 531 
L 3481 531 
L 3481 0 
L 794 0 
L 794 531 
z
" transform="scale(0.015625)"/>
       </defs>
       <use xlink:href="#DejaVuSans-31"/>
       <use xlink:href="#DejaVuSans-2e" x="63.623047"/>
       <use xlink:href="#DejaVuSans-30" x="95.410156"/>
      </g>
     </g>
    </g>
    <g id="text_7">
     <!-- 1-specificity -->
     <g transform="translate(168.274062 346.316563)scale(0.1 -0.1)">
      <defs>
       <path id="DejaVuSans-2d" d="M 313 2009 
L 1997 2009 
L 1997 1497 
L 313 1497 
L 313 2009 
z
" transform="scale(0.015625)"/>
       <path id="DejaVuSans-73" d="M 2834 3397 
L 2834 2853 
Q 2591 2978 2328 3040 
Q 2066 3103 1784 3103 
Q 1356 3103 1142 2972 
Q 928 2841 928 2578 
Q 928 2378 1081 2264 
Q 1234 2150 1697 2047 
L 1894 2003 
Q 2506 1872 2764 1633 
Q 3022 1394 3022 966 
Q 3022 478 2636 193 
Q 2250 -91 1575 -91 
Q 1294 -91 989 -36 
Q 684 19 347 128 
L 347 722 
Q 666 556 975 473 
Q 1284 391 1588 391 
Q 1994 391 2212 530 
Q 2431 669 2431 922 
Q 2431 1156 2273 1281 
Q 2116 1406 1581 1522 
L 1381 1569 
Q 847 1681 609 1914 
Q 372 2147 372 2553 
Q 372 3047 722 3315 
Q 1072 3584 1716 3584 
Q 2034 3584 2315 3537 
Q 2597 3491 2834 3397 
z
" transform="scale(0.015625)"/>
       <path id="DejaVuSans-70" d="M 1159 525 
L 1159 -1331 
L 581 -1331 
L 581 3500 
L 1159 3500 
L 1159 2969 
Q 1341 3281 1617 3432 
Q 1894 3584 2278 3584 
Q 2916 3584 3314 3078 
Q 3713 2572 3713 1747 
Q 3713 922 3314 415 
Q 2916 -91 2278 -91 
Q 1894 -91 1617 61 
Q 1341 213 1159 525 
z
M 3116 1747 
Q 3116 2381 2855 2742 
Q 2594 3103 2138 3103 
Q 1681 3103 1420 2742 
Q 1159 2381 1159 1747 
Q 1159 1113 1420 752 
Q 1681 391 2138 391 
Q 2594 391 2855 752 
Q 3116 1113 3116 1747 
z
" transform="scale(0.015625)"/>
       <path id="DejaVuSans-65" d="M 3597 1894 
L 3597 1613 
L 953 1613 
Q 991 1019 1311 708 
Q 1631 397 2203 397 
Q 2534 397 2845 478 
Q 3156 559 3463 722 
L 3463 178 
Q 3153 47 2828 -22 
Q 2503 -91 2169 -91 
Q 1331 -91 842 396 
Q 353 884 353 1716 
Q 353 2575 817 3079 
Q 1281 3584 2069 3584 
Q 2775 3584 3186 3129 
Q 3597 2675 3597 1894 
z
M 3022 2063 
Q 3016 2534 2758 2815 
Q 2500 3097 2075 3097 
Q 1594 3097 1305 2825 
Q 1016 2553 972 2059 
L 3022 2063 
z
" transform="scale(0.015625)"/>
       <path id="DejaVuSans-63" d="M 3122 3366 
L 3122 2828 
Q 2878 2963 2633 3030 
Q 2388 3097 2138 3097 
Q 1578 3097 1268 2742 
Q 959 2388 959 1747 
Q 959 1106 1268 751 
Q 1578 397 2138 397 
Q 2388 397 2633 464 
Q 2878 531 3122 666 
L 3122 134 
Q 2881 22 2623 -34 
Q 2366 -91 2075 -91 
Q 1284 -91 818 406 
Q 353 903 353 1747 
Q 353 2603 823 3093 
Q 1294 3584 2113 3584 
Q 2378 3584 2631 3529 
Q 2884 3475 3122 3366 
z
" transform="scale(0.015625)"/>
       <path id="DejaVuSans-69" d="M 603 3500 
L 1178 3500 
L 1178 0 
L 603 0 
L 603 3500 
z
M 603 4863 
L 1178 4863 
L 1178 4134 
L 603 4134 
L 603 4863 
z
" transform="scale(0.015625)"/>
       <path id="DejaVuSans-66" d="M 2375 4863 
L 2375 4384 
L 1825 4384 
Q 1516 4384 1395 4259 
Q 1275 4134 1275 3809 
L 1275 3500 
L 2222 3500 
L 2222 3053 
L 1275 3053 
L 1275 0 
L 697 0 
L 697 3053 
L 147 3053 
L 147 3500 
L 697 3500 
L 697 3744 
Q 697 4328 969 4595 
Q 1241 4863 1831 4863 
L 2375 4863 
z
" transform="scale(0.015625)"/>
       <path id="DejaVuSans-74" d="M 1172 4494 
L 1172 3500 
L 2356 3500 
L 2356 3053 
L 1172 3053 
L 1172 1153 
Q 1172 725 1289 603 
Q 1406 481 1766 481 
L 2356 481 
L 2356 0 
L 1766 0 
Q 1100 0 847 248 
Q 594 497 594 1153 
L 594 3053 
L 172 3053 
L 172 3500 
L 594 3500 
L 594 4494 
L 1172 4494 
z
" transform="scale(0.015625)"/>
       <path id="DejaVuSans-79" d="M 2059 -325 
Q 1816 -950 1584 -1140 
Q 1353 -1331 966 -1331 
L 506 -1331 
L 506 -850 
L 844 -850 
Q 1081 -850 1212 -737 
Q 1344 -625 1503 -206 
L 1606 56 
L 191 3500 
L 800 3500 
L 1894 763 
L 2988 3500 
L 3597 3500 
L 2059 -325 
z
" transform="scale(0.015625)"/>
      </defs>
      <use xlink:href="#DejaVuSans-31"/>
      <use xlink:href="#DejaVuSans-2d" x="63.623047"/>
      <use xlink:href="#DejaVuSans-73" x="99.707031"/>
      <use xlink:href="#DejaVuSans-70" x="151.806641"/>
      <use xlink:href="#DejaVuSans-65" x="215.283203"/>
      <use xlink:href="#DejaVuSans-63" x="276.806641"/>
      <use xlink:href="#DejaVuSans-69" x="331.787109"/>
      <use xlink:href="#DejaVuSans-66" x="359.570312"/>
      <use xlink:href="#DejaVuSans-69" x="394.775391"/>
      <use xlink:href="#DejaVuSans-63" x="422.558594"/>
      <use xlink:href="#DejaVuSans-69" x="477.539062"/>
      <use xlink:href="#DejaVuSans-74" x="505.322266"/>
      <use xlink:href="#DejaVuSans-79" x="544.53125"/>
     </g>
    </g>
   </g>
   <g id="matplotlib.axis_2">
    <g id="ytick_1">
     <g id="line2d_7">
      <defs>
       <path id="me075257d1b" d="M 0 0 
L -3.5 0 
" style="stroke: #000000; stroke-width: 0.8"/>
      </defs>
      <g>
       <use xlink:href="#me075257d1b" x="47.72" y="304.074545" style="stroke: #000000; stroke-width: 0.8"/>
      </g>
     </g>
     <g id="text_8">
      <!-- 0.0 -->
      <g transform="translate(24.816875 307.873764)scale(0.1 -0.1)">
       <use xlink:href="#DejaVuSans-30"/>
       <use xlink:href="#DejaVuSans-2e" x="63.623047"/>
       <use xlink:href="#DejaVuSans-30" x="95.410156"/>
      </g>
     </g>
    </g>
    <g id="ytick_2">
     <g id="line2d_8">
      <g>
       <use xlink:href="#me075257d1b" x="47.72" y="248.212727" style="stroke: #000000; stroke-width: 0.8"/>
      </g>
     </g>
     <g id="text_9">
      <!-- 0.2 -->
      <g transform="translate(24.816875 252.011946)scale(0.1 -0.1)">
       <use xlink:href="#DejaVuSans-30"/>
       <use xlink:href="#DejaVuSans-2e" x="63.623047"/>
       <use xlink:href="#DejaVuSans-32" x="95.410156"/>
      </g>
     </g>
    </g>
    <g id="ytick_3">
     <g id="line2d_9">
      <g>
       <use xlink:href="#me075257d1b" x="47.72" y="192.350909" style="stroke: #000000; stroke-width: 0.8"/>
      </g>
     </g>
     <g id="text_10">
      <!-- 0.4 -->
      <g transform="translate(24.816875 196.150128)scale(0.1 -0.1)">
       <use xlink:href="#DejaVuSans-30"/>
       <use xlink:href="#DejaVuSans-2e" x="63.623047"/>
       <use xlink:href="#DejaVuSans-34" x="95.410156"/>
      </g>
     </g>
    </g>
    <g id="ytick_4">
     <g id="line2d_10">
      <g>
       <use xlink:href="#me075257d1b" x="47.72" y="136.489091" style="stroke: #000000; stroke-width: 0.8"/>
      </g>
     </g>
     <g id="text_11">
      <!-- 0.6 -->
      <g transform="translate(24.816875 140.28831)scale(0.1 -0.1)">
       <use xlink:href="#DejaVuSans-30"/>
       <use xlink:href="#DejaVuSans-2e" x="63.623047"/>
       <use xlink:href="#DejaVuSans-36" x="95.410156"/>
      </g>
     </g>
    </g>
    <g id="ytick_5">
     <g id="line2d_11">
      <g>
       <use xlink:href="#me075257d1b" x="47.72" y="80.627273" style="stroke: #000000; stroke-width: 0.8"/>
      </g>
     </g>
     <g id="text_12">
      <!-- 0.8 -->
      <g transform="translate(24.816875 84.426491)scale(0.1 -0.1)">
       <use xlink:href="#DejaVuSans-30"/>
       <use xlink:href="#DejaVuSans-2e" x="63.623047"/>
       <use xlink:href="#DejaVuSans-38" x="95.410156"/>
      </g>
     </g>
    </g>
    <g id="ytick_6">
     <g id="line2d_12">
      <g>
       <use xlink:href="#me075257d1b" x="47.72" y="24.765455" style="stroke: #000000; stroke-width: 0.8"/>
      </g>
     </g>
     <g id="text_13">
      <!-- 1.0 -->
      <g transform="translate(24.816875 28.564673)scale(0.1 -0.1)">
       <use xlink:href="#DejaVuSans-31"/>
       <use xlink:href="#DejaVuSans-2e" x="63.623047"/>
       <use xlink:href="#DejaVuSans-30" x="95.410156"/>
      </g>
     </g>
    </g>
    <g id="text_14">
     <!-- Sensitivity -->
     <g transform="translate(18.737188 190.450469)rotate(-90)scale(0.1 -0.1)">
      <defs>
       <path id="DejaVuSans-53" d="M 3425 4513 
L 3425 3897 
Q 3066 4069 2747 4153 
Q 2428 4238 2131 4238 
Q 1616 4238 1336 4038 
Q 1056 3838 1056 3469 
Q 1056 3159 1242 3001 
Q 1428 2844 1947 2747 
L 2328 2669 
Q 3034 2534 3370 2195 
Q 3706 1856 3706 1288 
Q 3706 609 3251 259 
Q 2797 -91 1919 -91 
Q 1588 -91 1214 -16 
Q 841 59 441 206 
L 441 856 
Q 825 641 1194 531 
Q 1563 422 1919 422 
Q 2459 422 2753 634 
Q 3047 847 3047 1241 
Q 3047 1584 2836 1778 
Q 2625 1972 2144 2069 
L 1759 2144 
Q 1053 2284 737 2584 
Q 422 2884 422 3419 
Q 422 4038 858 4394 
Q 1294 4750 2059 4750 
Q 2388 4750 2728 4690 
Q 3069 4631 3425 4513 
z
" transform="scale(0.015625)"/>
       <path id="DejaVuSans-6e" d="M 3513 2113 
L 3513 0 
L 2938 0 
L 2938 2094 
Q 2938 2591 2744 2837 
Q 2550 3084 2163 3084 
Q 1697 3084 1428 2787 
Q 1159 2491 1159 1978 
L 1159 0 
L 581 0 
L 581 3500 
L 1159 3500 
L 1159 2956 
Q 1366 3272 1645 3428 
Q 1925 3584 2291 3584 
Q 2894 3584 3203 3211 
Q 3513 2838 3513 2113 
z
" transform="scale(0.015625)"/>
       <path id="DejaVuSans-76" d="M 191 3500 
L 800 3500 
L 1894 563 
L 2988 3500 
L 3597 3500 
L 2284 0 
L 1503 0 
L 191 3500 
z
" transform="scale(0.015625)"/>
      </defs>
      <use xlink:href="#DejaVuSans-53"/>
      <use xlink:href="#DejaVuSans-65" x="63.476562"/>
      <use xlink:href="#DejaVuSans-6e" x="125"/>
      <use xlink:href="#DejaVuSans-73" x="188.378906"/>
      <use xlink:href="#DejaVuSans-69" x="240.478516"/>
      <use xlink:href="#DejaVuSans-74" x="268.261719"/>
      <use xlink:href="#DejaVuSans-69" x="307.470703"/>
      <use xlink:href="#DejaVuSans-76" x="335.253906"/>
      <use xlink:href="#DejaVuSans-69" x="394.433594"/>
      <use xlink:href="#DejaVuSans-74" x="422.216797"/>
      <use xlink:href="#DejaVuSans-79" x="461.425781"/>
     </g>
    </g>
   </g>
   <g id="line2d_13">
    <path d="M 61.423636 304.074545 
L 64.192048 234.024151 
L 66.960459 131.407978 
L 69.728871 105.931423 
L 72.497282 98.355385 
L 75.265693 81.813881 
L 78.034105 72.168893 
L 80.802516 70.789591 
L 83.570927 67.356543 
L 86.339339 58.441769 
L 89.10775 55.693309 
L 91.876162 54.324146 
L 94.644573 52.94991 
L 97.412984 50.206511 
L 100.181396 43.345488 
L 102.949807 42.65584 
L 105.718219 41.971258 
L 108.48663 39.902302 
L 111.255041 39.21772 
L 114.023453 39.21772 
L 116.791864 39.21772 
L 119.560275 38.528066 
L 122.328687 36.464182 
L 125.097098 36.464182 
L 127.86551 36.464182 
L 130.633921 35.779606 
L 133.402332 35.779606 
L 136.170744 35.779606 
L 138.939155 35.779606 
L 141.707567 35.779606 
L 144.475978 34.400304 
L 147.244389 33.71065 
L 150.012801 33.71065 
L 152.781212 33.71065 
L 155.549624 33.026068 
L 158.318035 33.026068 
L 161.086446 33.026068 
L 163.854858 31.651832 
L 166.623269 31.651832 
L 169.39168 30.967251 
L 172.160092 30.967251 
L 174.928503 30.277602 
L 177.696915 29.587949 
L 180.465326 28.8983 
L 183.233737 28.213718 
L 186.002149 28.213718 
L 188.77056 27.524065 
L 191.538972 27.524065 
L 194.307383 27.524065 
L 197.075794 27.524065 
L 199.844206 27.524065 
L 202.612617 27.524065 
L 205.381028 26.834411 
L 208.14944 26.144757 
L 210.917851 26.144757 
L 213.686263 26.144757 
L 216.454674 26.144757 
L 219.223085 26.144757 
L 221.991497 26.144757 
L 224.759908 26.144757 
L 227.52832 26.144757 
L 230.296731 26.144757 
L 233.065142 25.455108 
L 235.833554 24.765455 
L 238.601965 24.765455 
L 241.370376 24.765455 
L 244.138788 24.765455 
L 246.907199 24.765455 
L 249.675611 24.765455 
L 252.444022 24.765455 
L 255.212433 24.765455 
L 257.980845 24.765455 
L 260.749256 24.765455 
L 263.517668 24.765455 
L 266.286079 24.765455 
L 269.05449 24.765455 
L 271.822902 24.765455 
L 274.591313 24.765455 
L 277.359725 24.765455 
L 280.128136 24.765455 
L 282.896547 24.765455 
L 285.664959 24.765455 
L 288.43337 24.765455 
L 291.201781 24.765455 
L 293.970193 24.765455 
L 296.738604 24.765455 
L 299.507016 24.765455 
L 302.275427 24.765455 
L 305.043838 24.765455 
L 307.81225 24.765455 
L 310.580661 24.765455 
L 313.349073 24.765455 
L 316.117484 24.765455 
L 318.885895 24.765455 
L 321.654307 24.765455 
L 324.422718 24.765455 
L 327.191129 24.765455 
L 329.959541 24.765455 
L 332.727952 24.765455 
L 335.496364 24.765455 
" clip-path="url(#pc46dc0b6e0)" style="fill: none; stroke: #1f77b4; stroke-width: 1.5; stroke-linecap: square"/>
   </g>
   <g id="patch_3">
    <path d="M 47.72 318.04 
L 47.72 10.8 
" style="fill: none; stroke: #000000; stroke-width: 0.8; stroke-linejoin: miter; stroke-linecap: square"/>
   </g>
   <g id="patch_4">
    <path d="M 47.72 318.04 
L 349.2 318.04 
" style="fill: none; stroke: #000000; stroke-width: 0.8; stroke-linejoin: miter; stroke-linecap: square"/>
   </g>
   <g id="legend_1">
    <g id="text_15">
     <!-- AUC -->
     <g transform="translate(267.157031 292.282188)scale(0.1 -0.1)">
      <defs>
       <path id="DejaVuSans-41" d="M 2188 4044 
L 1331 1722 
L 3047 1722 
L 2188 4044 
z
M 1831 4666 
L 2547 4666 
L 4325 0 
L 3669 0 
L 3244 1197 
L 1141 1197 
L 716 0 
L 50 0 
L 1831 4666 
z
" transform="scale(0.015625)"/>
       <path id="DejaVuSans-55" d="M 556 4666 
L 1191 4666 
L 1191 1831 
Q 1191 1081 1462 751 
Q 1734 422 2344 422 
Q 2950 422 3222 751 
Q 3494 1081 3494 1831 
L 3494 4666 
L 4128 4666 
L 4128 1753 
Q 4128 841 3676 375 
Q 3225 -91 2344 -91 
Q 1459 -91 1007 375 
Q 556 841 556 1753 
L 556 4666 
z
" transform="scale(0.015625)"/>
       <path id="DejaVuSans-43" d="M 4122 4306 
L 4122 3641 
Q 3803 3938 3442 4084 
Q 3081 4231 2675 4231 
Q 1875 4231 1450 3742 
Q 1025 3253 1025 2328 
Q 1025 1406 1450 917 
Q 1875 428 2675 428 
Q 3081 428 3442 575 
Q 3803 722 4122 1019 
L 4122 359 
Q 3791 134 3420 21 
Q 3050 -91 2638 -91 
Q 1578 -91 968 557 
Q 359 1206 359 2328 
Q 359 3453 968 4101 
Q 1578 4750 2638 4750 
Q 3056 4750 3426 4639 
Q 3797 4528 4122 4306 
z
" transform="scale(0.015625)"/>
      </defs>
      <use xlink:href="#DejaVuSans-41"/>
      <use xlink:href="#DejaVuSans-55" x="68.408203"/>
      <use xlink:href="#DejaVuSans-43" x="141.601562"/>
     </g>
    </g>
    <g id="line2d_14">
     <path d="M 215.25625 303.460313 
L 225.25625 303.460313 
L 235.25625 303.460313 
" style="fill: none; stroke: #1f77b4; stroke-width: 1.5; stroke-linecap: square"/>
    </g>
    <g id="text_16">
     <!-- BINN:  0.95 ±  0.01 -->
     <g transform="translate(243.25625 306.960313)scale(0.1 -0.1)">
      <defs>
       <path id="DejaVuSans-42" d="M 1259 2228 
L 1259 519 
L 2272 519 
Q 2781 519 3026 730 
Q 3272 941 3272 1375 
Q 3272 1813 3026 2020 
Q 2781 2228 2272 2228 
L 1259 2228 
z
M 1259 4147 
L 1259 2741 
L 2194 2741 
Q 2656 2741 2882 2914 
Q 3109 3088 3109 3444 
Q 3109 3797 2882 3972 
Q 2656 4147 2194 4147 
L 1259 4147 
z
M 628 4666 
L 2241 4666 
Q 2963 4666 3353 4366 
Q 3744 4066 3744 3513 
Q 3744 3084 3544 2831 
Q 3344 2578 2956 2516 
Q 3422 2416 3680 2098 
Q 3938 1781 3938 1306 
Q 3938 681 3513 340 
Q 3088 0 2303 0 
L 628 0 
L 628 4666 
z
" transform="scale(0.015625)"/>
       <path id="DejaVuSans-49" d="M 628 4666 
L 1259 4666 
L 1259 0 
L 628 0 
L 628 4666 
z
" transform="scale(0.015625)"/>
       <path id="DejaVuSans-4e" d="M 628 4666 
L 1478 4666 
L 3547 763 
L 3547 4666 
L 4159 4666 
L 4159 0 
L 3309 0 
L 1241 3903 
L 1241 0 
L 628 0 
L 628 4666 
z
" transform="scale(0.015625)"/>
       <path id="DejaVuSans-3a" d="M 750 794 
L 1409 794 
L 1409 0 
L 750 0 
L 750 794 
z
M 750 3309 
L 1409 3309 
L 1409 2516 
L 750 2516 
L 750 3309 
z
" transform="scale(0.015625)"/>
       <path id="DejaVuSans-20" transform="scale(0.015625)"/>
       <path id="DejaVuSans-39" d="M 703 97 
L 703 672 
Q 941 559 1184 500 
Q 1428 441 1663 441 
Q 2288 441 2617 861 
Q 2947 1281 2994 2138 
Q 2813 1869 2534 1725 
Q 2256 1581 1919 1581 
Q 1219 1581 811 2004 
Q 403 2428 403 3163 
Q 403 3881 828 4315 
Q 1253 4750 1959 4750 
Q 2769 4750 3195 4129 
Q 3622 3509 3622 2328 
Q 3622 1225 3098 567 
Q 2575 -91 1691 -91 
Q 1453 -91 1209 -44 
Q 966 3 703 97 
z
M 1959 2075 
Q 2384 2075 2632 2365 
Q 2881 2656 2881 3163 
Q 2881 3666 2632 3958 
Q 2384 4250 1959 4250 
Q 1534 4250 1286 3958 
Q 1038 3666 1038 3163 
Q 1038 2656 1286 2365 
Q 1534 2075 1959 2075 
z
" transform="scale(0.015625)"/>
       <path id="DejaVuSans-35" d="M 691 4666 
L 3169 4666 
L 3169 4134 
L 1269 4134 
L 1269 2991 
Q 1406 3038 1543 3061 
Q 1681 3084 1819 3084 
Q 2600 3084 3056 2656 
Q 3513 2228 3513 1497 
Q 3513 744 3044 326 
Q 2575 -91 1722 -91 
Q 1428 -91 1123 -41 
Q 819 9 494 109 
L 494 744 
Q 775 591 1075 516 
Q 1375 441 1709 441 
Q 2250 441 2565 725 
Q 2881 1009 2881 1497 
Q 2881 1984 2565 2268 
Q 2250 2553 1709 2553 
Q 1456 2553 1204 2497 
Q 953 2441 691 2322 
L 691 4666 
z
" transform="scale(0.015625)"/>
       <path id="DejaVuSans-b1" d="M 2944 4013 
L 2944 2803 
L 4684 2803 
L 4684 2272 
L 2944 2272 
L 2944 1063 
L 2419 1063 
L 2419 2272 
L 678 2272 
L 678 2803 
L 2419 2803 
L 2419 4013 
L 2944 4013 
z
M 678 531 
L 4684 531 
L 4684 0 
L 678 0 
L 678 531 
z
" transform="scale(0.015625)"/>
      </defs>
      <use xlink:href="#DejaVuSans-42"/>
      <use xlink:href="#DejaVuSans-49" x="68.603516"/>
      <use xlink:href="#DejaVuSans-4e" x="98.095703"/>
      <use xlink:href="#DejaVuSans-4e" x="172.900391"/>
      <use xlink:href="#DejaVuSans-3a" x="247.705078"/>
      <use xlink:href="#DejaVuSans-20" x="281.396484"/>
      <use xlink:href="#DejaVuSans-20" x="313.183594"/>
      <use xlink:href="#DejaVuSans-30" x="344.970703"/>
      <use xlink:href="#DejaVuSans-2e" x="408.59375"/>
      <use xlink:href="#DejaVuSans-39" x="440.380859"/>
      <use xlink:href="#DejaVuSans-35" x="504.003906"/>
      <use xlink:href="#DejaVuSans-20" x="567.626953"/>
      <use xlink:href="#DejaVuSans-b1" x="599.414062"/>
      <use xlink:href="#DejaVuSans-20" x="683.203125"/>
      <use xlink:href="#DejaVuSans-20" x="714.990234"/>
      <use xlink:href="#DejaVuSans-30" x="746.777344"/>
      <use xlink:href="#DejaVuSans-2e" x="810.400391"/>
      <use xlink:href="#DejaVuSans-30" x="842.1875"/>
      <use xlink:href="#DejaVuSans-31" x="905.810547"/>
     </g>
    </g>
   </g>
  </g>
 </g>
 <defs>
  <clipPath id="pc46dc0b6e0">
   <rect x="47.72" y="10.8" width="301.48" height="307.24"/>
  </clipPath>
 </defs>
</svg>
