<?xml version="1.0" encoding="utf-8" standalone="no"?>
<!DOCTYPE svg PUBLIC "-//W3C//DTD SVG 1.1//EN"
  "http://www.w3.org/Graphics/SVG/1.1/DTD/svg11.dtd">
<svg xmlns:xlink="http://www.w3.org/1999/xlink" width="360pt" height="360pt" viewBox="0 0 360 360" xmlns="http://www.w3.org/2000/svg" version="1.1">
 <metadata>
  <rdf:RDF xmlns:dc="http://purl.org/dc/elements/1.1/" xmlns:cc="http://creativecommons.org/ns#" xmlns:rdf="http://www.w3.org/1999/02/22-rdf-syntax-ns#">
   <cc:Work>
    <dc:type rdf:resource="http://purl.org/dc/dcmitype/StillImage"/>
    <dc:date>2022-12-11T04:28:19.494963</dc:date>
    <dc:format>image/svg+xml</dc:format>
    <dc:creator>
     <cc:Agent>
      <dc:title>Matplotlib v3.5.2, https://matplotlib.org/</dc:title>
     </cc:Agent>
    </dc:creator>
   </cc:Work>
  </rdf:RDF>
 </metadata>
 <defs>
  <style type="text/css">*{stroke-linejoin: round; stroke-linecap: butt}</style>
 </defs>
 <g id="figure_1">
  <g id="patch_1">
   <path d="M 0 360 
L 360 360 
L 360 0 
L 0 0 
z
" style="fill: #ffffff"/>
  </g>
  <g id="axes_1">
   <g id="patch_2">
    <path d="M 47.72 318.04 
L 349.2 318.04 
L 349.2 10.8 
L 47.72 10.8 
z
" style="fill: #ffffff"/>
   </g>
   <g id="PolyCollection_1">
    <defs>
     <path id="m075dcd25c8" d="M 61.423636 -335.234545 
L 61.423636 -335.234545 
L 64.192048 -335.234545 
L 66.960459 -335.234545 
L 69.728871 -335.234545 
L 72.497282 -335.234545 
L 75.265693 -335.234545 
L 78.034105 -335.234545 
L 80.802516 -335.234545 
L 83.570927 -335.234545 
L 86.339339 -335.234545 
L 89.10775 -335.234545 
L 91.876162 -335.234545 
L 94.644573 -335.234545 
L 97.412984 -335.234545 
L 100.181396 -335.234545 
L 102.949807 -335.234545 
L 105.718219 -335.234545 
L 108.48663 -335.234545 
L 111.255041 -335.234545 
L 114.023453 -335.234545 
L 116.791864 -335.234545 
L 119.560275 -335.234545 
L 122.328687 -335.234545 
L 125.097098 -335.234545 
L 127.86551 -335.234545 
L 130.633921 -335.234545 
L 133.402332 -335.234545 
L 136.170744 -335.234545 
L 138.939155 -335.234545 
L 141.707567 -335.234545 
L 144.475978 -335.234545 
L 147.244389 -335.234545 
L 150.012801 -335.234545 
L 152.781212 -335.234545 
L 155.549624 -335.234545 
L 158.318035 -335.234545 
L 161.086446 -335.234545 
L 163.854858 -335.234545 
L 166.623269 -335.234545 
L 169.39168 -335.234545 
L 172.160092 -335.234545 
L 174.928503 -335.234545 
L 177.696915 -335.234545 
L 180.465326 -335.234545 
L 183.233737 -335.234545 
L 186.002149 -335.234545 
L 188.77056 -335.234545 
L 191.538972 -335.234545 
L 194.307383 -335.234545 
L 197.075794 -335.234545 
L 199.844206 -335.234545 
L 202.612617 -335.234545 
L 205.381028 -335.234545 
L 208.14944 -335.234545 
L 210.917851 -335.234545 
L 213.686263 -335.234545 
L 216.454674 -335.234545 
L 219.223085 -335.234545 
L 221.991497 -335.234545 
L 224.759908 -335.234545 
L 227.52832 -335.234545 
L 230.296731 -335.234545 
L 233.065142 -335.234545 
L 235.833554 -335.234545 
L 238.601965 -335.234545 
L 241.370376 -335.234545 
L 244.138788 -335.234545 
L 246.907199 -335.234545 
L 249.675611 -328.251818 
L 252.444022 -328.251818 
L 255.212433 -328.251818 
L 257.980845 -328.251818 
L 260.749256 -328.251818 
L 263.517668 -328.251818 
L 266.286079 -328.251818 
L 269.05449 -328.251818 
L 271.822902 -328.251818 
L 274.591313 -328.251818 
L 277.359725 -325.083213 
L 280.128136 -325.083213 
L 282.896547 -321.543652 
L 285.664959 -321.543652 
L 288.43337 -304.305386 
L 291.201781 -304.305386 
L 293.970193 -304.305386 
L 296.738604 -304.305386 
L 299.507016 -304.305386 
L 302.275427 -304.305386 
L 305.043838 -298.14662 
L 307.81225 -298.14662 
L 310.580661 -298.14662 
L 313.349073 -286.366869 
L 316.117484 -286.129468 
L 318.885895 -286.129468 
L 321.654307 -286.129468 
L 324.422718 -250.232465 
L 327.191129 -248.735316 
L 329.959541 -248.735316 
L 332.727952 -248.735316 
L 335.496364 -55.925455 
L 335.496364 -55.925455 
L 335.496364 -55.925455 
L 332.727952 -321.927326 
L 329.959541 -321.927326 
L 327.191129 -321.927326 
L 324.422718 -329.368069 
L 321.654307 -329.967453 
L 318.885895 -329.967453 
L 316.117484 -329.967453 
L 313.349073 -334.198998 
L 310.580661 -331.357138 
L 307.81225 -331.357138 
L 305.043838 -331.357138 
L 302.275427 -334.508675 
L 299.507016 -334.508675 
L 296.738604 -334.508675 
L 293.970193 -334.508675 
L 291.201781 -334.508675 
L 288.43337 -334.508675 
L 285.664959 -330.677245 
L 282.896547 -330.677245 
L 280.128136 -335.234545 
L 277.359725 -335.234545 
L 274.591313 -335.234545 
L 271.822902 -335.234545 
L 269.05449 -335.234545 
L 266.286079 -335.234545 
L 263.517668 -335.234545 
L 260.749256 -335.234545 
L 257.980845 -335.234545 
L 255.212433 -335.234545 
L 252.444022 -335.234545 
L 249.675611 -335.234545 
L 246.907199 -335.234545 
L 244.138788 -335.234545 
L 241.370376 -335.234545 
L 238.601965 -335.234545 
L 235.833554 -335.234545 
L 233.065142 -335.234545 
L 230.296731 -335.234545 
L 227.52832 -335.234545 
L 224.759908 -335.234545 
L 221.991497 -335.234545 
L 219.223085 -335.234545 
L 216.454674 -335.234545 
L 213.686263 -335.234545 
L 210.917851 -335.234545 
L 208.14944 -335.234545 
L 205.381028 -335.234545 
L 202.612617 -335.234545 
L 199.844206 -335.234545 
L 197.075794 -335.234545 
L 194.307383 -335.234545 
L 191.538972 -335.234545 
L 188.77056 -335.234545 
L 186.002149 -335.234545 
L 183.233737 -335.234545 
L 180.465326 -335.234545 
L 177.696915 -335.234545 
L 174.928503 -335.234545 
L 172.160092 -335.234545 
L 169.39168 -335.234545 
L 166.623269 -335.234545 
L 163.854858 -335.234545 
L 161.086446 -335.234545 
L 158.318035 -335.234545 
L 155.549624 -335.234545 
L 152.781212 -335.234545 
L 150.012801 -335.234545 
L 147.244389 -335.234545 
L 144.475978 -335.234545 
L 141.707567 -335.234545 
L 138.939155 -335.234545 
L 136.170744 -335.234545 
L 133.402332 -335.234545 
L 130.633921 -335.234545 
L 127.86551 -335.234545 
L 125.097098 -335.234545 
L 122.328687 -335.234545 
L 119.560275 -335.234545 
L 116.791864 -335.234545 
L 114.023453 -335.234545 
L 111.255041 -335.234545 
L 108.48663 -335.234545 
L 105.718219 -335.234545 
L 102.949807 -335.234545 
L 100.181396 -335.234545 
L 97.412984 -335.234545 
L 94.644573 -335.234545 
L 91.876162 -335.234545 
L 89.10775 -335.234545 
L 86.339339 -335.234545 
L 83.570927 -335.234545 
L 80.802516 -335.234545 
L 78.034105 -335.234545 
L 75.265693 -335.234545 
L 72.497282 -335.234545 
L 69.728871 -335.234545 
L 66.960459 -335.234545 
L 64.192048 -335.234545 
L 61.423636 -335.234545 
z
" style="stroke: #3b4cc0; stroke-opacity: 0.1"/>
    </defs>
    <g clip-path="url(#p7210d7a1dc)">
     <use xlink:href="#m075dcd25c8" x="0" y="360" style="fill: #3b4cc0; fill-opacity: 0.1; stroke: #3b4cc0; stroke-opacity: 0.1"/>
    </g>
   </g>
   <g id="PolyCollection_2">
    <defs>
     <path id="m2f9a60e653" d="M 61.423636 -335.234545 
L 61.423636 -335.234545 
L 64.192048 -335.234545 
L 66.960459 -335.234545 
L 69.728871 -335.234545 
L 72.497282 -335.234545 
L 75.265693 -335.234545 
L 78.034105 -335.234545 
L 80.802516 -335.234545 
L 83.570927 -335.234545 
L 86.339339 -335.234545 
L 89.10775 -335.234545 
L 91.876162 -335.234545 
L 94.644573 -335.234545 
L 97.412984 -335.234545 
L 100.181396 -335.234545 
L 102.949807 -335.234545 
L 105.718219 -335.234545 
L 108.48663 -335.234545 
L 111.255041 -335.234545 
L 114.023453 -335.234545 
L 116.791864 -335.234545 
L 119.560275 -335.234545 
L 122.328687 -335.234545 
L 125.097098 -335.234545 
L 127.86551 -335.234545 
L 130.633921 -335.234545 
L 133.402332 -335.234545 
L 136.170744 -335.234545 
L 138.939155 -335.234545 
L 141.707567 -335.234545 
L 144.475978 -335.234545 
L 147.244389 -335.234545 
L 150.012801 -335.234545 
L 152.781212 -335.234545 
L 155.549624 -335.234545 
L 158.318035 -335.234545 
L 161.086446 -335.234545 
L 163.854858 -335.234545 
L 166.623269 -335.234545 
L 169.39168 -335.234545 
L 172.160092 -335.234545 
L 174.928503 -335.234545 
L 177.696915 -335.234545 
L 180.465326 -335.234545 
L 183.233737 -335.234545 
L 186.002149 -335.234545 
L 188.77056 -335.234545 
L 191.538972 -335.234545 
L 194.307383 -335.234545 
L 197.075794 -335.234545 
L 199.844206 -335.234545 
L 202.612617 -335.234545 
L 205.381028 -335.234545 
L 208.14944 -335.234545 
L 210.917851 -335.234545 
L 213.686263 -335.234545 
L 216.454674 -335.234545 
L 219.223085 -335.234545 
L 221.991497 -335.234545 
L 224.759908 -335.234545 
L 227.52832 -335.234545 
L 230.296731 -328.251818 
L 233.065142 -328.251818 
L 235.833554 -328.251818 
L 238.601965 -325.12576 
L 241.370376 -320.957683 
L 244.138788 -316.129065 
L 246.907199 -310.931476 
L 249.675611 -305.571778 
L 252.444022 -299.790961 
L 255.212433 -294.869845 
L 257.980845 -289.940352 
L 260.749256 -284.844471 
L 263.517668 -279.680775 
L 266.286079 -274.512931 
L 269.05449 -269.341941 
L 271.822902 -264.168507 
L 274.591313 -258.993139 
L 277.359725 -257.71578 
L 280.128136 -256.412632 
L 282.896547 -254.799293 
L 285.664959 -251.879234 
L 288.43337 -248.805759 
L 291.201781 -245.581434 
L 293.970193 -225.430784 
L 296.738604 -216.934134 
L 299.507016 -208.495802 
L 302.275427 -198.459064 
L 305.043838 -188.372127 
L 307.81225 -178.245223 
L 310.580661 -168.086038 
L 313.349073 -157.900439 
L 316.117484 -147.700982 
L 318.885895 -137.475999 
L 321.654307 -127.222093 
L 324.422718 -116.946544 
L 327.191129 -106.898851 
L 329.959541 -96.796205 
L 332.727952 -86.585683 
L 335.496364 -55.925455 
L 335.496364 -55.925455 
L 335.496364 -55.925455 
L 332.727952 -307.040136 
L 329.959541 -310.467798 
L 327.191129 -314.003336 
L 324.422718 -316.916713 
L 321.654307 -317.878673 
L 318.885895 -319.022323 
L 316.117484 -320.194895 
L 313.349073 -321.022963 
L 310.580661 -321.272841 
L 307.81225 -321.549133 
L 305.043838 -321.857707 
L 302.275427 -322.206247 
L 299.507016 -322.604986 
L 296.738604 -323.251936 
L 293.970193 -325.037809 
L 291.201781 -335.234545 
L 288.43337 -335.234545 
L 285.664959 -335.234545 
L 282.896547 -335.234545 
L 280.128136 -335.234545 
L 277.359725 -335.234545 
L 274.591313 -335.234545 
L 271.822902 -335.234545 
L 269.05449 -335.234545 
L 266.286079 -335.234545 
L 263.517668 -335.234545 
L 260.749256 -335.234545 
L 257.980845 -335.234545 
L 255.212433 -335.234545 
L 252.444022 -335.234545 
L 249.675611 -335.234545 
L 246.907199 -335.234545 
L 244.138788 -335.234545 
L 241.370376 -335.234545 
L 238.601965 -335.234545 
L 235.833554 -335.234545 
L 233.065142 -335.234545 
L 230.296731 -335.234545 
L 227.52832 -335.234545 
L 224.759908 -335.234545 
L 221.991497 -335.234545 
L 219.223085 -335.234545 
L 216.454674 -335.234545 
L 213.686263 -335.234545 
L 210.917851 -335.234545 
L 208.14944 -335.234545 
L 205.381028 -335.234545 
L 202.612617 -335.234545 
L 199.844206 -335.234545 
L 197.075794 -335.234545 
L 194.307383 -335.234545 
L 191.538972 -335.234545 
L 188.77056 -335.234545 
L 186.002149 -335.234545 
L 183.233737 -335.234545 
L 180.465326 -335.234545 
L 177.696915 -335.234545 
L 174.928503 -335.234545 
L 172.160092 -335.234545 
L 169.39168 -335.234545 
L 166.623269 -335.234545 
L 163.854858 -335.234545 
L 161.086446 -335.234545 
L 158.318035 -335.234545 
L 155.549624 -335.234545 
L 152.781212 -335.234545 
L 150.012801 -335.234545 
L 147.244389 -335.234545 
L 144.475978 -335.234545 
L 141.707567 -335.234545 
L 138.939155 -335.234545 
L 136.170744 -335.234545 
L 133.402332 -335.234545 
L 130.633921 -335.234545 
L 127.86551 -335.234545 
L 125.097098 -335.234545 
L 122.328687 -335.234545 
L 119.560275 -335.234545 
L 116.791864 -335.234545 
L 114.023453 -335.234545 
L 111.255041 -335.234545 
L 108.48663 -335.234545 
L 105.718219 -335.234545 
L 102.949807 -335.234545 
L 100.181396 -335.234545 
L 97.412984 -335.234545 
L 94.644573 -335.234545 
L 91.876162 -335.234545 
L 89.10775 -335.234545 
L 86.339339 -335.234545 
L 83.570927 -335.234545 
L 80.802516 -335.234545 
L 78.034105 -335.234545 
L 75.265693 -335.234545 
L 72.497282 -335.234545 
L 69.728871 -335.234545 
L 66.960459 -335.234545 
L 64.192048 -335.234545 
L 61.423636 -335.234545 
z
" style="stroke: #7b9ff9; stroke-opacity: 0.1"/>
    </defs>
    <g clip-path="url(#p7210d7a1dc)">
     <use xlink:href="#m2f9a60e653" x="0" y="360" style="fill: #7b9ff9; fill-opacity: 0.1; stroke: #7b9ff9; stroke-opacity: 0.1"/>
    </g>
   </g>
   <g id="PolyCollection_3">
    <defs>
     <path id="m556affb700" d="M 61.423636 -335.234545 
L 61.423636 -335.234545 
L 64.192048 -335.234545 
L 66.960459 -335.234545 
L 69.728871 -335.234545 
L 72.497282 -335.234545 
L 75.265693 -335.234545 
L 78.034105 -335.234545 
L 80.802516 -335.234545 
L 83.570927 -335.234545 
L 86.339339 -335.234545 
L 89.10775 -335.234545 
L 91.876162 -335.234545 
L 94.644573 -335.234545 
L 97.412984 -335.234545 
L 100.181396 -335.234545 
L 102.949807 -335.234545 
L 105.718219 -335.234545 
L 108.48663 -335.234545 
L 111.255041 -335.234545 
L 114.023453 -335.234545 
L 116.791864 -335.234545 
L 119.560275 -335.234545 
L 122.328687 -335.234545 
L 125.097098 -335.234545 
L 127.86551 -335.234545 
L 130.633921 -335.234545 
L 133.402332 -335.234545 
L 136.170744 -335.234545 
L 138.939155 -335.234545 
L 141.707567 -335.234545 
L 144.475978 -335.234545 
L 147.244389 -335.234545 
L 150.012801 -335.234545 
L 152.781212 -335.234545 
L 155.549624 -335.234545 
L 158.318035 -335.234545 
L 161.086446 -335.234545 
L 163.854858 -335.234545 
L 166.623269 -335.234545 
L 169.39168 -335.234545 
L 172.160092 -335.234545 
L 174.928503 -335.234545 
L 177.696915 -335.234545 
L 180.465326 -335.234545 
L 183.233737 -335.234545 
L 186.002149 -335.234545 
L 188.77056 -335.234545 
L 191.538972 -335.234545 
L 194.307383 -335.234545 
L 197.075794 -335.234545 
L 199.844206 -335.234545 
L 202.612617 -335.234545 
L 205.381028 -335.234545 
L 208.14944 -335.234545 
L 210.917851 -335.234545 
L 213.686263 -335.234545 
L 216.454674 -335.234545 
L 219.223085 -335.234545 
L 221.991497 -335.234545 
L 224.759908 -335.234545 
L 227.52832 -335.234545 
L 230.296731 -335.234545 
L 233.065142 -335.234545 
L 235.833554 -330.664033 
L 238.601965 -328.251818 
L 241.370376 -328.251818 
L 244.138788 -326.985944 
L 246.907199 -325.601035 
L 249.675611 -323.702279 
L 252.444022 -321.566293 
L 255.212433 -319.287994 
L 257.980845 -317.499732 
L 260.749256 -315.778774 
L 263.517668 -313.917819 
L 266.286079 -300.228262 
L 269.05449 -299.064607 
L 271.822902 -298.137725 
L 274.591313 -297.201296 
L 277.359725 -296.240055 
L 280.128136 -295.26129 
L 282.896547 -294.01232 
L 285.664959 -292.661025 
L 288.43337 -291.268499 
L 291.201781 -289.234574 
L 293.970193 -286.56518 
L 296.738604 -283.734761 
L 299.507016 -280.737672 
L 302.275427 -277.632581 
L 305.043838 -265.316046 
L 307.81225 -252.734208 
L 310.580661 -242.043235 
L 313.349073 -228.027158 
L 316.117484 -185.003475 
L 318.885895 -173.613745 
L 321.654307 -163.157526 
L 324.422718 -150.208488 
L 327.191129 -141.742688 
L 329.959541 -128.164683 
L 332.727952 -113.067813 
L 335.496364 -55.925455 
L 335.496364 -55.925455 
L 335.496364 -55.925455 
L 332.727952 -224.303087 
L 329.959541 -234.740899 
L 327.191129 -246.697575 
L 324.422718 -298.163794 
L 321.654307 -307.660944 
L 318.885895 -310.327302 
L 316.117484 -314.254496 
L 313.349073 -312.255459 
L 310.580661 -316.490462 
L 307.81225 -318.005584 
L 305.043838 -319.116266 
L 302.275427 -324.155109 
L 299.507016 -325.920724 
L 296.738604 -327.79434 
L 293.970193 -329.397671 
L 291.201781 -330.288121 
L 288.43337 -331.343624 
L 285.664959 -332.57011 
L 282.896547 -333.837827 
L 280.128136 -334.982165 
L 277.359725 -335.234545 
L 274.591313 -335.234545 
L 271.822902 -335.234545 
L 269.05449 -335.234545 
L 266.286079 -335.234545 
L 263.517668 -335.234545 
L 260.749256 -335.234545 
L 257.980845 -335.234545 
L 255.212433 -335.234545 
L 252.444022 -335.234545 
L 249.675611 -335.234545 
L 246.907199 -335.234545 
L 244.138788 -335.234545 
L 241.370376 -335.234545 
L 238.601965 -335.234545 
L 235.833554 -335.234545 
L 233.065142 -335.234545 
L 230.296731 -335.234545 
L 227.52832 -335.234545 
L 224.759908 -335.234545 
L 221.991497 -335.234545 
L 219.223085 -335.234545 
L 216.454674 -335.234545 
L 213.686263 -335.234545 
L 210.917851 -335.234545 
L 208.14944 -335.234545 
L 205.381028 -335.234545 
L 202.612617 -335.234545 
L 199.844206 -335.234545 
L 197.075794 -335.234545 
L 194.307383 -335.234545 
L 191.538972 -335.234545 
L 188.77056 -335.234545 
L 186.002149 -335.234545 
L 183.233737 -335.234545 
L 180.465326 -335.234545 
L 177.696915 -335.234545 
L 174.928503 -335.234545 
L 172.160092 -335.234545 
L 169.39168 -335.234545 
L 166.623269 -335.234545 
L 163.854858 -335.234545 
L 161.086446 -335.234545 
L 158.318035 -335.234545 
L 155.549624 -335.234545 
L 152.781212 -335.234545 
L 150.012801 -335.234545 
L 147.244389 -335.234545 
L 144.475978 -335.234545 
L 141.707567 -335.234545 
L 138.939155 -335.234545 
L 136.170744 -335.234545 
L 133.402332 -335.234545 
L 130.633921 -335.234545 
L 127.86551 -335.234545 
L 125.097098 -335.234545 
L 122.328687 -335.234545 
L 119.560275 -335.234545 
L 116.791864 -335.234545 
L 114.023453 -335.234545 
L 111.255041 -335.234545 
L 108.48663 -335.234545 
L 105.718219 -335.234545 
L 102.949807 -335.234545 
L 100.181396 -335.234545 
L 97.412984 -335.234545 
L 94.644573 -335.234545 
L 91.876162 -335.234545 
L 89.10775 -335.234545 
L 86.339339 -335.234545 
L 83.570927 -335.234545 
L 80.802516 -335.234545 
L 78.034105 -335.234545 
L 75.265693 -335.234545 
L 72.497282 -335.234545 
L 69.728871 -335.234545 
L 66.960459 -335.234545 
L 64.192048 -335.234545 
L 61.423636 -335.234545 
z
" style="stroke: #c0d4f5; stroke-opacity: 0.1"/>
    </defs>
    <g clip-path="url(#p7210d7a1dc)">
     <use xlink:href="#m556affb700" x="0" y="360" style="fill: #c0d4f5; fill-opacity: 0.1; stroke: #c0d4f5; stroke-opacity: 0.1"/>
    </g>
   </g>
   <g id="PolyCollection_4">
    <defs>
     <path id="m3e10c4aa70" d="M 61.423636 -335.234545 
L 61.423636 -335.234545 
L 64.192048 -335.234545 
L 66.960459 -335.234545 
L 69.728871 -335.234545 
L 72.497282 -335.234545 
L 75.265693 -335.234545 
L 78.034105 -335.234545 
L 80.802516 -335.234545 
L 83.570927 -335.234545 
L 86.339339 -335.234545 
L 89.10775 -335.234545 
L 91.876162 -335.234545 
L 94.644573 -335.234545 
L 97.412984 -335.234545 
L 100.181396 -335.234545 
L 102.949807 -335.234545 
L 105.718219 -335.234545 
L 108.48663 -335.234545 
L 111.255041 -335.234545 
L 114.023453 -335.234545 
L 116.791864 -335.234545 
L 119.560275 -335.234545 
L 122.328687 -335.234545 
L 125.097098 -335.234545 
L 127.86551 -335.234545 
L 130.633921 -335.234545 
L 133.402332 -335.234545 
L 136.170744 -335.234545 
L 138.939155 -335.234545 
L 141.707567 -335.234545 
L 144.475978 -335.234545 
L 147.244389 -335.234545 
L 150.012801 -335.234545 
L 152.781212 -335.234545 
L 155.549624 -335.234545 
L 158.318035 -335.234545 
L 161.086446 -335.234545 
L 163.854858 -335.234545 
L 166.623269 -335.234545 
L 169.39168 -335.234545 
L 172.160092 -335.234545 
L 174.928503 -335.234545 
L 177.696915 -335.234545 
L 180.465326 -335.234545 
L 183.233737 -335.234545 
L 186.002149 -335.234545 
L 188.77056 -335.234545 
L 191.538972 -335.234545 
L 194.307383 -335.234545 
L 197.075794 -335.234545 
L 199.844206 -335.234545 
L 202.612617 -335.234545 
L 205.381028 -335.234545 
L 208.14944 -335.234545 
L 210.917851 -335.234545 
L 213.686263 -335.234545 
L 216.454674 -335.234545 
L 219.223085 -335.234545 
L 221.991497 -335.234545 
L 224.759908 -335.234545 
L 227.52832 -335.234545 
L 230.296731 -334.411665 
L 233.065142 -323.661592 
L 235.833554 -320.646817 
L 238.601965 -319.794581 
L 241.370376 -318.664662 
L 244.138788 -306.89686 
L 246.907199 -301.753021 
L 249.675611 -296.415692 
L 252.444022 -291.032619 
L 255.212433 -285.616665 
L 257.980845 -280.176378 
L 260.749256 -274.717624 
L 263.517668 -269.244553 
L 266.286079 -263.76017 
L 269.05449 -258.266704 
L 271.822902 -252.765839 
L 274.591313 -247.258871 
L 277.359725 -241.846925 
L 280.128136 -236.792643 
L 282.896547 -231.727264 
L 285.664959 -186.700553 
L 288.43337 -181.400258 
L 291.201781 -167.226659 
L 293.970193 -162.729476 
L 296.738604 -154.665658 
L 299.507016 -150.134405 
L 302.275427 -145.130636 
L 305.043838 -139.67054 
L 307.81225 -130.736295 
L 310.580661 -121.548745 
L 313.349073 -112.140453 
L 316.117484 -112.41434 
L 318.885895 -103.548378 
L 321.654307 -95.611224 
L 324.422718 -87.67407 
L 327.191129 -79.736916 
L 329.959541 -71.799762 
L 332.727952 -63.862608 
L 335.496364 -55.925455 
L 335.496364 -55.925455 
L 335.496364 -55.925455 
L 332.727952 -80.462022 
L 329.959541 -104.998589 
L 327.191129 -129.535157 
L 324.422718 -154.071724 
L 321.654307 -178.608292 
L 318.885895 -203.144859 
L 316.117484 -217.950151 
L 313.349073 -267.670724 
L 310.580661 -269.971356 
L 307.81225 -272.49273 
L 305.043838 -275.26741 
L 302.275427 -278.266096 
L 299.507016 -281.721109 
L 296.738604 -285.648638 
L 293.970193 -295.222245 
L 291.201781 -300.788853 
L 288.43337 -310.559859 
L 285.664959 -327.443677 
L 282.896547 -335.234545 
L 280.128136 -335.234545 
L 277.359725 -335.234545 
L 274.591313 -335.234545 
L 271.822902 -335.234545 
L 269.05449 -335.234545 
L 266.286079 -335.234545 
L 263.517668 -335.234545 
L 260.749256 -335.234545 
L 257.980845 -335.234545 
L 255.212433 -335.234545 
L 252.444022 -335.234545 
L 249.675611 -335.234545 
L 246.907199 -335.234545 
L 244.138788 -335.234545 
L 241.370376 -335.234545 
L 238.601965 -335.234545 
L 235.833554 -335.234545 
L 233.065142 -335.234545 
L 230.296731 -335.234545 
L 227.52832 -335.234545 
L 224.759908 -335.234545 
L 221.991497 -335.234545 
L 219.223085 -335.234545 
L 216.454674 -335.234545 
L 213.686263 -335.234545 
L 210.917851 -335.234545 
L 208.14944 -335.234545 
L 205.381028 -335.234545 
L 202.612617 -335.234545 
L 199.844206 -335.234545 
L 197.075794 -335.234545 
L 194.307383 -335.234545 
L 191.538972 -335.234545 
L 188.77056 -335.234545 
L 186.002149 -335.234545 
L 183.233737 -335.234545 
L 180.465326 -335.234545 
L 177.696915 -335.234545 
L 174.928503 -335.234545 
L 172.160092 -335.234545 
L 169.39168 -335.234545 
L 166.623269 -335.234545 
L 163.854858 -335.234545 
L 161.086446 -335.234545 
L 158.318035 -335.234545 
L 155.549624 -335.234545 
L 152.781212 -335.234545 
L 150.012801 -335.234545 
L 147.244389 -335.234545 
L 144.475978 -335.234545 
L 141.707567 -335.234545 
L 138.939155 -335.234545 
L 136.170744 -335.234545 
L 133.402332 -335.234545 
L 130.633921 -335.234545 
L 127.86551 -335.234545 
L 125.097098 -335.234545 
L 122.328687 -335.234545 
L 119.560275 -335.234545 
L 116.791864 -335.234545 
L 114.023453 -335.234545 
L 111.255041 -335.234545 
L 108.48663 -335.234545 
L 105.718219 -335.234545 
L 102.949807 -335.234545 
L 100.181396 -335.234545 
L 97.412984 -335.234545 
L 94.644573 -335.234545 
L 91.876162 -335.234545 
L 89.10775 -335.234545 
L 86.339339 -335.234545 
L 83.570927 -335.234545 
L 80.802516 -335.234545 
L 78.034105 -335.234545 
L 75.265693 -335.234545 
L 72.497282 -335.234545 
L 69.728871 -335.234545 
L 66.960459 -335.234545 
L 64.192048 -335.234545 
L 61.423636 -335.234545 
z
" style="stroke: #f2cbb7; stroke-opacity: 0.1"/>
    </defs>
    <g clip-path="url(#p7210d7a1dc)">
     <use xlink:href="#m3e10c4aa70" x="0" y="360" style="fill: #f2cbb7; fill-opacity: 0.1; stroke: #f2cbb7; stroke-opacity: 0.1"/>
    </g>
   </g>
   <g id="PolyCollection_5">
    <defs>
     <path id="m27bc31f47b" d="M 61.423636 -335.234545 
L 61.423636 -335.234545 
L 64.192048 -335.234545 
L 66.960459 -335.234545 
L 69.728871 -335.234545 
L 72.497282 -335.234545 
L 75.265693 -335.234545 
L 78.034105 -335.234545 
L 80.802516 -335.234545 
L 83.570927 -335.234545 
L 86.339339 -335.234545 
L 89.10775 -335.234545 
L 91.876162 -335.234545 
L 94.644573 -335.234545 
L 97.412984 -335.234545 
L 100.181396 -335.234545 
L 102.949807 -335.234545 
L 105.718219 -335.234545 
L 108.48663 -335.234545 
L 111.255041 -335.234545 
L 114.023453 -335.234545 
L 116.791864 -335.234545 
L 119.560275 -335.234545 
L 122.328687 -335.234545 
L 125.097098 -335.234545 
L 127.86551 -335.234545 
L 130.633921 -335.234545 
L 133.402332 -335.234545 
L 136.170744 -335.234545 
L 138.939155 -335.234545 
L 141.707567 -335.234545 
L 144.475978 -335.234545 
L 147.244389 -335.234545 
L 150.012801 -335.234545 
L 152.781212 -335.234545 
L 155.549624 -335.234545 
L 158.318035 -335.234545 
L 161.086446 -335.234545 
L 163.854858 -335.234545 
L 166.623269 -335.234545 
L 169.39168 -335.234545 
L 172.160092 -335.234545 
L 174.928503 -335.234545 
L 177.696915 -335.234545 
L 180.465326 -335.234545 
L 183.233737 -335.234545 
L 186.002149 -335.234545 
L 188.77056 -335.234545 
L 191.538972 -335.234545 
L 194.307383 -335.234545 
L 197.075794 -335.234545 
L 199.844206 -335.234545 
L 202.612617 -335.234545 
L 205.381028 -335.234545 
L 208.14944 -335.234545 
L 210.917851 -335.234545 
L 213.686263 -335.234545 
L 216.454674 -335.234545 
L 219.223085 -335.234545 
L 221.991497 -335.234545 
L 224.759908 -335.234545 
L 227.52832 -335.234545 
L 230.296731 -335.234545 
L 233.065142 -335.234545 
L 235.833554 -335.234545 
L 238.601965 -335.234545 
L 241.370376 -335.234545 
L 244.138788 -319.451773 
L 246.907199 -319.451773 
L 249.675611 -319.451773 
L 252.444022 -319.451773 
L 255.212433 -319.451773 
L 257.980845 -319.451773 
L 260.749256 -309.592624 
L 263.517668 -304.780547 
L 266.286079 -304.780547 
L 269.05449 -304.780547 
L 271.822902 -304.780547 
L 274.591313 -297.681906 
L 277.359725 -293.293053 
L 280.128136 -293.293053 
L 282.896547 -293.293053 
L 285.664959 -293.293053 
L 288.43337 -293.293053 
L 291.201781 -292.447024 
L 293.970193 -288.376419 
L 296.738604 -288.376419 
L 299.507016 -288.376419 
L 302.275427 -283.771637 
L 305.043838 -266.313611 
L 307.81225 -266.313611 
L 310.580661 -254.559957 
L 313.349073 -200.569739 
L 316.117484 -200.569739 
L 318.885895 -200.569739 
L 321.654307 -183.092712 
L 324.422718 -183.092712 
L 327.191129 -185.135844 
L 329.959541 -185.135844 
L 332.727952 -185.135844 
L 335.496364 -55.925455 
L 335.496364 -55.925455 
L 335.496364 -55.925455 
L 332.727952 -284.78932 
L 329.959541 -284.78932 
L 327.191129 -284.78932 
L 324.422718 -309.177179 
L 321.654307 -309.177179 
L 318.885895 -314.044879 
L 316.117484 -314.044879 
L 313.349073 -314.044879 
L 310.580661 -315.916479 
L 307.81225 -317.942074 
L 305.043838 -317.942074 
L 302.275427 -322.828775 
L 299.507016 -322.692938 
L 296.738604 -322.692938 
L 293.970193 -322.692938 
L 291.201781 -323.277485 
L 288.43337 -331.369347 
L 285.664959 -331.369347 
L 282.896547 -331.369347 
L 280.128136 -331.369347 
L 277.359725 -331.369347 
L 274.591313 -331.449439 
L 271.822902 -335.234545 
L 269.05449 -335.234545 
L 266.286079 -335.234545 
L 263.517668 -335.234545 
L 260.749256 -335.234545 
L 257.980845 -335.234545 
L 255.212433 -335.234545 
L 252.444022 -335.234545 
L 249.675611 -335.234545 
L 246.907199 -335.234545 
L 244.138788 -335.234545 
L 241.370376 -335.234545 
L 238.601965 -335.234545 
L 235.833554 -335.234545 
L 233.065142 -335.234545 
L 230.296731 -335.234545 
L 227.52832 -335.234545 
L 224.759908 -335.234545 
L 221.991497 -335.234545 
L 219.223085 -335.234545 
L 216.454674 -335.234545 
L 213.686263 -335.234545 
L 210.917851 -335.234545 
L 208.14944 -335.234545 
L 205.381028 -335.234545 
L 202.612617 -335.234545 
L 199.844206 -335.234545 
L 197.075794 -335.234545 
L 194.307383 -335.234545 
L 191.538972 -335.234545 
L 188.77056 -335.234545 
L 186.002149 -335.234545 
L 183.233737 -335.234545 
L 180.465326 -335.234545 
L 177.696915 -335.234545 
L 174.928503 -335.234545 
L 172.160092 -335.234545 
L 169.39168 -335.234545 
L 166.623269 -335.234545 
L 163.854858 -335.234545 
L 161.086446 -335.234545 
L 158.318035 -335.234545 
L 155.549624 -335.234545 
L 152.781212 -335.234545 
L 150.012801 -335.234545 
L 147.244389 -335.234545 
L 144.475978 -335.234545 
L 141.707567 -335.234545 
L 138.939155 -335.234545 
L 136.170744 -335.234545 
L 133.402332 -335.234545 
L 130.633921 -335.234545 
L 127.86551 -335.234545 
L 125.097098 -335.234545 
L 122.328687 -335.234545 
L 119.560275 -335.234545 
L 116.791864 -335.234545 
L 114.023453 -335.234545 
L 111.255041 -335.234545 
L 108.48663 -335.234545 
L 105.718219 -335.234545 
L 102.949807 -335.234545 
L 100.181396 -335.234545 
L 97.412984 -335.234545 
L 94.644573 -335.234545 
L 91.876162 -335.234545 
L 89.10775 -335.234545 
L 86.339339 -335.234545 
L 83.570927 -335.234545 
L 80.802516 -335.234545 
L 78.034105 -335.234545 
L 75.265693 -335.234545 
L 72.497282 -335.234545 
L 69.728871 -335.234545 
L 66.960459 -335.234545 
L 64.192048 -335.234545 
L 61.423636 -335.234545 
z
" style="stroke: #ee8468; stroke-opacity: 0.1"/>
    </defs>
    <g clip-path="url(#p7210d7a1dc)">
     <use xlink:href="#m27bc31f47b" x="0" y="360" style="fill: #ee8468; fill-opacity: 0.1; stroke: #ee8468; stroke-opacity: 0.1"/>
    </g>
   </g>
   <g id="PolyCollection_6">
    <defs>
     <path id="m5d12b35b70" d="M 61.423636 -335.234545 
L 61.423636 -335.234545 
L 64.192048 -335.234545 
L 66.960459 -335.234545 
L 69.728871 -335.234545 
L 72.497282 -335.234545 
L 75.265693 -335.234545 
L 78.034105 -335.234545 
L 80.802516 -335.234545 
L 83.570927 -335.234545 
L 86.339339 -335.234545 
L 89.10775 -335.234545 
L 91.876162 -335.234545 
L 94.644573 -335.234545 
L 97.412984 -335.234545 
L 100.181396 -335.234545 
L 102.949807 -335.234545 
L 105.718219 -335.234545 
L 108.48663 -335.234545 
L 111.255041 -335.234545 
L 114.023453 -335.234545 
L 116.791864 -335.234545 
L 119.560275 -335.234545 
L 122.328687 -335.234545 
L 125.097098 -335.234545 
L 127.86551 -335.234545 
L 130.633921 -335.234545 
L 133.402332 -335.234545 
L 136.170744 -335.234545 
L 138.939155 -335.234545 
L 141.707567 -335.234545 
L 144.475978 -335.234545 
L 147.244389 -335.234545 
L 150.012801 -335.234545 
L 152.781212 -335.234545 
L 155.549624 -335.234545 
L 158.318035 -335.234545 
L 161.086446 -335.234545 
L 163.854858 -335.234545 
L 166.623269 -335.234545 
L 169.39168 -335.234545 
L 172.160092 -335.234545 
L 174.928503 -335.234545 
L 177.696915 -335.234545 
L 180.465326 -335.234545 
L 183.233737 -335.234545 
L 186.002149 -335.234545 
L 188.77056 -335.234545 
L 191.538972 -335.234545 
L 194.307383 -335.234545 
L 197.075794 -335.234545 
L 199.844206 -335.234545 
L 202.612617 -335.234545 
L 205.381028 -335.234545 
L 208.14944 -335.234545 
L 210.917851 -335.234545 
L 213.686263 -335.234545 
L 216.454674 -335.234545 
L 219.223085 -335.234545 
L 221.991497 -335.234545 
L 224.759908 -335.234545 
L 227.52832 -335.234545 
L 230.296731 -335.234545 
L 233.065142 -335.234545 
L 235.833554 -335.234545 
L 238.601965 -335.234545 
L 241.370376 -335.234545 
L 244.138788 -335.234545 
L 246.907199 -335.234545 
L 249.675611 -335.234545 
L 252.444022 -335.234545 
L 255.212433 -335.234545 
L 257.980845 -335.234545 
L 260.749256 -335.234545 
L 263.517668 -335.234545 
L 266.286079 -335.234545 
L 269.05449 -335.234545 
L 271.822902 -335.234545 
L 274.591313 -335.234545 
L 277.359725 -335.234545 
L 280.128136 -335.234545 
L 282.896547 -335.234545 
L 285.664959 -335.234545 
L 288.43337 -335.234545 
L 291.201781 -335.234545 
L 293.970193 -335.234545 
L 296.738604 -335.234545 
L 299.507016 -335.234545 
L 302.275427 -335.234545 
L 305.043838 -335.234545 
L 307.81225 -335.234545 
L 310.580661 -335.234545 
L 313.349073 -335.234545 
L 316.117484 -335.234545 
L 318.885895 -335.234545 
L 321.654307 -335.234545 
L 324.422718 -329.752341 
L 327.191129 -329.752341 
L 329.959541 -329.752341 
L 332.727952 -329.752341 
L 335.496364 -55.925455 
L 335.496364 -55.925455 
L 335.496364 -55.925455 
L 332.727952 -335.234545 
L 329.959541 -335.234545 
L 327.191129 -335.234545 
L 324.422718 -335.234545 
L 321.654307 -335.234545 
L 318.885895 -335.234545 
L 316.117484 -335.234545 
L 313.349073 -335.234545 
L 310.580661 -335.234545 
L 307.81225 -335.234545 
L 305.043838 -335.234545 
L 302.275427 -335.234545 
L 299.507016 -335.234545 
L 296.738604 -335.234545 
L 293.970193 -335.234545 
L 291.201781 -335.234545 
L 288.43337 -335.234545 
L 285.664959 -335.234545 
L 282.896547 -335.234545 
L 280.128136 -335.234545 
L 277.359725 -335.234545 
L 274.591313 -335.234545 
L 271.822902 -335.234545 
L 269.05449 -335.234545 
L 266.286079 -335.234545 
L 263.517668 -335.234545 
L 260.749256 -335.234545 
L 257.980845 -335.234545 
L 255.212433 -335.234545 
L 252.444022 -335.234545 
L 249.675611 -335.234545 
L 246.907199 -335.234545 
L 244.138788 -335.234545 
L 241.370376 -335.234545 
L 238.601965 -335.234545 
L 235.833554 -335.234545 
L 233.065142 -335.234545 
L 230.296731 -335.234545 
L 227.52832 -335.234545 
L 224.759908 -335.234545 
L 221.991497 -335.234545 
L 219.223085 -335.234545 
L 216.454674 -335.234545 
L 213.686263 -335.234545 
L 210.917851 -335.234545 
L 208.14944 -335.234545 
L 205.381028 -335.234545 
L 202.612617 -335.234545 
L 199.844206 -335.234545 
L 197.075794 -335.234545 
L 194.307383 -335.234545 
L 191.538972 -335.234545 
L 188.77056 -335.234545 
L 186.002149 -335.234545 
L 183.233737 -335.234545 
L 180.465326 -335.234545 
L 177.696915 -335.234545 
L 174.928503 -335.234545 
L 172.160092 -335.234545 
L 169.39168 -335.234545 
L 166.623269 -335.234545 
L 163.854858 -335.234545 
L 161.086446 -335.234545 
L 158.318035 -335.234545 
L 155.549624 -335.234545 
L 152.781212 -335.234545 
L 150.012801 -335.234545 
L 147.244389 -335.234545 
L 144.475978 -335.234545 
L 141.707567 -335.234545 
L 138.939155 -335.234545 
L 136.170744 -335.234545 
L 133.402332 -335.234545 
L 130.633921 -335.234545 
L 127.86551 -335.234545 
L 125.097098 -335.234545 
L 122.328687 -335.234545 
L 119.560275 -335.234545 
L 116.791864 -335.234545 
L 114.023453 -335.234545 
L 111.255041 -335.234545 
L 108.48663 -335.234545 
L 105.718219 -335.234545 
L 102.949807 -335.234545 
L 100.181396 -335.234545 
L 97.412984 -335.234545 
L 94.644573 -335.234545 
L 91.876162 -335.234545 
L 89.10775 -335.234545 
L 86.339339 -335.234545 
L 83.570927 -335.234545 
L 80.802516 -335.234545 
L 78.034105 -335.234545 
L 75.265693 -335.234545 
L 72.497282 -335.234545 
L 69.728871 -335.234545 
L 66.960459 -335.234545 
L 64.192048 -335.234545 
L 61.423636 -335.234545 
z
" style="stroke: #b40426; stroke-opacity: 0.2"/>
    </defs>
    <g clip-path="url(#p7210d7a1dc)">
     <use xlink:href="#m5d12b35b70" x="0" y="360" style="fill: #b40426; fill-opacity: 0.2; stroke: #b40426; stroke-opacity: 0.2"/>
    </g>
   </g>
   <g id="matplotlib.axis_1">
    <g id="xtick_1">
     <g id="line2d_1">
      <defs>
       <path id="ma0252c6c4a" d="M 0 0 
L 0 3.5 
" style="stroke: #000000; stroke-width: 0.8"/>
      </defs>
      <g>
       <use xlink:href="#ma0252c6c4a" x="61.423636" y="318.04" style="stroke: #000000; stroke-width: 0.8"/>
      </g>
     </g>
     <g id="text_1">
      <!-- 0.0 -->
      <g transform="translate(53.472074 332.638438)scale(0.1 -0.1)">
       <defs>
        <path id="DejaVuSans-30" d="M 2034 4250 
Q 1547 4250 1301 3770 
Q 1056 3291 1056 2328 
Q 1056 1369 1301 889 
Q 1547 409 2034 409 
Q 2525 409 2770 889 
Q 3016 1369 3016 2328 
Q 3016 3291 2770 3770 
Q 2525 4250 2034 4250 
z
M 2034 4750 
Q 2819 4750 3233 4129 
Q 3647 3509 3647 2328 
Q 3647 1150 3233 529 
Q 2819 -91 2034 -91 
Q 1250 -91 836 529 
Q 422 1150 422 2328 
Q 422 3509 836 4129 
Q 1250 4750 2034 4750 
z
" transform="scale(0.015625)"/>
        <path id="DejaVuSans-2e" d="M 684 794 
L 1344 794 
L 1344 0 
L 684 0 
L 684 794 
z
" transform="scale(0.015625)"/>
       </defs>
       <use xlink:href="#DejaVuSans-30"/>
       <use xlink:href="#DejaVuSans-2e" x="63.623047"/>
       <use xlink:href="#DejaVuSans-30" x="95.410156"/>
      </g>
     </g>
    </g>
    <g id="xtick_2">
     <g id="line2d_2">
      <g>
       <use xlink:href="#ma0252c6c4a" x="116.238182" y="318.04" style="stroke: #000000; stroke-width: 0.8"/>
      </g>
     </g>
     <g id="text_2">
      <!-- 0.2 -->
      <g transform="translate(108.286619 332.638438)scale(0.1 -0.1)">
       <defs>
        <path id="DejaVuSans-32" d="M 1228 531 
L 3431 531 
L 3431 0 
L 469 0 
L 469 531 
Q 828 903 1448 1529 
Q 2069 2156 2228 2338 
Q 2531 2678 2651 2914 
Q 2772 3150 2772 3378 
Q 2772 3750 2511 3984 
Q 2250 4219 1831 4219 
Q 1534 4219 1204 4116 
Q 875 4013 500 3803 
L 500 4441 
Q 881 4594 1212 4672 
Q 1544 4750 1819 4750 
Q 2544 4750 2975 4387 
Q 3406 4025 3406 3419 
Q 3406 3131 3298 2873 
Q 3191 2616 2906 2266 
Q 2828 2175 2409 1742 
Q 1991 1309 1228 531 
z
" transform="scale(0.015625)"/>
       </defs>
       <use xlink:href="#DejaVuSans-30"/>
       <use xlink:href="#DejaVuSans-2e" x="63.623047"/>
       <use xlink:href="#DejaVuSans-32" x="95.410156"/>
      </g>
     </g>
    </g>
    <g id="xtick_3">
     <g id="line2d_3">
      <g>
       <use xlink:href="#ma0252c6c4a" x="171.052727" y="318.04" style="stroke: #000000; stroke-width: 0.8"/>
      </g>
     </g>
     <g id="text_3">
      <!-- 0.4 -->
      <g transform="translate(163.101165 332.638438)scale(0.1 -0.1)">
       <defs>
        <path id="DejaVuSans-34" d="M 2419 4116 
L 825 1625 
L 2419 1625 
L 2419 4116 
z
M 2253 4666 
L 3047 4666 
L 3047 1625 
L 3713 1625 
L 3713 1100 
L 3047 1100 
L 3047 0 
L 2419 0 
L 2419 1100 
L 313 1100 
L 313 1709 
L 2253 4666 
z
" transform="scale(0.015625)"/>
       </defs>
       <use xlink:href="#DejaVuSans-30"/>
       <use xlink:href="#DejaVuSans-2e" x="63.623047"/>
       <use xlink:href="#DejaVuSans-34" x="95.410156"/>
      </g>
     </g>
    </g>
    <g id="xtick_4">
     <g id="line2d_4">
      <g>
       <use xlink:href="#ma0252c6c4a" x="225.867273" y="318.04" style="stroke: #000000; stroke-width: 0.8"/>
      </g>
     </g>
     <g id="text_4">
      <!-- 0.6 -->
      <g transform="translate(217.91571 332.638438)scale(0.1 -0.1)">
       <defs>
        <path id="DejaVuSans-36" d="M 2113 2584 
Q 1688 2584 1439 2293 
Q 1191 2003 1191 1497 
Q 1191 994 1439 701 
Q 1688 409 2113 409 
Q 2538 409 2786 701 
Q 3034 994 3034 1497 
Q 3034 2003 2786 2293 
Q 2538 2584 2113 2584 
z
M 3366 4563 
L 3366 3988 
Q 3128 4100 2886 4159 
Q 2644 4219 2406 4219 
Q 1781 4219 1451 3797 
Q 1122 3375 1075 2522 
Q 1259 2794 1537 2939 
Q 1816 3084 2150 3084 
Q 2853 3084 3261 2657 
Q 3669 2231 3669 1497 
Q 3669 778 3244 343 
Q 2819 -91 2113 -91 
Q 1303 -91 875 529 
Q 447 1150 447 2328 
Q 447 3434 972 4092 
Q 1497 4750 2381 4750 
Q 2619 4750 2861 4703 
Q 3103 4656 3366 4563 
z
" transform="scale(0.015625)"/>
       </defs>
       <use xlink:href="#DejaVuSans-30"/>
       <use xlink:href="#DejaVuSans-2e" x="63.623047"/>
       <use xlink:href="#DejaVuSans-36" x="95.410156"/>
      </g>
     </g>
    </g>
    <g id="xtick_5">
     <g id="line2d_5">
      <g>
       <use xlink:href="#ma0252c6c4a" x="280.681818" y="318.04" style="stroke: #000000; stroke-width: 0.8"/>
      </g>
     </g>
     <g id="text_5">
      <!-- 0.8 -->
      <g transform="translate(272.730256 332.638438)scale(0.1 -0.1)">
       <defs>
        <path id="DejaVuSans-38" d="M 2034 2216 
Q 1584 2216 1326 1975 
Q 1069 1734 1069 1313 
Q 1069 891 1326 650 
Q 1584 409 2034 409 
Q 2484 409 2743 651 
Q 3003 894 3003 1313 
Q 3003 1734 2745 1975 
Q 2488 2216 2034 2216 
z
M 1403 2484 
Q 997 2584 770 2862 
Q 544 3141 544 3541 
Q 544 4100 942 4425 
Q 1341 4750 2034 4750 
Q 2731 4750 3128 4425 
Q 3525 4100 3525 3541 
Q 3525 3141 3298 2862 
Q 3072 2584 2669 2484 
Q 3125 2378 3379 2068 
Q 3634 1759 3634 1313 
Q 3634 634 3220 271 
Q 2806 -91 2034 -91 
Q 1263 -91 848 271 
Q 434 634 434 1313 
Q 434 1759 690 2068 
Q 947 2378 1403 2484 
z
M 1172 3481 
Q 1172 3119 1398 2916 
Q 1625 2713 2034 2713 
Q 2441 2713 2670 2916 
Q 2900 3119 2900 3481 
Q 2900 3844 2670 4047 
Q 2441 4250 2034 4250 
Q 1625 4250 1398 4047 
Q 1172 3844 1172 3481 
z
" transform="scale(0.015625)"/>
       </defs>
       <use xlink:href="#DejaVuSans-30"/>
       <use xlink:href="#DejaVuSans-2e" x="63.623047"/>
       <use xlink:href="#DejaVuSans-38" x="95.410156"/>
      </g>
     </g>
    </g>
    <g id="xtick_6">
     <g id="line2d_6">
      <g>
       <use xlink:href="#ma0252c6c4a" x="335.496364" y="318.04" style="stroke: #000000; stroke-width: 0.8"/>
      </g>
     </g>
     <g id="text_6">
      <!-- 1.0 -->
      <g transform="translate(327.544801 332.638438)scale(0.1 -0.1)">
       <defs>
        <path id="DejaVuSans-31" d="M 794 531 
L 1825 531 
L 1825 4091 
L 703 3866 
L 703 4441 
L 1819 4666 
L 2450 4666 
L 2450 531 
L 3481 531 
L 3481 0 
L 794 0 
L 794 531 
z
" transform="scale(0.015625)"/>
       </defs>
       <use xlink:href="#DejaVuSans-31"/>
       <use xlink:href="#DejaVuSans-2e" x="63.623047"/>
       <use xlink:href="#DejaVuSans-30" x="95.410156"/>
      </g>
     </g>
    </g>
    <g id="text_7">
     <!-- Recall -->
     <g transform="translate(183.542812 346.316563)scale(0.1 -0.1)">
      <defs>
       <path id="DejaVuSans-52" d="M 2841 2188 
Q 3044 2119 3236 1894 
Q 3428 1669 3622 1275 
L 4263 0 
L 3584 0 
L 2988 1197 
Q 2756 1666 2539 1819 
Q 2322 1972 1947 1972 
L 1259 1972 
L 1259 0 
L 628 0 
L 628 4666 
L 2053 4666 
Q 2853 4666 3247 4331 
Q 3641 3997 3641 3322 
Q 3641 2881 3436 2590 
Q 3231 2300 2841 2188 
z
M 1259 4147 
L 1259 2491 
L 2053 2491 
Q 2509 2491 2742 2702 
Q 2975 2913 2975 3322 
Q 2975 3731 2742 3939 
Q 2509 4147 2053 4147 
L 1259 4147 
z
" transform="scale(0.015625)"/>
       <path id="DejaVuSans-65" d="M 3597 1894 
L 3597 1613 
L 953 1613 
Q 991 1019 1311 708 
Q 1631 397 2203 397 
Q 2534 397 2845 478 
Q 3156 559 3463 722 
L 3463 178 
Q 3153 47 2828 -22 
Q 2503 -91 2169 -91 
Q 1331 -91 842 396 
Q 353 884 353 1716 
Q 353 2575 817 3079 
Q 1281 3584 2069 3584 
Q 2775 3584 3186 3129 
Q 3597 2675 3597 1894 
z
M 3022 2063 
Q 3016 2534 2758 2815 
Q 2500 3097 2075 3097 
Q 1594 3097 1305 2825 
Q 1016 2553 972 2059 
L 3022 2063 
z
" transform="scale(0.015625)"/>
       <path id="DejaVuSans-63" d="M 3122 3366 
L 3122 2828 
Q 2878 2963 2633 3030 
Q 2388 3097 2138 3097 
Q 1578 3097 1268 2742 
Q 959 2388 959 1747 
Q 959 1106 1268 751 
Q 1578 397 2138 397 
Q 2388 397 2633 464 
Q 2878 531 3122 666 
L 3122 134 
Q 2881 22 2623 -34 
Q 2366 -91 2075 -91 
Q 1284 -91 818 406 
Q 353 903 353 1747 
Q 353 2603 823 3093 
Q 1294 3584 2113 3584 
Q 2378 3584 2631 3529 
Q 2884 3475 3122 3366 
z
" transform="scale(0.015625)"/>
       <path id="DejaVuSans-61" d="M 2194 1759 
Q 1497 1759 1228 1600 
Q 959 1441 959 1056 
Q 959 750 1161 570 
Q 1363 391 1709 391 
Q 2188 391 2477 730 
Q 2766 1069 2766 1631 
L 2766 1759 
L 2194 1759 
z
M 3341 1997 
L 3341 0 
L 2766 0 
L 2766 531 
Q 2569 213 2275 61 
Q 1981 -91 1556 -91 
Q 1019 -91 701 211 
Q 384 513 384 1019 
Q 384 1609 779 1909 
Q 1175 2209 1959 2209 
L 2766 2209 
L 2766 2266 
Q 2766 2663 2505 2880 
Q 2244 3097 1772 3097 
Q 1472 3097 1187 3025 
Q 903 2953 641 2809 
L 641 3341 
Q 956 3463 1253 3523 
Q 1550 3584 1831 3584 
Q 2591 3584 2966 3190 
Q 3341 2797 3341 1997 
z
" transform="scale(0.015625)"/>
       <path id="DejaVuSans-6c" d="M 603 4863 
L 1178 4863 
L 1178 0 
L 603 0 
L 603 4863 
z
" transform="scale(0.015625)"/>
      </defs>
      <use xlink:href="#DejaVuSans-52"/>
      <use xlink:href="#DejaVuSans-65" x="64.982422"/>
      <use xlink:href="#DejaVuSans-63" x="126.505859"/>
      <use xlink:href="#DejaVuSans-61" x="181.486328"/>
      <use xlink:href="#DejaVuSans-6c" x="242.765625"/>
      <use xlink:href="#DejaVuSans-6c" x="270.548828"/>
     </g>
    </g>
   </g>
   <g id="matplotlib.axis_2">
    <g id="ytick_1">
     <g id="line2d_7">
      <defs>
       <path id="m6d8b3a920c" d="M 0 0 
L -3.5 0 
" style="stroke: #000000; stroke-width: 0.8"/>
      </defs>
      <g>
       <use xlink:href="#m6d8b3a920c" x="47.72" y="304.074545" style="stroke: #000000; stroke-width: 0.8"/>
      </g>
     </g>
     <g id="text_8">
      <!-- 0.0 -->
      <g transform="translate(24.816875 307.873764)scale(0.1 -0.1)">
       <use xlink:href="#DejaVuSans-30"/>
       <use xlink:href="#DejaVuSans-2e" x="63.623047"/>
       <use xlink:href="#DejaVuSans-30" x="95.410156"/>
      </g>
     </g>
    </g>
    <g id="ytick_2">
     <g id="line2d_8">
      <g>
       <use xlink:href="#m6d8b3a920c" x="47.72" y="248.212727" style="stroke: #000000; stroke-width: 0.8"/>
      </g>
     </g>
     <g id="text_9">
      <!-- 0.2 -->
      <g transform="translate(24.816875 252.011946)scale(0.1 -0.1)">
       <use xlink:href="#DejaVuSans-30"/>
       <use xlink:href="#DejaVuSans-2e" x="63.623047"/>
       <use xlink:href="#DejaVuSans-32" x="95.410156"/>
      </g>
     </g>
    </g>
    <g id="ytick_3">
     <g id="line2d_9">
      <g>
       <use xlink:href="#m6d8b3a920c" x="47.72" y="192.350909" style="stroke: #000000; stroke-width: 0.8"/>
      </g>
     </g>
     <g id="text_10">
      <!-- 0.4 -->
      <g transform="translate(24.816875 196.150128)scale(0.1 -0.1)">
       <use xlink:href="#DejaVuSans-30"/>
       <use xlink:href="#DejaVuSans-2e" x="63.623047"/>
       <use xlink:href="#DejaVuSans-34" x="95.410156"/>
      </g>
     </g>
    </g>
    <g id="ytick_4">
     <g id="line2d_10">
      <g>
       <use xlink:href="#m6d8b3a920c" x="47.72" y="136.489091" style="stroke: #000000; stroke-width: 0.8"/>
      </g>
     </g>
     <g id="text_11">
      <!-- 0.6 -->
      <g transform="translate(24.816875 140.28831)scale(0.1 -0.1)">
       <use xlink:href="#DejaVuSans-30"/>
       <use xlink:href="#DejaVuSans-2e" x="63.623047"/>
       <use xlink:href="#DejaVuSans-36" x="95.410156"/>
      </g>
     </g>
    </g>
    <g id="ytick_5">
     <g id="line2d_11">
      <g>
       <use xlink:href="#m6d8b3a920c" x="47.72" y="80.627273" style="stroke: #000000; stroke-width: 0.8"/>
      </g>
     </g>
     <g id="text_12">
      <!-- 0.8 -->
      <g transform="translate(24.816875 84.426491)scale(0.1 -0.1)">
       <use xlink:href="#DejaVuSans-30"/>
       <use xlink:href="#DejaVuSans-2e" x="63.623047"/>
       <use xlink:href="#DejaVuSans-38" x="95.410156"/>
      </g>
     </g>
    </g>
    <g id="ytick_6">
     <g id="line2d_12">
      <g>
       <use xlink:href="#m6d8b3a920c" x="47.72" y="24.765455" style="stroke: #000000; stroke-width: 0.8"/>
      </g>
     </g>
     <g id="text_13">
      <!-- 1.0 -->
      <g transform="translate(24.816875 28.564673)scale(0.1 -0.1)">
       <use xlink:href="#DejaVuSans-31"/>
       <use xlink:href="#DejaVuSans-2e" x="63.623047"/>
       <use xlink:href="#DejaVuSans-30" x="95.410156"/>
      </g>
     </g>
    </g>
    <g id="text_14">
     <!-- Precision -->
     <g transform="translate(18.737188 186.727031)rotate(-90)scale(0.1 -0.1)">
      <defs>
       <path id="DejaVuSans-50" d="M 1259 4147 
L 1259 2394 
L 2053 2394 
Q 2494 2394 2734 2622 
Q 2975 2850 2975 3272 
Q 2975 3691 2734 3919 
Q 2494 4147 2053 4147 
L 1259 4147 
z
M 628 4666 
L 2053 4666 
Q 2838 4666 3239 4311 
Q 3641 3956 3641 3272 
Q 3641 2581 3239 2228 
Q 2838 1875 2053 1875 
L 1259 1875 
L 1259 0 
L 628 0 
L 628 4666 
z
" transform="scale(0.015625)"/>
       <path id="DejaVuSans-72" d="M 2631 2963 
Q 2534 3019 2420 3045 
Q 2306 3072 2169 3072 
Q 1681 3072 1420 2755 
Q 1159 2438 1159 1844 
L 1159 0 
L 581 0 
L 581 3500 
L 1159 3500 
L 1159 2956 
Q 1341 3275 1631 3429 
Q 1922 3584 2338 3584 
Q 2397 3584 2469 3576 
Q 2541 3569 2628 3553 
L 2631 2963 
z
" transform="scale(0.015625)"/>
       <path id="DejaVuSans-69" d="M 603 3500 
L 1178 3500 
L 1178 0 
L 603 0 
L 603 3500 
z
M 603 4863 
L 1178 4863 
L 1178 4134 
L 603 4134 
L 603 4863 
z
" transform="scale(0.015625)"/>
       <path id="DejaVuSans-73" d="M 2834 3397 
L 2834 2853 
Q 2591 2978 2328 3040 
Q 2066 3103 1784 3103 
Q 1356 3103 1142 2972 
Q 928 2841 928 2578 
Q 928 2378 1081 2264 
Q 1234 2150 1697 2047 
L 1894 2003 
Q 2506 1872 2764 1633 
Q 3022 1394 3022 966 
Q 3022 478 2636 193 
Q 2250 -91 1575 -91 
Q 1294 -91 989 -36 
Q 684 19 347 128 
L 347 722 
Q 666 556 975 473 
Q 1284 391 1588 391 
Q 1994 391 2212 530 
Q 2431 669 2431 922 
Q 2431 1156 2273 1281 
Q 2116 1406 1581 1522 
L 1381 1569 
Q 847 1681 609 1914 
Q 372 2147 372 2553 
Q 372 3047 722 3315 
Q 1072 3584 1716 3584 
Q 2034 3584 2315 3537 
Q 2597 3491 2834 3397 
z
" transform="scale(0.015625)"/>
       <path id="DejaVuSans-6f" d="M 1959 3097 
Q 1497 3097 1228 2736 
Q 959 2375 959 1747 
Q 959 1119 1226 758 
Q 1494 397 1959 397 
Q 2419 397 2687 759 
Q 2956 1122 2956 1747 
Q 2956 2369 2687 2733 
Q 2419 3097 1959 3097 
z
M 1959 3584 
Q 2709 3584 3137 3096 
Q 3566 2609 3566 1747 
Q 3566 888 3137 398 
Q 2709 -91 1959 -91 
Q 1206 -91 779 398 
Q 353 888 353 1747 
Q 353 2609 779 3096 
Q 1206 3584 1959 3584 
z
" transform="scale(0.015625)"/>
       <path id="DejaVuSans-6e" d="M 3513 2113 
L 3513 0 
L 2938 0 
L 2938 2094 
Q 2938 2591 2744 2837 
Q 2550 3084 2163 3084 
Q 1697 3084 1428 2787 
Q 1159 2491 1159 1978 
L 1159 0 
L 581 0 
L 581 3500 
L 1159 3500 
L 1159 2956 
Q 1366 3272 1645 3428 
Q 1925 3584 2291 3584 
Q 2894 3584 3203 3211 
Q 3513 2838 3513 2113 
z
" transform="scale(0.015625)"/>
      </defs>
      <use xlink:href="#DejaVuSans-50"/>
      <use xlink:href="#DejaVuSans-72" x="58.552734"/>
      <use xlink:href="#DejaVuSans-65" x="97.416016"/>
      <use xlink:href="#DejaVuSans-63" x="158.939453"/>
      <use xlink:href="#DejaVuSans-69" x="213.919922"/>
      <use xlink:href="#DejaVuSans-73" x="241.703125"/>
      <use xlink:href="#DejaVuSans-69" x="293.802734"/>
      <use xlink:href="#DejaVuSans-6f" x="321.585938"/>
      <use xlink:href="#DejaVuSans-6e" x="382.767578"/>
     </g>
    </g>
   </g>
   <g id="line2d_13">
    <path d="M 61.423636 24.765455 
L 64.192048 24.765455 
L 66.960459 24.765455 
L 69.728871 24.765455 
L 72.497282 24.765455 
L 75.265693 24.765455 
L 78.034105 24.765455 
L 80.802516 24.765455 
L 83.570927 24.765455 
L 86.339339 24.765455 
L 89.10775 24.765455 
L 91.876162 24.765455 
L 94.644573 24.765455 
L 97.412984 24.765455 
L 100.181396 24.765455 
L 102.949807 24.765455 
L 105.718219 24.765455 
L 108.48663 24.765455 
L 111.255041 24.765455 
L 114.023453 24.765455 
L 116.791864 24.765455 
L 119.560275 24.765455 
L 122.328687 24.765455 
L 125.097098 24.765455 
L 127.86551 24.765455 
L 130.633921 24.765455 
L 133.402332 24.765455 
L 136.170744 24.765455 
L 138.939155 24.765455 
L 141.707567 24.765455 
L 144.475978 24.765455 
L 147.244389 24.765455 
L 150.012801 24.765455 
L 152.781212 24.765455 
L 155.549624 24.765455 
L 158.318035 24.765455 
L 161.086446 24.765455 
L 163.854858 24.765455 
L 166.623269 24.765455 
L 169.39168 24.765455 
L 172.160092 24.765455 
L 174.928503 24.765455 
L 177.696915 24.765455 
L 180.465326 24.765455 
L 183.233737 24.765455 
L 186.002149 24.765455 
L 188.77056 24.765455 
L 191.538972 24.765455 
L 194.307383 24.765455 
L 197.075794 24.765455 
L 199.844206 24.765455 
L 202.612617 24.765455 
L 205.381028 24.765455 
L 208.14944 24.765455 
L 210.917851 24.765455 
L 213.686263 24.765455 
L 216.454674 24.765455 
L 219.223085 24.765455 
L 221.991497 24.765455 
L 224.759908 24.765455 
L 227.52832 24.765455 
L 230.296731 24.765455 
L 233.065142 24.765455 
L 235.833554 24.765455 
L 238.601965 24.765455 
L 241.370376 24.765455 
L 244.138788 24.765455 
L 246.907199 24.765455 
L 249.675611 27.09303 
L 252.444022 27.09303 
L 255.212433 27.09303 
L 257.980845 27.09303 
L 260.749256 27.09303 
L 263.517668 27.09303 
L 266.286079 27.09303 
L 269.05449 27.09303 
L 271.822902 27.09303 
L 274.591313 27.09303 
L 277.359725 29.327503 
L 280.128136 29.327503 
L 282.896547 33.889552 
L 285.664959 33.889552 
L 288.43337 40.59297 
L 291.201781 40.59297 
L 293.970193 40.59297 
L 296.738604 40.59297 
L 299.507016 40.59297 
L 302.275427 40.59297 
L 305.043838 45.248121 
L 307.81225 45.248121 
L 310.580661 45.248121 
L 313.349073 49.717067 
L 316.117484 51.951539 
L 318.885895 51.951539 
L 321.654307 51.951539 
L 324.422718 70.199733 
L 327.191129 74.668679 
L 329.959541 74.668679 
L 332.727952 74.668679 
L 335.496364 304.074545 
" clip-path="url(#p7210d7a1dc)" style="fill: none; stroke: #3b4cc0; stroke-width: 1.5; stroke-linecap: square"/>
   </g>
   <g id="line2d_14">
    <path d="M 61.423636 24.765455 
L 64.192048 24.765455 
L 66.960459 24.765455 
L 69.728871 24.765455 
L 72.497282 24.765455 
L 75.265693 24.765455 
L 78.034105 24.765455 
L 80.802516 24.765455 
L 83.570927 24.765455 
L 86.339339 24.765455 
L 89.10775 24.765455 
L 91.876162 24.765455 
L 94.644573 24.765455 
L 97.412984 24.765455 
L 100.181396 24.765455 
L 102.949807 24.765455 
L 105.718219 24.765455 
L 108.48663 24.765455 
L 111.255041 24.765455 
L 114.023453 24.765455 
L 116.791864 24.765455 
L 119.560275 24.765455 
L 122.328687 24.765455 
L 125.097098 24.765455 
L 127.86551 24.765455 
L 130.633921 24.765455 
L 133.402332 24.765455 
L 136.170744 24.765455 
L 138.939155 24.765455 
L 141.707567 24.765455 
L 144.475978 24.765455 
L 147.244389 24.765455 
L 150.012801 24.765455 
L 152.781212 24.765455 
L 155.549624 24.765455 
L 158.318035 24.765455 
L 161.086446 24.765455 
L 163.854858 24.765455 
L 166.623269 24.765455 
L 169.39168 24.765455 
L 172.160092 24.765455 
L 174.928503 24.765455 
L 177.696915 24.765455 
L 180.465326 24.765455 
L 183.233737 24.765455 
L 186.002149 24.765455 
L 188.77056 24.765455 
L 191.538972 24.765455 
L 194.307383 24.765455 
L 197.075794 24.765455 
L 199.844206 24.765455 
L 202.612617 24.765455 
L 205.381028 24.765455 
L 208.14944 24.765455 
L 210.917851 24.765455 
L 213.686263 24.765455 
L 216.454674 24.765455 
L 219.223085 24.765455 
L 221.991497 24.765455 
L 224.759908 24.765455 
L 227.52832 24.765455 
L 230.296731 27.09303 
L 233.065142 27.09303 
L 235.833554 27.09303 
L 238.601965 28.13505 
L 241.370376 29.524409 
L 244.138788 31.917001 
L 246.907199 34.461597 
L 249.675611 37.006194 
L 252.444022 39.666813 
L 255.212433 41.624086 
L 257.980845 43.581359 
L 260.749256 45.594861 
L 263.517668 47.630229 
L 266.286079 49.665598 
L 269.05449 51.700966 
L 271.822902 53.736335 
L 274.591313 55.771704 
L 277.359725 56.54833 
L 280.128136 57.379661 
L 282.896547 59.06302 
L 285.664959 61.874735 
L 288.43337 64.68645 
L 291.201781 67.498165 
L 293.970193 84.765704 
L 296.738604 89.906965 
L 299.507016 94.449606 
L 302.275427 99.667345 
L 305.043838 104.885083 
L 307.81225 110.102822 
L 310.580661 115.32056 
L 313.349073 120.538299 
L 316.117484 126.052062 
L 318.885895 131.750839 
L 321.654307 137.449617 
L 324.422718 143.068372 
L 327.191129 149.548907 
L 329.959541 156.367999 
L 332.727952 163.18709 
L 335.496364 304.074545 
" clip-path="url(#p7210d7a1dc)" style="fill: none; stroke: #7b9ff9; stroke-width: 1.5; stroke-linecap: square"/>
   </g>
   <g id="line2d_15">
    <path d="M 61.423636 24.765455 
L 64.192048 24.765455 
L 66.960459 24.765455 
L 69.728871 24.765455 
L 72.497282 24.765455 
L 75.265693 24.765455 
L 78.034105 24.765455 
L 80.802516 24.765455 
L 83.570927 24.765455 
L 86.339339 24.765455 
L 89.10775 24.765455 
L 91.876162 24.765455 
L 94.644573 24.765455 
L 97.412984 24.765455 
L 100.181396 24.765455 
L 102.949807 24.765455 
L 105.718219 24.765455 
L 108.48663 24.765455 
L 111.255041 24.765455 
L 114.023453 24.765455 
L 116.791864 24.765455 
L 119.560275 24.765455 
L 122.328687 24.765455 
L 125.097098 24.765455 
L 127.86551 24.765455 
L 130.633921 24.765455 
L 133.402332 24.765455 
L 136.170744 24.765455 
L 138.939155 24.765455 
L 141.707567 24.765455 
L 144.475978 24.765455 
L 147.244389 24.765455 
L 150.012801 24.765455 
L 152.781212 24.765455 
L 155.549624 24.765455 
L 158.318035 24.765455 
L 161.086446 24.765455 
L 163.854858 24.765455 
L 166.623269 24.765455 
L 169.39168 24.765455 
L 172.160092 24.765455 
L 174.928503 24.765455 
L 177.696915 24.765455 
L 180.465326 24.765455 
L 183.233737 24.765455 
L 186.002149 24.765455 
L 188.77056 24.765455 
L 191.538972 24.765455 
L 194.307383 24.765455 
L 197.075794 24.765455 
L 199.844206 24.765455 
L 202.612617 24.765455 
L 205.381028 24.765455 
L 208.14944 24.765455 
L 210.917851 24.765455 
L 213.686263 24.765455 
L 216.454674 24.765455 
L 219.223085 24.765455 
L 221.991497 24.765455 
L 224.759908 24.765455 
L 227.52832 24.765455 
L 230.296731 24.765455 
L 233.065142 24.765455 
L 235.833554 26.288959 
L 238.601965 27.09303 
L 241.370376 27.09303 
L 244.138788 27.514988 
L 246.907199 28.043298 
L 249.675611 29.23803 
L 252.444022 30.432761 
L 255.212433 31.613238 
L 257.980845 32.529711 
L 260.749256 33.391543 
L 263.517668 34.569362 
L 266.286079 41.569164 
L 269.05449 42.395359 
L 271.822902 42.837857 
L 274.591313 43.387781 
L 277.359725 44.133027 
L 280.128136 44.878272 
L 282.896547 46.074926 
L 285.664959 47.384433 
L 288.43337 48.693939 
L 291.201781 50.238653 
L 293.970193 52.018574 
L 296.738604 54.23545 
L 299.507016 56.670802 
L 302.275427 59.106155 
L 305.043838 67.783844 
L 307.81225 74.630104 
L 310.580661 80.733151 
L 313.349073 89.858692 
L 316.117484 110.371015 
L 318.885895 118.029477 
L 321.654307 124.590765 
L 324.422718 135.813859 
L 327.191129 165.779869 
L 329.959541 178.547209 
L 332.727952 191.31455 
L 335.496364 304.074545 
" clip-path="url(#p7210d7a1dc)" style="fill: none; stroke: #c0d4f5; stroke-width: 1.5; stroke-linecap: square"/>
   </g>
   <g id="line2d_16">
    <path d="M 61.423636 24.765455 
L 64.192048 24.765455 
L 66.960459 24.765455 
L 69.728871 24.765455 
L 72.497282 24.765455 
L 75.265693 24.765455 
L 78.034105 24.765455 
L 80.802516 24.765455 
L 83.570927 24.765455 
L 86.339339 24.765455 
L 89.10775 24.765455 
L 91.876162 24.765455 
L 94.644573 24.765455 
L 97.412984 24.765455 
L 100.181396 24.765455 
L 102.949807 24.765455 
L 105.718219 24.765455 
L 108.48663 24.765455 
L 111.255041 24.765455 
L 114.023453 24.765455 
L 116.791864 24.765455 
L 119.560275 24.765455 
L 122.328687 24.765455 
L 125.097098 24.765455 
L 127.86551 24.765455 
L 130.633921 24.765455 
L 133.402332 24.765455 
L 136.170744 24.765455 
L 138.939155 24.765455 
L 141.707567 24.765455 
L 144.475978 24.765455 
L 147.244389 24.765455 
L 150.012801 24.765455 
L 152.781212 24.765455 
L 155.549624 24.765455 
L 158.318035 24.765455 
L 161.086446 24.765455 
L 163.854858 24.765455 
L 166.623269 24.765455 
L 169.39168 24.765455 
L 172.160092 24.765455 
L 174.928503 24.765455 
L 177.696915 24.765455 
L 180.465326 24.765455 
L 183.233737 24.765455 
L 186.002149 24.765455 
L 188.77056 24.765455 
L 191.538972 24.765455 
L 194.307383 24.765455 
L 197.075794 24.765455 
L 199.844206 24.765455 
L 202.612617 24.765455 
L 205.381028 24.765455 
L 208.14944 24.765455 
L 210.917851 24.765455 
L 213.686263 24.765455 
L 216.454674 24.765455 
L 219.223085 24.765455 
L 221.991497 24.765455 
L 224.759908 24.765455 
L 227.52832 24.765455 
L 230.296731 25.039748 
L 233.065142 28.705876 
L 235.833554 30.323423 
L 238.601965 31.125928 
L 241.370376 31.928432 
L 244.138788 36.539696 
L 246.907199 38.845024 
L 249.675611 41.69917 
L 252.444022 44.553315 
L 255.212433 47.407461 
L 257.980845 50.261607 
L 260.749256 53.115752 
L 263.517668 55.969898 
L 266.286079 58.824044 
L 269.05449 61.678189 
L 271.822902 64.532335 
L 274.591313 67.386481 
L 277.359725 70.108768 
L 280.128136 72.347572 
L 282.896547 74.586377 
L 285.664959 102.927885 
L 288.43337 114.019941 
L 291.201781 125.992244 
L 293.970193 131.02414 
L 296.738604 139.842852 
L 299.507016 144.072243 
L 302.275427 148.301634 
L 305.043838 152.531025 
L 307.81225 158.385487 
L 310.580661 164.23995 
L 313.349073 170.094412 
L 316.117484 194.817755 
L 318.885895 206.653381 
L 321.654307 222.890242 
L 324.422718 239.127103 
L 327.191129 255.363963 
L 329.959541 271.600824 
L 332.727952 287.837685 
L 335.496364 304.074545 
" clip-path="url(#p7210d7a1dc)" style="fill: none; stroke: #f2cbb7; stroke-width: 1.5; stroke-linecap: square"/>
   </g>
   <g id="line2d_17">
    <path d="M 61.423636 24.765455 
L 64.192048 24.765455 
L 66.960459 24.765455 
L 69.728871 24.765455 
L 72.497282 24.765455 
L 75.265693 24.765455 
L 78.034105 24.765455 
L 80.802516 24.765455 
L 83.570927 24.765455 
L 86.339339 24.765455 
L 89.10775 24.765455 
L 91.876162 24.765455 
L 94.644573 24.765455 
L 97.412984 24.765455 
L 100.181396 24.765455 
L 102.949807 24.765455 
L 105.718219 24.765455 
L 108.48663 24.765455 
L 111.255041 24.765455 
L 114.023453 24.765455 
L 116.791864 24.765455 
L 119.560275 24.765455 
L 122.328687 24.765455 
L 125.097098 24.765455 
L 127.86551 24.765455 
L 130.633921 24.765455 
L 133.402332 24.765455 
L 136.170744 24.765455 
L 138.939155 24.765455 
L 141.707567 24.765455 
L 144.475978 24.765455 
L 147.244389 24.765455 
L 150.012801 24.765455 
L 152.781212 24.765455 
L 155.549624 24.765455 
L 158.318035 24.765455 
L 161.086446 24.765455 
L 163.854858 24.765455 
L 166.623269 24.765455 
L 169.39168 24.765455 
L 172.160092 24.765455 
L 174.928503 24.765455 
L 177.696915 24.765455 
L 180.465326 24.765455 
L 183.233737 24.765455 
L 186.002149 24.765455 
L 188.77056 24.765455 
L 191.538972 24.765455 
L 194.307383 24.765455 
L 197.075794 24.765455 
L 199.844206 24.765455 
L 202.612617 24.765455 
L 205.381028 24.765455 
L 208.14944 24.765455 
L 210.917851 24.765455 
L 213.686263 24.765455 
L 216.454674 24.765455 
L 219.223085 24.765455 
L 221.991497 24.765455 
L 224.759908 24.765455 
L 227.52832 24.765455 
L 230.296731 24.765455 
L 233.065142 24.765455 
L 235.833554 24.765455 
L 238.601965 24.765455 
L 241.370376 24.765455 
L 244.138788 31.561976 
L 246.907199 31.561976 
L 249.675611 31.561976 
L 252.444022 31.561976 
L 255.212433 31.561976 
L 257.980845 31.561976 
L 260.749256 36.124024 
L 263.517668 38.4516 
L 266.286079 38.4516 
L 269.05449 38.4516 
L 271.822902 38.4516 
L 274.591313 45.434327 
L 277.359725 47.6688 
L 280.128136 47.6688 
L 282.896547 47.6688 
L 285.664959 47.6688 
L 288.43337 47.6688 
L 291.201781 52.137745 
L 293.970193 54.465321 
L 296.738604 54.465321 
L 299.507016 54.465321 
L 302.275427 56.699794 
L 305.043838 67.872158 
L 307.81225 67.872158 
L 310.580661 74.761782 
L 313.349073 102.692691 
L 316.117484 102.692691 
L 318.885895 102.692691 
L 321.654307 113.865055 
L 324.422718 113.865055 
L 327.191129 125.037418 
L 329.959541 125.037418 
L 332.727952 125.037418 
L 335.496364 304.074545 
" clip-path="url(#p7210d7a1dc)" style="fill: none; stroke: #ee8468; stroke-width: 1.5; stroke-linecap: square"/>
   </g>
   <g id="line2d_18">
    <path d="M 61.423636 24.765455 
L 64.192048 24.765455 
L 66.960459 24.765455 
L 69.728871 24.765455 
L 72.497282 24.765455 
L 75.265693 24.765455 
L 78.034105 24.765455 
L 80.802516 24.765455 
L 83.570927 24.765455 
L 86.339339 24.765455 
L 89.10775 24.765455 
L 91.876162 24.765455 
L 94.644573 24.765455 
L 97.412984 24.765455 
L 100.181396 24.765455 
L 102.949807 24.765455 
L 105.718219 24.765455 
L 108.48663 24.765455 
L 111.255041 24.765455 
L 114.023453 24.765455 
L 116.791864 24.765455 
L 119.560275 24.765455 
L 122.328687 24.765455 
L 125.097098 24.765455 
L 127.86551 24.765455 
L 130.633921 24.765455 
L 133.402332 24.765455 
L 136.170744 24.765455 
L 138.939155 24.765455 
L 141.707567 24.765455 
L 144.475978 24.765455 
L 147.244389 24.765455 
L 150.012801 24.765455 
L 152.781212 24.765455 
L 155.549624 24.765455 
L 158.318035 24.765455 
L 161.086446 24.765455 
L 163.854858 24.765455 
L 166.623269 24.765455 
L 169.39168 24.765455 
L 172.160092 24.765455 
L 174.928503 24.765455 
L 177.696915 24.765455 
L 180.465326 24.765455 
L 183.233737 24.765455 
L 186.002149 24.765455 
L 188.77056 24.765455 
L 191.538972 24.765455 
L 194.307383 24.765455 
L 197.075794 24.765455 
L 199.844206 24.765455 
L 202.612617 24.765455 
L 205.381028 24.765455 
L 208.14944 24.765455 
L 210.917851 24.765455 
L 213.686263 24.765455 
L 216.454674 24.765455 
L 219.223085 24.765455 
L 221.991497 24.765455 
L 224.759908 24.765455 
L 227.52832 24.765455 
L 230.296731 24.765455 
L 233.065142 24.765455 
L 235.833554 24.765455 
L 238.601965 24.765455 
L 241.370376 24.765455 
L 244.138788 24.765455 
L 246.907199 24.765455 
L 249.675611 24.765455 
L 252.444022 24.765455 
L 255.212433 24.765455 
L 257.980845 24.765455 
L 260.749256 24.765455 
L 263.517668 24.765455 
L 266.286079 24.765455 
L 269.05449 24.765455 
L 271.822902 24.765455 
L 274.591313 24.765455 
L 277.359725 24.765455 
L 280.128136 24.765455 
L 282.896547 24.765455 
L 285.664959 24.765455 
L 288.43337 24.765455 
L 291.201781 24.765455 
L 293.970193 24.765455 
L 296.738604 24.765455 
L 299.507016 24.765455 
L 302.275427 24.765455 
L 305.043838 24.765455 
L 307.81225 24.765455 
L 310.580661 24.765455 
L 313.349073 24.765455 
L 316.117484 24.765455 
L 318.885895 24.765455 
L 321.654307 24.765455 
L 324.422718 27.036258 
L 327.191129 27.036258 
L 329.959541 27.036258 
L 332.727952 27.036258 
L 335.496364 304.074545 
" clip-path="url(#p7210d7a1dc)" style="fill: none; stroke: #b40426; stroke-opacity: 0.8; stroke-width: 1.5; stroke-linecap: square"/>
   </g>
   <g id="patch_3">
    <path d="M 47.72 318.04 
L 47.72 10.8 
" style="fill: none; stroke: #000000; stroke-width: 0.8; stroke-linejoin: miter; stroke-linecap: square"/>
   </g>
   <g id="patch_4">
    <path d="M 47.72 318.04 
L 349.2 318.04 
" style="fill: none; stroke: #000000; stroke-width: 0.8; stroke-linejoin: miter; stroke-linecap: square"/>
   </g>
   <g id="legend_1">
    <g id="text_15">
     <!-- AUC -->
     <g transform="translate(154.453594 218.891563)scale(0.1 -0.1)">
      <defs>
       <path id="DejaVuSans-41" d="M 2188 4044 
L 1331 1722 
L 3047 1722 
L 2188 4044 
z
M 1831 4666 
L 2547 4666 
L 4325 0 
L 3669 0 
L 3244 1197 
L 1141 1197 
L 716 0 
L 50 0 
L 1831 4666 
z
" transform="scale(0.015625)"/>
       <path id="DejaVuSans-55" d="M 556 4666 
L 1191 4666 
L 1191 1831 
Q 1191 1081 1462 751 
Q 1734 422 2344 422 
Q 2950 422 3222 751 
Q 3494 1081 3494 1831 
L 3494 4666 
L 4128 4666 
L 4128 1753 
Q 4128 841 3676 375 
Q 3225 -91 2344 -91 
Q 1459 -91 1007 375 
Q 556 841 556 1753 
L 556 4666 
z
" transform="scale(0.015625)"/>
       <path id="DejaVuSans-43" d="M 4122 4306 
L 4122 3641 
Q 3803 3938 3442 4084 
Q 3081 4231 2675 4231 
Q 1875 4231 1450 3742 
Q 1025 3253 1025 2328 
Q 1025 1406 1450 917 
Q 1875 428 2675 428 
Q 3081 428 3442 575 
Q 3803 722 4122 1019 
L 4122 359 
Q 3791 134 3420 21 
Q 3050 -91 2638 -91 
Q 1578 -91 968 557 
Q 359 1206 359 2328 
Q 359 3453 968 4101 
Q 1578 4750 2638 4750 
Q 3056 4750 3426 4639 
Q 3797 4528 4122 4306 
z
" transform="scale(0.015625)"/>
      </defs>
      <use xlink:href="#DejaVuSans-41"/>
      <use xlink:href="#DejaVuSans-55" x="68.408203"/>
      <use xlink:href="#DejaVuSans-43" x="141.601562"/>
     </g>
    </g>
    <g id="line2d_19">
     <path d="M 56.72 230.069688 
L 66.72 230.069688 
L 76.72 230.069688 
" style="fill: none; stroke: #3b4cc0; stroke-width: 1.5; stroke-linecap: square"/>
    </g>
    <g id="text_16">
     <!-- Support Vector Machine: 0.98   0.03 -->
     <g transform="translate(84.72 233.569688)scale(0.1 -0.1)">
      <defs>
       <path id="DejaVuSans-53" d="M 3425 4513 
L 3425 3897 
Q 3066 4069 2747 4153 
Q 2428 4238 2131 4238 
Q 1616 4238 1336 4038 
Q 1056 3838 1056 3469 
Q 1056 3159 1242 3001 
Q 1428 2844 1947 2747 
L 2328 2669 
Q 3034 2534 3370 2195 
Q 3706 1856 3706 1288 
Q 3706 609 3251 259 
Q 2797 -91 1919 -91 
Q 1588 -91 1214 -16 
Q 841 59 441 206 
L 441 856 
Q 825 641 1194 531 
Q 1563 422 1919 422 
Q 2459 422 2753 634 
Q 3047 847 3047 1241 
Q 3047 1584 2836 1778 
Q 2625 1972 2144 2069 
L 1759 2144 
Q 1053 2284 737 2584 
Q 422 2884 422 3419 
Q 422 4038 858 4394 
Q 1294 4750 2059 4750 
Q 2388 4750 2728 4690 
Q 3069 4631 3425 4513 
z
" transform="scale(0.015625)"/>
       <path id="DejaVuSans-75" d="M 544 1381 
L 544 3500 
L 1119 3500 
L 1119 1403 
Q 1119 906 1312 657 
Q 1506 409 1894 409 
Q 2359 409 2629 706 
Q 2900 1003 2900 1516 
L 2900 3500 
L 3475 3500 
L 3475 0 
L 2900 0 
L 2900 538 
Q 2691 219 2414 64 
Q 2138 -91 1772 -91 
Q 1169 -91 856 284 
Q 544 659 544 1381 
z
M 1991 3584 
L 1991 3584 
z
" transform="scale(0.015625)"/>
       <path id="DejaVuSans-70" d="M 1159 525 
L 1159 -1331 
L 581 -1331 
L 581 3500 
L 1159 3500 
L 1159 2969 
Q 1341 3281 1617 3432 
Q 1894 3584 2278 3584 
Q 2916 3584 3314 3078 
Q 3713 2572 3713 1747 
Q 3713 922 3314 415 
Q 2916 -91 2278 -91 
Q 1894 -91 1617 61 
Q 1341 213 1159 525 
z
M 3116 1747 
Q 3116 2381 2855 2742 
Q 2594 3103 2138 3103 
Q 1681 3103 1420 2742 
Q 1159 2381 1159 1747 
Q 1159 1113 1420 752 
Q 1681 391 2138 391 
Q 2594 391 2855 752 
Q 3116 1113 3116 1747 
z
" transform="scale(0.015625)"/>
       <path id="DejaVuSans-74" d="M 1172 4494 
L 1172 3500 
L 2356 3500 
L 2356 3053 
L 1172 3053 
L 1172 1153 
Q 1172 725 1289 603 
Q 1406 481 1766 481 
L 2356 481 
L 2356 0 
L 1766 0 
Q 1100 0 847 248 
Q 594 497 594 1153 
L 594 3053 
L 172 3053 
L 172 3500 
L 594 3500 
L 594 4494 
L 1172 4494 
z
" transform="scale(0.015625)"/>
       <path id="DejaVuSans-20" transform="scale(0.015625)"/>
       <path id="DejaVuSans-56" d="M 1831 0 
L 50 4666 
L 709 4666 
L 2188 738 
L 3669 4666 
L 4325 4666 
L 2547 0 
L 1831 0 
z
" transform="scale(0.015625)"/>
       <path id="DejaVuSans-4d" d="M 628 4666 
L 1569 4666 
L 2759 1491 
L 3956 4666 
L 4897 4666 
L 4897 0 
L 4281 0 
L 4281 4097 
L 3078 897 
L 2444 897 
L 1241 4097 
L 1241 0 
L 628 0 
L 628 4666 
z
" transform="scale(0.015625)"/>
       <path id="DejaVuSans-68" d="M 3513 2113 
L 3513 0 
L 2938 0 
L 2938 2094 
Q 2938 2591 2744 2837 
Q 2550 3084 2163 3084 
Q 1697 3084 1428 2787 
Q 1159 2491 1159 1978 
L 1159 0 
L 581 0 
L 581 4863 
L 1159 4863 
L 1159 2956 
Q 1366 3272 1645 3428 
Q 1925 3584 2291 3584 
Q 2894 3584 3203 3211 
Q 3513 2838 3513 2113 
z
" transform="scale(0.015625)"/>
       <path id="DejaVuSans-3a" d="M 750 794 
L 1409 794 
L 1409 0 
L 750 0 
L 750 794 
z
M 750 3309 
L 1409 3309 
L 1409 2516 
L 750 2516 
L 750 3309 
z
" transform="scale(0.015625)"/>
       <path id="DejaVuSans-39" d="M 703 97 
L 703 672 
Q 941 559 1184 500 
Q 1428 441 1663 441 
Q 2288 441 2617 861 
Q 2947 1281 2994 2138 
Q 2813 1869 2534 1725 
Q 2256 1581 1919 1581 
Q 1219 1581 811 2004 
Q 403 2428 403 3163 
Q 403 3881 828 4315 
Q 1253 4750 1959 4750 
Q 2769 4750 3195 4129 
Q 3622 3509 3622 2328 
Q 3622 1225 3098 567 
Q 2575 -91 1691 -91 
Q 1453 -91 1209 -44 
Q 966 3 703 97 
z
M 1959 2075 
Q 2384 2075 2632 2365 
Q 2881 2656 2881 3163 
Q 2881 3666 2632 3958 
Q 2384 4250 1959 4250 
Q 1534 4250 1286 3958 
Q 1038 3666 1038 3163 
Q 1038 2656 1286 2365 
Q 1534 2075 1959 2075 
z
" transform="scale(0.015625)"/>
       <path id="DejaVuSans-b1" d="M 2944 4013 
L 2944 2803 
L 4684 2803 
L 4684 2272 
L 2944 2272 
L 2944 1063 
L 2419 1063 
L 2419 2272 
L 678 2272 
L 678 2803 
L 2419 2803 
L 2419 4013 
L 2944 4013 
z
M 678 531 
L 4684 531 
L 4684 0 
L 678 0 
L 678 531 
z
" transform="scale(0.015625)"/>
       <path id="DejaVuSans-33" d="M 2597 2516 
Q 3050 2419 3304 2112 
Q 3559 1806 3559 1356 
Q 3559 666 3084 287 
Q 2609 -91 1734 -91 
Q 1441 -91 1130 -33 
Q 819 25 488 141 
L 488 750 
Q 750 597 1062 519 
Q 1375 441 1716 441 
Q 2309 441 2620 675 
Q 2931 909 2931 1356 
Q 2931 1769 2642 2001 
Q 2353 2234 1838 2234 
L 1294 2234 
L 1294 2753 
L 1863 2753 
Q 2328 2753 2575 2939 
Q 2822 3125 2822 3475 
Q 2822 3834 2567 4026 
Q 2313 4219 1838 4219 
Q 1578 4219 1281 4162 
Q 984 4106 628 3988 
L 628 4550 
Q 988 4650 1302 4700 
Q 1616 4750 1894 4750 
Q 2613 4750 3031 4423 
Q 3450 4097 3450 3541 
Q 3450 3153 3228 2886 
Q 3006 2619 2597 2516 
z
" transform="scale(0.015625)"/>
      </defs>
      <use xlink:href="#DejaVuSans-53"/>
      <use xlink:href="#DejaVuSans-75" x="63.476562"/>
      <use xlink:href="#DejaVuSans-70" x="126.855469"/>
      <use xlink:href="#DejaVuSans-70" x="190.332031"/>
      <use xlink:href="#DejaVuSans-6f" x="253.808594"/>
      <use xlink:href="#DejaVuSans-72" x="314.990234"/>
      <use xlink:href="#DejaVuSans-74" x="356.103516"/>
      <use xlink:href="#DejaVuSans-20" x="395.3125"/>
      <use xlink:href="#DejaVuSans-56" x="427.099609"/>
      <use xlink:href="#DejaVuSans-65" x="487.757812"/>
      <use xlink:href="#DejaVuSans-63" x="549.28125"/>
      <use xlink:href="#DejaVuSans-74" x="604.261719"/>
      <use xlink:href="#DejaVuSans-6f" x="643.470703"/>
      <use xlink:href="#DejaVuSans-72" x="704.652344"/>
      <use xlink:href="#DejaVuSans-20" x="745.765625"/>
      <use xlink:href="#DejaVuSans-4d" x="777.552734"/>
      <use xlink:href="#DejaVuSans-61" x="863.832031"/>
      <use xlink:href="#DejaVuSans-63" x="925.111328"/>
      <use xlink:href="#DejaVuSans-68" x="980.091797"/>
      <use xlink:href="#DejaVuSans-69" x="1043.470703"/>
      <use xlink:href="#DejaVuSans-6e" x="1071.253906"/>
      <use xlink:href="#DejaVuSans-65" x="1134.632812"/>
      <use xlink:href="#DejaVuSans-3a" x="1196.15625"/>
      <use xlink:href="#DejaVuSans-20" x="1229.847656"/>
      <use xlink:href="#DejaVuSans-30" x="1261.634766"/>
      <use xlink:href="#DejaVuSans-2e" x="1325.257812"/>
      <use xlink:href="#DejaVuSans-39" x="1357.044922"/>
      <use xlink:href="#DejaVuSans-38" x="1420.667969"/>
      <use xlink:href="#DejaVuSans-20" x="1484.291016"/>
      <use xlink:href="#DejaVuSans-b1" x="1516.078125"/>
      <use xlink:href="#DejaVuSans-20" x="1599.867188"/>
      <use xlink:href="#DejaVuSans-20" x="1631.654297"/>
      <use xlink:href="#DejaVuSans-30" x="1663.441406"/>
      <use xlink:href="#DejaVuSans-2e" x="1727.064453"/>
      <use xlink:href="#DejaVuSans-30" x="1758.851562"/>
      <use xlink:href="#DejaVuSans-33" x="1822.474609"/>
     </g>
    </g>
    <g id="line2d_20">
     <path d="M 56.72 244.747813 
L 66.72 244.747813 
L 76.72 244.747813 
" style="fill: none; stroke: #7b9ff9; stroke-width: 1.5; stroke-linecap: square"/>
    </g>
    <g id="text_17">
     <!-- K-Nearest Neighbour: 0.93   0.10 -->
     <g transform="translate(84.72 248.247813)scale(0.1 -0.1)">
      <defs>
       <path id="DejaVuSans-4b" d="M 628 4666 
L 1259 4666 
L 1259 2694 
L 3353 4666 
L 4166 4666 
L 1850 2491 
L 4331 0 
L 3500 0 
L 1259 2247 
L 1259 0 
L 628 0 
L 628 4666 
z
" transform="scale(0.015625)"/>
       <path id="DejaVuSans-2d" d="M 313 2009 
L 1997 2009 
L 1997 1497 
L 313 1497 
L 313 2009 
z
" transform="scale(0.015625)"/>
       <path id="DejaVuSans-4e" d="M 628 4666 
L 1478 4666 
L 3547 763 
L 3547 4666 
L 4159 4666 
L 4159 0 
L 3309 0 
L 1241 3903 
L 1241 0 
L 628 0 
L 628 4666 
z
" transform="scale(0.015625)"/>
       <path id="DejaVuSans-67" d="M 2906 1791 
Q 2906 2416 2648 2759 
Q 2391 3103 1925 3103 
Q 1463 3103 1205 2759 
Q 947 2416 947 1791 
Q 947 1169 1205 825 
Q 1463 481 1925 481 
Q 2391 481 2648 825 
Q 2906 1169 2906 1791 
z
M 3481 434 
Q 3481 -459 3084 -895 
Q 2688 -1331 1869 -1331 
Q 1566 -1331 1297 -1286 
Q 1028 -1241 775 -1147 
L 775 -588 
Q 1028 -725 1275 -790 
Q 1522 -856 1778 -856 
Q 2344 -856 2625 -561 
Q 2906 -266 2906 331 
L 2906 616 
Q 2728 306 2450 153 
Q 2172 0 1784 0 
Q 1141 0 747 490 
Q 353 981 353 1791 
Q 353 2603 747 3093 
Q 1141 3584 1784 3584 
Q 2172 3584 2450 3431 
Q 2728 3278 2906 2969 
L 2906 3500 
L 3481 3500 
L 3481 434 
z
" transform="scale(0.015625)"/>
       <path id="DejaVuSans-62" d="M 3116 1747 
Q 3116 2381 2855 2742 
Q 2594 3103 2138 3103 
Q 1681 3103 1420 2742 
Q 1159 2381 1159 1747 
Q 1159 1113 1420 752 
Q 1681 391 2138 391 
Q 2594 391 2855 752 
Q 3116 1113 3116 1747 
z
M 1159 2969 
Q 1341 3281 1617 3432 
Q 1894 3584 2278 3584 
Q 2916 3584 3314 3078 
Q 3713 2572 3713 1747 
Q 3713 922 3314 415 
Q 2916 -91 2278 -91 
Q 1894 -91 1617 61 
Q 1341 213 1159 525 
L 1159 0 
L 581 0 
L 581 4863 
L 1159 4863 
L 1159 2969 
z
" transform="scale(0.015625)"/>
      </defs>
      <use xlink:href="#DejaVuSans-4b"/>
      <use xlink:href="#DejaVuSans-2d" x="55.076172"/>
      <use xlink:href="#DejaVuSans-4e" x="91.160156"/>
      <use xlink:href="#DejaVuSans-65" x="165.964844"/>
      <use xlink:href="#DejaVuSans-61" x="227.488281"/>
      <use xlink:href="#DejaVuSans-72" x="288.767578"/>
      <use xlink:href="#DejaVuSans-65" x="327.630859"/>
      <use xlink:href="#DejaVuSans-73" x="389.154297"/>
      <use xlink:href="#DejaVuSans-74" x="441.253906"/>
      <use xlink:href="#DejaVuSans-20" x="480.462891"/>
      <use xlink:href="#DejaVuSans-4e" x="512.25"/>
      <use xlink:href="#DejaVuSans-65" x="587.054688"/>
      <use xlink:href="#DejaVuSans-69" x="648.578125"/>
      <use xlink:href="#DejaVuSans-67" x="676.361328"/>
      <use xlink:href="#DejaVuSans-68" x="739.837891"/>
      <use xlink:href="#DejaVuSans-62" x="803.216797"/>
      <use xlink:href="#DejaVuSans-6f" x="866.693359"/>
      <use xlink:href="#DejaVuSans-75" x="927.875"/>
      <use xlink:href="#DejaVuSans-72" x="991.253906"/>
      <use xlink:href="#DejaVuSans-3a" x="1030.617188"/>
      <use xlink:href="#DejaVuSans-20" x="1064.308594"/>
      <use xlink:href="#DejaVuSans-30" x="1096.095703"/>
      <use xlink:href="#DejaVuSans-2e" x="1159.71875"/>
      <use xlink:href="#DejaVuSans-39" x="1191.505859"/>
      <use xlink:href="#DejaVuSans-33" x="1255.128906"/>
      <use xlink:href="#DejaVuSans-20" x="1318.751953"/>
      <use xlink:href="#DejaVuSans-b1" x="1350.539062"/>
      <use xlink:href="#DejaVuSans-20" x="1434.328125"/>
      <use xlink:href="#DejaVuSans-20" x="1466.115234"/>
      <use xlink:href="#DejaVuSans-30" x="1497.902344"/>
      <use xlink:href="#DejaVuSans-2e" x="1561.525391"/>
      <use xlink:href="#DejaVuSans-31" x="1593.3125"/>
      <use xlink:href="#DejaVuSans-30" x="1656.935547"/>
     </g>
    </g>
    <g id="line2d_21">
     <path d="M 56.72 259.425938 
L 66.72 259.425938 
L 76.72 259.425938 
" style="fill: none; stroke: #c0d4f5; stroke-width: 1.5; stroke-linecap: square"/>
    </g>
    <g id="text_18">
     <!-- Random Forest: 0.94   0.05 -->
     <g transform="translate(84.72 262.925938)scale(0.1 -0.1)">
      <defs>
       <path id="DejaVuSans-64" d="M 2906 2969 
L 2906 4863 
L 3481 4863 
L 3481 0 
L 2906 0 
L 2906 525 
Q 2725 213 2448 61 
Q 2172 -91 1784 -91 
Q 1150 -91 751 415 
Q 353 922 353 1747 
Q 353 2572 751 3078 
Q 1150 3584 1784 3584 
Q 2172 3584 2448 3432 
Q 2725 3281 2906 2969 
z
M 947 1747 
Q 947 1113 1208 752 
Q 1469 391 1925 391 
Q 2381 391 2643 752 
Q 2906 1113 2906 1747 
Q 2906 2381 2643 2742 
Q 2381 3103 1925 3103 
Q 1469 3103 1208 2742 
Q 947 2381 947 1747 
z
" transform="scale(0.015625)"/>
       <path id="DejaVuSans-6d" d="M 3328 2828 
Q 3544 3216 3844 3400 
Q 4144 3584 4550 3584 
Q 5097 3584 5394 3201 
Q 5691 2819 5691 2113 
L 5691 0 
L 5113 0 
L 5113 2094 
Q 5113 2597 4934 2840 
Q 4756 3084 4391 3084 
Q 3944 3084 3684 2787 
Q 3425 2491 3425 1978 
L 3425 0 
L 2847 0 
L 2847 2094 
Q 2847 2600 2669 2842 
Q 2491 3084 2119 3084 
Q 1678 3084 1418 2786 
Q 1159 2488 1159 1978 
L 1159 0 
L 581 0 
L 581 3500 
L 1159 3500 
L 1159 2956 
Q 1356 3278 1631 3431 
Q 1906 3584 2284 3584 
Q 2666 3584 2933 3390 
Q 3200 3197 3328 2828 
z
" transform="scale(0.015625)"/>
       <path id="DejaVuSans-46" d="M 628 4666 
L 3309 4666 
L 3309 4134 
L 1259 4134 
L 1259 2759 
L 3109 2759 
L 3109 2228 
L 1259 2228 
L 1259 0 
L 628 0 
L 628 4666 
z
" transform="scale(0.015625)"/>
       <path id="DejaVuSans-35" d="M 691 4666 
L 3169 4666 
L 3169 4134 
L 1269 4134 
L 1269 2991 
Q 1406 3038 1543 3061 
Q 1681 3084 1819 3084 
Q 2600 3084 3056 2656 
Q 3513 2228 3513 1497 
Q 3513 744 3044 326 
Q 2575 -91 1722 -91 
Q 1428 -91 1123 -41 
Q 819 9 494 109 
L 494 744 
Q 775 591 1075 516 
Q 1375 441 1709 441 
Q 2250 441 2565 725 
Q 2881 1009 2881 1497 
Q 2881 1984 2565 2268 
Q 2250 2553 1709 2553 
Q 1456 2553 1204 2497 
Q 953 2441 691 2322 
L 691 4666 
z
" transform="scale(0.015625)"/>
      </defs>
      <use xlink:href="#DejaVuSans-52"/>
      <use xlink:href="#DejaVuSans-61" x="67.232422"/>
      <use xlink:href="#DejaVuSans-6e" x="128.511719"/>
      <use xlink:href="#DejaVuSans-64" x="191.890625"/>
      <use xlink:href="#DejaVuSans-6f" x="255.367188"/>
      <use xlink:href="#DejaVuSans-6d" x="316.548828"/>
      <use xlink:href="#DejaVuSans-20" x="413.960938"/>
      <use xlink:href="#DejaVuSans-46" x="445.748047"/>
      <use xlink:href="#DejaVuSans-6f" x="499.642578"/>
      <use xlink:href="#DejaVuSans-72" x="560.824219"/>
      <use xlink:href="#DejaVuSans-65" x="599.6875"/>
      <use xlink:href="#DejaVuSans-73" x="661.210938"/>
      <use xlink:href="#DejaVuSans-74" x="713.310547"/>
      <use xlink:href="#DejaVuSans-3a" x="752.519531"/>
      <use xlink:href="#DejaVuSans-20" x="786.210938"/>
      <use xlink:href="#DejaVuSans-30" x="817.998047"/>
      <use xlink:href="#DejaVuSans-2e" x="881.621094"/>
      <use xlink:href="#DejaVuSans-39" x="913.408203"/>
      <use xlink:href="#DejaVuSans-34" x="977.03125"/>
      <use xlink:href="#DejaVuSans-20" x="1040.654297"/>
      <use xlink:href="#DejaVuSans-b1" x="1072.441406"/>
      <use xlink:href="#DejaVuSans-20" x="1156.230469"/>
      <use xlink:href="#DejaVuSans-20" x="1188.017578"/>
      <use xlink:href="#DejaVuSans-30" x="1219.804688"/>
      <use xlink:href="#DejaVuSans-2e" x="1283.427734"/>
      <use xlink:href="#DejaVuSans-30" x="1315.214844"/>
      <use xlink:href="#DejaVuSans-35" x="1378.837891"/>
     </g>
    </g>
    <g id="line2d_22">
     <path d="M 56.72 274.104063 
L 66.72 274.104063 
L 76.72 274.104063 
" style="fill: none; stroke: #f2cbb7; stroke-width: 1.5; stroke-linecap: square"/>
    </g>
    <g id="text_19">
     <!-- LightGBM: 0.88   0.11 -->
     <g transform="translate(84.72 277.604063)scale(0.1 -0.1)">
      <defs>
       <path id="DejaVuSans-4c" d="M 628 4666 
L 1259 4666 
L 1259 531 
L 3531 531 
L 3531 0 
L 628 0 
L 628 4666 
z
" transform="scale(0.015625)"/>
       <path id="DejaVuSans-47" d="M 3809 666 
L 3809 1919 
L 2778 1919 
L 2778 2438 
L 4434 2438 
L 4434 434 
Q 4069 175 3628 42 
Q 3188 -91 2688 -91 
Q 1594 -91 976 548 
Q 359 1188 359 2328 
Q 359 3472 976 4111 
Q 1594 4750 2688 4750 
Q 3144 4750 3555 4637 
Q 3966 4525 4313 4306 
L 4313 3634 
Q 3963 3931 3569 4081 
Q 3175 4231 2741 4231 
Q 1884 4231 1454 3753 
Q 1025 3275 1025 2328 
Q 1025 1384 1454 906 
Q 1884 428 2741 428 
Q 3075 428 3337 486 
Q 3600 544 3809 666 
z
" transform="scale(0.015625)"/>
       <path id="DejaVuSans-42" d="M 1259 2228 
L 1259 519 
L 2272 519 
Q 2781 519 3026 730 
Q 3272 941 3272 1375 
Q 3272 1813 3026 2020 
Q 2781 2228 2272 2228 
L 1259 2228 
z
M 1259 4147 
L 1259 2741 
L 2194 2741 
Q 2656 2741 2882 2914 
Q 3109 3088 3109 3444 
Q 3109 3797 2882 3972 
Q 2656 4147 2194 4147 
L 1259 4147 
z
M 628 4666 
L 2241 4666 
Q 2963 4666 3353 4366 
Q 3744 4066 3744 3513 
Q 3744 3084 3544 2831 
Q 3344 2578 2956 2516 
Q 3422 2416 3680 2098 
Q 3938 1781 3938 1306 
Q 3938 681 3513 340 
Q 3088 0 2303 0 
L 628 0 
L 628 4666 
z
" transform="scale(0.015625)"/>
      </defs>
      <use xlink:href="#DejaVuSans-4c"/>
      <use xlink:href="#DejaVuSans-69" x="55.712891"/>
      <use xlink:href="#DejaVuSans-67" x="83.496094"/>
      <use xlink:href="#DejaVuSans-68" x="146.972656"/>
      <use xlink:href="#DejaVuSans-74" x="210.351562"/>
      <use xlink:href="#DejaVuSans-47" x="249.560547"/>
      <use xlink:href="#DejaVuSans-42" x="327.050781"/>
      <use xlink:href="#DejaVuSans-4d" x="395.654297"/>
      <use xlink:href="#DejaVuSans-3a" x="481.933594"/>
      <use xlink:href="#DejaVuSans-20" x="515.625"/>
      <use xlink:href="#DejaVuSans-30" x="547.412109"/>
      <use xlink:href="#DejaVuSans-2e" x="611.035156"/>
      <use xlink:href="#DejaVuSans-38" x="642.822266"/>
      <use xlink:href="#DejaVuSans-38" x="706.445312"/>
      <use xlink:href="#DejaVuSans-20" x="770.068359"/>
      <use xlink:href="#DejaVuSans-b1" x="801.855469"/>
      <use xlink:href="#DejaVuSans-20" x="885.644531"/>
      <use xlink:href="#DejaVuSans-20" x="917.431641"/>
      <use xlink:href="#DejaVuSans-30" x="949.21875"/>
      <use xlink:href="#DejaVuSans-2e" x="1012.841797"/>
      <use xlink:href="#DejaVuSans-31" x="1044.628906"/>
      <use xlink:href="#DejaVuSans-31" x="1108.251953"/>
     </g>
    </g>
    <g id="line2d_23">
     <path d="M 56.72 288.782188 
L 66.72 288.782188 
L 76.72 288.782188 
" style="fill: none; stroke: #ee8468; stroke-width: 1.5; stroke-linecap: square"/>
    </g>
    <g id="text_20">
     <!-- XGBoost: 0.95   0.04 -->
     <g transform="translate(84.72 292.282188)scale(0.1 -0.1)">
      <defs>
       <path id="DejaVuSans-58" d="M 403 4666 
L 1081 4666 
L 2241 2931 
L 3406 4666 
L 4084 4666 
L 2584 2425 
L 4184 0 
L 3506 0 
L 2194 1984 
L 872 0 
L 191 0 
L 1856 2491 
L 403 4666 
z
" transform="scale(0.015625)"/>
      </defs>
      <use xlink:href="#DejaVuSans-58"/>
      <use xlink:href="#DejaVuSans-47" x="68.505859"/>
      <use xlink:href="#DejaVuSans-42" x="145.996094"/>
      <use xlink:href="#DejaVuSans-6f" x="214.599609"/>
      <use xlink:href="#DejaVuSans-6f" x="275.78125"/>
      <use xlink:href="#DejaVuSans-73" x="336.962891"/>
      <use xlink:href="#DejaVuSans-74" x="389.0625"/>
      <use xlink:href="#DejaVuSans-3a" x="428.271484"/>
      <use xlink:href="#DejaVuSans-20" x="461.962891"/>
      <use xlink:href="#DejaVuSans-30" x="493.75"/>
      <use xlink:href="#DejaVuSans-2e" x="557.373047"/>
      <use xlink:href="#DejaVuSans-39" x="589.160156"/>
      <use xlink:href="#DejaVuSans-35" x="652.783203"/>
      <use xlink:href="#DejaVuSans-20" x="716.40625"/>
      <use xlink:href="#DejaVuSans-b1" x="748.193359"/>
      <use xlink:href="#DejaVuSans-20" x="831.982422"/>
      <use xlink:href="#DejaVuSans-20" x="863.769531"/>
      <use xlink:href="#DejaVuSans-30" x="895.556641"/>
      <use xlink:href="#DejaVuSans-2e" x="959.179688"/>
      <use xlink:href="#DejaVuSans-30" x="990.966797"/>
      <use xlink:href="#DejaVuSans-34" x="1054.589844"/>
     </g>
    </g>
    <g id="line2d_24">
     <path d="M 56.72 303.460313 
L 66.72 303.460313 
L 76.72 303.460313 
" style="fill: none; stroke: #b40426; stroke-opacity: 0.8; stroke-width: 1.5; stroke-linecap: square"/>
    </g>
    <g id="text_21">
     <!-- BINN:  0.99   0.00 -->
     <g transform="translate(84.72 306.960313)scale(0.1 -0.1)">
      <defs>
       <path id="DejaVuSans-49" d="M 628 4666 
L 1259 4666 
L 1259 0 
L 628 0 
L 628 4666 
z
" transform="scale(0.015625)"/>
      </defs>
      <use xlink:href="#DejaVuSans-42"/>
      <use xlink:href="#DejaVuSans-49" x="68.603516"/>
      <use xlink:href="#DejaVuSans-4e" x="98.095703"/>
      <use xlink:href="#DejaVuSans-4e" x="172.900391"/>
      <use xlink:href="#DejaVuSans-3a" x="247.705078"/>
      <use xlink:href="#DejaVuSans-20" x="281.396484"/>
      <use xlink:href="#DejaVuSans-20" x="313.183594"/>
      <use xlink:href="#DejaVuSans-30" x="344.970703"/>
      <use xlink:href="#DejaVuSans-2e" x="408.59375"/>
      <use xlink:href="#DejaVuSans-39" x="440.380859"/>
      <use xlink:href="#DejaVuSans-39" x="504.003906"/>
      <use xlink:href="#DejaVuSans-20" x="567.626953"/>
      <use xlink:href="#DejaVuSans-b1" x="599.414062"/>
      <use xlink:href="#DejaVuSans-20" x="683.203125"/>
      <use xlink:href="#DejaVuSans-20" x="714.990234"/>
      <use xlink:href="#DejaVuSans-30" x="746.777344"/>
      <use xlink:href="#DejaVuSans-2e" x="810.400391"/>
      <use xlink:href="#DejaVuSans-30" x="842.1875"/>
      <use xlink:href="#DejaVuSans-30" x="905.810547"/>
     </g>
    </g>
   </g>
  </g>
 </g>
 <defs>
  <clipPath id="p7210d7a1dc">
   <rect x="47.72" y="10.8" width="301.48" height="307.24"/>
  </clipPath>
 </defs>
</svg>
