<?xml version="1.0" encoding="utf-8" standalone="no"?>
<!DOCTYPE svg PUBLIC "-//W3C//DTD SVG 1.1//EN"
  "http://www.w3.org/Graphics/SVG/1.1/DTD/svg11.dtd">
<svg xmlns:xlink="http://www.w3.org/1999/xlink" width="360pt" height="360pt" viewBox="0 0 360 360" xmlns="http://www.w3.org/2000/svg" version="1.1">
 <metadata>
  <rdf:RDF xmlns:dc="http://purl.org/dc/elements/1.1/" xmlns:cc="http://creativecommons.org/ns#" xmlns:rdf="http://www.w3.org/1999/02/22-rdf-syntax-ns#">
   <cc:Work>
    <dc:type rdf:resource="http://purl.org/dc/dcmitype/StillImage"/>
    <dc:date>2022-12-11T04:28:13.443799</dc:date>
    <dc:format>image/svg+xml</dc:format>
    <dc:creator>
     <cc:Agent>
      <dc:title>Matplotlib v3.5.2, https://matplotlib.org/</dc:title>
     </cc:Agent>
    </dc:creator>
   </cc:Work>
  </rdf:RDF>
 </metadata>
 <defs>
  <style type="text/css">*{stroke-linejoin: round; stroke-linecap: butt}</style>
 </defs>
 <g id="figure_1">
  <g id="patch_1">
   <path d="M 0 360 
L 360 360 
L 360 0 
L 0 0 
z
" style="fill: #ffffff"/>
  </g>
  <g id="axes_1">
   <g id="patch_2">
    <path d="M 47.72 318.04 
L 349.2 318.04 
L 349.2 10.8 
L 47.72 10.8 
z
" style="fill: #ffffff"/>
   </g>
   <g id="PolyCollection_1">
    <defs>
     <path id="me9b35aff95" d="M 61.423636 -55.925455 
L 61.423636 -55.925455 
L 64.192048 -248.735316 
L 66.960459 -248.735316 
L 69.728871 -248.735316 
L 72.497282 -248.735316 
L 75.265693 -248.735316 
L 78.034105 -248.735316 
L 80.802516 -260.222246 
L 83.570927 -286.129468 
L 86.339339 -286.129468 
L 89.10775 -286.129468 
L 91.876162 -286.129468 
L 94.644573 -286.129468 
L 97.412984 -286.129468 
L 100.181396 -286.366869 
L 102.949807 -298.14662 
L 105.718219 -298.14662 
L 108.48663 -298.14662 
L 111.255041 -298.14662 
L 114.023453 -298.14662 
L 116.791864 -304.305386 
L 119.560275 -304.305386 
L 122.328687 -304.305386 
L 125.097098 -304.305386 
L 127.86551 -304.305386 
L 130.633921 -304.305386 
L 133.402332 -304.305386 
L 136.170744 -304.305386 
L 138.939155 -304.305386 
L 141.707567 -304.305386 
L 144.475978 -304.305386 
L 147.244389 -304.305386 
L 150.012801 -304.305386 
L 152.781212 -304.305386 
L 155.549624 -304.305386 
L 158.318035 -304.305386 
L 161.086446 -321.543652 
L 163.854858 -321.543652 
L 166.623269 -321.543652 
L 169.39168 -321.543652 
L 172.160092 -325.083213 
L 174.928503 -325.083213 
L 177.696915 -325.083213 
L 180.465326 -325.083213 
L 183.233737 -325.083213 
L 186.002149 -325.083213 
L 188.77056 -325.083213 
L 191.538972 -325.083213 
L 194.307383 -325.083213 
L 197.075794 -325.083213 
L 199.844206 -328.251818 
L 202.612617 -328.251818 
L 205.381028 -328.251818 
L 208.14944 -328.251818 
L 210.917851 -328.251818 
L 213.686263 -328.251818 
L 216.454674 -328.251818 
L 219.223085 -328.251818 
L 221.991497 -328.251818 
L 224.759908 -328.251818 
L 227.52832 -328.251818 
L 230.296731 -328.251818 
L 233.065142 -328.251818 
L 235.833554 -328.251818 
L 238.601965 -328.251818 
L 241.370376 -328.251818 
L 244.138788 -328.251818 
L 246.907199 -328.251818 
L 249.675611 -328.251818 
L 252.444022 -328.251818 
L 255.212433 -328.251818 
L 257.980845 -328.251818 
L 260.749256 -328.251818 
L 263.517668 -335.234545 
L 266.286079 -335.234545 
L 269.05449 -335.234545 
L 271.822902 -335.234545 
L 274.591313 -335.234545 
L 277.359725 -335.234545 
L 280.128136 -335.234545 
L 282.896547 -335.234545 
L 285.664959 -335.234545 
L 288.43337 -335.234545 
L 291.201781 -335.234545 
L 293.970193 -335.234545 
L 296.738604 -335.234545 
L 299.507016 -335.234545 
L 302.275427 -335.234545 
L 305.043838 -335.234545 
L 307.81225 -335.234545 
L 310.580661 -335.234545 
L 313.349073 -335.234545 
L 316.117484 -335.234545 
L 318.885895 -335.234545 
L 321.654307 -335.234545 
L 324.422718 -335.234545 
L 327.191129 -335.234545 
L 329.959541 -335.234545 
L 332.727952 -335.234545 
L 335.496364 -335.234545 
L 335.496364 -335.234545 
L 335.496364 -335.234545 
L 332.727952 -335.234545 
L 329.959541 -335.234545 
L 327.191129 -335.234545 
L 324.422718 -335.234545 
L 321.654307 -335.234545 
L 318.885895 -335.234545 
L 316.117484 -335.234545 
L 313.349073 -335.234545 
L 310.580661 -335.234545 
L 307.81225 -335.234545 
L 305.043838 -335.234545 
L 302.275427 -335.234545 
L 299.507016 -335.234545 
L 296.738604 -335.234545 
L 293.970193 -335.234545 
L 291.201781 -335.234545 
L 288.43337 -335.234545 
L 285.664959 -335.234545 
L 282.896547 -335.234545 
L 280.128136 -335.234545 
L 277.359725 -335.234545 
L 274.591313 -335.234545 
L 271.822902 -335.234545 
L 269.05449 -335.234545 
L 266.286079 -335.234545 
L 263.517668 -335.234545 
L 260.749256 -335.234545 
L 257.980845 -335.234545 
L 255.212433 -335.234545 
L 252.444022 -335.234545 
L 249.675611 -335.234545 
L 246.907199 -335.234545 
L 244.138788 -335.234545 
L 241.370376 -335.234545 
L 238.601965 -335.234545 
L 235.833554 -335.234545 
L 233.065142 -335.234545 
L 230.296731 -335.234545 
L 227.52832 -335.234545 
L 224.759908 -335.234545 
L 221.991497 -335.234545 
L 219.223085 -335.234545 
L 216.454674 -335.234545 
L 213.686263 -335.234545 
L 210.917851 -335.234545 
L 208.14944 -335.234545 
L 205.381028 -335.234545 
L 202.612617 -335.234545 
L 199.844206 -335.234545 
L 197.075794 -335.234545 
L 194.307383 -335.234545 
L 191.538972 -335.234545 
L 188.77056 -335.234545 
L 186.002149 -335.234545 
L 183.233737 -335.234545 
L 180.465326 -335.234545 
L 177.696915 -335.234545 
L 174.928503 -335.234545 
L 172.160092 -335.234545 
L 169.39168 -330.677245 
L 166.623269 -330.677245 
L 163.854858 -330.677245 
L 161.086446 -330.677245 
L 158.318035 -334.508675 
L 155.549624 -334.508675 
L 152.781212 -334.508675 
L 150.012801 -334.508675 
L 147.244389 -334.508675 
L 144.475978 -334.508675 
L 141.707567 -334.508675 
L 138.939155 -334.508675 
L 136.170744 -334.508675 
L 133.402332 -334.508675 
L 130.633921 -334.508675 
L 127.86551 -334.508675 
L 125.097098 -334.508675 
L 122.328687 -334.508675 
L 119.560275 -334.508675 
L 116.791864 -334.508675 
L 114.023453 -331.357138 
L 111.255041 -331.357138 
L 108.48663 -331.357138 
L 105.718219 -331.357138 
L 102.949807 -331.357138 
L 100.181396 -334.198998 
L 97.412984 -329.967453 
L 94.644573 -329.967453 
L 91.876162 -329.967453 
L 89.10775 -329.967453 
L 86.339339 -329.967453 
L 83.570927 -329.967453 
L 80.802516 -335.234545 
L 78.034105 -321.927326 
L 75.265693 -321.927326 
L 72.497282 -321.927326 
L 69.728871 -321.927326 
L 66.960459 -321.927326 
L 64.192048 -321.927326 
L 61.423636 -55.925455 
z
" style="stroke: #3b4cc0; stroke-opacity: 0.1"/>
    </defs>
    <g clip-path="url(#pd84a2e714f)">
     <use xlink:href="#me9b35aff95" x="0" y="360" style="fill: #3b4cc0; fill-opacity: 0.1; stroke: #3b4cc0; stroke-opacity: 0.1"/>
    </g>
   </g>
   <g id="PolyCollection_2">
    <defs>
     <path id="mf482943a8b" d="M 61.423636 -55.925455 
L 61.423636 -55.925455 
L 64.192048 -86.486345 
L 66.960459 -96.650385 
L 69.728871 -106.76333 
L 72.497282 -116.818538 
L 75.265693 -126.80828 
L 78.034105 -136.723543 
L 80.802516 -146.65559 
L 83.570927 -156.687 
L 86.339339 -166.675633 
L 89.10775 -176.612813 
L 91.876162 -186.487484 
L 94.644573 -196.285406 
L 97.412984 -205.988025 
L 100.181396 -210.226189 
L 102.949807 -213.080684 
L 105.718219 -215.894451 
L 108.48663 -218.664629 
L 111.255041 -221.388207 
L 114.023453 -224.062026 
L 116.791864 -226.682798 
L 119.560275 -229.247127 
L 122.328687 -231.927777 
L 125.097098 -234.593564 
L 127.86551 -237.192716 
L 130.633921 -239.72146 
L 133.402332 -242.176088 
L 136.170744 -250.597657 
L 138.939155 -252.797857 
L 141.707567 -254.990478 
L 144.475978 -257.175056 
L 147.244389 -259.351092 
L 150.012801 -261.518052 
L 152.781212 -263.675362 
L 155.549624 -265.822408 
L 158.318035 -267.958531 
L 161.086446 -269.770687 
L 163.854858 -271.39759 
L 166.623269 -273.012265 
L 169.39168 -274.614071 
L 172.160092 -276.170581 
L 174.928503 -277.673982 
L 177.696915 -279.1754 
L 180.465326 -280.674673 
L 183.233737 -282.171623 
L 186.002149 -283.66605 
L 188.77056 -285.157735 
L 191.538972 -286.379538 
L 194.307383 -287.533787 
L 197.075794 -288.687415 
L 199.844206 -289.840374 
L 202.612617 -290.99261 
L 205.381028 -292.144062 
L 208.14944 -293.294663 
L 210.917851 -294.44434 
L 213.686263 -295.593009 
L 216.454674 -296.740575 
L 219.223085 -297.886935 
L 221.991497 -299.031969 
L 224.759908 -300.175542 
L 227.52832 -301.179359 
L 230.296731 -302.090487 
L 233.065142 -303.00127 
L 235.833554 -303.911677 
L 238.601965 -304.821673 
L 241.370376 -305.73122 
L 244.138788 -306.640273 
L 246.907199 -307.548784 
L 249.675611 -308.456696 
L 252.444022 -309.363944 
L 255.212433 -310.270455 
L 257.980845 -311.220814 
L 260.749256 -312.282448 
L 263.517668 -313.343923 
L 266.286079 -314.405213 
L 269.05449 -315.46629 
L 271.822902 -316.527118 
L 274.591313 -317.587653 
L 277.359725 -318.647838 
L 280.128136 -319.707603 
L 282.896547 -320.766857 
L 285.664959 -321.825481 
L 288.43337 -322.883316 
L 291.201781 -323.940144 
L 293.970193 -324.995659 
L 296.738604 -326.049423 
L 299.507016 -326.957476 
L 302.275427 -327.269921 
L 305.043838 -327.545351 
L 307.81225 -327.782169 
L 310.580661 -327.979705 
L 313.349073 -328.138298 
L 316.117484 -328.251818 
L 318.885895 -328.251818 
L 321.654307 -328.251818 
L 324.422718 -328.251818 
L 327.191129 -328.251818 
L 329.959541 -328.251818 
L 332.727952 -328.251818 
L 335.496364 -335.234545 
L 335.496364 -335.234545 
L 335.496364 -335.234545 
L 332.727952 -335.234545 
L 329.959541 -335.234545 
L 327.191129 -335.234545 
L 324.422718 -335.234545 
L 321.654307 -335.234545 
L 318.885895 -335.234545 
L 316.117484 -335.234545 
L 313.349073 -335.234545 
L 310.580661 -335.234545 
L 307.81225 -335.234545 
L 305.043838 -335.234545 
L 302.275427 -335.234545 
L 299.507016 -335.234545 
L 296.738604 -335.234545 
L 293.970193 -335.234545 
L 291.201781 -335.234545 
L 288.43337 -335.234545 
L 285.664959 -335.234545 
L 282.896547 -335.234545 
L 280.128136 -335.234545 
L 277.359725 -335.234545 
L 274.591313 -335.234545 
L 271.822902 -335.234545 
L 269.05449 -335.234545 
L 266.286079 -335.234545 
L 263.517668 -335.234545 
L 260.749256 -335.234545 
L 257.980845 -335.234545 
L 255.212433 -335.234545 
L 252.444022 -335.234545 
L 249.675611 -335.234545 
L 246.907199 -335.234545 
L 244.138788 -335.234545 
L 241.370376 -335.234545 
L 238.601965 -335.234545 
L 235.833554 -335.234545 
L 233.065142 -335.234545 
L 230.296731 -335.234545 
L 227.52832 -335.234545 
L 224.759908 -335.234545 
L 221.991497 -335.234545 
L 219.223085 -335.234545 
L 216.454674 -335.234545 
L 213.686263 -335.234545 
L 210.917851 -335.234545 
L 208.14944 -335.234545 
L 205.381028 -335.234545 
L 202.612617 -335.234545 
L 199.844206 -335.234545 
L 197.075794 -335.234545 
L 194.307383 -335.234545 
L 191.538972 -335.234545 
L 188.77056 -335.234545 
L 186.002149 -335.234545 
L 183.233737 -335.234545 
L 180.465326 -335.234545 
L 177.696915 -335.234545 
L 174.928503 -335.234545 
L 172.160092 -335.234545 
L 169.39168 -335.234545 
L 166.623269 -335.234545 
L 163.854858 -335.234545 
L 161.086446 -335.234545 
L 158.318035 -335.234545 
L 155.549624 -335.234545 
L 152.781212 -335.234545 
L 150.012801 -335.234545 
L 147.244389 -335.234545 
L 144.475978 -335.234545 
L 141.707567 -335.234545 
L 138.939155 -335.234545 
L 136.170744 -335.234545 
L 133.402332 -327.996776 
L 130.633921 -326.899383 
L 127.86551 -325.876104 
L 125.097098 -324.923235 
L 122.328687 -324.037001 
L 119.560275 -323.23334 
L 116.791864 -322.561634 
L 114.023453 -321.94637 
L 111.255041 -321.384153 
L 108.48663 -320.871695 
L 105.718219 -320.405838 
L 102.949807 -319.983569 
L 100.181396 -319.602029 
L 97.412984 -319.155699 
L 94.644573 -318.379996 
L 91.876162 -317.699595 
L 89.10775 -317.095943 
L 86.339339 -316.5548 
L 83.570927 -316.06511 
L 80.802516 -315.618197 
L 78.034105 -314.259386 
L 75.265693 -312.342101 
L 72.497282 -310.499294 
L 69.728871 -308.721953 
L 66.960459 -307.002349 
L 64.192048 -305.33384 
L 61.423636 -55.925455 
z
" style="stroke: #7b9ff9; stroke-opacity: 0.1"/>
    </defs>
    <g clip-path="url(#pd84a2e714f)">
     <use xlink:href="#mf482943a8b" x="0" y="360" style="fill: #7b9ff9; fill-opacity: 0.1; stroke: #7b9ff9; stroke-opacity: 0.1"/>
    </g>
   </g>
   <g id="PolyCollection_3">
    <defs>
     <path id="mbd581d0820" d="M 61.423636 -55.925455 
L 61.423636 -55.925455 
L 64.192048 -122.747428 
L 66.960459 -128.550917 
L 69.728871 -134.344564 
L 72.497282 -140.127705 
L 75.265693 -145.899619 
L 78.034105 -151.659524 
L 80.802516 -157.437397 
L 83.570927 -162.168954 
L 86.339339 -166.721246 
L 89.10775 -171.171972 
L 91.876162 -175.51979 
L 94.644573 -179.76385 
L 97.412984 -183.90381 
L 100.181396 -186.520446 
L 102.949807 -188.760069 
L 105.718219 -190.98616 
L 108.48663 -193.198241 
L 111.255041 -195.395822 
L 114.023453 -197.578402 
L 116.791864 -199.745468 
L 119.560275 -201.896495 
L 122.328687 -204.030948 
L 125.097098 -206.148286 
L 127.86551 -208.247957 
L 130.633921 -210.329403 
L 133.402332 -212.392062 
L 136.170744 -247.996713 
L 138.939155 -249.058517 
L 141.707567 -250.532202 
L 144.475978 -252.158663 
L 147.244389 -253.763362 
L 150.012801 -255.345945 
L 152.781212 -256.906088 
L 155.549624 -258.611389 
L 158.318035 -260.299053 
L 161.086446 -261.968879 
L 163.854858 -263.620688 
L 166.623269 -265.254322 
L 169.39168 -266.869646 
L 172.160092 -268.330396 
L 174.928503 -269.575406 
L 177.696915 -270.81165 
L 180.465326 -272.038825 
L 183.233737 -273.256617 
L 186.002149 -274.464707 
L 188.77056 -275.662768 
L 191.538972 -276.749914 
L 194.307383 -277.810236 
L 197.075794 -278.869819 
L 199.844206 -279.928622 
L 202.612617 -280.986605 
L 205.381028 -282.043723 
L 208.14944 -283.099929 
L 210.917851 -284.15517 
L 213.686263 -285.209392 
L 216.454674 -286.262535 
L 219.223085 -287.314537 
L 221.991497 -288.365327 
L 224.759908 -289.414832 
L 227.52832 -290.462971 
L 230.296731 -291.509657 
L 233.065142 -292.554797 
L 235.833554 -293.598287 
L 238.601965 -294.527469 
L 241.370376 -295.251964 
L 244.138788 -295.97415 
L 246.907199 -296.693923 
L 249.675611 -297.411176 
L 252.444022 -298.125795 
L 255.212433 -298.83766 
L 257.980845 -299.546646 
L 260.749256 -300.25262 
L 263.517668 -300.927489 
L 266.286079 -301.559462 
L 269.05449 -302.191434 
L 271.822902 -302.823406 
L 274.591313 -303.455378 
L 277.359725 -304.08735 
L 280.128136 -304.719322 
L 282.896547 -305.351294 
L 285.664959 -305.983266 
L 288.43337 -306.615238 
L 291.201781 -307.24721 
L 293.970193 -307.879182 
L 296.738604 -308.962563 
L 299.507016 -312.754396 
L 302.275427 -316.546228 
L 305.043838 -320.338061 
L 307.81225 -324.129893 
L 310.580661 -327.921726 
L 313.349073 -331.713558 
L 316.117484 -335.234545 
L 318.885895 -335.234545 
L 321.654307 -335.234545 
L 324.422718 -335.234545 
L 327.191129 -335.234545 
L 329.959541 -335.234545 
L 332.727952 -335.234545 
L 335.496364 -335.234545 
L 335.496364 -335.234545 
L 335.496364 -335.234545 
L 332.727952 -335.234545 
L 329.959541 -335.234545 
L 327.191129 -335.234545 
L 324.422718 -335.234545 
L 321.654307 -335.234545 
L 318.885895 -335.234545 
L 316.117484 -335.234545 
L 313.349073 -335.234545 
L 310.580661 -335.234545 
L 307.81225 -335.234545 
L 305.043838 -335.234545 
L 302.275427 -335.234545 
L 299.507016 -335.234545 
L 296.738604 -335.234545 
L 293.970193 -335.234545 
L 291.201781 -335.234545 
L 288.43337 -335.234545 
L 285.664959 -335.234545 
L 282.896547 -335.234545 
L 280.128136 -335.234545 
L 277.359725 -335.234545 
L 274.591313 -335.234545 
L 271.822902 -335.234545 
L 269.05449 -335.234545 
L 266.286079 -335.234545 
L 263.517668 -335.234545 
L 260.749256 -335.234545 
L 257.980845 -335.234545 
L 255.212433 -335.234545 
L 252.444022 -335.234545 
L 249.675611 -335.234545 
L 246.907199 -335.234545 
L 244.138788 -335.234545 
L 241.370376 -335.234545 
L 238.601965 -335.234545 
L 235.833554 -335.234545 
L 233.065142 -335.234545 
L 230.296731 -335.234545 
L 227.52832 -335.234545 
L 224.759908 -335.234545 
L 221.991497 -335.234545 
L 219.223085 -335.234545 
L 216.454674 -335.234545 
L 213.686263 -335.234545 
L 210.917851 -335.234545 
L 208.14944 -335.234545 
L 205.381028 -335.234545 
L 202.612617 -335.234545 
L 199.844206 -335.234545 
L 197.075794 -335.234545 
L 194.307383 -335.234545 
L 191.538972 -335.234545 
L 188.77056 -335.234545 
L 186.002149 -335.234545 
L 183.233737 -335.234545 
L 180.465326 -335.234545 
L 177.696915 -335.234545 
L 174.928503 -335.234545 
L 172.160092 -335.234545 
L 169.39168 -335.234545 
L 166.623269 -335.234545 
L 163.854858 -335.234545 
L 161.086446 -335.234545 
L 158.318035 -335.234545 
L 155.549624 -335.234545 
L 152.781212 -335.234545 
L 150.012801 -335.234545 
L 147.244389 -335.097631 
L 144.475978 -333.930869 
L 141.707567 -332.78587 
L 138.939155 -331.60847 
L 136.170744 -330.320127 
L 133.402332 -321.40178 
L 130.633921 -320.423074 
L 127.86551 -319.463154 
L 125.097098 -318.521459 
L 122.328687 -317.597431 
L 119.560275 -316.69052 
L 116.791864 -315.800181 
L 114.023453 -314.92588 
L 111.255041 -314.067095 
L 108.48663 -313.223311 
L 105.718219 -312.394026 
L 102.949807 -311.578751 
L 100.181396 -310.777009 
L 97.412984 -309.290528 
L 94.644573 -305.080369 
L 91.876162 -300.97431 
L 89.10775 -296.972009 
L 86.339339 -293.072615 
L 83.570927 -289.274788 
L 80.802516 -285.53585 
L 78.034105 -282.192447 
L 75.265693 -279.440478 
L 72.497282 -276.700518 
L 69.728871 -273.971785 
L 66.960459 -271.253559 
L 64.192048 -268.545173 
L 61.423636 -55.925455 
z
" style="stroke: #c0d4f5; stroke-opacity: 0.1"/>
    </defs>
    <g clip-path="url(#pd84a2e714f)">
     <use xlink:href="#mbd581d0820" x="0" y="360" style="fill: #c0d4f5; fill-opacity: 0.1; stroke: #c0d4f5; stroke-opacity: 0.1"/>
    </g>
   </g>
   <g id="PolyCollection_4">
    <defs>
     <path id="mafa68057b0" d="M 61.423636 -55.925455 
L 61.423636 -55.925455 
L 64.192048 -61.589527 
L 66.960459 -67.2536 
L 69.728871 -72.917673 
L 72.497282 -78.581746 
L 75.265693 -84.245819 
L 78.034105 -89.909892 
L 80.802516 -94.50685 
L 83.570927 -100.74963 
L 86.339339 -106.383004 
L 89.10775 -111.410068 
L 91.876162 -115.854091 
L 94.644573 -119.754846 
L 97.412984 -123.163038 
L 100.181396 -125.730523 
L 102.949807 -123.948863 
L 105.718219 -127.503239 
L 108.48663 -130.952571 
L 111.255041 -134.291438 
L 114.023453 -137.514581 
L 116.791864 -149.554564 
L 119.560275 -153.456024 
L 122.328687 -157.263382 
L 125.097098 -160.972156 
L 127.86551 -164.57805 
L 130.633921 -168.077038 
L 133.402332 -171.465449 
L 136.170744 -196.43074 
L 138.939155 -199.817731 
L 141.707567 -203.072176 
L 144.475978 -206.1885 
L 147.244389 -209.161847 
L 150.012801 -211.988245 
L 152.781212 -216.805232 
L 155.549624 -218.989936 
L 158.318035 -221.173614 
L 161.086446 -223.739163 
L 163.854858 -225.914233 
L 166.623269 -228.087804 
L 169.39168 -230.259771 
L 172.160092 -232.47816 
L 174.928503 -234.767818 
L 177.696915 -237.056866 
L 180.465326 -239.345257 
L 183.233737 -241.632944 
L 186.002149 -243.919873 
L 188.77056 -246.205983 
L 191.538972 -248.49121 
L 194.307383 -250.775479 
L 197.075794 -253.05871 
L 199.844206 -255.340811 
L 202.612617 -257.621682 
L 205.381028 -259.901207 
L 208.14944 -262.17926 
L 210.917851 -264.455693 
L 213.686263 -266.730344 
L 216.454674 -269.003024 
L 219.223085 -271.273519 
L 221.991497 -273.541584 
L 224.759908 -275.806935 
L 227.52832 -278.069242 
L 230.296731 -280.328123 
L 233.065142 -282.58313 
L 235.833554 -284.833732 
L 238.601965 -287.079304 
L 241.370376 -289.319096 
L 244.138788 -291.552209 
L 246.907199 -293.777553 
L 249.675611 -295.993797 
L 252.444022 -298.199302 
L 255.212433 -300.392035 
L 257.980845 -302.569445 
L 260.749256 -304.728306 
L 263.517668 -311.328225 
L 266.286079 -311.953909 
L 269.05449 -312.563705 
L 271.822902 -313.156737 
L 274.591313 -313.732138 
L 277.359725 -314.289068 
L 280.128136 -314.826727 
L 282.896547 -315.322125 
L 285.664959 -315.798583 
L 288.43337 -316.26159 
L 291.201781 -316.710211 
L 293.970193 -317.143491 
L 296.738604 -317.560459 
L 299.507016 -318.144562 
L 302.275427 -319.459176 
L 305.043838 -320.77379 
L 307.81225 -322.088404 
L 310.580661 -323.403018 
L 313.349073 -324.717632 
L 316.117484 -326.032247 
L 318.885895 -327.346861 
L 321.654307 -328.661475 
L 324.422718 -329.976089 
L 327.191129 -331.290703 
L 329.959541 -332.605317 
L 332.727952 -333.919931 
L 335.496364 -335.234545 
L 335.496364 -335.234545 
L 335.496364 -335.234545 
L 332.727952 -335.234545 
L 329.959541 -335.234545 
L 327.191129 -335.234545 
L 324.422718 -335.234545 
L 321.654307 -335.234545 
L 318.885895 -335.234545 
L 316.117484 -335.234545 
L 313.349073 -335.234545 
L 310.580661 -335.234545 
L 307.81225 -335.234545 
L 305.043838 -335.234545 
L 302.275427 -335.234545 
L 299.507016 -335.234545 
L 296.738604 -335.234545 
L 293.970193 -335.234545 
L 291.201781 -335.234545 
L 288.43337 -335.234545 
L 285.664959 -335.234545 
L 282.896547 -335.234545 
L 280.128136 -335.234545 
L 277.359725 -335.234545 
L 274.591313 -335.234545 
L 271.822902 -335.234545 
L 269.05449 -335.234545 
L 266.286079 -335.234545 
L 263.517668 -335.234545 
L 260.749256 -335.234545 
L 257.980845 -335.234545 
L 255.212433 -335.234545 
L 252.444022 -335.234545 
L 249.675611 -335.234545 
L 246.907199 -335.234545 
L 244.138788 -335.234545 
L 241.370376 -335.234545 
L 238.601965 -335.234545 
L 235.833554 -335.234545 
L 233.065142 -335.234545 
L 230.296731 -335.234545 
L 227.52832 -335.234545 
L 224.759908 -335.234545 
L 221.991497 -335.234545 
L 219.223085 -335.234545 
L 216.454674 -335.234545 
L 213.686263 -335.234545 
L 210.917851 -335.234545 
L 208.14944 -335.234545 
L 205.381028 -335.234545 
L 202.612617 -335.234545 
L 199.844206 -335.234545 
L 197.075794 -335.234545 
L 194.307383 -335.234545 
L 191.538972 -335.234545 
L 188.77056 -335.234545 
L 186.002149 -335.234545 
L 183.233737 -335.234545 
L 180.465326 -335.234545 
L 177.696915 -335.234545 
L 174.928503 -335.234545 
L 172.160092 -335.234545 
L 169.39168 -335.234545 
L 166.623269 -335.234545 
L 163.854858 -335.234545 
L 161.086446 -335.234545 
L 158.318035 -335.234545 
L 155.549624 -335.234545 
L 152.781212 -335.234545 
L 150.012801 -324.843373 
L 147.244389 -322.768396 
L 144.475978 -320.840368 
L 141.707567 -319.055318 
L 138.939155 -317.408389 
L 136.170744 -315.894006 
L 133.402332 -295.466567 
L 130.633921 -293.276491 
L 127.86551 -291.196992 
L 125.097098 -289.224399 
L 122.328687 -287.354686 
L 119.560275 -285.583556 
L 116.791864 -283.906528 
L 114.023453 -277.864005 
L 111.255041 -276.637182 
L 108.48663 -275.526084 
L 105.718219 -274.52545 
L 102.949807 -273.62986 
L 100.181396 -248.619635 
L 97.412984 -240.282011 
L 94.644573 -232.243403 
L 91.876162 -224.697359 
L 89.10775 -217.694583 
L 86.339339 -211.274847 
L 83.570927 -205.461421 
L 80.802516 -200.257401 
L 78.034105 -180.000724 
L 75.265693 -159.321512 
L 72.497282 -138.642301 
L 69.728871 -117.963089 
L 66.960459 -97.283878 
L 64.192048 -76.604666 
L 61.423636 -55.925455 
z
" style="stroke: #f2cbb7; stroke-opacity: 0.1"/>
    </defs>
    <g clip-path="url(#pd84a2e714f)">
     <use xlink:href="#mafa68057b0" x="0" y="360" style="fill: #f2cbb7; fill-opacity: 0.1; stroke: #f2cbb7; stroke-opacity: 0.1"/>
    </g>
   </g>
   <g id="PolyCollection_5">
    <defs>
     <path id="mfc0c7fd51b" d="M 61.423636 -55.925455 
L 61.423636 -55.925455 
L 64.192048 -185.135844 
L 66.960459 -185.135844 
L 69.728871 -185.135844 
L 72.497282 -185.135844 
L 75.265693 -185.135844 
L 78.034105 -185.135844 
L 80.802516 -218.852705 
L 83.570927 -218.852705 
L 86.339339 -218.852705 
L 89.10775 -218.852705 
L 91.876162 -218.852705 
L 94.644573 -218.852705 
L 97.412984 -218.852705 
L 100.181396 -266.313611 
L 102.949807 -266.313611 
L 105.718219 -266.313611 
L 108.48663 -266.313611 
L 111.255041 -266.313611 
L 114.023453 -266.313611 
L 116.791864 -283.771637 
L 119.560275 -283.771637 
L 122.328687 -288.376419 
L 125.097098 -288.376419 
L 127.86551 -288.376419 
L 130.633921 -288.376419 
L 133.402332 -288.376419 
L 136.170744 -292.447024 
L 138.939155 -292.447024 
L 141.707567 -292.447024 
L 144.475978 -292.447024 
L 147.244389 -292.447024 
L 150.012801 -292.447024 
L 152.781212 -293.293053 
L 155.549624 -293.293053 
L 158.318035 -293.293053 
L 161.086446 -293.293053 
L 163.854858 -293.293053 
L 166.623269 -293.293053 
L 169.39168 -293.293053 
L 172.160092 -293.293053 
L 174.928503 -293.293053 
L 177.696915 -293.293053 
L 180.465326 -297.681906 
L 183.233737 -297.681906 
L 186.002149 -297.681906 
L 188.77056 -297.681906 
L 191.538972 -304.780547 
L 194.307383 -304.780547 
L 197.075794 -304.780547 
L 199.844206 -304.780547 
L 202.612617 -304.780547 
L 205.381028 -304.780547 
L 208.14944 -309.592624 
L 210.917851 -309.592624 
L 213.686263 -309.592624 
L 216.454674 -309.592624 
L 219.223085 -309.592624 
L 221.991497 -309.592624 
L 224.759908 -309.592624 
L 227.52832 -313.157162 
L 230.296731 -313.157162 
L 233.065142 -313.157162 
L 235.833554 -313.157162 
L 238.601965 -319.451773 
L 241.370376 -319.451773 
L 244.138788 -319.451773 
L 246.907199 -319.451773 
L 249.675611 -319.451773 
L 252.444022 -319.451773 
L 255.212433 -319.451773 
L 257.980845 -319.451773 
L 260.749256 -319.451773 
L 263.517668 -319.451773 
L 266.286079 -319.451773 
L 269.05449 -319.451773 
L 271.822902 -319.451773 
L 274.591313 -319.451773 
L 277.359725 -319.451773 
L 280.128136 -319.451773 
L 282.896547 -321.827709 
L 285.664959 -321.827709 
L 288.43337 -321.827709 
L 291.201781 -321.827709 
L 293.970193 -321.827709 
L 296.738604 -328.531127 
L 299.507016 -328.531127 
L 302.275427 -328.531127 
L 305.043838 -328.531127 
L 307.81225 -328.531127 
L 310.580661 -328.531127 
L 313.349073 -328.531127 
L 316.117484 -335.234545 
L 318.885895 -335.234545 
L 321.654307 -335.234545 
L 324.422718 -335.234545 
L 327.191129 -335.234545 
L 329.959541 -335.234545 
L 332.727952 -335.234545 
L 335.496364 -335.234545 
L 335.496364 -335.234545 
L 335.496364 -335.234545 
L 332.727952 -335.234545 
L 329.959541 -335.234545 
L 327.191129 -335.234545 
L 324.422718 -335.234545 
L 321.654307 -335.234545 
L 318.885895 -335.234545 
L 316.117484 -335.234545 
L 313.349073 -335.234545 
L 310.580661 -335.234545 
L 307.81225 -335.234545 
L 305.043838 -335.234545 
L 302.275427 -335.234545 
L 299.507016 -335.234545 
L 296.738604 -335.234545 
L 293.970193 -335.234545 
L 291.201781 -335.234545 
L 288.43337 -335.234545 
L 285.664959 -335.234545 
L 282.896547 -335.234545 
L 280.128136 -335.234545 
L 277.359725 -335.234545 
L 274.591313 -335.234545 
L 271.822902 -335.234545 
L 269.05449 -335.234545 
L 266.286079 -335.234545 
L 263.517668 -335.234545 
L 260.749256 -335.234545 
L 257.980845 -335.234545 
L 255.212433 -335.234545 
L 252.444022 -335.234545 
L 249.675611 -335.234545 
L 246.907199 -335.234545 
L 244.138788 -335.234545 
L 241.370376 -335.234545 
L 238.601965 -335.234545 
L 235.833554 -335.234545 
L 233.065142 -335.234545 
L 230.296731 -335.234545 
L 227.52832 -335.234545 
L 224.759908 -335.234545 
L 221.991497 -335.234545 
L 219.223085 -335.234545 
L 216.454674 -335.234545 
L 213.686263 -335.234545 
L 210.917851 -335.234545 
L 208.14944 -335.234545 
L 205.381028 -335.234545 
L 202.612617 -335.234545 
L 199.844206 -335.234545 
L 197.075794 -335.234545 
L 194.307383 -335.234545 
L 191.538972 -335.234545 
L 188.77056 -331.449439 
L 186.002149 -331.449439 
L 183.233737 -331.449439 
L 180.465326 -331.449439 
L 177.696915 -331.369347 
L 174.928503 -331.369347 
L 172.160092 -331.369347 
L 169.39168 -331.369347 
L 166.623269 -331.369347 
L 163.854858 -331.369347 
L 161.086446 -331.369347 
L 158.318035 -331.369347 
L 155.549624 -331.369347 
L 152.781212 -331.369347 
L 150.012801 -323.277485 
L 147.244389 -323.277485 
L 144.475978 -323.277485 
L 141.707567 -323.277485 
L 138.939155 -323.277485 
L 136.170744 -323.277485 
L 133.402332 -322.692938 
L 130.633921 -322.692938 
L 127.86551 -322.692938 
L 125.097098 -322.692938 
L 122.328687 -322.692938 
L 119.560275 -322.828775 
L 116.791864 -322.828775 
L 114.023453 -317.942074 
L 111.255041 -317.942074 
L 108.48663 -317.942074 
L 105.718219 -317.942074 
L 102.949807 -317.942074 
L 100.181396 -317.942074 
L 97.412984 -309.727368 
L 94.644573 -309.727368 
L 91.876162 -309.727368 
L 89.10775 -309.727368 
L 86.339339 -309.727368 
L 83.570927 -309.727368 
L 80.802516 -309.727368 
L 78.034105 -284.78932 
L 75.265693 -284.78932 
L 72.497282 -284.78932 
L 69.728871 -284.78932 
L 66.960459 -284.78932 
L 64.192048 -284.78932 
L 61.423636 -55.925455 
z
" style="stroke: #ee8468; stroke-opacity: 0.1"/>
    </defs>
    <g clip-path="url(#pd84a2e714f)">
     <use xlink:href="#mfc0c7fd51b" x="0" y="360" style="fill: #ee8468; fill-opacity: 0.1; stroke: #ee8468; stroke-opacity: 0.1"/>
    </g>
   </g>
   <g id="PolyCollection_6">
    <defs>
     <path id="mc1aa42e391" d="M 61.423636 -55.925455 
L 61.423636 -55.925455 
L 64.192048 -329.752341 
L 66.960459 -329.752341 
L 69.728871 -329.752341 
L 72.497282 -329.752341 
L 75.265693 -329.752341 
L 78.034105 -329.752341 
L 80.802516 -329.752341 
L 83.570927 -335.234545 
L 86.339339 -335.234545 
L 89.10775 -335.234545 
L 91.876162 -335.234545 
L 94.644573 -335.234545 
L 97.412984 -335.234545 
L 100.181396 -335.234545 
L 102.949807 -335.234545 
L 105.718219 -335.234545 
L 108.48663 -335.234545 
L 111.255041 -335.234545 
L 114.023453 -335.234545 
L 116.791864 -335.234545 
L 119.560275 -335.234545 
L 122.328687 -335.234545 
L 125.097098 -335.234545 
L 127.86551 -335.234545 
L 130.633921 -335.234545 
L 133.402332 -335.234545 
L 136.170744 -335.234545 
L 138.939155 -335.234545 
L 141.707567 -335.234545 
L 144.475978 -335.234545 
L 147.244389 -335.234545 
L 150.012801 -335.234545 
L 152.781212 -335.234545 
L 155.549624 -335.234545 
L 158.318035 -335.234545 
L 161.086446 -335.234545 
L 163.854858 -335.234545 
L 166.623269 -335.234545 
L 169.39168 -335.234545 
L 172.160092 -335.234545 
L 174.928503 -335.234545 
L 177.696915 -335.234545 
L 180.465326 -335.234545 
L 183.233737 -335.234545 
L 186.002149 -335.234545 
L 188.77056 -335.234545 
L 191.538972 -335.234545 
L 194.307383 -335.234545 
L 197.075794 -335.234545 
L 199.844206 -335.234545 
L 202.612617 -335.234545 
L 205.381028 -335.234545 
L 208.14944 -335.234545 
L 210.917851 -335.234545 
L 213.686263 -335.234545 
L 216.454674 -335.234545 
L 219.223085 -335.234545 
L 221.991497 -335.234545 
L 224.759908 -335.234545 
L 227.52832 -335.234545 
L 230.296731 -335.234545 
L 233.065142 -335.234545 
L 235.833554 -335.234545 
L 238.601965 -335.234545 
L 241.370376 -335.234545 
L 244.138788 -335.234545 
L 246.907199 -335.234545 
L 249.675611 -335.234545 
L 252.444022 -335.234545 
L 255.212433 -335.234545 
L 257.980845 -335.234545 
L 260.749256 -335.234545 
L 263.517668 -335.234545 
L 266.286079 -335.234545 
L 269.05449 -335.234545 
L 271.822902 -335.234545 
L 274.591313 -335.234545 
L 277.359725 -335.234545 
L 280.128136 -335.234545 
L 282.896547 -335.234545 
L 285.664959 -335.234545 
L 288.43337 -335.234545 
L 291.201781 -335.234545 
L 293.970193 -335.234545 
L 296.738604 -335.234545 
L 299.507016 -335.234545 
L 302.275427 -335.234545 
L 305.043838 -335.234545 
L 307.81225 -335.234545 
L 310.580661 -335.234545 
L 313.349073 -335.234545 
L 316.117484 -335.234545 
L 318.885895 -335.234545 
L 321.654307 -335.234545 
L 324.422718 -335.234545 
L 327.191129 -335.234545 
L 329.959541 -335.234545 
L 332.727952 -335.234545 
L 335.496364 -335.234545 
L 335.496364 -335.234545 
L 335.496364 -335.234545 
L 332.727952 -335.234545 
L 329.959541 -335.234545 
L 327.191129 -335.234545 
L 324.422718 -335.234545 
L 321.654307 -335.234545 
L 318.885895 -335.234545 
L 316.117484 -335.234545 
L 313.349073 -335.234545 
L 310.580661 -335.234545 
L 307.81225 -335.234545 
L 305.043838 -335.234545 
L 302.275427 -335.234545 
L 299.507016 -335.234545 
L 296.738604 -335.234545 
L 293.970193 -335.234545 
L 291.201781 -335.234545 
L 288.43337 -335.234545 
L 285.664959 -335.234545 
L 282.896547 -335.234545 
L 280.128136 -335.234545 
L 277.359725 -335.234545 
L 274.591313 -335.234545 
L 271.822902 -335.234545 
L 269.05449 -335.234545 
L 266.286079 -335.234545 
L 263.517668 -335.234545 
L 260.749256 -335.234545 
L 257.980845 -335.234545 
L 255.212433 -335.234545 
L 252.444022 -335.234545 
L 249.675611 -335.234545 
L 246.907199 -335.234545 
L 244.138788 -335.234545 
L 241.370376 -335.234545 
L 238.601965 -335.234545 
L 235.833554 -335.234545 
L 233.065142 -335.234545 
L 230.296731 -335.234545 
L 227.52832 -335.234545 
L 224.759908 -335.234545 
L 221.991497 -335.234545 
L 219.223085 -335.234545 
L 216.454674 -335.234545 
L 213.686263 -335.234545 
L 210.917851 -335.234545 
L 208.14944 -335.234545 
L 205.381028 -335.234545 
L 202.612617 -335.234545 
L 199.844206 -335.234545 
L 197.075794 -335.234545 
L 194.307383 -335.234545 
L 191.538972 -335.234545 
L 188.77056 -335.234545 
L 186.002149 -335.234545 
L 183.233737 -335.234545 
L 180.465326 -335.234545 
L 177.696915 -335.234545 
L 174.928503 -335.234545 
L 172.160092 -335.234545 
L 169.39168 -335.234545 
L 166.623269 -335.234545 
L 163.854858 -335.234545 
L 161.086446 -335.234545 
L 158.318035 -335.234545 
L 155.549624 -335.234545 
L 152.781212 -335.234545 
L 150.012801 -335.234545 
L 147.244389 -335.234545 
L 144.475978 -335.234545 
L 141.707567 -335.234545 
L 138.939155 -335.234545 
L 136.170744 -335.234545 
L 133.402332 -335.234545 
L 130.633921 -335.234545 
L 127.86551 -335.234545 
L 125.097098 -335.234545 
L 122.328687 -335.234545 
L 119.560275 -335.234545 
L 116.791864 -335.234545 
L 114.023453 -335.234545 
L 111.255041 -335.234545 
L 108.48663 -335.234545 
L 105.718219 -335.234545 
L 102.949807 -335.234545 
L 100.181396 -335.234545 
L 97.412984 -335.234545 
L 94.644573 -335.234545 
L 91.876162 -335.234545 
L 89.10775 -335.234545 
L 86.339339 -335.234545 
L 83.570927 -335.234545 
L 80.802516 -335.234545 
L 78.034105 -335.234545 
L 75.265693 -335.234545 
L 72.497282 -335.234545 
L 69.728871 -335.234545 
L 66.960459 -335.234545 
L 64.192048 -335.234545 
L 61.423636 -55.925455 
z
" style="stroke: #b40426; stroke-opacity: 0.1"/>
    </defs>
    <g clip-path="url(#pd84a2e714f)">
     <use xlink:href="#mc1aa42e391" x="0" y="360" style="fill: #b40426; fill-opacity: 0.1; stroke: #b40426; stroke-opacity: 0.1"/>
    </g>
   </g>
   <g id="matplotlib.axis_1">
    <g id="xtick_1">
     <g id="line2d_1">
      <defs>
       <path id="me3fa63b694" d="M 0 0 
L 0 3.5 
" style="stroke: #000000; stroke-width: 0.8"/>
      </defs>
      <g>
       <use xlink:href="#me3fa63b694" x="61.423636" y="318.04" style="stroke: #000000; stroke-width: 0.8"/>
      </g>
     </g>
     <g id="text_1">
      <!-- 0.0 -->
      <g transform="translate(53.472074 332.638438)scale(0.1 -0.1)">
       <defs>
        <path id="DejaVuSans-30" d="M 2034 4250 
Q 1547 4250 1301 3770 
Q 1056 3291 1056 2328 
Q 1056 1369 1301 889 
Q 1547 409 2034 409 
Q 2525 409 2770 889 
Q 3016 1369 3016 2328 
Q 3016 3291 2770 3770 
Q 2525 4250 2034 4250 
z
M 2034 4750 
Q 2819 4750 3233 4129 
Q 3647 3509 3647 2328 
Q 3647 1150 3233 529 
Q 2819 -91 2034 -91 
Q 1250 -91 836 529 
Q 422 1150 422 2328 
Q 422 3509 836 4129 
Q 1250 4750 2034 4750 
z
" transform="scale(0.015625)"/>
        <path id="DejaVuSans-2e" d="M 684 794 
L 1344 794 
L 1344 0 
L 684 0 
L 684 794 
z
" transform="scale(0.015625)"/>
       </defs>
       <use xlink:href="#DejaVuSans-30"/>
       <use xlink:href="#DejaVuSans-2e" x="63.623047"/>
       <use xlink:href="#DejaVuSans-30" x="95.410156"/>
      </g>
     </g>
    </g>
    <g id="xtick_2">
     <g id="line2d_2">
      <g>
       <use xlink:href="#me3fa63b694" x="116.238182" y="318.04" style="stroke: #000000; stroke-width: 0.8"/>
      </g>
     </g>
     <g id="text_2">
      <!-- 0.2 -->
      <g transform="translate(108.286619 332.638438)scale(0.1 -0.1)">
       <defs>
        <path id="DejaVuSans-32" d="M 1228 531 
L 3431 531 
L 3431 0 
L 469 0 
L 469 531 
Q 828 903 1448 1529 
Q 2069 2156 2228 2338 
Q 2531 2678 2651 2914 
Q 2772 3150 2772 3378 
Q 2772 3750 2511 3984 
Q 2250 4219 1831 4219 
Q 1534 4219 1204 4116 
Q 875 4013 500 3803 
L 500 4441 
Q 881 4594 1212 4672 
Q 1544 4750 1819 4750 
Q 2544 4750 2975 4387 
Q 3406 4025 3406 3419 
Q 3406 3131 3298 2873 
Q 3191 2616 2906 2266 
Q 2828 2175 2409 1742 
Q 1991 1309 1228 531 
z
" transform="scale(0.015625)"/>
       </defs>
       <use xlink:href="#DejaVuSans-30"/>
       <use xlink:href="#DejaVuSans-2e" x="63.623047"/>
       <use xlink:href="#DejaVuSans-32" x="95.410156"/>
      </g>
     </g>
    </g>
    <g id="xtick_3">
     <g id="line2d_3">
      <g>
       <use xlink:href="#me3fa63b694" x="171.052727" y="318.04" style="stroke: #000000; stroke-width: 0.8"/>
      </g>
     </g>
     <g id="text_3">
      <!-- 0.4 -->
      <g transform="translate(163.101165 332.638438)scale(0.1 -0.1)">
       <defs>
        <path id="DejaVuSans-34" d="M 2419 4116 
L 825 1625 
L 2419 1625 
L 2419 4116 
z
M 2253 4666 
L 3047 4666 
L 3047 1625 
L 3713 1625 
L 3713 1100 
L 3047 1100 
L 3047 0 
L 2419 0 
L 2419 1100 
L 313 1100 
L 313 1709 
L 2253 4666 
z
" transform="scale(0.015625)"/>
       </defs>
       <use xlink:href="#DejaVuSans-30"/>
       <use xlink:href="#DejaVuSans-2e" x="63.623047"/>
       <use xlink:href="#DejaVuSans-34" x="95.410156"/>
      </g>
     </g>
    </g>
    <g id="xtick_4">
     <g id="line2d_4">
      <g>
       <use xlink:href="#me3fa63b694" x="225.867273" y="318.04" style="stroke: #000000; stroke-width: 0.8"/>
      </g>
     </g>
     <g id="text_4">
      <!-- 0.6 -->
      <g transform="translate(217.91571 332.638438)scale(0.1 -0.1)">
       <defs>
        <path id="DejaVuSans-36" d="M 2113 2584 
Q 1688 2584 1439 2293 
Q 1191 2003 1191 1497 
Q 1191 994 1439 701 
Q 1688 409 2113 409 
Q 2538 409 2786 701 
Q 3034 994 3034 1497 
Q 3034 2003 2786 2293 
Q 2538 2584 2113 2584 
z
M 3366 4563 
L 3366 3988 
Q 3128 4100 2886 4159 
Q 2644 4219 2406 4219 
Q 1781 4219 1451 3797 
Q 1122 3375 1075 2522 
Q 1259 2794 1537 2939 
Q 1816 3084 2150 3084 
Q 2853 3084 3261 2657 
Q 3669 2231 3669 1497 
Q 3669 778 3244 343 
Q 2819 -91 2113 -91 
Q 1303 -91 875 529 
Q 447 1150 447 2328 
Q 447 3434 972 4092 
Q 1497 4750 2381 4750 
Q 2619 4750 2861 4703 
Q 3103 4656 3366 4563 
z
" transform="scale(0.015625)"/>
       </defs>
       <use xlink:href="#DejaVuSans-30"/>
       <use xlink:href="#DejaVuSans-2e" x="63.623047"/>
       <use xlink:href="#DejaVuSans-36" x="95.410156"/>
      </g>
     </g>
    </g>
    <g id="xtick_5">
     <g id="line2d_5">
      <g>
       <use xlink:href="#me3fa63b694" x="280.681818" y="318.04" style="stroke: #000000; stroke-width: 0.8"/>
      </g>
     </g>
     <g id="text_5">
      <!-- 0.8 -->
      <g transform="translate(272.730256 332.638438)scale(0.1 -0.1)">
       <defs>
        <path id="DejaVuSans-38" d="M 2034 2216 
Q 1584 2216 1326 1975 
Q 1069 1734 1069 1313 
Q 1069 891 1326 650 
Q 1584 409 2034 409 
Q 2484 409 2743 651 
Q 3003 894 3003 1313 
Q 3003 1734 2745 1975 
Q 2488 2216 2034 2216 
z
M 1403 2484 
Q 997 2584 770 2862 
Q 544 3141 544 3541 
Q 544 4100 942 4425 
Q 1341 4750 2034 4750 
Q 2731 4750 3128 4425 
Q 3525 4100 3525 3541 
Q 3525 3141 3298 2862 
Q 3072 2584 2669 2484 
Q 3125 2378 3379 2068 
Q 3634 1759 3634 1313 
Q 3634 634 3220 271 
Q 2806 -91 2034 -91 
Q 1263 -91 848 271 
Q 434 634 434 1313 
Q 434 1759 690 2068 
Q 947 2378 1403 2484 
z
M 1172 3481 
Q 1172 3119 1398 2916 
Q 1625 2713 2034 2713 
Q 2441 2713 2670 2916 
Q 2900 3119 2900 3481 
Q 2900 3844 2670 4047 
Q 2441 4250 2034 4250 
Q 1625 4250 1398 4047 
Q 1172 3844 1172 3481 
z
" transform="scale(0.015625)"/>
       </defs>
       <use xlink:href="#DejaVuSans-30"/>
       <use xlink:href="#DejaVuSans-2e" x="63.623047"/>
       <use xlink:href="#DejaVuSans-38" x="95.410156"/>
      </g>
     </g>
    </g>
    <g id="xtick_6">
     <g id="line2d_6">
      <g>
       <use xlink:href="#me3fa63b694" x="335.496364" y="318.04" style="stroke: #000000; stroke-width: 0.8"/>
      </g>
     </g>
     <g id="text_6">
      <!-- 1.0 -->
      <g transform="translate(327.544801 332.638438)scale(0.1 -0.1)">
       <defs>
        <path id="DejaVuSans-31" d="M 794 531 
L 1825 531 
L 1825 4091 
L 703 3866 
L 703 4441 
L 1819 4666 
L 2450 4666 
L 2450 531 
L 3481 531 
L 3481 0 
L 794 0 
L 794 531 
z
" transform="scale(0.015625)"/>
       </defs>
       <use xlink:href="#DejaVuSans-31"/>
       <use xlink:href="#DejaVuSans-2e" x="63.623047"/>
       <use xlink:href="#DejaVuSans-30" x="95.410156"/>
      </g>
     </g>
    </g>
    <g id="text_7">
     <!-- 1-specificity -->
     <g transform="translate(168.274062 346.316563)scale(0.1 -0.1)">
      <defs>
       <path id="DejaVuSans-2d" d="M 313 2009 
L 1997 2009 
L 1997 1497 
L 313 1497 
L 313 2009 
z
" transform="scale(0.015625)"/>
       <path id="DejaVuSans-73" d="M 2834 3397 
L 2834 2853 
Q 2591 2978 2328 3040 
Q 2066 3103 1784 3103 
Q 1356 3103 1142 2972 
Q 928 2841 928 2578 
Q 928 2378 1081 2264 
Q 1234 2150 1697 2047 
L 1894 2003 
Q 2506 1872 2764 1633 
Q 3022 1394 3022 966 
Q 3022 478 2636 193 
Q 2250 -91 1575 -91 
Q 1294 -91 989 -36 
Q 684 19 347 128 
L 347 722 
Q 666 556 975 473 
Q 1284 391 1588 391 
Q 1994 391 2212 530 
Q 2431 669 2431 922 
Q 2431 1156 2273 1281 
Q 2116 1406 1581 1522 
L 1381 1569 
Q 847 1681 609 1914 
Q 372 2147 372 2553 
Q 372 3047 722 3315 
Q 1072 3584 1716 3584 
Q 2034 3584 2315 3537 
Q 2597 3491 2834 3397 
z
" transform="scale(0.015625)"/>
       <path id="DejaVuSans-70" d="M 1159 525 
L 1159 -1331 
L 581 -1331 
L 581 3500 
L 1159 3500 
L 1159 2969 
Q 1341 3281 1617 3432 
Q 1894 3584 2278 3584 
Q 2916 3584 3314 3078 
Q 3713 2572 3713 1747 
Q 3713 922 3314 415 
Q 2916 -91 2278 -91 
Q 1894 -91 1617 61 
Q 1341 213 1159 525 
z
M 3116 1747 
Q 3116 2381 2855 2742 
Q 2594 3103 2138 3103 
Q 1681 3103 1420 2742 
Q 1159 2381 1159 1747 
Q 1159 1113 1420 752 
Q 1681 391 2138 391 
Q 2594 391 2855 752 
Q 3116 1113 3116 1747 
z
" transform="scale(0.015625)"/>
       <path id="DejaVuSans-65" d="M 3597 1894 
L 3597 1613 
L 953 1613 
Q 991 1019 1311 708 
Q 1631 397 2203 397 
Q 2534 397 2845 478 
Q 3156 559 3463 722 
L 3463 178 
Q 3153 47 2828 -22 
Q 2503 -91 2169 -91 
Q 1331 -91 842 396 
Q 353 884 353 1716 
Q 353 2575 817 3079 
Q 1281 3584 2069 3584 
Q 2775 3584 3186 3129 
Q 3597 2675 3597 1894 
z
M 3022 2063 
Q 3016 2534 2758 2815 
Q 2500 3097 2075 3097 
Q 1594 3097 1305 2825 
Q 1016 2553 972 2059 
L 3022 2063 
z
" transform="scale(0.015625)"/>
       <path id="DejaVuSans-63" d="M 3122 3366 
L 3122 2828 
Q 2878 2963 2633 3030 
Q 2388 3097 2138 3097 
Q 1578 3097 1268 2742 
Q 959 2388 959 1747 
Q 959 1106 1268 751 
Q 1578 397 2138 397 
Q 2388 397 2633 464 
Q 2878 531 3122 666 
L 3122 134 
Q 2881 22 2623 -34 
Q 2366 -91 2075 -91 
Q 1284 -91 818 406 
Q 353 903 353 1747 
Q 353 2603 823 3093 
Q 1294 3584 2113 3584 
Q 2378 3584 2631 3529 
Q 2884 3475 3122 3366 
z
" transform="scale(0.015625)"/>
       <path id="DejaVuSans-69" d="M 603 3500 
L 1178 3500 
L 1178 0 
L 603 0 
L 603 3500 
z
M 603 4863 
L 1178 4863 
L 1178 4134 
L 603 4134 
L 603 4863 
z
" transform="scale(0.015625)"/>
       <path id="DejaVuSans-66" d="M 2375 4863 
L 2375 4384 
L 1825 4384 
Q 1516 4384 1395 4259 
Q 1275 4134 1275 3809 
L 1275 3500 
L 2222 3500 
L 2222 3053 
L 1275 3053 
L 1275 0 
L 697 0 
L 697 3053 
L 147 3053 
L 147 3500 
L 697 3500 
L 697 3744 
Q 697 4328 969 4595 
Q 1241 4863 1831 4863 
L 2375 4863 
z
" transform="scale(0.015625)"/>
       <path id="DejaVuSans-74" d="M 1172 4494 
L 1172 3500 
L 2356 3500 
L 2356 3053 
L 1172 3053 
L 1172 1153 
Q 1172 725 1289 603 
Q 1406 481 1766 481 
L 2356 481 
L 2356 0 
L 1766 0 
Q 1100 0 847 248 
Q 594 497 594 1153 
L 594 3053 
L 172 3053 
L 172 3500 
L 594 3500 
L 594 4494 
L 1172 4494 
z
" transform="scale(0.015625)"/>
       <path id="DejaVuSans-79" d="M 2059 -325 
Q 1816 -950 1584 -1140 
Q 1353 -1331 966 -1331 
L 506 -1331 
L 506 -850 
L 844 -850 
Q 1081 -850 1212 -737 
Q 1344 -625 1503 -206 
L 1606 56 
L 191 3500 
L 800 3500 
L 1894 763 
L 2988 3500 
L 3597 3500 
L 2059 -325 
z
" transform="scale(0.015625)"/>
      </defs>
      <use xlink:href="#DejaVuSans-31"/>
      <use xlink:href="#DejaVuSans-2d" x="63.623047"/>
      <use xlink:href="#DejaVuSans-73" x="99.707031"/>
      <use xlink:href="#DejaVuSans-70" x="151.806641"/>
      <use xlink:href="#DejaVuSans-65" x="215.283203"/>
      <use xlink:href="#DejaVuSans-63" x="276.806641"/>
      <use xlink:href="#DejaVuSans-69" x="331.787109"/>
      <use xlink:href="#DejaVuSans-66" x="359.570312"/>
      <use xlink:href="#DejaVuSans-69" x="394.775391"/>
      <use xlink:href="#DejaVuSans-63" x="422.558594"/>
      <use xlink:href="#DejaVuSans-69" x="477.539062"/>
      <use xlink:href="#DejaVuSans-74" x="505.322266"/>
      <use xlink:href="#DejaVuSans-79" x="544.53125"/>
     </g>
    </g>
   </g>
   <g id="matplotlib.axis_2">
    <g id="ytick_1">
     <g id="line2d_7">
      <defs>
       <path id="m49f92d32c9" d="M 0 0 
L -3.5 0 
" style="stroke: #000000; stroke-width: 0.8"/>
      </defs>
      <g>
       <use xlink:href="#m49f92d32c9" x="47.72" y="304.074545" style="stroke: #000000; stroke-width: 0.8"/>
      </g>
     </g>
     <g id="text_8">
      <!-- 0.0 -->
      <g transform="translate(24.816875 307.873764)scale(0.1 -0.1)">
       <use xlink:href="#DejaVuSans-30"/>
       <use xlink:href="#DejaVuSans-2e" x="63.623047"/>
       <use xlink:href="#DejaVuSans-30" x="95.410156"/>
      </g>
     </g>
    </g>
    <g id="ytick_2">
     <g id="line2d_8">
      <g>
       <use xlink:href="#m49f92d32c9" x="47.72" y="248.212727" style="stroke: #000000; stroke-width: 0.8"/>
      </g>
     </g>
     <g id="text_9">
      <!-- 0.2 -->
      <g transform="translate(24.816875 252.011946)scale(0.1 -0.1)">
       <use xlink:href="#DejaVuSans-30"/>
       <use xlink:href="#DejaVuSans-2e" x="63.623047"/>
       <use xlink:href="#DejaVuSans-32" x="95.410156"/>
      </g>
     </g>
    </g>
    <g id="ytick_3">
     <g id="line2d_9">
      <g>
       <use xlink:href="#m49f92d32c9" x="47.72" y="192.350909" style="stroke: #000000; stroke-width: 0.8"/>
      </g>
     </g>
     <g id="text_10">
      <!-- 0.4 -->
      <g transform="translate(24.816875 196.150128)scale(0.1 -0.1)">
       <use xlink:href="#DejaVuSans-30"/>
       <use xlink:href="#DejaVuSans-2e" x="63.623047"/>
       <use xlink:href="#DejaVuSans-34" x="95.410156"/>
      </g>
     </g>
    </g>
    <g id="ytick_4">
     <g id="line2d_10">
      <g>
       <use xlink:href="#m49f92d32c9" x="47.72" y="136.489091" style="stroke: #000000; stroke-width: 0.8"/>
      </g>
     </g>
     <g id="text_11">
      <!-- 0.6 -->
      <g transform="translate(24.816875 140.28831)scale(0.1 -0.1)">
       <use xlink:href="#DejaVuSans-30"/>
       <use xlink:href="#DejaVuSans-2e" x="63.623047"/>
       <use xlink:href="#DejaVuSans-36" x="95.410156"/>
      </g>
     </g>
    </g>
    <g id="ytick_5">
     <g id="line2d_11">
      <g>
       <use xlink:href="#m49f92d32c9" x="47.72" y="80.627273" style="stroke: #000000; stroke-width: 0.8"/>
      </g>
     </g>
     <g id="text_12">
      <!-- 0.8 -->
      <g transform="translate(24.816875 84.426491)scale(0.1 -0.1)">
       <use xlink:href="#DejaVuSans-30"/>
       <use xlink:href="#DejaVuSans-2e" x="63.623047"/>
       <use xlink:href="#DejaVuSans-38" x="95.410156"/>
      </g>
     </g>
    </g>
    <g id="ytick_6">
     <g id="line2d_12">
      <g>
       <use xlink:href="#m49f92d32c9" x="47.72" y="24.765455" style="stroke: #000000; stroke-width: 0.8"/>
      </g>
     </g>
     <g id="text_13">
      <!-- 1.0 -->
      <g transform="translate(24.816875 28.564673)scale(0.1 -0.1)">
       <use xlink:href="#DejaVuSans-31"/>
       <use xlink:href="#DejaVuSans-2e" x="63.623047"/>
       <use xlink:href="#DejaVuSans-30" x="95.410156"/>
      </g>
     </g>
    </g>
    <g id="text_14">
     <!-- Sensitivity -->
     <g transform="translate(18.737188 190.450469)rotate(-90)scale(0.1 -0.1)">
      <defs>
       <path id="DejaVuSans-53" d="M 3425 4513 
L 3425 3897 
Q 3066 4069 2747 4153 
Q 2428 4238 2131 4238 
Q 1616 4238 1336 4038 
Q 1056 3838 1056 3469 
Q 1056 3159 1242 3001 
Q 1428 2844 1947 2747 
L 2328 2669 
Q 3034 2534 3370 2195 
Q 3706 1856 3706 1288 
Q 3706 609 3251 259 
Q 2797 -91 1919 -91 
Q 1588 -91 1214 -16 
Q 841 59 441 206 
L 441 856 
Q 825 641 1194 531 
Q 1563 422 1919 422 
Q 2459 422 2753 634 
Q 3047 847 3047 1241 
Q 3047 1584 2836 1778 
Q 2625 1972 2144 2069 
L 1759 2144 
Q 1053 2284 737 2584 
Q 422 2884 422 3419 
Q 422 4038 858 4394 
Q 1294 4750 2059 4750 
Q 2388 4750 2728 4690 
Q 3069 4631 3425 4513 
z
" transform="scale(0.015625)"/>
       <path id="DejaVuSans-6e" d="M 3513 2113 
L 3513 0 
L 2938 0 
L 2938 2094 
Q 2938 2591 2744 2837 
Q 2550 3084 2163 3084 
Q 1697 3084 1428 2787 
Q 1159 2491 1159 1978 
L 1159 0 
L 581 0 
L 581 3500 
L 1159 3500 
L 1159 2956 
Q 1366 3272 1645 3428 
Q 1925 3584 2291 3584 
Q 2894 3584 3203 3211 
Q 3513 2838 3513 2113 
z
" transform="scale(0.015625)"/>
       <path id="DejaVuSans-76" d="M 191 3500 
L 800 3500 
L 1894 563 
L 2988 3500 
L 3597 3500 
L 2284 0 
L 1503 0 
L 191 3500 
z
" transform="scale(0.015625)"/>
      </defs>
      <use xlink:href="#DejaVuSans-53"/>
      <use xlink:href="#DejaVuSans-65" x="63.476562"/>
      <use xlink:href="#DejaVuSans-6e" x="125"/>
      <use xlink:href="#DejaVuSans-73" x="188.378906"/>
      <use xlink:href="#DejaVuSans-69" x="240.478516"/>
      <use xlink:href="#DejaVuSans-74" x="268.261719"/>
      <use xlink:href="#DejaVuSans-69" x="307.470703"/>
      <use xlink:href="#DejaVuSans-76" x="335.253906"/>
      <use xlink:href="#DejaVuSans-69" x="394.433594"/>
      <use xlink:href="#DejaVuSans-74" x="422.216797"/>
      <use xlink:href="#DejaVuSans-79" x="461.425781"/>
     </g>
    </g>
   </g>
   <g id="line2d_13">
    <path d="M 61.423636 304.074545 
L 64.192048 74.668679 
L 66.960459 74.668679 
L 69.728871 74.668679 
L 72.497282 74.668679 
L 75.265693 74.668679 
L 78.034105 74.668679 
L 80.802516 60.88943 
L 83.570927 51.951539 
L 86.339339 51.951539 
L 89.10775 51.951539 
L 91.876162 51.951539 
L 94.644573 51.951539 
L 97.412984 51.951539 
L 100.181396 49.717067 
L 102.949807 45.248121 
L 105.718219 45.248121 
L 108.48663 45.248121 
L 111.255041 45.248121 
L 114.023453 45.248121 
L 116.791864 40.59297 
L 119.560275 40.59297 
L 122.328687 40.59297 
L 125.097098 40.59297 
L 127.86551 40.59297 
L 130.633921 40.59297 
L 133.402332 40.59297 
L 136.170744 40.59297 
L 138.939155 40.59297 
L 141.707567 40.59297 
L 144.475978 40.59297 
L 147.244389 40.59297 
L 150.012801 40.59297 
L 152.781212 40.59297 
L 155.549624 40.59297 
L 158.318035 40.59297 
L 161.086446 33.889552 
L 163.854858 33.889552 
L 166.623269 33.889552 
L 169.39168 33.889552 
L 172.160092 29.327503 
L 174.928503 29.327503 
L 177.696915 29.327503 
L 180.465326 29.327503 
L 183.233737 29.327503 
L 186.002149 29.327503 
L 188.77056 29.327503 
L 191.538972 29.327503 
L 194.307383 29.327503 
L 197.075794 29.327503 
L 199.844206 27.09303 
L 202.612617 27.09303 
L 205.381028 27.09303 
L 208.14944 27.09303 
L 210.917851 27.09303 
L 213.686263 27.09303 
L 216.454674 27.09303 
L 219.223085 27.09303 
L 221.991497 27.09303 
L 224.759908 27.09303 
L 227.52832 27.09303 
L 230.296731 27.09303 
L 233.065142 27.09303 
L 235.833554 27.09303 
L 238.601965 27.09303 
L 241.370376 27.09303 
L 244.138788 27.09303 
L 246.907199 27.09303 
L 249.675611 27.09303 
L 252.444022 27.09303 
L 255.212433 27.09303 
L 257.980845 27.09303 
L 260.749256 27.09303 
L 263.517668 24.765455 
L 266.286079 24.765455 
L 269.05449 24.765455 
L 271.822902 24.765455 
L 274.591313 24.765455 
L 277.359725 24.765455 
L 280.128136 24.765455 
L 282.896547 24.765455 
L 285.664959 24.765455 
L 288.43337 24.765455 
L 291.201781 24.765455 
L 293.970193 24.765455 
L 296.738604 24.765455 
L 299.507016 24.765455 
L 302.275427 24.765455 
L 305.043838 24.765455 
L 307.81225 24.765455 
L 310.580661 24.765455 
L 313.349073 24.765455 
L 316.117484 24.765455 
L 318.885895 24.765455 
L 321.654307 24.765455 
L 324.422718 24.765455 
L 327.191129 24.765455 
L 329.959541 24.765455 
L 332.727952 24.765455 
L 335.496364 24.765455 
" clip-path="url(#pd84a2e714f)" style="fill: none; stroke: #3b4cc0; stroke-width: 1.5; stroke-linecap: square"/>
   </g>
   <g id="line2d_14">
    <path d="M 61.423636 304.074545 
L 64.192048 164.089907 
L 66.960459 158.173633 
L 69.728871 152.257359 
L 72.497282 146.341084 
L 75.265693 140.42481 
L 78.034105 134.508536 
L 80.802516 128.863106 
L 83.570927 123.623945 
L 86.339339 118.384783 
L 89.10775 113.145622 
L 91.876162 107.906461 
L 94.644573 102.667299 
L 97.412984 97.428138 
L 100.181396 95.085891 
L 102.949807 93.467873 
L 105.718219 91.849856 
L 108.48663 90.231838 
L 111.255041 88.61382 
L 114.023453 86.995802 
L 116.791864 85.377784 
L 119.560275 83.759767 
L 122.328687 82.017611 
L 125.097098 80.2416 
L 127.86551 78.46559 
L 130.633921 76.689579 
L 133.402332 74.913568 
L 136.170744 66.401694 
L 138.939155 65.037123 
L 141.707567 63.672553 
L 144.475978 62.307982 
L 147.244389 60.943411 
L 150.012801 59.578841 
L 152.781212 58.21427 
L 155.549624 56.849699 
L 158.318035 55.485129 
L 161.086446 54.344005 
L 163.854858 53.327019 
L 166.623269 52.310033 
L 169.39168 51.293047 
L 172.160092 50.417126 
L 174.928503 49.752803 
L 177.696915 49.08848 
L 180.465326 48.424157 
L 183.233737 47.759834 
L 186.002149 47.095511 
L 188.77056 46.431188 
L 191.538972 45.915077 
L 194.307383 45.43602 
L 197.075794 44.956963 
L 199.844206 44.477905 
L 202.612617 43.998848 
L 205.381028 43.51979 
L 208.14944 43.040733 
L 210.917851 42.561676 
L 213.686263 42.082618 
L 216.454674 41.603561 
L 219.223085 41.124503 
L 221.991497 40.645446 
L 224.759908 40.166389 
L 227.52832 39.740231 
L 230.296731 39.349339 
L 233.065142 38.958447 
L 235.833554 38.567556 
L 238.601965 38.176664 
L 241.370376 37.785772 
L 244.138788 37.394881 
L 246.907199 37.003989 
L 249.675611 36.613097 
L 252.444022 36.222206 
L 255.212433 35.831314 
L 257.980845 35.416347 
L 260.749256 34.941193 
L 263.517668 34.466038 
L 266.286079 33.990883 
L 269.05449 33.515729 
L 271.822902 33.040574 
L 274.591313 32.56542 
L 277.359725 32.090265 
L 280.128136 31.61511 
L 282.896547 31.139956 
L 285.664959 30.664801 
L 288.43337 30.189646 
L 291.201781 29.714492 
L 293.970193 29.239337 
L 296.738604 28.764183 
L 299.507016 28.341928 
L 302.275427 28.13127 
L 305.043838 27.920613 
L 307.81225 27.709955 
L 310.580661 27.499298 
L 313.349073 27.288641 
L 316.117484 27.09303 
L 318.885895 27.09303 
L 321.654307 27.09303 
L 324.422718 27.09303 
L 327.191129 27.09303 
L 329.959541 27.09303 
L 332.727952 27.09303 
L 335.496364 24.765455 
" clip-path="url(#pd84a2e714f)" style="fill: none; stroke: #7b9ff9; stroke-width: 1.5; stroke-linecap: square"/>
   </g>
   <g id="line2d_15">
    <path d="M 61.423636 304.074545 
L 64.192048 164.353699 
L 66.960459 160.097762 
L 69.728871 155.841825 
L 72.497282 151.585888 
L 75.265693 147.329951 
L 78.034105 143.074014 
L 80.802516 138.513376 
L 83.570927 134.278129 
L 86.339339 130.103069 
L 89.10775 125.92801 
L 91.876162 121.75295 
L 94.644573 117.577891 
L 97.412984 113.402831 
L 100.181396 111.351273 
L 102.949807 109.83059 
L 105.718219 108.309907 
L 108.48663 106.789224 
L 111.255041 105.268541 
L 114.023453 103.747859 
L 116.791864 102.227176 
L 119.560275 100.706493 
L 122.328687 99.18581 
L 125.097098 97.665127 
L 127.86551 96.144444 
L 130.633921 94.623762 
L 133.402332 93.103079 
L 136.170744 70.84158 
L 138.939155 69.666507 
L 141.707567 68.340964 
L 144.475978 66.955234 
L 147.244389 65.569503 
L 150.012801 64.183773 
L 152.781212 62.798042 
L 155.549624 61.261842 
L 158.318035 59.725642 
L 161.086446 58.189442 
L 163.854858 56.653242 
L 166.623269 55.117042 
L 169.39168 53.580842 
L 172.160092 52.340879 
L 174.928503 51.545272 
L 177.696915 50.749664 
L 180.465326 49.954056 
L 183.233737 49.158448 
L 186.002149 48.362841 
L 188.77056 47.567233 
L 191.538972 47.042471 
L 194.307383 46.585419 
L 197.075794 46.128368 
L 199.844206 45.671317 
L 202.612617 45.214266 
L 205.381028 44.757214 
L 208.14944 44.300163 
L 210.917851 43.843112 
L 213.686263 43.386061 
L 216.454674 42.929009 
L 219.223085 42.471958 
L 221.991497 42.014907 
L 224.759908 41.557856 
L 227.52832 41.100804 
L 230.296731 40.643753 
L 233.065142 40.186702 
L 235.833554 39.729651 
L 238.601965 39.310217 
L 241.370376 38.958494 
L 244.138788 38.606772 
L 246.907199 38.255049 
L 249.675611 37.903327 
L 252.444022 37.551604 
L 255.212433 37.199881 
L 257.980845 36.848159 
L 260.749256 36.496436 
L 263.517668 36.20114 
L 266.286079 35.990483 
L 269.05449 35.779825 
L 271.822902 35.569168 
L 274.591313 35.35851 
L 277.359725 35.147853 
L 280.128136 34.937196 
L 282.896547 34.726538 
L 285.664959 34.515881 
L 288.43337 34.305224 
L 291.201781 34.094566 
L 293.970193 33.883909 
L 296.738604 33.522782 
L 299.507016 32.258838 
L 302.275427 30.994894 
L 305.043838 29.730949 
L 307.81225 28.467005 
L 310.580661 27.203061 
L 313.349073 25.939117 
L 316.117484 24.765455 
L 318.885895 24.765455 
L 321.654307 24.765455 
L 324.422718 24.765455 
L 327.191129 24.765455 
L 329.959541 24.765455 
L 332.727952 24.765455 
L 335.496364 24.765455 
" clip-path="url(#pd84a2e714f)" style="fill: none; stroke: #c0d4f5; stroke-width: 1.5; stroke-linecap: square"/>
   </g>
   <g id="line2d_16">
    <path d="M 61.423636 304.074545 
L 64.192048 290.902903 
L 66.960459 277.731261 
L 69.728871 264.559619 
L 72.497282 251.387977 
L 75.265693 238.216334 
L 78.034105 225.044692 
L 80.802516 212.617874 
L 83.570927 206.894474 
L 86.339339 201.171075 
L 89.10775 195.447675 
L 91.876162 189.724275 
L 94.644573 184.000875 
L 97.412984 178.277476 
L 100.181396 172.824921 
L 102.949807 161.210639 
L 105.718219 158.985656 
L 108.48663 156.760673 
L 111.255041 154.53569 
L 114.023453 152.310707 
L 116.791864 143.269454 
L 119.560275 140.48021 
L 122.328687 137.690966 
L 125.097098 134.901723 
L 127.86551 132.112479 
L 130.633921 129.323235 
L 133.402332 126.533992 
L 136.170744 103.837627 
L 138.939155 101.38694 
L 141.707567 98.936253 
L 144.475978 96.485566 
L 147.244389 94.034879 
L 150.012801 91.584191 
L 152.781212 82.24388 
L 155.549624 81.34491 
L 158.318035 80.44594 
L 161.086446 77.312497 
L 163.854858 76.413527 
L 166.623269 75.514557 
L 169.39168 74.615587 
L 172.160092 73.648906 
L 174.928503 72.580657 
L 177.696915 71.512409 
L 180.465326 70.444161 
L 183.233737 69.375913 
L 186.002149 68.307664 
L 188.77056 67.239416 
L 191.538972 66.171168 
L 194.307383 65.10292 
L 197.075794 64.034671 
L 199.844206 62.966423 
L 202.612617 61.898175 
L 205.381028 60.829926 
L 208.14944 59.761678 
L 210.917851 58.69343 
L 213.686263 57.625182 
L 216.454674 56.556933 
L 219.223085 55.488685 
L 221.991497 54.420437 
L 224.759908 53.352189 
L 227.52832 52.28394 
L 230.296731 51.215692 
L 233.065142 50.147444 
L 235.833554 49.079195 
L 238.601965 48.010947 
L 241.370376 46.942699 
L 244.138788 45.874451 
L 246.907199 44.806202 
L 249.675611 43.737954 
L 252.444022 42.669706 
L 255.212433 41.601458 
L 257.980845 40.533209 
L 260.749256 39.464961 
L 263.517668 36.338443 
L 266.286079 35.943461 
L 269.05449 35.548478 
L 271.822902 35.153496 
L 274.591313 34.758513 
L 277.359725 34.363531 
L 280.128136 33.968548 
L 282.896547 33.708988 
L 285.664959 33.483284 
L 288.43337 33.257579 
L 291.201781 33.031875 
L 293.970193 32.806171 
L 296.738604 32.580466 
L 299.507016 32.28423 
L 302.275427 31.705862 
L 305.043838 31.127495 
L 307.81225 30.549128 
L 310.580661 29.97076 
L 313.349073 29.392393 
L 316.117484 28.814026 
L 318.885895 28.235658 
L 321.654307 27.657291 
L 324.422718 27.078924 
L 327.191129 26.500556 
L 329.959541 25.922189 
L 332.727952 25.343822 
L 335.496364 24.765455 
" clip-path="url(#pd84a2e714f)" style="fill: none; stroke: #f2cbb7; stroke-width: 1.5; stroke-linecap: square"/>
   </g>
   <g id="line2d_17">
    <path d="M 61.423636 304.074545 
L 64.192048 125.037418 
L 66.960459 125.037418 
L 69.728871 125.037418 
L 72.497282 125.037418 
L 75.265693 125.037418 
L 78.034105 125.037418 
L 80.802516 95.709964 
L 83.570927 95.709964 
L 86.339339 95.709964 
L 89.10775 95.709964 
L 91.876162 95.709964 
L 94.644573 95.709964 
L 97.412984 95.709964 
L 100.181396 67.872158 
L 102.949807 67.872158 
L 105.718219 67.872158 
L 108.48663 67.872158 
L 111.255041 67.872158 
L 114.023453 67.872158 
L 116.791864 56.699794 
L 119.560275 56.699794 
L 122.328687 54.465321 
L 125.097098 54.465321 
L 127.86551 54.465321 
L 130.633921 54.465321 
L 133.402332 54.465321 
L 136.170744 52.137745 
L 138.939155 52.137745 
L 141.707567 52.137745 
L 144.475978 52.137745 
L 147.244389 52.137745 
L 150.012801 52.137745 
L 152.781212 47.6688 
L 155.549624 47.6688 
L 158.318035 47.6688 
L 161.086446 47.6688 
L 163.854858 47.6688 
L 166.623269 47.6688 
L 169.39168 47.6688 
L 172.160092 47.6688 
L 174.928503 47.6688 
L 177.696915 47.6688 
L 180.465326 45.434327 
L 183.233737 45.434327 
L 186.002149 45.434327 
L 188.77056 45.434327 
L 191.538972 38.4516 
L 194.307383 38.4516 
L 197.075794 38.4516 
L 199.844206 38.4516 
L 202.612617 38.4516 
L 205.381028 38.4516 
L 208.14944 36.124024 
L 210.917851 36.124024 
L 213.686263 36.124024 
L 216.454674 36.124024 
L 219.223085 36.124024 
L 221.991497 36.124024 
L 224.759908 36.124024 
L 227.52832 33.796448 
L 230.296731 33.796448 
L 233.065142 33.796448 
L 235.833554 33.796448 
L 238.601965 31.561976 
L 241.370376 31.561976 
L 244.138788 31.561976 
L 246.907199 31.561976 
L 249.675611 31.561976 
L 252.444022 31.561976 
L 255.212433 31.561976 
L 257.980845 31.561976 
L 260.749256 31.561976 
L 263.517668 31.561976 
L 266.286079 31.561976 
L 269.05449 31.561976 
L 271.822902 31.561976 
L 274.591313 31.561976 
L 277.359725 31.561976 
L 280.128136 31.561976 
L 282.896547 29.2344 
L 285.664959 29.2344 
L 288.43337 29.2344 
L 291.201781 29.2344 
L 293.970193 29.2344 
L 296.738604 26.999927 
L 299.507016 26.999927 
L 302.275427 26.999927 
L 305.043838 26.999927 
L 307.81225 26.999927 
L 310.580661 26.999927 
L 313.349073 26.999927 
L 316.117484 24.765455 
L 318.885895 24.765455 
L 321.654307 24.765455 
L 324.422718 24.765455 
L 327.191129 24.765455 
L 329.959541 24.765455 
L 332.727952 24.765455 
L 335.496364 24.765455 
" clip-path="url(#pd84a2e714f)" style="fill: none; stroke: #ee8468; stroke-width: 1.5; stroke-linecap: square"/>
   </g>
   <g id="line2d_18">
    <path d="M 61.423636 304.074545 
L 64.192048 27.036258 
L 66.960459 27.036258 
L 69.728871 27.036258 
L 72.497282 27.036258 
L 75.265693 27.036258 
L 78.034105 27.036258 
L 80.802516 27.036258 
L 83.570927 24.765455 
L 86.339339 24.765455 
L 89.10775 24.765455 
L 91.876162 24.765455 
L 94.644573 24.765455 
L 97.412984 24.765455 
L 100.181396 24.765455 
L 102.949807 24.765455 
L 105.718219 24.765455 
L 108.48663 24.765455 
L 111.255041 24.765455 
L 114.023453 24.765455 
L 116.791864 24.765455 
L 119.560275 24.765455 
L 122.328687 24.765455 
L 125.097098 24.765455 
L 127.86551 24.765455 
L 130.633921 24.765455 
L 133.402332 24.765455 
L 136.170744 24.765455 
L 138.939155 24.765455 
L 141.707567 24.765455 
L 144.475978 24.765455 
L 147.244389 24.765455 
L 150.012801 24.765455 
L 152.781212 24.765455 
L 155.549624 24.765455 
L 158.318035 24.765455 
L 161.086446 24.765455 
L 163.854858 24.765455 
L 166.623269 24.765455 
L 169.39168 24.765455 
L 172.160092 24.765455 
L 174.928503 24.765455 
L 177.696915 24.765455 
L 180.465326 24.765455 
L 183.233737 24.765455 
L 186.002149 24.765455 
L 188.77056 24.765455 
L 191.538972 24.765455 
L 194.307383 24.765455 
L 197.075794 24.765455 
L 199.844206 24.765455 
L 202.612617 24.765455 
L 205.381028 24.765455 
L 208.14944 24.765455 
L 210.917851 24.765455 
L 213.686263 24.765455 
L 216.454674 24.765455 
L 219.223085 24.765455 
L 221.991497 24.765455 
L 224.759908 24.765455 
L 227.52832 24.765455 
L 230.296731 24.765455 
L 233.065142 24.765455 
L 235.833554 24.765455 
L 238.601965 24.765455 
L 241.370376 24.765455 
L 244.138788 24.765455 
L 246.907199 24.765455 
L 249.675611 24.765455 
L 252.444022 24.765455 
L 255.212433 24.765455 
L 257.980845 24.765455 
L 260.749256 24.765455 
L 263.517668 24.765455 
L 266.286079 24.765455 
L 269.05449 24.765455 
L 271.822902 24.765455 
L 274.591313 24.765455 
L 277.359725 24.765455 
L 280.128136 24.765455 
L 282.896547 24.765455 
L 285.664959 24.765455 
L 288.43337 24.765455 
L 291.201781 24.765455 
L 293.970193 24.765455 
L 296.738604 24.765455 
L 299.507016 24.765455 
L 302.275427 24.765455 
L 305.043838 24.765455 
L 307.81225 24.765455 
L 310.580661 24.765455 
L 313.349073 24.765455 
L 316.117484 24.765455 
L 318.885895 24.765455 
L 321.654307 24.765455 
L 324.422718 24.765455 
L 327.191129 24.765455 
L 329.959541 24.765455 
L 332.727952 24.765455 
L 335.496364 24.765455 
" clip-path="url(#pd84a2e714f)" style="fill: none; stroke: #b40426; stroke-opacity: 0.8; stroke-width: 1.5; stroke-linecap: square"/>
   </g>
   <g id="line2d_19">
    <path d="M 61.423636 304.074545 
L 64.192048 301.253242 
L 66.960459 298.431938 
L 69.728871 295.610634 
L 72.497282 292.78933 
L 75.265693 289.968026 
L 78.034105 287.146722 
L 80.802516 284.325418 
L 83.570927 281.504114 
L 86.339339 278.68281 
L 89.10775 275.861506 
L 91.876162 273.040202 
L 94.644573 270.218898 
L 97.412984 267.397594 
L 100.181396 264.57629 
L 102.949807 261.754986 
L 105.718219 258.933682 
L 108.48663 256.112378 
L 111.255041 253.291074 
L 114.023453 250.46977 
L 116.791864 247.648466 
L 119.560275 244.827163 
L 122.328687 242.005859 
L 125.097098 239.184555 
L 127.86551 236.363251 
L 130.633921 233.541947 
L 133.402332 230.720643 
L 136.170744 227.899339 
L 138.939155 225.078035 
L 141.707567 222.256731 
L 144.475978 219.435427 
L 147.244389 216.614123 
L 150.012801 213.792819 
L 152.781212 210.971515 
L 155.549624 208.150211 
L 158.318035 205.328907 
L 161.086446 202.507603 
L 163.854858 199.686299 
L 166.623269 196.864995 
L 169.39168 194.043691 
L 172.160092 191.222388 
L 174.928503 188.401084 
L 177.696915 185.57978 
L 180.465326 182.758476 
L 183.233737 179.937172 
L 186.002149 177.115868 
L 188.77056 174.294564 
L 191.538972 171.47326 
L 194.307383 168.651956 
L 197.075794 165.830652 
L 199.844206 163.009348 
L 202.612617 160.188044 
L 205.381028 157.36674 
L 208.14944 154.545436 
L 210.917851 151.724132 
L 213.686263 148.902828 
L 216.454674 146.081524 
L 219.223085 143.26022 
L 221.991497 140.438916 
L 224.759908 137.617612 
L 227.52832 134.796309 
L 230.296731 131.975005 
L 233.065142 129.153701 
L 235.833554 126.332397 
L 238.601965 123.511093 
L 241.370376 120.689789 
L 244.138788 117.868485 
L 246.907199 115.047181 
L 249.675611 112.225877 
L 252.444022 109.404573 
L 255.212433 106.583269 
L 257.980845 103.761965 
L 260.749256 100.940661 
L 263.517668 98.119357 
L 266.286079 95.298053 
L 269.05449 92.476749 
L 271.822902 89.655445 
L 274.591313 86.834141 
L 277.359725 84.012837 
L 280.128136 81.191534 
L 282.896547 78.37023 
L 285.664959 75.548926 
L 288.43337 72.727622 
L 291.201781 69.906318 
L 293.970193 67.085014 
L 296.738604 64.26371 
L 299.507016 61.442406 
L 302.275427 58.621102 
L 305.043838 55.799798 
L 307.81225 52.978494 
L 310.580661 50.15719 
L 313.349073 47.335886 
L 316.117484 44.514582 
L 318.885895 41.693278 
L 321.654307 38.871974 
L 324.422718 36.05067 
L 327.191129 33.229366 
L 329.959541 30.408062 
L 332.727952 27.586758 
L 335.496364 24.765455 
" clip-path="url(#pd84a2e714f)" style="fill: none; stroke-dasharray: 9,3; stroke-dashoffset: 0; stroke: #808080; stroke-opacity: 0.5; stroke-width: 1.5"/>
   </g>
   <g id="patch_3">
    <path d="M 47.72 318.04 
L 47.72 10.8 
" style="fill: none; stroke: #000000; stroke-width: 0.8; stroke-linejoin: miter; stroke-linecap: square"/>
   </g>
   <g id="patch_4">
    <path d="M 47.72 318.04 
L 349.2 318.04 
" style="fill: none; stroke: #000000; stroke-width: 0.8; stroke-linejoin: miter; stroke-linecap: square"/>
   </g>
   <g id="legend_1">
    <g id="text_15">
     <!-- AUC -->
     <g transform="translate(221.324219 204.213438)scale(0.1 -0.1)">
      <defs>
       <path id="DejaVuSans-41" d="M 2188 4044 
L 1331 1722 
L 3047 1722 
L 2188 4044 
z
M 1831 4666 
L 2547 4666 
L 4325 0 
L 3669 0 
L 3244 1197 
L 1141 1197 
L 716 0 
L 50 0 
L 1831 4666 
z
" transform="scale(0.015625)"/>
       <path id="DejaVuSans-55" d="M 556 4666 
L 1191 4666 
L 1191 1831 
Q 1191 1081 1462 751 
Q 1734 422 2344 422 
Q 2950 422 3222 751 
Q 3494 1081 3494 1831 
L 3494 4666 
L 4128 4666 
L 4128 1753 
Q 4128 841 3676 375 
Q 3225 -91 2344 -91 
Q 1459 -91 1007 375 
Q 556 841 556 1753 
L 556 4666 
z
" transform="scale(0.015625)"/>
       <path id="DejaVuSans-43" d="M 4122 4306 
L 4122 3641 
Q 3803 3938 3442 4084 
Q 3081 4231 2675 4231 
Q 1875 4231 1450 3742 
Q 1025 3253 1025 2328 
Q 1025 1406 1450 917 
Q 1875 428 2675 428 
Q 3081 428 3442 575 
Q 3803 722 4122 1019 
L 4122 359 
Q 3791 134 3420 21 
Q 3050 -91 2638 -91 
Q 1578 -91 968 557 
Q 359 1206 359 2328 
Q 359 3453 968 4101 
Q 1578 4750 2638 4750 
Q 3056 4750 3426 4639 
Q 3797 4528 4122 4306 
z
" transform="scale(0.015625)"/>
      </defs>
      <use xlink:href="#DejaVuSans-41"/>
      <use xlink:href="#DejaVuSans-55" x="68.408203"/>
      <use xlink:href="#DejaVuSans-43" x="141.601562"/>
     </g>
    </g>
    <g id="line2d_20">
     <path d="M 123.590625 215.391563 
L 133.590625 215.391563 
L 143.590625 215.391563 
" style="fill: none; stroke: #3b4cc0; stroke-width: 1.5; stroke-linecap: square"/>
    </g>
    <g id="text_16">
     <!-- Support Vector Machine: 0.96   0.03 -->
     <g transform="translate(151.590625 218.891563)scale(0.1 -0.1)">
      <defs>
       <path id="DejaVuSans-75" d="M 544 1381 
L 544 3500 
L 1119 3500 
L 1119 1403 
Q 1119 906 1312 657 
Q 1506 409 1894 409 
Q 2359 409 2629 706 
Q 2900 1003 2900 1516 
L 2900 3500 
L 3475 3500 
L 3475 0 
L 2900 0 
L 2900 538 
Q 2691 219 2414 64 
Q 2138 -91 1772 -91 
Q 1169 -91 856 284 
Q 544 659 544 1381 
z
M 1991 3584 
L 1991 3584 
z
" transform="scale(0.015625)"/>
       <path id="DejaVuSans-6f" d="M 1959 3097 
Q 1497 3097 1228 2736 
Q 959 2375 959 1747 
Q 959 1119 1226 758 
Q 1494 397 1959 397 
Q 2419 397 2687 759 
Q 2956 1122 2956 1747 
Q 2956 2369 2687 2733 
Q 2419 3097 1959 3097 
z
M 1959 3584 
Q 2709 3584 3137 3096 
Q 3566 2609 3566 1747 
Q 3566 888 3137 398 
Q 2709 -91 1959 -91 
Q 1206 -91 779 398 
Q 353 888 353 1747 
Q 353 2609 779 3096 
Q 1206 3584 1959 3584 
z
" transform="scale(0.015625)"/>
       <path id="DejaVuSans-72" d="M 2631 2963 
Q 2534 3019 2420 3045 
Q 2306 3072 2169 3072 
Q 1681 3072 1420 2755 
Q 1159 2438 1159 1844 
L 1159 0 
L 581 0 
L 581 3500 
L 1159 3500 
L 1159 2956 
Q 1341 3275 1631 3429 
Q 1922 3584 2338 3584 
Q 2397 3584 2469 3576 
Q 2541 3569 2628 3553 
L 2631 2963 
z
" transform="scale(0.015625)"/>
       <path id="DejaVuSans-20" transform="scale(0.015625)"/>
       <path id="DejaVuSans-56" d="M 1831 0 
L 50 4666 
L 709 4666 
L 2188 738 
L 3669 4666 
L 4325 4666 
L 2547 0 
L 1831 0 
z
" transform="scale(0.015625)"/>
       <path id="DejaVuSans-4d" d="M 628 4666 
L 1569 4666 
L 2759 1491 
L 3956 4666 
L 4897 4666 
L 4897 0 
L 4281 0 
L 4281 4097 
L 3078 897 
L 2444 897 
L 1241 4097 
L 1241 0 
L 628 0 
L 628 4666 
z
" transform="scale(0.015625)"/>
       <path id="DejaVuSans-61" d="M 2194 1759 
Q 1497 1759 1228 1600 
Q 959 1441 959 1056 
Q 959 750 1161 570 
Q 1363 391 1709 391 
Q 2188 391 2477 730 
Q 2766 1069 2766 1631 
L 2766 1759 
L 2194 1759 
z
M 3341 1997 
L 3341 0 
L 2766 0 
L 2766 531 
Q 2569 213 2275 61 
Q 1981 -91 1556 -91 
Q 1019 -91 701 211 
Q 384 513 384 1019 
Q 384 1609 779 1909 
Q 1175 2209 1959 2209 
L 2766 2209 
L 2766 2266 
Q 2766 2663 2505 2880 
Q 2244 3097 1772 3097 
Q 1472 3097 1187 3025 
Q 903 2953 641 2809 
L 641 3341 
Q 956 3463 1253 3523 
Q 1550 3584 1831 3584 
Q 2591 3584 2966 3190 
Q 3341 2797 3341 1997 
z
" transform="scale(0.015625)"/>
       <path id="DejaVuSans-68" d="M 3513 2113 
L 3513 0 
L 2938 0 
L 2938 2094 
Q 2938 2591 2744 2837 
Q 2550 3084 2163 3084 
Q 1697 3084 1428 2787 
Q 1159 2491 1159 1978 
L 1159 0 
L 581 0 
L 581 4863 
L 1159 4863 
L 1159 2956 
Q 1366 3272 1645 3428 
Q 1925 3584 2291 3584 
Q 2894 3584 3203 3211 
Q 3513 2838 3513 2113 
z
" transform="scale(0.015625)"/>
       <path id="DejaVuSans-3a" d="M 750 794 
L 1409 794 
L 1409 0 
L 750 0 
L 750 794 
z
M 750 3309 
L 1409 3309 
L 1409 2516 
L 750 2516 
L 750 3309 
z
" transform="scale(0.015625)"/>
       <path id="DejaVuSans-39" d="M 703 97 
L 703 672 
Q 941 559 1184 500 
Q 1428 441 1663 441 
Q 2288 441 2617 861 
Q 2947 1281 2994 2138 
Q 2813 1869 2534 1725 
Q 2256 1581 1919 1581 
Q 1219 1581 811 2004 
Q 403 2428 403 3163 
Q 403 3881 828 4315 
Q 1253 4750 1959 4750 
Q 2769 4750 3195 4129 
Q 3622 3509 3622 2328 
Q 3622 1225 3098 567 
Q 2575 -91 1691 -91 
Q 1453 -91 1209 -44 
Q 966 3 703 97 
z
M 1959 2075 
Q 2384 2075 2632 2365 
Q 2881 2656 2881 3163 
Q 2881 3666 2632 3958 
Q 2384 4250 1959 4250 
Q 1534 4250 1286 3958 
Q 1038 3666 1038 3163 
Q 1038 2656 1286 2365 
Q 1534 2075 1959 2075 
z
" transform="scale(0.015625)"/>
       <path id="DejaVuSans-b1" d="M 2944 4013 
L 2944 2803 
L 4684 2803 
L 4684 2272 
L 2944 2272 
L 2944 1063 
L 2419 1063 
L 2419 2272 
L 678 2272 
L 678 2803 
L 2419 2803 
L 2419 4013 
L 2944 4013 
z
M 678 531 
L 4684 531 
L 4684 0 
L 678 0 
L 678 531 
z
" transform="scale(0.015625)"/>
       <path id="DejaVuSans-33" d="M 2597 2516 
Q 3050 2419 3304 2112 
Q 3559 1806 3559 1356 
Q 3559 666 3084 287 
Q 2609 -91 1734 -91 
Q 1441 -91 1130 -33 
Q 819 25 488 141 
L 488 750 
Q 750 597 1062 519 
Q 1375 441 1716 441 
Q 2309 441 2620 675 
Q 2931 909 2931 1356 
Q 2931 1769 2642 2001 
Q 2353 2234 1838 2234 
L 1294 2234 
L 1294 2753 
L 1863 2753 
Q 2328 2753 2575 2939 
Q 2822 3125 2822 3475 
Q 2822 3834 2567 4026 
Q 2313 4219 1838 4219 
Q 1578 4219 1281 4162 
Q 984 4106 628 3988 
L 628 4550 
Q 988 4650 1302 4700 
Q 1616 4750 1894 4750 
Q 2613 4750 3031 4423 
Q 3450 4097 3450 3541 
Q 3450 3153 3228 2886 
Q 3006 2619 2597 2516 
z
" transform="scale(0.015625)"/>
      </defs>
      <use xlink:href="#DejaVuSans-53"/>
      <use xlink:href="#DejaVuSans-75" x="63.476562"/>
      <use xlink:href="#DejaVuSans-70" x="126.855469"/>
      <use xlink:href="#DejaVuSans-70" x="190.332031"/>
      <use xlink:href="#DejaVuSans-6f" x="253.808594"/>
      <use xlink:href="#DejaVuSans-72" x="314.990234"/>
      <use xlink:href="#DejaVuSans-74" x="356.103516"/>
      <use xlink:href="#DejaVuSans-20" x="395.3125"/>
      <use xlink:href="#DejaVuSans-56" x="427.099609"/>
      <use xlink:href="#DejaVuSans-65" x="487.757812"/>
      <use xlink:href="#DejaVuSans-63" x="549.28125"/>
      <use xlink:href="#DejaVuSans-74" x="604.261719"/>
      <use xlink:href="#DejaVuSans-6f" x="643.470703"/>
      <use xlink:href="#DejaVuSans-72" x="704.652344"/>
      <use xlink:href="#DejaVuSans-20" x="745.765625"/>
      <use xlink:href="#DejaVuSans-4d" x="777.552734"/>
      <use xlink:href="#DejaVuSans-61" x="863.832031"/>
      <use xlink:href="#DejaVuSans-63" x="925.111328"/>
      <use xlink:href="#DejaVuSans-68" x="980.091797"/>
      <use xlink:href="#DejaVuSans-69" x="1043.470703"/>
      <use xlink:href="#DejaVuSans-6e" x="1071.253906"/>
      <use xlink:href="#DejaVuSans-65" x="1134.632812"/>
      <use xlink:href="#DejaVuSans-3a" x="1196.15625"/>
      <use xlink:href="#DejaVuSans-20" x="1229.847656"/>
      <use xlink:href="#DejaVuSans-30" x="1261.634766"/>
      <use xlink:href="#DejaVuSans-2e" x="1325.257812"/>
      <use xlink:href="#DejaVuSans-39" x="1357.044922"/>
      <use xlink:href="#DejaVuSans-36" x="1420.667969"/>
      <use xlink:href="#DejaVuSans-20" x="1484.291016"/>
      <use xlink:href="#DejaVuSans-b1" x="1516.078125"/>
      <use xlink:href="#DejaVuSans-20" x="1599.867188"/>
      <use xlink:href="#DejaVuSans-20" x="1631.654297"/>
      <use xlink:href="#DejaVuSans-30" x="1663.441406"/>
      <use xlink:href="#DejaVuSans-2e" x="1727.064453"/>
      <use xlink:href="#DejaVuSans-30" x="1758.851562"/>
      <use xlink:href="#DejaVuSans-33" x="1822.474609"/>
     </g>
    </g>
    <g id="line2d_21">
     <path d="M 123.590625 230.069688 
L 133.590625 230.069688 
L 143.590625 230.069688 
" style="fill: none; stroke: #7b9ff9; stroke-width: 1.5; stroke-linecap: square"/>
    </g>
    <g id="text_17">
     <!-- K-Nearest Neighbour: 0.88   0.10 -->
     <g transform="translate(151.590625 233.569688)scale(0.1 -0.1)">
      <defs>
       <path id="DejaVuSans-4b" d="M 628 4666 
L 1259 4666 
L 1259 2694 
L 3353 4666 
L 4166 4666 
L 1850 2491 
L 4331 0 
L 3500 0 
L 1259 2247 
L 1259 0 
L 628 0 
L 628 4666 
z
" transform="scale(0.015625)"/>
       <path id="DejaVuSans-4e" d="M 628 4666 
L 1478 4666 
L 3547 763 
L 3547 4666 
L 4159 4666 
L 4159 0 
L 3309 0 
L 1241 3903 
L 1241 0 
L 628 0 
L 628 4666 
z
" transform="scale(0.015625)"/>
       <path id="DejaVuSans-67" d="M 2906 1791 
Q 2906 2416 2648 2759 
Q 2391 3103 1925 3103 
Q 1463 3103 1205 2759 
Q 947 2416 947 1791 
Q 947 1169 1205 825 
Q 1463 481 1925 481 
Q 2391 481 2648 825 
Q 2906 1169 2906 1791 
z
M 3481 434 
Q 3481 -459 3084 -895 
Q 2688 -1331 1869 -1331 
Q 1566 -1331 1297 -1286 
Q 1028 -1241 775 -1147 
L 775 -588 
Q 1028 -725 1275 -790 
Q 1522 -856 1778 -856 
Q 2344 -856 2625 -561 
Q 2906 -266 2906 331 
L 2906 616 
Q 2728 306 2450 153 
Q 2172 0 1784 0 
Q 1141 0 747 490 
Q 353 981 353 1791 
Q 353 2603 747 3093 
Q 1141 3584 1784 3584 
Q 2172 3584 2450 3431 
Q 2728 3278 2906 2969 
L 2906 3500 
L 3481 3500 
L 3481 434 
z
" transform="scale(0.015625)"/>
       <path id="DejaVuSans-62" d="M 3116 1747 
Q 3116 2381 2855 2742 
Q 2594 3103 2138 3103 
Q 1681 3103 1420 2742 
Q 1159 2381 1159 1747 
Q 1159 1113 1420 752 
Q 1681 391 2138 391 
Q 2594 391 2855 752 
Q 3116 1113 3116 1747 
z
M 1159 2969 
Q 1341 3281 1617 3432 
Q 1894 3584 2278 3584 
Q 2916 3584 3314 3078 
Q 3713 2572 3713 1747 
Q 3713 922 3314 415 
Q 2916 -91 2278 -91 
Q 1894 -91 1617 61 
Q 1341 213 1159 525 
L 1159 0 
L 581 0 
L 581 4863 
L 1159 4863 
L 1159 2969 
z
" transform="scale(0.015625)"/>
      </defs>
      <use xlink:href="#DejaVuSans-4b"/>
      <use xlink:href="#DejaVuSans-2d" x="55.076172"/>
      <use xlink:href="#DejaVuSans-4e" x="91.160156"/>
      <use xlink:href="#DejaVuSans-65" x="165.964844"/>
      <use xlink:href="#DejaVuSans-61" x="227.488281"/>
      <use xlink:href="#DejaVuSans-72" x="288.767578"/>
      <use xlink:href="#DejaVuSans-65" x="327.630859"/>
      <use xlink:href="#DejaVuSans-73" x="389.154297"/>
      <use xlink:href="#DejaVuSans-74" x="441.253906"/>
      <use xlink:href="#DejaVuSans-20" x="480.462891"/>
      <use xlink:href="#DejaVuSans-4e" x="512.25"/>
      <use xlink:href="#DejaVuSans-65" x="587.054688"/>
      <use xlink:href="#DejaVuSans-69" x="648.578125"/>
      <use xlink:href="#DejaVuSans-67" x="676.361328"/>
      <use xlink:href="#DejaVuSans-68" x="739.837891"/>
      <use xlink:href="#DejaVuSans-62" x="803.216797"/>
      <use xlink:href="#DejaVuSans-6f" x="866.693359"/>
      <use xlink:href="#DejaVuSans-75" x="927.875"/>
      <use xlink:href="#DejaVuSans-72" x="991.253906"/>
      <use xlink:href="#DejaVuSans-3a" x="1030.617188"/>
      <use xlink:href="#DejaVuSans-20" x="1064.308594"/>
      <use xlink:href="#DejaVuSans-30" x="1096.095703"/>
      <use xlink:href="#DejaVuSans-2e" x="1159.71875"/>
      <use xlink:href="#DejaVuSans-38" x="1191.505859"/>
      <use xlink:href="#DejaVuSans-38" x="1255.128906"/>
      <use xlink:href="#DejaVuSans-20" x="1318.751953"/>
      <use xlink:href="#DejaVuSans-b1" x="1350.539062"/>
      <use xlink:href="#DejaVuSans-20" x="1434.328125"/>
      <use xlink:href="#DejaVuSans-20" x="1466.115234"/>
      <use xlink:href="#DejaVuSans-30" x="1497.902344"/>
      <use xlink:href="#DejaVuSans-2e" x="1561.525391"/>
      <use xlink:href="#DejaVuSans-31" x="1593.3125"/>
      <use xlink:href="#DejaVuSans-30" x="1656.935547"/>
     </g>
    </g>
    <g id="line2d_22">
     <path d="M 123.590625 244.747813 
L 133.590625 244.747813 
L 143.590625 244.747813 
" style="fill: none; stroke: #c0d4f5; stroke-width: 1.5; stroke-linecap: square"/>
    </g>
    <g id="text_18">
     <!-- Random Forest: 0.86   0.10 -->
     <g transform="translate(151.590625 248.247813)scale(0.1 -0.1)">
      <defs>
       <path id="DejaVuSans-52" d="M 2841 2188 
Q 3044 2119 3236 1894 
Q 3428 1669 3622 1275 
L 4263 0 
L 3584 0 
L 2988 1197 
Q 2756 1666 2539 1819 
Q 2322 1972 1947 1972 
L 1259 1972 
L 1259 0 
L 628 0 
L 628 4666 
L 2053 4666 
Q 2853 4666 3247 4331 
Q 3641 3997 3641 3322 
Q 3641 2881 3436 2590 
Q 3231 2300 2841 2188 
z
M 1259 4147 
L 1259 2491 
L 2053 2491 
Q 2509 2491 2742 2702 
Q 2975 2913 2975 3322 
Q 2975 3731 2742 3939 
Q 2509 4147 2053 4147 
L 1259 4147 
z
" transform="scale(0.015625)"/>
       <path id="DejaVuSans-64" d="M 2906 2969 
L 2906 4863 
L 3481 4863 
L 3481 0 
L 2906 0 
L 2906 525 
Q 2725 213 2448 61 
Q 2172 -91 1784 -91 
Q 1150 -91 751 415 
Q 353 922 353 1747 
Q 353 2572 751 3078 
Q 1150 3584 1784 3584 
Q 2172 3584 2448 3432 
Q 2725 3281 2906 2969 
z
M 947 1747 
Q 947 1113 1208 752 
Q 1469 391 1925 391 
Q 2381 391 2643 752 
Q 2906 1113 2906 1747 
Q 2906 2381 2643 2742 
Q 2381 3103 1925 3103 
Q 1469 3103 1208 2742 
Q 947 2381 947 1747 
z
" transform="scale(0.015625)"/>
       <path id="DejaVuSans-6d" d="M 3328 2828 
Q 3544 3216 3844 3400 
Q 4144 3584 4550 3584 
Q 5097 3584 5394 3201 
Q 5691 2819 5691 2113 
L 5691 0 
L 5113 0 
L 5113 2094 
Q 5113 2597 4934 2840 
Q 4756 3084 4391 3084 
Q 3944 3084 3684 2787 
Q 3425 2491 3425 1978 
L 3425 0 
L 2847 0 
L 2847 2094 
Q 2847 2600 2669 2842 
Q 2491 3084 2119 3084 
Q 1678 3084 1418 2786 
Q 1159 2488 1159 1978 
L 1159 0 
L 581 0 
L 581 3500 
L 1159 3500 
L 1159 2956 
Q 1356 3278 1631 3431 
Q 1906 3584 2284 3584 
Q 2666 3584 2933 3390 
Q 3200 3197 3328 2828 
z
" transform="scale(0.015625)"/>
       <path id="DejaVuSans-46" d="M 628 4666 
L 3309 4666 
L 3309 4134 
L 1259 4134 
L 1259 2759 
L 3109 2759 
L 3109 2228 
L 1259 2228 
L 1259 0 
L 628 0 
L 628 4666 
z
" transform="scale(0.015625)"/>
      </defs>
      <use xlink:href="#DejaVuSans-52"/>
      <use xlink:href="#DejaVuSans-61" x="67.232422"/>
      <use xlink:href="#DejaVuSans-6e" x="128.511719"/>
      <use xlink:href="#DejaVuSans-64" x="191.890625"/>
      <use xlink:href="#DejaVuSans-6f" x="255.367188"/>
      <use xlink:href="#DejaVuSans-6d" x="316.548828"/>
      <use xlink:href="#DejaVuSans-20" x="413.960938"/>
      <use xlink:href="#DejaVuSans-46" x="445.748047"/>
      <use xlink:href="#DejaVuSans-6f" x="499.642578"/>
      <use xlink:href="#DejaVuSans-72" x="560.824219"/>
      <use xlink:href="#DejaVuSans-65" x="599.6875"/>
      <use xlink:href="#DejaVuSans-73" x="661.210938"/>
      <use xlink:href="#DejaVuSans-74" x="713.310547"/>
      <use xlink:href="#DejaVuSans-3a" x="752.519531"/>
      <use xlink:href="#DejaVuSans-20" x="786.210938"/>
      <use xlink:href="#DejaVuSans-30" x="817.998047"/>
      <use xlink:href="#DejaVuSans-2e" x="881.621094"/>
      <use xlink:href="#DejaVuSans-38" x="913.408203"/>
      <use xlink:href="#DejaVuSans-36" x="977.03125"/>
      <use xlink:href="#DejaVuSans-20" x="1040.654297"/>
      <use xlink:href="#DejaVuSans-b1" x="1072.441406"/>
      <use xlink:href="#DejaVuSans-20" x="1156.230469"/>
      <use xlink:href="#DejaVuSans-20" x="1188.017578"/>
      <use xlink:href="#DejaVuSans-30" x="1219.804688"/>
      <use xlink:href="#DejaVuSans-2e" x="1283.427734"/>
      <use xlink:href="#DejaVuSans-31" x="1315.214844"/>
      <use xlink:href="#DejaVuSans-30" x="1378.837891"/>
     </g>
    </g>
    <g id="line2d_23">
     <path d="M 123.590625 259.425938 
L 133.590625 259.425938 
L 143.590625 259.425938 
" style="fill: none; stroke: #f2cbb7; stroke-width: 1.5; stroke-linecap: square"/>
    </g>
    <g id="text_19">
     <!-- LightGBM: 0.77   0.11 -->
     <g transform="translate(151.590625 262.925938)scale(0.1 -0.1)">
      <defs>
       <path id="DejaVuSans-4c" d="M 628 4666 
L 1259 4666 
L 1259 531 
L 3531 531 
L 3531 0 
L 628 0 
L 628 4666 
z
" transform="scale(0.015625)"/>
       <path id="DejaVuSans-47" d="M 3809 666 
L 3809 1919 
L 2778 1919 
L 2778 2438 
L 4434 2438 
L 4434 434 
Q 4069 175 3628 42 
Q 3188 -91 2688 -91 
Q 1594 -91 976 548 
Q 359 1188 359 2328 
Q 359 3472 976 4111 
Q 1594 4750 2688 4750 
Q 3144 4750 3555 4637 
Q 3966 4525 4313 4306 
L 4313 3634 
Q 3963 3931 3569 4081 
Q 3175 4231 2741 4231 
Q 1884 4231 1454 3753 
Q 1025 3275 1025 2328 
Q 1025 1384 1454 906 
Q 1884 428 2741 428 
Q 3075 428 3337 486 
Q 3600 544 3809 666 
z
" transform="scale(0.015625)"/>
       <path id="DejaVuSans-42" d="M 1259 2228 
L 1259 519 
L 2272 519 
Q 2781 519 3026 730 
Q 3272 941 3272 1375 
Q 3272 1813 3026 2020 
Q 2781 2228 2272 2228 
L 1259 2228 
z
M 1259 4147 
L 1259 2741 
L 2194 2741 
Q 2656 2741 2882 2914 
Q 3109 3088 3109 3444 
Q 3109 3797 2882 3972 
Q 2656 4147 2194 4147 
L 1259 4147 
z
M 628 4666 
L 2241 4666 
Q 2963 4666 3353 4366 
Q 3744 4066 3744 3513 
Q 3744 3084 3544 2831 
Q 3344 2578 2956 2516 
Q 3422 2416 3680 2098 
Q 3938 1781 3938 1306 
Q 3938 681 3513 340 
Q 3088 0 2303 0 
L 628 0 
L 628 4666 
z
" transform="scale(0.015625)"/>
       <path id="DejaVuSans-37" d="M 525 4666 
L 3525 4666 
L 3525 4397 
L 1831 0 
L 1172 0 
L 2766 4134 
L 525 4134 
L 525 4666 
z
" transform="scale(0.015625)"/>
      </defs>
      <use xlink:href="#DejaVuSans-4c"/>
      <use xlink:href="#DejaVuSans-69" x="55.712891"/>
      <use xlink:href="#DejaVuSans-67" x="83.496094"/>
      <use xlink:href="#DejaVuSans-68" x="146.972656"/>
      <use xlink:href="#DejaVuSans-74" x="210.351562"/>
      <use xlink:href="#DejaVuSans-47" x="249.560547"/>
      <use xlink:href="#DejaVuSans-42" x="327.050781"/>
      <use xlink:href="#DejaVuSans-4d" x="395.654297"/>
      <use xlink:href="#DejaVuSans-3a" x="481.933594"/>
      <use xlink:href="#DejaVuSans-20" x="515.625"/>
      <use xlink:href="#DejaVuSans-30" x="547.412109"/>
      <use xlink:href="#DejaVuSans-2e" x="611.035156"/>
      <use xlink:href="#DejaVuSans-37" x="642.822266"/>
      <use xlink:href="#DejaVuSans-37" x="706.445312"/>
      <use xlink:href="#DejaVuSans-20" x="770.068359"/>
      <use xlink:href="#DejaVuSans-b1" x="801.855469"/>
      <use xlink:href="#DejaVuSans-20" x="885.644531"/>
      <use xlink:href="#DejaVuSans-20" x="917.431641"/>
      <use xlink:href="#DejaVuSans-30" x="949.21875"/>
      <use xlink:href="#DejaVuSans-2e" x="1012.841797"/>
      <use xlink:href="#DejaVuSans-31" x="1044.628906"/>
      <use xlink:href="#DejaVuSans-31" x="1108.251953"/>
     </g>
    </g>
    <g id="line2d_24">
     <path d="M 123.590625 274.104063 
L 133.590625 274.104063 
L 143.590625 274.104063 
" style="fill: none; stroke: #ee8468; stroke-width: 1.5; stroke-linecap: square"/>
    </g>
    <g id="text_20">
     <!-- XGBoost: 0.91   0.04 -->
     <g transform="translate(151.590625 277.604063)scale(0.1 -0.1)">
      <defs>
       <path id="DejaVuSans-58" d="M 403 4666 
L 1081 4666 
L 2241 2931 
L 3406 4666 
L 4084 4666 
L 2584 2425 
L 4184 0 
L 3506 0 
L 2194 1984 
L 872 0 
L 191 0 
L 1856 2491 
L 403 4666 
z
" transform="scale(0.015625)"/>
      </defs>
      <use xlink:href="#DejaVuSans-58"/>
      <use xlink:href="#DejaVuSans-47" x="68.505859"/>
      <use xlink:href="#DejaVuSans-42" x="145.996094"/>
      <use xlink:href="#DejaVuSans-6f" x="214.599609"/>
      <use xlink:href="#DejaVuSans-6f" x="275.78125"/>
      <use xlink:href="#DejaVuSans-73" x="336.962891"/>
      <use xlink:href="#DejaVuSans-74" x="389.0625"/>
      <use xlink:href="#DejaVuSans-3a" x="428.271484"/>
      <use xlink:href="#DejaVuSans-20" x="461.962891"/>
      <use xlink:href="#DejaVuSans-30" x="493.75"/>
      <use xlink:href="#DejaVuSans-2e" x="557.373047"/>
      <use xlink:href="#DejaVuSans-39" x="589.160156"/>
      <use xlink:href="#DejaVuSans-31" x="652.783203"/>
      <use xlink:href="#DejaVuSans-20" x="716.40625"/>
      <use xlink:href="#DejaVuSans-b1" x="748.193359"/>
      <use xlink:href="#DejaVuSans-20" x="831.982422"/>
      <use xlink:href="#DejaVuSans-20" x="863.769531"/>
      <use xlink:href="#DejaVuSans-30" x="895.556641"/>
      <use xlink:href="#DejaVuSans-2e" x="959.179688"/>
      <use xlink:href="#DejaVuSans-30" x="990.966797"/>
      <use xlink:href="#DejaVuSans-34" x="1054.589844"/>
     </g>
    </g>
    <g id="line2d_25">
     <path d="M 123.590625 288.782188 
L 133.590625 288.782188 
L 143.590625 288.782188 
" style="fill: none; stroke: #b40426; stroke-opacity: 0.8; stroke-width: 1.5; stroke-linecap: square"/>
    </g>
    <g id="text_21">
     <!-- BINN:  0.99   0.00 -->
     <g transform="translate(151.590625 292.282188)scale(0.1 -0.1)">
      <defs>
       <path id="DejaVuSans-49" d="M 628 4666 
L 1259 4666 
L 1259 0 
L 628 0 
L 628 4666 
z
" transform="scale(0.015625)"/>
      </defs>
      <use xlink:href="#DejaVuSans-42"/>
      <use xlink:href="#DejaVuSans-49" x="68.603516"/>
      <use xlink:href="#DejaVuSans-4e" x="98.095703"/>
      <use xlink:href="#DejaVuSans-4e" x="172.900391"/>
      <use xlink:href="#DejaVuSans-3a" x="247.705078"/>
      <use xlink:href="#DejaVuSans-20" x="281.396484"/>
      <use xlink:href="#DejaVuSans-20" x="313.183594"/>
      <use xlink:href="#DejaVuSans-30" x="344.970703"/>
      <use xlink:href="#DejaVuSans-2e" x="408.59375"/>
      <use xlink:href="#DejaVuSans-39" x="440.380859"/>
      <use xlink:href="#DejaVuSans-39" x="504.003906"/>
      <use xlink:href="#DejaVuSans-20" x="567.626953"/>
      <use xlink:href="#DejaVuSans-b1" x="599.414062"/>
      <use xlink:href="#DejaVuSans-20" x="683.203125"/>
      <use xlink:href="#DejaVuSans-20" x="714.990234"/>
      <use xlink:href="#DejaVuSans-30" x="746.777344"/>
      <use xlink:href="#DejaVuSans-2e" x="810.400391"/>
      <use xlink:href="#DejaVuSans-30" x="842.1875"/>
      <use xlink:href="#DejaVuSans-30" x="905.810547"/>
     </g>
    </g>
    <g id="line2d_26">
     <path d="M 123.590625 303.460312 
L 133.590625 303.460312 
L 143.590625 303.460312 
" style="fill: none; stroke-dasharray: 9,3; stroke-dashoffset: 0; stroke: #808080; stroke-opacity: 0.5; stroke-width: 1.5"/>
    </g>
    <g id="text_22">
     <!-- Random -->
     <g transform="translate(151.590625 306.960312)scale(0.1 -0.1)">
      <use xlink:href="#DejaVuSans-52"/>
      <use xlink:href="#DejaVuSans-61" x="67.232422"/>
      <use xlink:href="#DejaVuSans-6e" x="128.511719"/>
      <use xlink:href="#DejaVuSans-64" x="191.890625"/>
      <use xlink:href="#DejaVuSans-6f" x="255.367188"/>
      <use xlink:href="#DejaVuSans-6d" x="316.548828"/>
     </g>
    </g>
   </g>
  </g>
 </g>
 <defs>
  <clipPath id="pd84a2e714f">
   <rect x="47.72" y="10.8" width="301.48" height="307.24"/>
  </clipPath>
 </defs>
</svg>
