<?xml version="1.0" encoding="utf-8" standalone="no"?>
<!DOCTYPE svg PUBLIC "-//W3C//DTD SVG 1.1//EN"
  "http://www.w3.org/Graphics/SVG/1.1/DTD/svg11.dtd">
<svg xmlns:xlink="http://www.w3.org/1999/xlink" width="360pt" height="360pt" viewBox="0 0 360 360" xmlns="http://www.w3.org/2000/svg" version="1.1">
 <metadata>
  <rdf:RDF xmlns:dc="http://purl.org/dc/elements/1.1/" xmlns:cc="http://creativecommons.org/ns#" xmlns:rdf="http://www.w3.org/1999/02/22-rdf-syntax-ns#">
   <cc:Work>
    <dc:type rdf:resource="http://purl.org/dc/dcmitype/StillImage"/>
    <dc:date>2022-12-11T04:24:52.058074</dc:date>
    <dc:format>image/svg+xml</dc:format>
    <dc:creator>
     <cc:Agent>
      <dc:title>Matplotlib v3.5.2, https://matplotlib.org/</dc:title>
     </cc:Agent>
    </dc:creator>
   </cc:Work>
  </rdf:RDF>
 </metadata>
 <defs>
  <style type="text/css">*{stroke-linejoin: round; stroke-linecap: butt}</style>
 </defs>
 <g id="figure_1">
  <g id="patch_1">
   <path d="M 0 360 
L 360 360 
L 360 0 
L 0 0 
z
" style="fill: #ffffff"/>
  </g>
  <g id="axes_1">
   <g id="patch_2">
    <path d="M 47.72 318.04 
L 349.2 318.04 
L 349.2 10.8 
L 47.72 10.8 
z
" style="fill: #ffffff"/>
   </g>
   <g id="PolyCollection_1">
    <defs>
     <path id="mfbed611bd6" d="M 61.423636 -335.234545 
L 61.423636 -335.234545 
L 64.192048 -335.234545 
L 66.960459 -335.234545 
L 69.728871 -335.234545 
L 72.497282 -335.234545 
L 75.265693 -335.234545 
L 78.034105 -335.234545 
L 80.802516 -335.234545 
L 83.570927 -335.234545 
L 86.339339 -335.234545 
L 89.10775 -335.234545 
L 91.876162 -335.234545 
L 94.644573 -335.234545 
L 97.412984 -335.234545 
L 100.181396 -335.234545 
L 102.949807 -335.234545 
L 105.718219 -335.234545 
L 108.48663 -335.234545 
L 111.255041 -335.234545 
L 114.023453 -335.234545 
L 116.791864 -335.234545 
L 119.560275 -335.234545 
L 122.328687 -335.234545 
L 125.097098 -335.234545 
L 127.86551 -335.234545 
L 130.633921 -335.234545 
L 133.402332 -335.234545 
L 136.170744 -335.234545 
L 138.939155 -335.234545 
L 141.707567 -335.234545 
L 144.475978 -335.234545 
L 147.244389 -335.234545 
L 150.012801 -335.234545 
L 152.781212 -335.234545 
L 155.549624 -335.234545 
L 158.318035 -335.234545 
L 161.086446 -335.234545 
L 163.854858 -335.234545 
L 166.623269 -335.234545 
L 169.39168 -335.234545 
L 172.160092 -335.234545 
L 174.928503 -335.234545 
L 177.696915 -335.234545 
L 180.465326 -335.234545 
L 183.233737 -335.234545 
L 186.002149 -335.234545 
L 188.77056 -335.234545 
L 191.538972 -335.234545 
L 194.307383 -335.234545 
L 197.075794 -335.234545 
L 199.844206 -335.234545 
L 202.612617 -335.234545 
L 205.381028 -335.234545 
L 208.14944 -335.234545 
L 210.917851 -335.234545 
L 213.686263 -335.234545 
L 216.454674 -335.234545 
L 219.223085 -335.234545 
L 221.991497 -335.234545 
L 224.759908 -335.234545 
L 227.52832 -335.234545 
L 230.296731 -335.234545 
L 233.065142 -335.234545 
L 235.833554 -335.234545 
L 238.601965 -335.234545 
L 241.370376 -335.234545 
L 244.138788 -335.234545 
L 246.907199 -335.234545 
L 249.675611 -333.165589 
L 252.444022 -332.184604 
L 255.212433 -332.184604 
L 257.980845 -330.453189 
L 260.749256 -330.453189 
L 263.517668 -329.648732 
L 266.286079 -329.767791 
L 269.05449 -328.754895 
L 271.822902 -327.027996 
L 274.591313 -325.306961 
L 277.359725 -323.669304 
L 280.128136 -323.669304 
L 282.896547 -322.787298 
L 285.664959 -321.625929 
L 288.43337 -318.316423 
L 291.201781 -314.287644 
L 293.970193 -311.771467 
L 296.738604 -310.285139 
L 299.507016 -303.930149 
L 302.275427 -298.164896 
L 305.043838 -297.244636 
L 307.81225 -273.487051 
L 310.580661 -263.956635 
L 313.349073 -238.924747 
L 316.117484 -222.2251 
L 318.885895 -175.855287 
L 321.654307 -102.787485 
L 324.422718 -102.787485 
L 327.191129 -94.530722 
L 329.959541 -95.367535 
L 332.727952 -95.955536 
L 335.496364 -55.925455 
L 335.496364 -55.925455 
L 335.496364 -55.925455 
L 332.727952 -228.930582 
L 329.959541 -260.922983 
L 327.191129 -269.968338 
L 324.422718 -272.746008 
L 321.654307 -272.746008 
L 318.885895 -327.90303 
L 316.117484 -317.395125 
L 313.349073 -315.867823 
L 310.580661 -326.681023 
L 307.81225 -326.805736 
L 305.043838 -325.100197 
L 302.275427 -326.921724 
L 299.507016 -326.673688 
L 296.738604 -325.835914 
L 293.970193 -325.71207 
L 291.201781 -330.092414 
L 288.43337 -330.151084 
L 285.664959 -329.600187 
L 282.896547 -329.801302 
L 280.128136 -331.677904 
L 277.359725 -331.677904 
L 274.591313 -331.419551 
L 271.822902 -332.457124 
L 269.05449 -332.092708 
L 266.286079 -332.459116 
L 263.517668 -333.95748 
L 260.749256 -335.234545 
L 257.980845 -335.234545 
L 255.212433 -335.234545 
L 252.444022 -335.234545 
L 249.675611 -335.234545 
L 246.907199 -335.234545 
L 244.138788 -335.234545 
L 241.370376 -335.234545 
L 238.601965 -335.234545 
L 235.833554 -335.234545 
L 233.065142 -335.234545 
L 230.296731 -335.234545 
L 227.52832 -335.234545 
L 224.759908 -335.234545 
L 221.991497 -335.234545 
L 219.223085 -335.234545 
L 216.454674 -335.234545 
L 213.686263 -335.234545 
L 210.917851 -335.234545 
L 208.14944 -335.234545 
L 205.381028 -335.234545 
L 202.612617 -335.234545 
L 199.844206 -335.234545 
L 197.075794 -335.234545 
L 194.307383 -335.234545 
L 191.538972 -335.234545 
L 188.77056 -335.234545 
L 186.002149 -335.234545 
L 183.233737 -335.234545 
L 180.465326 -335.234545 
L 177.696915 -335.234545 
L 174.928503 -335.234545 
L 172.160092 -335.234545 
L 169.39168 -335.234545 
L 166.623269 -335.234545 
L 163.854858 -335.234545 
L 161.086446 -335.234545 
L 158.318035 -335.234545 
L 155.549624 -335.234545 
L 152.781212 -335.234545 
L 150.012801 -335.234545 
L 147.244389 -335.234545 
L 144.475978 -335.234545 
L 141.707567 -335.234545 
L 138.939155 -335.234545 
L 136.170744 -335.234545 
L 133.402332 -335.234545 
L 130.633921 -335.234545 
L 127.86551 -335.234545 
L 125.097098 -335.234545 
L 122.328687 -335.234545 
L 119.560275 -335.234545 
L 116.791864 -335.234545 
L 114.023453 -335.234545 
L 111.255041 -335.234545 
L 108.48663 -335.234545 
L 105.718219 -335.234545 
L 102.949807 -335.234545 
L 100.181396 -335.234545 
L 97.412984 -335.234545 
L 94.644573 -335.234545 
L 91.876162 -335.234545 
L 89.10775 -335.234545 
L 86.339339 -335.234545 
L 83.570927 -335.234545 
L 80.802516 -335.234545 
L 78.034105 -335.234545 
L 75.265693 -335.234545 
L 72.497282 -335.234545 
L 69.728871 -335.234545 
L 66.960459 -335.234545 
L 64.192048 -335.234545 
L 61.423636 -335.234545 
z
" style="stroke: #3b4cc0; stroke-opacity: 0.1"/>
    </defs>
    <g clip-path="url(#pe46390cdb3)">
     <use xlink:href="#mfbed611bd6" x="0" y="360" style="fill: #3b4cc0; fill-opacity: 0.1; stroke: #3b4cc0; stroke-opacity: 0.1"/>
    </g>
   </g>
   <g id="PolyCollection_2">
    <defs>
     <path id="mb9501424df" d="M 61.423636 -335.234545 
L 61.423636 -335.234545 
L 64.192048 -335.234545 
L 66.960459 -335.234545 
L 69.728871 -335.234545 
L 72.497282 -335.234545 
L 75.265693 -335.234545 
L 78.034105 -335.234545 
L 80.802516 -335.234545 
L 83.570927 -335.234545 
L 86.339339 -335.234545 
L 89.10775 -335.234545 
L 91.876162 -335.234545 
L 94.644573 -335.234545 
L 97.412984 -335.234545 
L 100.181396 -335.234545 
L 102.949807 -335.234545 
L 105.718219 -335.234545 
L 108.48663 -335.234545 
L 111.255041 -335.234545 
L 114.023453 -335.234545 
L 116.791864 -335.234545 
L 119.560275 -335.234545 
L 122.328687 -335.234545 
L 125.097098 -335.234545 
L 127.86551 -335.234545 
L 130.633921 -335.234545 
L 133.402332 -335.234545 
L 136.170744 -335.234545 
L 138.939155 -335.234545 
L 141.707567 -335.234545 
L 144.475978 -335.234545 
L 147.244389 -335.234545 
L 150.012801 -335.234545 
L 152.781212 -335.234545 
L 155.549624 -335.234545 
L 158.318035 -335.234545 
L 161.086446 -335.234545 
L 163.854858 -335.234545 
L 166.623269 -335.234545 
L 169.39168 -335.234545 
L 172.160092 -335.234545 
L 174.928503 -335.234545 
L 177.696915 -335.234545 
L 180.465326 -335.234545 
L 183.233737 -335.234545 
L 186.002149 -335.234545 
L 188.77056 -335.234545 
L 191.538972 -335.234545 
L 194.307383 -335.234545 
L 197.075794 -335.234545 
L 199.844206 -335.234545 
L 202.612617 -335.234545 
L 205.381028 -335.234545 
L 208.14944 -335.234545 
L 210.917851 -335.234545 
L 213.686263 -335.234545 
L 216.454674 -335.234545 
L 219.223085 -335.234545 
L 221.991497 -335.234545 
L 224.759908 -334.914521 
L 227.52832 -334.555469 
L 230.296731 -334.196416 
L 233.065142 -333.837364 
L 235.833554 -333.478312 
L 238.601965 -333.143768 
L 241.370376 -332.481641 
L 244.138788 -331.316899 
L 246.907199 -329.962835 
L 249.675611 -328.53994 
L 252.444022 -328.158365 
L 255.212433 -327.784513 
L 257.980845 -327.40597 
L 260.749256 -326.885746 
L 263.517668 -326.244627 
L 266.286079 -325.486862 
L 269.05449 -324.69098 
L 271.822902 -323.871063 
L 274.591313 -323.295825 
L 277.359725 -322.308957 
L 280.128136 -319.85166 
L 282.896547 -316.026622 
L 285.664959 -310.789392 
L 288.43337 -305.128494 
L 291.201781 -299.281474 
L 293.970193 -292.932717 
L 296.738604 -286.744496 
L 299.507016 -281.087409 
L 302.275427 -276.467286 
L 305.043838 -271.639151 
L 307.81225 -265.54703 
L 310.580661 -258.891022 
L 313.349073 -250.77201 
L 316.117484 -229.217615 
L 318.885895 -214.565558 
L 321.654307 -199.009815 
L 324.422718 -174.829848 
L 327.191129 -120.167355 
L 329.959541 -93.768739 
L 332.727952 -66.967556 
L 335.496364 -55.925455 
L 335.496364 -55.925455 
L 335.496364 -55.925455 
L 332.727952 -213.686842 
L 329.959541 -226.707388 
L 327.191129 -240.130502 
L 324.422718 -257.808463 
L 321.654307 -272.785008 
L 318.885895 -288.590632 
L 316.117484 -296.522552 
L 313.349073 -306.225035 
L 310.580661 -311.456444 
L 307.81225 -315.286903 
L 305.043838 -318.110275 
L 302.275427 -320.644093 
L 299.507016 -322.23367 
L 296.738604 -323.961461 
L 293.970193 -325.591175 
L 291.201781 -326.958784 
L 288.43337 -327.952647 
L 285.664959 -328.6624 
L 282.896547 -329.254782 
L 280.128136 -329.919464 
L 277.359725 -331.062412 
L 274.591313 -332.717971 
L 271.822902 -334.133979 
L 269.05449 -334.658074 
L 266.286079 -335.226432 
L 263.517668 -335.234545 
L 260.749256 -335.234545 
L 257.980845 -335.234545 
L 255.212433 -335.234545 
L 252.444022 -335.234545 
L 249.675611 -335.234545 
L 246.907199 -335.234545 
L 244.138788 -335.234545 
L 241.370376 -335.234545 
L 238.601965 -335.234545 
L 235.833554 -335.234545 
L 233.065142 -335.234545 
L 230.296731 -335.234545 
L 227.52832 -335.234545 
L 224.759908 -335.234545 
L 221.991497 -335.234545 
L 219.223085 -335.234545 
L 216.454674 -335.234545 
L 213.686263 -335.234545 
L 210.917851 -335.234545 
L 208.14944 -335.234545 
L 205.381028 -335.234545 
L 202.612617 -335.234545 
L 199.844206 -335.234545 
L 197.075794 -335.234545 
L 194.307383 -335.234545 
L 191.538972 -335.234545 
L 188.77056 -335.234545 
L 186.002149 -335.234545 
L 183.233737 -335.234545 
L 180.465326 -335.234545 
L 177.696915 -335.234545 
L 174.928503 -335.234545 
L 172.160092 -335.234545 
L 169.39168 -335.234545 
L 166.623269 -335.234545 
L 163.854858 -335.234545 
L 161.086446 -335.234545 
L 158.318035 -335.234545 
L 155.549624 -335.234545 
L 152.781212 -335.234545 
L 150.012801 -335.234545 
L 147.244389 -335.234545 
L 144.475978 -335.234545 
L 141.707567 -335.234545 
L 138.939155 -335.234545 
L 136.170744 -335.234545 
L 133.402332 -335.234545 
L 130.633921 -335.234545 
L 127.86551 -335.234545 
L 125.097098 -335.234545 
L 122.328687 -335.234545 
L 119.560275 -335.234545 
L 116.791864 -335.234545 
L 114.023453 -335.234545 
L 111.255041 -335.234545 
L 108.48663 -335.234545 
L 105.718219 -335.234545 
L 102.949807 -335.234545 
L 100.181396 -335.234545 
L 97.412984 -335.234545 
L 94.644573 -335.234545 
L 91.876162 -335.234545 
L 89.10775 -335.234545 
L 86.339339 -335.234545 
L 83.570927 -335.234545 
L 80.802516 -335.234545 
L 78.034105 -335.234545 
L 75.265693 -335.234545 
L 72.497282 -335.234545 
L 69.728871 -335.234545 
L 66.960459 -335.234545 
L 64.192048 -335.234545 
L 61.423636 -335.234545 
z
" style="stroke: #7b9ff9; stroke-opacity: 0.1"/>
    </defs>
    <g clip-path="url(#pe46390cdb3)">
     <use xlink:href="#mb9501424df" x="0" y="360" style="fill: #7b9ff9; fill-opacity: 0.1; stroke: #7b9ff9; stroke-opacity: 0.1"/>
    </g>
   </g>
   <g id="PolyCollection_3">
    <defs>
     <path id="m2f8379d1d5" d="M 61.423636 -335.234545 
L 61.423636 -335.234545 
L 64.192048 -335.234545 
L 66.960459 -335.234545 
L 69.728871 -335.234545 
L 72.497282 -335.234545 
L 75.265693 -335.234545 
L 78.034105 -335.234545 
L 80.802516 -335.234545 
L 83.570927 -335.234545 
L 86.339339 -335.234545 
L 89.10775 -335.234545 
L 91.876162 -335.234545 
L 94.644573 -335.234545 
L 97.412984 -335.234545 
L 100.181396 -335.234545 
L 102.949807 -335.234545 
L 105.718219 -335.234545 
L 108.48663 -335.234545 
L 111.255041 -335.234545 
L 114.023453 -335.234545 
L 116.791864 -335.234545 
L 119.560275 -335.234545 
L 122.328687 -335.234545 
L 125.097098 -335.234545 
L 127.86551 -335.234545 
L 130.633921 -335.234545 
L 133.402332 -335.234545 
L 136.170744 -335.234545 
L 138.939155 -335.234545 
L 141.707567 -335.234545 
L 144.475978 -335.234545 
L 147.244389 -335.234545 
L 150.012801 -335.234545 
L 152.781212 -335.234545 
L 155.549624 -335.234545 
L 158.318035 -335.234545 
L 161.086446 -335.234545 
L 163.854858 -335.234545 
L 166.623269 -335.234545 
L 169.39168 -335.234545 
L 172.160092 -335.234545 
L 174.928503 -335.234545 
L 177.696915 -335.234545 
L 180.465326 -335.234545 
L 183.233737 -335.234545 
L 186.002149 -335.234545 
L 188.77056 -335.234545 
L 191.538972 -335.234545 
L 194.307383 -335.234545 
L 197.075794 -335.234545 
L 199.844206 -335.234545 
L 202.612617 -335.234545 
L 205.381028 -335.234545 
L 208.14944 -335.234545 
L 210.917851 -335.234545 
L 213.686263 -335.234545 
L 216.454674 -335.234545 
L 219.223085 -335.234545 
L 221.991497 -335.234545 
L 224.759908 -335.128024 
L 227.52832 -334.45478 
L 230.296731 -333.686338 
L 233.065142 -332.716993 
L 235.833554 -331.229956 
L 238.601965 -329.715318 
L 241.370376 -328.161834 
L 244.138788 -326.470195 
L 246.907199 -324.735187 
L 249.675611 -323.599468 
L 252.444022 -322.71334 
L 255.212433 -321.78513 
L 257.980845 -320.843798 
L 260.749256 -319.893874 
L 263.517668 -318.937856 
L 266.286079 -318.073464 
L 269.05449 -316.76472 
L 271.822902 -314.982415 
L 274.591313 -312.793878 
L 277.359725 -309.363656 
L 280.128136 -305.402108 
L 282.896547 -301.434147 
L 285.664959 -298.436193 
L 288.43337 -295.957436 
L 291.201781 -293.442925 
L 293.970193 -290.856967 
L 296.738604 -288.206555 
L 299.507016 -280.068173 
L 302.275427 -268.706065 
L 305.043838 -263.520205 
L 307.81225 -258.289864 
L 310.580661 -251.398306 
L 313.349073 -228.534311 
L 316.117484 -209.515827 
L 318.885895 -160.277456 
L 321.654307 -144.877554 
L 324.422718 -128.472933 
L 327.191129 -103.378927 
L 329.959541 -81.913144 
L 332.727952 -62.076235 
L 335.496364 -55.925455 
L 335.496364 -55.925455 
L 335.496364 -55.925455 
L 332.727952 -203.94564 
L 329.959541 -255.682606 
L 327.191129 -263.131396 
L 324.422718 -275.609932 
L 321.654307 -282.210434 
L 318.885895 -285.698917 
L 316.117484 -285.877305 
L 313.349073 -287.662189 
L 310.580661 -298.385339 
L 307.81225 -302.10821 
L 305.043838 -303.931537 
L 302.275427 -305.799344 
L 299.507016 -306.431872 
L 296.738604 -308.226266 
L 293.970193 -310.094182 
L 291.201781 -312.02655 
L 288.43337 -314.030366 
L 285.664959 -316.182059 
L 282.896547 -318.198287 
L 280.128136 -320.1074 
L 277.359725 -321.984385 
L 274.591313 -323.85315 
L 271.822902 -325.289903 
L 269.05449 -326.947052 
L 266.286079 -328.6776 
L 263.517668 -329.49431 
L 260.749256 -329.74622 
L 257.980845 -330.004223 
L 255.212433 -330.269165 
L 252.444022 -330.540615 
L 249.675611 -331.065504 
L 246.907199 -331.895456 
L 244.138788 -332.795411 
L 241.370376 -333.736331 
L 238.601965 -334.635182 
L 235.833554 -335.101265 
L 233.065142 -335.145597 
L 230.296731 -335.234545 
L 227.52832 -335.234545 
L 224.759908 -335.234545 
L 221.991497 -335.234545 
L 219.223085 -335.234545 
L 216.454674 -335.234545 
L 213.686263 -335.234545 
L 210.917851 -335.234545 
L 208.14944 -335.234545 
L 205.381028 -335.234545 
L 202.612617 -335.234545 
L 199.844206 -335.234545 
L 197.075794 -335.234545 
L 194.307383 -335.234545 
L 191.538972 -335.234545 
L 188.77056 -335.234545 
L 186.002149 -335.234545 
L 183.233737 -335.234545 
L 180.465326 -335.234545 
L 177.696915 -335.234545 
L 174.928503 -335.234545 
L 172.160092 -335.234545 
L 169.39168 -335.234545 
L 166.623269 -335.234545 
L 163.854858 -335.234545 
L 161.086446 -335.234545 
L 158.318035 -335.234545 
L 155.549624 -335.234545 
L 152.781212 -335.234545 
L 150.012801 -335.234545 
L 147.244389 -335.234545 
L 144.475978 -335.234545 
L 141.707567 -335.234545 
L 138.939155 -335.234545 
L 136.170744 -335.234545 
L 133.402332 -335.234545 
L 130.633921 -335.234545 
L 127.86551 -335.234545 
L 125.097098 -335.234545 
L 122.328687 -335.234545 
L 119.560275 -335.234545 
L 116.791864 -335.234545 
L 114.023453 -335.234545 
L 111.255041 -335.234545 
L 108.48663 -335.234545 
L 105.718219 -335.234545 
L 102.949807 -335.234545 
L 100.181396 -335.234545 
L 97.412984 -335.234545 
L 94.644573 -335.234545 
L 91.876162 -335.234545 
L 89.10775 -335.234545 
L 86.339339 -335.234545 
L 83.570927 -335.234545 
L 80.802516 -335.234545 
L 78.034105 -335.234545 
L 75.265693 -335.234545 
L 72.497282 -335.234545 
L 69.728871 -335.234545 
L 66.960459 -335.234545 
L 64.192048 -335.234545 
L 61.423636 -335.234545 
z
" style="stroke: #c0d4f5; stroke-opacity: 0.1"/>
    </defs>
    <g clip-path="url(#pe46390cdb3)">
     <use xlink:href="#m2f8379d1d5" x="0" y="360" style="fill: #c0d4f5; fill-opacity: 0.1; stroke: #c0d4f5; stroke-opacity: 0.1"/>
    </g>
   </g>
   <g id="PolyCollection_4">
    <defs>
     <path id="md8e4e56acd" d="M 61.423636 -335.234545 
L 61.423636 -335.234545 
L 64.192048 -335.234545 
L 66.960459 -335.234545 
L 69.728871 -335.234545 
L 72.497282 -335.234545 
L 75.265693 -335.234545 
L 78.034105 -335.234545 
L 80.802516 -335.234545 
L 83.570927 -335.234545 
L 86.339339 -335.234545 
L 89.10775 -335.234545 
L 91.876162 -335.234545 
L 94.644573 -335.234545 
L 97.412984 -335.234545 
L 100.181396 -335.234545 
L 102.949807 -335.234545 
L 105.718219 -335.234545 
L 108.48663 -335.234545 
L 111.255041 -335.234545 
L 114.023453 -335.234545 
L 116.791864 -335.234545 
L 119.560275 -335.234545 
L 122.328687 -335.234545 
L 125.097098 -335.234545 
L 127.86551 -335.234545 
L 130.633921 -335.234545 
L 133.402332 -335.234545 
L 136.170744 -335.234545 
L 138.939155 -335.234545 
L 141.707567 -335.234545 
L 144.475978 -335.234545 
L 147.244389 -335.234545 
L 150.012801 -335.234545 
L 152.781212 -335.234545 
L 155.549624 -335.234545 
L 158.318035 -335.234545 
L 161.086446 -335.234545 
L 163.854858 -335.234545 
L 166.623269 -335.234545 
L 169.39168 -335.234545 
L 172.160092 -335.234545 
L 174.928503 -335.234545 
L 177.696915 -335.234545 
L 180.465326 -335.234545 
L 183.233737 -335.234545 
L 186.002149 -335.234545 
L 188.77056 -335.234545 
L 191.538972 -335.234545 
L 194.307383 -335.234545 
L 197.075794 -335.234545 
L 199.844206 -335.234545 
L 202.612617 -335.234545 
L 205.381028 -335.234545 
L 208.14944 -335.234545 
L 210.917851 -335.234545 
L 213.686263 -335.234545 
L 216.454674 -335.234545 
L 219.223085 -335.234545 
L 221.991497 -335.234545 
L 224.759908 -334.671495 
L 227.52832 -333.149119 
L 230.296731 -331.52143 
L 233.065142 -329.887804 
L 235.833554 -328.205745 
L 238.601965 -326.107433 
L 241.370376 -323.859857 
L 244.138788 -321.53527 
L 246.907199 -319.168296 
L 249.675611 -316.77617 
L 252.444022 -314.368101 
L 255.212433 -311.949368 
L 257.980845 -309.523179 
L 260.749256 -307.091586 
L 263.517668 -305.459178 
L 266.286079 -303.846873 
L 269.05449 -302.317886 
L 271.822902 -301.07666 
L 274.591313 -298.649237 
L 277.359725 -297.578061 
L 280.128136 -294.018974 
L 282.896547 -283.540741 
L 285.664959 -278.697535 
L 288.43337 -267.98996 
L 291.201781 -248.607687 
L 293.970193 -233.167773 
L 296.738604 -220.430581 
L 299.507016 -208.541392 
L 302.275427 -191.236834 
L 305.043838 -176.650992 
L 307.81225 -161.953499 
L 310.580661 -147.847654 
L 313.349073 -133.702479 
L 316.117484 -120.200466 
L 318.885895 -105.326749 
L 321.654307 -90.428811 
L 324.422718 -77.292336 
L 327.191129 -66.025468 
L 329.959541 -55.925455 
L 332.727952 -55.925455 
L 335.496364 -55.925455 
L 335.496364 -55.925455 
L 335.496364 -55.925455 
L 332.727952 -163.102538 
L 329.959541 -170.145658 
L 327.191129 -175.156246 
L 324.422718 -191.169761 
L 321.654307 -201.548871 
L 318.885895 -206.598984 
L 316.117484 -211.673318 
L 313.349073 -220.844323 
L 310.580661 -228.009682 
L 307.81225 -235.214371 
L 305.043838 -240.464929 
L 302.275427 -245.827138 
L 299.507016 -282.331203 
L 296.738604 -290.317987 
L 293.970193 -293.684751 
L 291.201781 -308.74755 
L 288.43337 -308.405308 
L 285.664959 -308.921707 
L 282.896547 -310.430791 
L 280.128136 -314.622471 
L 277.359725 -317.457471 
L 274.591313 -317.414397 
L 271.822902 -320.60809 
L 269.05449 -324.165704 
L 266.286079 -325.062729 
L 263.517668 -327.366719 
L 260.749256 -328.135457 
L 257.980845 -328.62496 
L 255.212433 -329.119866 
L 252.444022 -329.622227 
L 249.675611 -330.135254 
L 246.907199 -330.664222 
L 244.138788 -331.218343 
L 241.370376 -331.814851 
L 238.601965 -332.488369 
L 235.833554 -333.311152 
L 233.065142 -333.764688 
L 230.296731 -334.135741 
L 227.52832 -334.51273 
L 224.759908 -334.995032 
L 221.991497 -335.234545 
L 219.223085 -335.234545 
L 216.454674 -335.234545 
L 213.686263 -335.234545 
L 210.917851 -335.234545 
L 208.14944 -335.234545 
L 205.381028 -335.234545 
L 202.612617 -335.234545 
L 199.844206 -335.234545 
L 197.075794 -335.234545 
L 194.307383 -335.234545 
L 191.538972 -335.234545 
L 188.77056 -335.234545 
L 186.002149 -335.234545 
L 183.233737 -335.234545 
L 180.465326 -335.234545 
L 177.696915 -335.234545 
L 174.928503 -335.234545 
L 172.160092 -335.234545 
L 169.39168 -335.234545 
L 166.623269 -335.234545 
L 163.854858 -335.234545 
L 161.086446 -335.234545 
L 158.318035 -335.234545 
L 155.549624 -335.234545 
L 152.781212 -335.234545 
L 150.012801 -335.234545 
L 147.244389 -335.234545 
L 144.475978 -335.234545 
L 141.707567 -335.234545 
L 138.939155 -335.234545 
L 136.170744 -335.234545 
L 133.402332 -335.234545 
L 130.633921 -335.234545 
L 127.86551 -335.234545 
L 125.097098 -335.234545 
L 122.328687 -335.234545 
L 119.560275 -335.234545 
L 116.791864 -335.234545 
L 114.023453 -335.234545 
L 111.255041 -335.234545 
L 108.48663 -335.234545 
L 105.718219 -335.234545 
L 102.949807 -335.234545 
L 100.181396 -335.234545 
L 97.412984 -335.234545 
L 94.644573 -335.234545 
L 91.876162 -335.234545 
L 89.10775 -335.234545 
L 86.339339 -335.234545 
L 83.570927 -335.234545 
L 80.802516 -335.234545 
L 78.034105 -335.234545 
L 75.265693 -335.234545 
L 72.497282 -335.234545 
L 69.728871 -335.234545 
L 66.960459 -335.234545 
L 64.192048 -335.234545 
L 61.423636 -335.234545 
z
" style="stroke: #f2cbb7; stroke-opacity: 0.1"/>
    </defs>
    <g clip-path="url(#pe46390cdb3)">
     <use xlink:href="#md8e4e56acd" x="0" y="360" style="fill: #f2cbb7; fill-opacity: 0.1; stroke: #f2cbb7; stroke-opacity: 0.1"/>
    </g>
   </g>
   <g id="PolyCollection_5">
    <defs>
     <path id="mc1aa66d7c6" d="M 61.423636 -335.234545 
L 61.423636 -335.234545 
L 64.192048 -335.234545 
L 66.960459 -335.234545 
L 69.728871 -335.234545 
L 72.497282 -335.234545 
L 75.265693 -335.234545 
L 78.034105 -335.234545 
L 80.802516 -335.234545 
L 83.570927 -335.234545 
L 86.339339 -335.234545 
L 89.10775 -335.234545 
L 91.876162 -335.234545 
L 94.644573 -335.234545 
L 97.412984 -335.234545 
L 100.181396 -335.234545 
L 102.949807 -335.234545 
L 105.718219 -335.234545 
L 108.48663 -335.234545 
L 111.255041 -335.234545 
L 114.023453 -335.234545 
L 116.791864 -335.234545 
L 119.560275 -335.234545 
L 122.328687 -335.234545 
L 125.097098 -335.234545 
L 127.86551 -335.234545 
L 130.633921 -335.234545 
L 133.402332 -335.234545 
L 136.170744 -335.234545 
L 138.939155 -335.234545 
L 141.707567 -335.234545 
L 144.475978 -335.234545 
L 147.244389 -335.234545 
L 150.012801 -335.234545 
L 152.781212 -335.234545 
L 155.549624 -335.234545 
L 158.318035 -335.234545 
L 161.086446 -335.234545 
L 163.854858 -335.234545 
L 166.623269 -335.234545 
L 169.39168 -335.234545 
L 172.160092 -335.234545 
L 174.928503 -335.234545 
L 177.696915 -335.234545 
L 180.465326 -335.234545 
L 183.233737 -335.234545 
L 186.002149 -335.234545 
L 188.77056 -335.234545 
L 191.538972 -335.234545 
L 194.307383 -335.234545 
L 197.075794 -335.234545 
L 199.844206 -335.234545 
L 202.612617 -335.234545 
L 205.381028 -335.234545 
L 208.14944 -335.234545 
L 210.917851 -335.234545 
L 213.686263 -335.234545 
L 216.454674 -335.234545 
L 219.223085 -335.234545 
L 221.991497 -335.234545 
L 224.759908 -335.234545 
L 227.52832 -335.234545 
L 230.296731 -331.147095 
L 233.065142 -330.453189 
L 235.833554 -330.453189 
L 238.601965 -328.527403 
L 241.370376 -328.527403 
L 244.138788 -328.527403 
L 246.907199 -328.527403 
L 249.675611 -328.080145 
L 252.444022 -324.135052 
L 255.212433 -324.135052 
L 257.980845 -324.135052 
L 260.749256 -322.125341 
L 263.517668 -321.813898 
L 266.286079 -321.813898 
L 269.05449 -321.251518 
L 271.822902 -321.251518 
L 274.591313 -320.711513 
L 277.359725 -319.026484 
L 280.128136 -318.477105 
L 282.896547 -318.477105 
L 285.664959 -316.571625 
L 288.43337 -314.025739 
L 291.201781 -311.82214 
L 293.970193 -302.449725 
L 296.738604 -297.762565 
L 299.507016 -296.754317 
L 302.275427 -295.8748 
L 305.043838 -292.535054 
L 307.81225 -288.441558 
L 310.580661 -282.510629 
L 313.349073 -277.66626 
L 316.117484 -262.248697 
L 318.885895 -255.28989 
L 321.654307 -237.205756 
L 324.422718 -234.08738 
L 327.191129 -170.021842 
L 329.959541 -158.057028 
L 332.727952 -150.741896 
L 335.496364 -55.925455 
L 335.496364 -55.925455 
L 335.496364 -55.925455 
L 332.727952 -226.59142 
L 329.959541 -250.89936 
L 327.191129 -266.520628 
L 324.422718 -271.285733 
L 321.654307 -283.322881 
L 318.885895 -306.516947 
L 316.117484 -306.45466 
L 313.349073 -310.263252 
L 310.580661 -312.315404 
L 307.81225 -314.643478 
L 305.043838 -318.808987 
L 302.275427 -319.607153 
L 299.507016 -321.486245 
L 296.738604 -323.219784 
L 293.970193 -324.016199 
L 291.201781 -325.678218 
L 288.43337 -328.975015 
L 285.664959 -330.567041 
L 282.896547 -331.403348 
L 280.128136 -331.403348 
L 277.359725 -332.233273 
L 274.591313 -333.306853 
L 271.822902 -335.234545 
L 269.05449 -335.234545 
L 266.286079 -335.234545 
L 263.517668 -335.234545 
L 260.749256 -335.234545 
L 257.980845 -335.234545 
L 255.212433 -335.234545 
L 252.444022 -335.234545 
L 249.675611 -335.234545 
L 246.907199 -335.234545 
L 244.138788 -335.234545 
L 241.370376 -335.234545 
L 238.601965 -335.234545 
L 235.833554 -335.234545 
L 233.065142 -335.234545 
L 230.296731 -335.234545 
L 227.52832 -335.234545 
L 224.759908 -335.234545 
L 221.991497 -335.234545 
L 219.223085 -335.234545 
L 216.454674 -335.234545 
L 213.686263 -335.234545 
L 210.917851 -335.234545 
L 208.14944 -335.234545 
L 205.381028 -335.234545 
L 202.612617 -335.234545 
L 199.844206 -335.234545 
L 197.075794 -335.234545 
L 194.307383 -335.234545 
L 191.538972 -335.234545 
L 188.77056 -335.234545 
L 186.002149 -335.234545 
L 183.233737 -335.234545 
L 180.465326 -335.234545 
L 177.696915 -335.234545 
L 174.928503 -335.234545 
L 172.160092 -335.234545 
L 169.39168 -335.234545 
L 166.623269 -335.234545 
L 163.854858 -335.234545 
L 161.086446 -335.234545 
L 158.318035 -335.234545 
L 155.549624 -335.234545 
L 152.781212 -335.234545 
L 150.012801 -335.234545 
L 147.244389 -335.234545 
L 144.475978 -335.234545 
L 141.707567 -335.234545 
L 138.939155 -335.234545 
L 136.170744 -335.234545 
L 133.402332 -335.234545 
L 130.633921 -335.234545 
L 127.86551 -335.234545 
L 125.097098 -335.234545 
L 122.328687 -335.234545 
L 119.560275 -335.234545 
L 116.791864 -335.234545 
L 114.023453 -335.234545 
L 111.255041 -335.234545 
L 108.48663 -335.234545 
L 105.718219 -335.234545 
L 102.949807 -335.234545 
L 100.181396 -335.234545 
L 97.412984 -335.234545 
L 94.644573 -335.234545 
L 91.876162 -335.234545 
L 89.10775 -335.234545 
L 86.339339 -335.234545 
L 83.570927 -335.234545 
L 80.802516 -335.234545 
L 78.034105 -335.234545 
L 75.265693 -335.234545 
L 72.497282 -335.234545 
L 69.728871 -335.234545 
L 66.960459 -335.234545 
L 64.192048 -335.234545 
L 61.423636 -335.234545 
z
" style="stroke: #ee8468; stroke-opacity: 0.1"/>
    </defs>
    <g clip-path="url(#pe46390cdb3)">
     <use xlink:href="#mc1aa66d7c6" x="0" y="360" style="fill: #ee8468; fill-opacity: 0.1; stroke: #ee8468; stroke-opacity: 0.1"/>
    </g>
   </g>
   <g id="PolyCollection_6">
    <defs>
     <path id="m7c672bf291" d="M 61.423636 -335.234545 
L 61.423636 -335.234545 
L 64.192048 -335.234545 
L 66.960459 -335.234545 
L 69.728871 -335.234545 
L 72.497282 -335.234545 
L 75.265693 -335.234545 
L 78.034105 -335.234545 
L 80.802516 -335.234545 
L 83.570927 -335.234545 
L 86.339339 -335.234545 
L 89.10775 -335.234545 
L 91.876162 -335.234545 
L 94.644573 -335.234545 
L 97.412984 -335.234545 
L 100.181396 -335.234545 
L 102.949807 -335.234545 
L 105.718219 -335.234545 
L 108.48663 -335.234545 
L 111.255041 -335.234545 
L 114.023453 -335.234545 
L 116.791864 -335.234545 
L 119.560275 -335.234545 
L 122.328687 -335.234545 
L 125.097098 -335.234545 
L 127.86551 -335.234545 
L 130.633921 -335.234545 
L 133.402332 -335.234545 
L 136.170744 -335.234545 
L 138.939155 -335.234545 
L 141.707567 -335.234545 
L 144.475978 -335.234545 
L 147.244389 -335.234545 
L 150.012801 -335.234545 
L 152.781212 -335.234545 
L 155.549624 -335.234545 
L 158.318035 -335.234545 
L 161.086446 -335.234545 
L 163.854858 -335.234545 
L 166.623269 -335.234545 
L 169.39168 -335.234545 
L 172.160092 -335.234545 
L 174.928503 -335.234545 
L 177.696915 -335.234545 
L 180.465326 -335.234545 
L 183.233737 -335.234545 
L 186.002149 -335.234545 
L 188.77056 -335.234545 
L 191.538972 -335.234545 
L 194.307383 -335.234545 
L 197.075794 -335.234545 
L 199.844206 -335.234545 
L 202.612617 -335.234545 
L 205.381028 -335.234545 
L 208.14944 -335.234545 
L 210.917851 -335.234545 
L 213.686263 -335.234545 
L 216.454674 -335.234545 
L 219.223085 -335.234545 
L 221.991497 -335.234545 
L 224.759908 -335.234545 
L 227.52832 -335.234545 
L 230.296731 -335.234545 
L 233.065142 -335.234545 
L 235.833554 -335.234545 
L 238.601965 -335.234545 
L 241.370376 -335.234545 
L 244.138788 -335.234545 
L 246.907199 -335.234545 
L 249.675611 -333.569574 
L 252.444022 -333.569574 
L 255.212433 -333.569574 
L 257.980845 -333.569574 
L 260.749256 -333.569574 
L 263.517668 -333.569574 
L 266.286079 -332.87992 
L 269.05449 -332.87992 
L 271.822902 -332.87992 
L 274.591313 -331.476296 
L 277.359725 -330.525313 
L 280.128136 -330.525313 
L 282.896547 -329.406196 
L 285.664959 -326.666751 
L 288.43337 -326.666751 
L 291.201781 -323.225446 
L 293.970193 -323.23174 
L 296.738604 -320.52579 
L 299.507016 -319.096342 
L 302.275427 -319.096342 
L 305.043838 -312.289807 
L 307.81225 -290.684512 
L 310.580661 -289.649015 
L 313.349073 -260.775806 
L 316.117484 -255.623969 
L 318.885895 -245.018957 
L 321.654307 -239.810391 
L 324.422718 -230.885502 
L 327.191129 -227.500742 
L 329.959541 -160.291618 
L 332.727952 -142.995953 
L 335.496364 -55.925455 
L 335.496364 -55.925455 
L 335.496364 -55.925455 
L 332.727952 -155.933222 
L 329.959541 -272.115651 
L 327.191129 -275.230757 
L 324.422718 -284.239468 
L 321.654307 -297.383437 
L 318.885895 -305.957781 
L 316.117484 -311.843553 
L 313.349073 -319.085175 
L 310.580661 -317.625636 
L 307.81225 -323.486666 
L 305.043838 -321.059772 
L 302.275427 -321.099054 
L 299.507016 -321.099054 
L 296.738604 -322.428211 
L 293.970193 -325.219204 
L 291.201781 -326.604794 
L 288.43337 -328.660409 
L 285.664959 -328.660409 
L 282.896547 -332.797215 
L 280.128136 -334.426569 
L 277.359725 -334.426569 
L 274.591313 -334.854883 
L 271.822902 -334.830556 
L 269.05449 -334.830556 
L 266.286079 -334.830556 
L 263.517668 -335.234545 
L 260.749256 -335.234545 
L 257.980845 -335.234545 
L 255.212433 -335.234545 
L 252.444022 -335.234545 
L 249.675611 -335.234545 
L 246.907199 -335.234545 
L 244.138788 -335.234545 
L 241.370376 -335.234545 
L 238.601965 -335.234545 
L 235.833554 -335.234545 
L 233.065142 -335.234545 
L 230.296731 -335.234545 
L 227.52832 -335.234545 
L 224.759908 -335.234545 
L 221.991497 -335.234545 
L 219.223085 -335.234545 
L 216.454674 -335.234545 
L 213.686263 -335.234545 
L 210.917851 -335.234545 
L 208.14944 -335.234545 
L 205.381028 -335.234545 
L 202.612617 -335.234545 
L 199.844206 -335.234545 
L 197.075794 -335.234545 
L 194.307383 -335.234545 
L 191.538972 -335.234545 
L 188.77056 -335.234545 
L 186.002149 -335.234545 
L 183.233737 -335.234545 
L 180.465326 -335.234545 
L 177.696915 -335.234545 
L 174.928503 -335.234545 
L 172.160092 -335.234545 
L 169.39168 -335.234545 
L 166.623269 -335.234545 
L 163.854858 -335.234545 
L 161.086446 -335.234545 
L 158.318035 -335.234545 
L 155.549624 -335.234545 
L 152.781212 -335.234545 
L 150.012801 -335.234545 
L 147.244389 -335.234545 
L 144.475978 -335.234545 
L 141.707567 -335.234545 
L 138.939155 -335.234545 
L 136.170744 -335.234545 
L 133.402332 -335.234545 
L 130.633921 -335.234545 
L 127.86551 -335.234545 
L 125.097098 -335.234545 
L 122.328687 -335.234545 
L 119.560275 -335.234545 
L 116.791864 -335.234545 
L 114.023453 -335.234545 
L 111.255041 -335.234545 
L 108.48663 -335.234545 
L 105.718219 -335.234545 
L 102.949807 -335.234545 
L 100.181396 -335.234545 
L 97.412984 -335.234545 
L 94.644573 -335.234545 
L 91.876162 -335.234545 
L 89.10775 -335.234545 
L 86.339339 -335.234545 
L 83.570927 -335.234545 
L 80.802516 -335.234545 
L 78.034105 -335.234545 
L 75.265693 -335.234545 
L 72.497282 -335.234545 
L 69.728871 -335.234545 
L 66.960459 -335.234545 
L 64.192048 -335.234545 
L 61.423636 -335.234545 
z
" style="stroke: #b40426; stroke-opacity: 0.2"/>
    </defs>
    <g clip-path="url(#pe46390cdb3)">
     <use xlink:href="#m7c672bf291" x="0" y="360" style="fill: #b40426; fill-opacity: 0.2; stroke: #b40426; stroke-opacity: 0.2"/>
    </g>
   </g>
   <g id="matplotlib.axis_1">
    <g id="xtick_1">
     <g id="line2d_1">
      <defs>
       <path id="m9f8d195709" d="M 0 0 
L 0 3.5 
" style="stroke: #000000; stroke-width: 0.8"/>
      </defs>
      <g>
       <use xlink:href="#m9f8d195709" x="61.423636" y="318.04" style="stroke: #000000; stroke-width: 0.8"/>
      </g>
     </g>
     <g id="text_1">
      <!-- 0.0 -->
      <g transform="translate(53.472074 332.638438)scale(0.1 -0.1)">
       <defs>
        <path id="DejaVuSans-30" d="M 2034 4250 
Q 1547 4250 1301 3770 
Q 1056 3291 1056 2328 
Q 1056 1369 1301 889 
Q 1547 409 2034 409 
Q 2525 409 2770 889 
Q 3016 1369 3016 2328 
Q 3016 3291 2770 3770 
Q 2525 4250 2034 4250 
z
M 2034 4750 
Q 2819 4750 3233 4129 
Q 3647 3509 3647 2328 
Q 3647 1150 3233 529 
Q 2819 -91 2034 -91 
Q 1250 -91 836 529 
Q 422 1150 422 2328 
Q 422 3509 836 4129 
Q 1250 4750 2034 4750 
z
" transform="scale(0.015625)"/>
        <path id="DejaVuSans-2e" d="M 684 794 
L 1344 794 
L 1344 0 
L 684 0 
L 684 794 
z
" transform="scale(0.015625)"/>
       </defs>
       <use xlink:href="#DejaVuSans-30"/>
       <use xlink:href="#DejaVuSans-2e" x="63.623047"/>
       <use xlink:href="#DejaVuSans-30" x="95.410156"/>
      </g>
     </g>
    </g>
    <g id="xtick_2">
     <g id="line2d_2">
      <g>
       <use xlink:href="#m9f8d195709" x="116.238182" y="318.04" style="stroke: #000000; stroke-width: 0.8"/>
      </g>
     </g>
     <g id="text_2">
      <!-- 0.2 -->
      <g transform="translate(108.286619 332.638438)scale(0.1 -0.1)">
       <defs>
        <path id="DejaVuSans-32" d="M 1228 531 
L 3431 531 
L 3431 0 
L 469 0 
L 469 531 
Q 828 903 1448 1529 
Q 2069 2156 2228 2338 
Q 2531 2678 2651 2914 
Q 2772 3150 2772 3378 
Q 2772 3750 2511 3984 
Q 2250 4219 1831 4219 
Q 1534 4219 1204 4116 
Q 875 4013 500 3803 
L 500 4441 
Q 881 4594 1212 4672 
Q 1544 4750 1819 4750 
Q 2544 4750 2975 4387 
Q 3406 4025 3406 3419 
Q 3406 3131 3298 2873 
Q 3191 2616 2906 2266 
Q 2828 2175 2409 1742 
Q 1991 1309 1228 531 
z
" transform="scale(0.015625)"/>
       </defs>
       <use xlink:href="#DejaVuSans-30"/>
       <use xlink:href="#DejaVuSans-2e" x="63.623047"/>
       <use xlink:href="#DejaVuSans-32" x="95.410156"/>
      </g>
     </g>
    </g>
    <g id="xtick_3">
     <g id="line2d_3">
      <g>
       <use xlink:href="#m9f8d195709" x="171.052727" y="318.04" style="stroke: #000000; stroke-width: 0.8"/>
      </g>
     </g>
     <g id="text_3">
      <!-- 0.4 -->
      <g transform="translate(163.101165 332.638438)scale(0.1 -0.1)">
       <defs>
        <path id="DejaVuSans-34" d="M 2419 4116 
L 825 1625 
L 2419 1625 
L 2419 4116 
z
M 2253 4666 
L 3047 4666 
L 3047 1625 
L 3713 1625 
L 3713 1100 
L 3047 1100 
L 3047 0 
L 2419 0 
L 2419 1100 
L 313 1100 
L 313 1709 
L 2253 4666 
z
" transform="scale(0.015625)"/>
       </defs>
       <use xlink:href="#DejaVuSans-30"/>
       <use xlink:href="#DejaVuSans-2e" x="63.623047"/>
       <use xlink:href="#DejaVuSans-34" x="95.410156"/>
      </g>
     </g>
    </g>
    <g id="xtick_4">
     <g id="line2d_4">
      <g>
       <use xlink:href="#m9f8d195709" x="225.867273" y="318.04" style="stroke: #000000; stroke-width: 0.8"/>
      </g>
     </g>
     <g id="text_4">
      <!-- 0.6 -->
      <g transform="translate(217.91571 332.638438)scale(0.1 -0.1)">
       <defs>
        <path id="DejaVuSans-36" d="M 2113 2584 
Q 1688 2584 1439 2293 
Q 1191 2003 1191 1497 
Q 1191 994 1439 701 
Q 1688 409 2113 409 
Q 2538 409 2786 701 
Q 3034 994 3034 1497 
Q 3034 2003 2786 2293 
Q 2538 2584 2113 2584 
z
M 3366 4563 
L 3366 3988 
Q 3128 4100 2886 4159 
Q 2644 4219 2406 4219 
Q 1781 4219 1451 3797 
Q 1122 3375 1075 2522 
Q 1259 2794 1537 2939 
Q 1816 3084 2150 3084 
Q 2853 3084 3261 2657 
Q 3669 2231 3669 1497 
Q 3669 778 3244 343 
Q 2819 -91 2113 -91 
Q 1303 -91 875 529 
Q 447 1150 447 2328 
Q 447 3434 972 4092 
Q 1497 4750 2381 4750 
Q 2619 4750 2861 4703 
Q 3103 4656 3366 4563 
z
" transform="scale(0.015625)"/>
       </defs>
       <use xlink:href="#DejaVuSans-30"/>
       <use xlink:href="#DejaVuSans-2e" x="63.623047"/>
       <use xlink:href="#DejaVuSans-36" x="95.410156"/>
      </g>
     </g>
    </g>
    <g id="xtick_5">
     <g id="line2d_5">
      <g>
       <use xlink:href="#m9f8d195709" x="280.681818" y="318.04" style="stroke: #000000; stroke-width: 0.8"/>
      </g>
     </g>
     <g id="text_5">
      <!-- 0.8 -->
      <g transform="translate(272.730256 332.638438)scale(0.1 -0.1)">
       <defs>
        <path id="DejaVuSans-38" d="M 2034 2216 
Q 1584 2216 1326 1975 
Q 1069 1734 1069 1313 
Q 1069 891 1326 650 
Q 1584 409 2034 409 
Q 2484 409 2743 651 
Q 3003 894 3003 1313 
Q 3003 1734 2745 1975 
Q 2488 2216 2034 2216 
z
M 1403 2484 
Q 997 2584 770 2862 
Q 544 3141 544 3541 
Q 544 4100 942 4425 
Q 1341 4750 2034 4750 
Q 2731 4750 3128 4425 
Q 3525 4100 3525 3541 
Q 3525 3141 3298 2862 
Q 3072 2584 2669 2484 
Q 3125 2378 3379 2068 
Q 3634 1759 3634 1313 
Q 3634 634 3220 271 
Q 2806 -91 2034 -91 
Q 1263 -91 848 271 
Q 434 634 434 1313 
Q 434 1759 690 2068 
Q 947 2378 1403 2484 
z
M 1172 3481 
Q 1172 3119 1398 2916 
Q 1625 2713 2034 2713 
Q 2441 2713 2670 2916 
Q 2900 3119 2900 3481 
Q 2900 3844 2670 4047 
Q 2441 4250 2034 4250 
Q 1625 4250 1398 4047 
Q 1172 3844 1172 3481 
z
" transform="scale(0.015625)"/>
       </defs>
       <use xlink:href="#DejaVuSans-30"/>
       <use xlink:href="#DejaVuSans-2e" x="63.623047"/>
       <use xlink:href="#DejaVuSans-38" x="95.410156"/>
      </g>
     </g>
    </g>
    <g id="xtick_6">
     <g id="line2d_6">
      <g>
       <use xlink:href="#m9f8d195709" x="335.496364" y="318.04" style="stroke: #000000; stroke-width: 0.8"/>
      </g>
     </g>
     <g id="text_6">
      <!-- 1.0 -->
      <g transform="translate(327.544801 332.638438)scale(0.1 -0.1)">
       <defs>
        <path id="DejaVuSans-31" d="M 794 531 
L 1825 531 
L 1825 4091 
L 703 3866 
L 703 4441 
L 1819 4666 
L 2450 4666 
L 2450 531 
L 3481 531 
L 3481 0 
L 794 0 
L 794 531 
z
" transform="scale(0.015625)"/>
       </defs>
       <use xlink:href="#DejaVuSans-31"/>
       <use xlink:href="#DejaVuSans-2e" x="63.623047"/>
       <use xlink:href="#DejaVuSans-30" x="95.410156"/>
      </g>
     </g>
    </g>
    <g id="text_7">
     <!-- Recall -->
     <g transform="translate(183.542812 346.316563)scale(0.1 -0.1)">
      <defs>
       <path id="DejaVuSans-52" d="M 2841 2188 
Q 3044 2119 3236 1894 
Q 3428 1669 3622 1275 
L 4263 0 
L 3584 0 
L 2988 1197 
Q 2756 1666 2539 1819 
Q 2322 1972 1947 1972 
L 1259 1972 
L 1259 0 
L 628 0 
L 628 4666 
L 2053 4666 
Q 2853 4666 3247 4331 
Q 3641 3997 3641 3322 
Q 3641 2881 3436 2590 
Q 3231 2300 2841 2188 
z
M 1259 4147 
L 1259 2491 
L 2053 2491 
Q 2509 2491 2742 2702 
Q 2975 2913 2975 3322 
Q 2975 3731 2742 3939 
Q 2509 4147 2053 4147 
L 1259 4147 
z
" transform="scale(0.015625)"/>
       <path id="DejaVuSans-65" d="M 3597 1894 
L 3597 1613 
L 953 1613 
Q 991 1019 1311 708 
Q 1631 397 2203 397 
Q 2534 397 2845 478 
Q 3156 559 3463 722 
L 3463 178 
Q 3153 47 2828 -22 
Q 2503 -91 2169 -91 
Q 1331 -91 842 396 
Q 353 884 353 1716 
Q 353 2575 817 3079 
Q 1281 3584 2069 3584 
Q 2775 3584 3186 3129 
Q 3597 2675 3597 1894 
z
M 3022 2063 
Q 3016 2534 2758 2815 
Q 2500 3097 2075 3097 
Q 1594 3097 1305 2825 
Q 1016 2553 972 2059 
L 3022 2063 
z
" transform="scale(0.015625)"/>
       <path id="DejaVuSans-63" d="M 3122 3366 
L 3122 2828 
Q 2878 2963 2633 3030 
Q 2388 3097 2138 3097 
Q 1578 3097 1268 2742 
Q 959 2388 959 1747 
Q 959 1106 1268 751 
Q 1578 397 2138 397 
Q 2388 397 2633 464 
Q 2878 531 3122 666 
L 3122 134 
Q 2881 22 2623 -34 
Q 2366 -91 2075 -91 
Q 1284 -91 818 406 
Q 353 903 353 1747 
Q 353 2603 823 3093 
Q 1294 3584 2113 3584 
Q 2378 3584 2631 3529 
Q 2884 3475 3122 3366 
z
" transform="scale(0.015625)"/>
       <path id="DejaVuSans-61" d="M 2194 1759 
Q 1497 1759 1228 1600 
Q 959 1441 959 1056 
Q 959 750 1161 570 
Q 1363 391 1709 391 
Q 2188 391 2477 730 
Q 2766 1069 2766 1631 
L 2766 1759 
L 2194 1759 
z
M 3341 1997 
L 3341 0 
L 2766 0 
L 2766 531 
Q 2569 213 2275 61 
Q 1981 -91 1556 -91 
Q 1019 -91 701 211 
Q 384 513 384 1019 
Q 384 1609 779 1909 
Q 1175 2209 1959 2209 
L 2766 2209 
L 2766 2266 
Q 2766 2663 2505 2880 
Q 2244 3097 1772 3097 
Q 1472 3097 1187 3025 
Q 903 2953 641 2809 
L 641 3341 
Q 956 3463 1253 3523 
Q 1550 3584 1831 3584 
Q 2591 3584 2966 3190 
Q 3341 2797 3341 1997 
z
" transform="scale(0.015625)"/>
       <path id="DejaVuSans-6c" d="M 603 4863 
L 1178 4863 
L 1178 0 
L 603 0 
L 603 4863 
z
" transform="scale(0.015625)"/>
      </defs>
      <use xlink:href="#DejaVuSans-52"/>
      <use xlink:href="#DejaVuSans-65" x="64.982422"/>
      <use xlink:href="#DejaVuSans-63" x="126.505859"/>
      <use xlink:href="#DejaVuSans-61" x="181.486328"/>
      <use xlink:href="#DejaVuSans-6c" x="242.765625"/>
      <use xlink:href="#DejaVuSans-6c" x="270.548828"/>
     </g>
    </g>
   </g>
   <g id="matplotlib.axis_2">
    <g id="ytick_1">
     <g id="line2d_7">
      <defs>
       <path id="m47bf66f023" d="M 0 0 
L -3.5 0 
" style="stroke: #000000; stroke-width: 0.8"/>
      </defs>
      <g>
       <use xlink:href="#m47bf66f023" x="47.72" y="304.074545" style="stroke: #000000; stroke-width: 0.8"/>
      </g>
     </g>
     <g id="text_8">
      <!-- 0.0 -->
      <g transform="translate(24.816875 307.873764)scale(0.1 -0.1)">
       <use xlink:href="#DejaVuSans-30"/>
       <use xlink:href="#DejaVuSans-2e" x="63.623047"/>
       <use xlink:href="#DejaVuSans-30" x="95.410156"/>
      </g>
     </g>
    </g>
    <g id="ytick_2">
     <g id="line2d_8">
      <g>
       <use xlink:href="#m47bf66f023" x="47.72" y="248.212727" style="stroke: #000000; stroke-width: 0.8"/>
      </g>
     </g>
     <g id="text_9">
      <!-- 0.2 -->
      <g transform="translate(24.816875 252.011946)scale(0.1 -0.1)">
       <use xlink:href="#DejaVuSans-30"/>
       <use xlink:href="#DejaVuSans-2e" x="63.623047"/>
       <use xlink:href="#DejaVuSans-32" x="95.410156"/>
      </g>
     </g>
    </g>
    <g id="ytick_3">
     <g id="line2d_9">
      <g>
       <use xlink:href="#m47bf66f023" x="47.72" y="192.350909" style="stroke: #000000; stroke-width: 0.8"/>
      </g>
     </g>
     <g id="text_10">
      <!-- 0.4 -->
      <g transform="translate(24.816875 196.150128)scale(0.1 -0.1)">
       <use xlink:href="#DejaVuSans-30"/>
       <use xlink:href="#DejaVuSans-2e" x="63.623047"/>
       <use xlink:href="#DejaVuSans-34" x="95.410156"/>
      </g>
     </g>
    </g>
    <g id="ytick_4">
     <g id="line2d_10">
      <g>
       <use xlink:href="#m47bf66f023" x="47.72" y="136.489091" style="stroke: #000000; stroke-width: 0.8"/>
      </g>
     </g>
     <g id="text_11">
      <!-- 0.6 -->
      <g transform="translate(24.816875 140.28831)scale(0.1 -0.1)">
       <use xlink:href="#DejaVuSans-30"/>
       <use xlink:href="#DejaVuSans-2e" x="63.623047"/>
       <use xlink:href="#DejaVuSans-36" x="95.410156"/>
      </g>
     </g>
    </g>
    <g id="ytick_5">
     <g id="line2d_11">
      <g>
       <use xlink:href="#m47bf66f023" x="47.72" y="80.627273" style="stroke: #000000; stroke-width: 0.8"/>
      </g>
     </g>
     <g id="text_12">
      <!-- 0.8 -->
      <g transform="translate(24.816875 84.426491)scale(0.1 -0.1)">
       <use xlink:href="#DejaVuSans-30"/>
       <use xlink:href="#DejaVuSans-2e" x="63.623047"/>
       <use xlink:href="#DejaVuSans-38" x="95.410156"/>
      </g>
     </g>
    </g>
    <g id="ytick_6">
     <g id="line2d_12">
      <g>
       <use xlink:href="#m47bf66f023" x="47.72" y="24.765455" style="stroke: #000000; stroke-width: 0.8"/>
      </g>
     </g>
     <g id="text_13">
      <!-- 1.0 -->
      <g transform="translate(24.816875 28.564673)scale(0.1 -0.1)">
       <use xlink:href="#DejaVuSans-31"/>
       <use xlink:href="#DejaVuSans-2e" x="63.623047"/>
       <use xlink:href="#DejaVuSans-30" x="95.410156"/>
      </g>
     </g>
    </g>
    <g id="text_14">
     <!-- Precision -->
     <g transform="translate(18.737188 186.727031)rotate(-90)scale(0.1 -0.1)">
      <defs>
       <path id="DejaVuSans-50" d="M 1259 4147 
L 1259 2394 
L 2053 2394 
Q 2494 2394 2734 2622 
Q 2975 2850 2975 3272 
Q 2975 3691 2734 3919 
Q 2494 4147 2053 4147 
L 1259 4147 
z
M 628 4666 
L 2053 4666 
Q 2838 4666 3239 4311 
Q 3641 3956 3641 3272 
Q 3641 2581 3239 2228 
Q 2838 1875 2053 1875 
L 1259 1875 
L 1259 0 
L 628 0 
L 628 4666 
z
" transform="scale(0.015625)"/>
       <path id="DejaVuSans-72" d="M 2631 2963 
Q 2534 3019 2420 3045 
Q 2306 3072 2169 3072 
Q 1681 3072 1420 2755 
Q 1159 2438 1159 1844 
L 1159 0 
L 581 0 
L 581 3500 
L 1159 3500 
L 1159 2956 
Q 1341 3275 1631 3429 
Q 1922 3584 2338 3584 
Q 2397 3584 2469 3576 
Q 2541 3569 2628 3553 
L 2631 2963 
z
" transform="scale(0.015625)"/>
       <path id="DejaVuSans-69" d="M 603 3500 
L 1178 3500 
L 1178 0 
L 603 0 
L 603 3500 
z
M 603 4863 
L 1178 4863 
L 1178 4134 
L 603 4134 
L 603 4863 
z
" transform="scale(0.015625)"/>
       <path id="DejaVuSans-73" d="M 2834 3397 
L 2834 2853 
Q 2591 2978 2328 3040 
Q 2066 3103 1784 3103 
Q 1356 3103 1142 2972 
Q 928 2841 928 2578 
Q 928 2378 1081 2264 
Q 1234 2150 1697 2047 
L 1894 2003 
Q 2506 1872 2764 1633 
Q 3022 1394 3022 966 
Q 3022 478 2636 193 
Q 2250 -91 1575 -91 
Q 1294 -91 989 -36 
Q 684 19 347 128 
L 347 722 
Q 666 556 975 473 
Q 1284 391 1588 391 
Q 1994 391 2212 530 
Q 2431 669 2431 922 
Q 2431 1156 2273 1281 
Q 2116 1406 1581 1522 
L 1381 1569 
Q 847 1681 609 1914 
Q 372 2147 372 2553 
Q 372 3047 722 3315 
Q 1072 3584 1716 3584 
Q 2034 3584 2315 3537 
Q 2597 3491 2834 3397 
z
" transform="scale(0.015625)"/>
       <path id="DejaVuSans-6f" d="M 1959 3097 
Q 1497 3097 1228 2736 
Q 959 2375 959 1747 
Q 959 1119 1226 758 
Q 1494 397 1959 397 
Q 2419 397 2687 759 
Q 2956 1122 2956 1747 
Q 2956 2369 2687 2733 
Q 2419 3097 1959 3097 
z
M 1959 3584 
Q 2709 3584 3137 3096 
Q 3566 2609 3566 1747 
Q 3566 888 3137 398 
Q 2709 -91 1959 -91 
Q 1206 -91 779 398 
Q 353 888 353 1747 
Q 353 2609 779 3096 
Q 1206 3584 1959 3584 
z
" transform="scale(0.015625)"/>
       <path id="DejaVuSans-6e" d="M 3513 2113 
L 3513 0 
L 2938 0 
L 2938 2094 
Q 2938 2591 2744 2837 
Q 2550 3084 2163 3084 
Q 1697 3084 1428 2787 
Q 1159 2491 1159 1978 
L 1159 0 
L 581 0 
L 581 3500 
L 1159 3500 
L 1159 2956 
Q 1366 3272 1645 3428 
Q 1925 3584 2291 3584 
Q 2894 3584 3203 3211 
Q 3513 2838 3513 2113 
z
" transform="scale(0.015625)"/>
      </defs>
      <use xlink:href="#DejaVuSans-50"/>
      <use xlink:href="#DejaVuSans-72" x="58.552734"/>
      <use xlink:href="#DejaVuSans-65" x="97.416016"/>
      <use xlink:href="#DejaVuSans-63" x="158.939453"/>
      <use xlink:href="#DejaVuSans-69" x="213.919922"/>
      <use xlink:href="#DejaVuSans-73" x="241.703125"/>
      <use xlink:href="#DejaVuSans-69" x="293.802734"/>
      <use xlink:href="#DejaVuSans-6f" x="321.585938"/>
      <use xlink:href="#DejaVuSans-6e" x="382.767578"/>
     </g>
    </g>
   </g>
   <g id="line2d_13">
    <path d="M 61.423636 24.765455 
L 64.192048 24.765455 
L 66.960459 24.765455 
L 69.728871 24.765455 
L 72.497282 24.765455 
L 75.265693 24.765455 
L 78.034105 24.765455 
L 80.802516 24.765455 
L 83.570927 24.765455 
L 86.339339 24.765455 
L 89.10775 24.765455 
L 91.876162 24.765455 
L 94.644573 24.765455 
L 97.412984 24.765455 
L 100.181396 24.765455 
L 102.949807 24.765455 
L 105.718219 24.765455 
L 108.48663 24.765455 
L 111.255041 24.765455 
L 114.023453 24.765455 
L 116.791864 24.765455 
L 119.560275 24.765455 
L 122.328687 24.765455 
L 125.097098 24.765455 
L 127.86551 24.765455 
L 130.633921 24.765455 
L 133.402332 24.765455 
L 136.170744 24.765455 
L 138.939155 24.765455 
L 141.707567 24.765455 
L 144.475978 24.765455 
L 147.244389 24.765455 
L 150.012801 24.765455 
L 152.781212 24.765455 
L 155.549624 24.765455 
L 158.318035 24.765455 
L 161.086446 24.765455 
L 163.854858 24.765455 
L 166.623269 24.765455 
L 169.39168 24.765455 
L 172.160092 24.765455 
L 174.928503 24.765455 
L 177.696915 24.765455 
L 180.465326 24.765455 
L 183.233737 24.765455 
L 186.002149 24.765455 
L 188.77056 24.765455 
L 191.538972 24.765455 
L 194.307383 24.765455 
L 197.075794 24.765455 
L 199.844206 24.765455 
L 202.612617 24.765455 
L 205.381028 24.765455 
L 208.14944 24.765455 
L 210.917851 24.765455 
L 213.686263 24.765455 
L 216.454674 24.765455 
L 219.223085 24.765455 
L 221.991497 24.765455 
L 224.759908 24.765455 
L 227.52832 24.765455 
L 230.296731 24.765455 
L 233.065142 24.765455 
L 235.833554 24.765455 
L 238.601965 24.765455 
L 241.370376 24.765455 
L 244.138788 24.765455 
L 246.907199 24.765455 
L 249.675611 25.455107 
L 252.444022 26.136348 
L 255.212433 26.136348 
L 257.980845 26.81759 
L 260.749256 26.81759 
L 263.517668 28.196894 
L 266.286079 28.886546 
L 269.05449 29.576198 
L 271.822902 30.25744 
L 274.591313 31.636744 
L 277.359725 32.326396 
L 280.128136 32.326396 
L 282.896547 33.7057 
L 285.664959 34.386942 
L 288.43337 35.766246 
L 291.201781 37.809971 
L 293.970193 41.258232 
L 296.738604 41.939473 
L 299.507016 44.698082 
L 302.275427 47.45669 
L 305.043838 48.827584 
L 307.81225 59.853607 
L 310.580661 64.681171 
L 313.349073 82.603715 
L 316.117484 90.189887 
L 318.885895 108.120841 
L 321.654307 172.233253 
L 324.422718 172.233253 
L 327.191129 177.75047 
L 329.959541 181.854741 
L 332.727952 197.556941 
L 335.496364 304.074545 
" clip-path="url(#pe46390cdb3)" style="fill: none; stroke: #3b4cc0; stroke-width: 1.5; stroke-linecap: square"/>
   </g>
   <g id="line2d_14">
    <path d="M 61.423636 24.765455 
L 64.192048 24.765455 
L 66.960459 24.765455 
L 69.728871 24.765455 
L 72.497282 24.765455 
L 75.265693 24.765455 
L 78.034105 24.765455 
L 80.802516 24.765455 
L 83.570927 24.765455 
L 86.339339 24.765455 
L 89.10775 24.765455 
L 91.876162 24.765455 
L 94.644573 24.765455 
L 97.412984 24.765455 
L 100.181396 24.765455 
L 102.949807 24.765455 
L 105.718219 24.765455 
L 108.48663 24.765455 
L 111.255041 24.765455 
L 114.023453 24.765455 
L 116.791864 24.765455 
L 119.560275 24.765455 
L 122.328687 24.765455 
L 125.097098 24.765455 
L 127.86551 24.765455 
L 130.633921 24.765455 
L 133.402332 24.765455 
L 136.170744 24.765455 
L 138.939155 24.765455 
L 141.707567 24.765455 
L 144.475978 24.765455 
L 147.244389 24.765455 
L 150.012801 24.765455 
L 152.781212 24.765455 
L 155.549624 24.765455 
L 158.318035 24.765455 
L 161.086446 24.765455 
L 163.854858 24.765455 
L 166.623269 24.765455 
L 169.39168 24.765455 
L 172.160092 24.765455 
L 174.928503 24.765455 
L 177.696915 24.765455 
L 180.465326 24.765455 
L 183.233737 24.765455 
L 186.002149 24.765455 
L 188.77056 24.765455 
L 191.538972 24.765455 
L 194.307383 24.765455 
L 197.075794 24.765455 
L 199.844206 24.765455 
L 202.612617 24.765455 
L 205.381028 24.765455 
L 208.14944 24.765455 
L 210.917851 24.765455 
L 213.686263 24.765455 
L 216.454674 24.765455 
L 219.223085 24.765455 
L 221.991497 24.765455 
L 224.759908 24.872129 
L 227.52832 24.991814 
L 230.296731 25.111498 
L 233.065142 25.231182 
L 235.833554 25.350866 
L 238.601965 25.494477 
L 241.370376 25.994479 
L 244.138788 26.49448 
L 246.907199 26.994482 
L 249.675611 27.494484 
L 252.444022 27.626504 
L 255.212433 27.755296 
L 257.980845 27.893917 
L 260.749256 28.361203 
L 263.517668 28.961233 
L 266.286079 29.643353 
L 269.05449 30.325473 
L 271.822902 30.997479 
L 274.591313 31.993102 
L 277.359725 33.314315 
L 280.128136 35.114438 
L 282.896547 37.359298 
L 285.664959 40.274104 
L 288.43337 43.45943 
L 291.201781 46.879871 
L 293.970193 50.738054 
L 296.738604 54.647022 
L 299.507016 58.33946 
L 302.275427 61.44431 
L 305.043838 65.125287 
L 307.81225 69.583034 
L 310.580661 74.826267 
L 313.349073 81.501478 
L 316.117484 97.129917 
L 318.885895 108.421905 
L 321.654307 124.102588 
L 324.422718 143.680845 
L 327.191129 179.851071 
L 329.959541 199.761936 
L 332.727952 219.672801 
L 335.496364 304.074545 
" clip-path="url(#pe46390cdb3)" style="fill: none; stroke: #7b9ff9; stroke-width: 1.5; stroke-linecap: square"/>
   </g>
   <g id="line2d_15">
    <path d="M 61.423636 24.765455 
L 64.192048 24.765455 
L 66.960459 24.765455 
L 69.728871 24.765455 
L 72.497282 24.765455 
L 75.265693 24.765455 
L 78.034105 24.765455 
L 80.802516 24.765455 
L 83.570927 24.765455 
L 86.339339 24.765455 
L 89.10775 24.765455 
L 91.876162 24.765455 
L 94.644573 24.765455 
L 97.412984 24.765455 
L 100.181396 24.765455 
L 102.949807 24.765455 
L 105.718219 24.765455 
L 108.48663 24.765455 
L 111.255041 24.765455 
L 114.023453 24.765455 
L 116.791864 24.765455 
L 119.560275 24.765455 
L 122.328687 24.765455 
L 125.097098 24.765455 
L 127.86551 24.765455 
L 130.633921 24.765455 
L 133.402332 24.765455 
L 136.170744 24.765455 
L 138.939155 24.765455 
L 141.707567 24.765455 
L 144.475978 24.765455 
L 147.244389 24.765455 
L 150.012801 24.765455 
L 152.781212 24.765455 
L 155.549624 24.765455 
L 158.318035 24.765455 
L 161.086446 24.765455 
L 163.854858 24.765455 
L 166.623269 24.765455 
L 169.39168 24.765455 
L 172.160092 24.765455 
L 174.928503 24.765455 
L 177.696915 24.765455 
L 180.465326 24.765455 
L 183.233737 24.765455 
L 186.002149 24.765455 
L 188.77056 24.765455 
L 191.538972 24.765455 
L 194.307383 24.765455 
L 197.075794 24.765455 
L 199.844206 24.765455 
L 202.612617 24.765455 
L 205.381028 24.765455 
L 208.14944 24.765455 
L 210.917851 24.765455 
L 213.686263 24.765455 
L 216.454674 24.765455 
L 219.223085 24.765455 
L 221.991497 24.765455 
L 224.759908 24.800962 
L 227.52832 25.080117 
L 230.296731 25.475323 
L 233.065142 26.068705 
L 235.833554 26.83439 
L 238.601965 27.82475 
L 241.370376 29.050917 
L 244.138788 30.367197 
L 246.907199 31.684678 
L 249.675611 32.667514 
L 252.444022 33.373023 
L 255.212433 33.972853 
L 257.980845 34.57599 
L 260.749256 35.179953 
L 263.517668 35.783917 
L 266.286079 36.624468 
L 269.05449 38.144114 
L 271.822902 39.863841 
L 274.591313 41.676486 
L 277.359725 44.325979 
L 280.128136 47.245246 
L 282.896547 50.183783 
L 285.664959 52.690874 
L 288.43337 55.006099 
L 291.201781 57.265262 
L 293.970193 59.524426 
L 296.738604 61.783589 
L 299.507016 66.749978 
L 302.275427 72.747296 
L 305.043838 76.274129 
L 307.81225 79.800963 
L 310.580661 85.108178 
L 313.349073 101.90175 
L 316.117484 112.303434 
L 318.885895 137.011814 
L 321.654307 146.456006 
L 324.422718 157.958567 
L 327.191129 176.744838 
L 329.959541 191.202125 
L 332.727952 226.989063 
L 335.496364 304.074545 
" clip-path="url(#pe46390cdb3)" style="fill: none; stroke: #c0d4f5; stroke-width: 1.5; stroke-linecap: square"/>
   </g>
   <g id="line2d_16">
    <path d="M 61.423636 24.765455 
L 64.192048 24.765455 
L 66.960459 24.765455 
L 69.728871 24.765455 
L 72.497282 24.765455 
L 75.265693 24.765455 
L 78.034105 24.765455 
L 80.802516 24.765455 
L 83.570927 24.765455 
L 86.339339 24.765455 
L 89.10775 24.765455 
L 91.876162 24.765455 
L 94.644573 24.765455 
L 97.412984 24.765455 
L 100.181396 24.765455 
L 102.949807 24.765455 
L 105.718219 24.765455 
L 108.48663 24.765455 
L 111.255041 24.765455 
L 114.023453 24.765455 
L 116.791864 24.765455 
L 119.560275 24.765455 
L 122.328687 24.765455 
L 125.097098 24.765455 
L 127.86551 24.765455 
L 130.633921 24.765455 
L 133.402332 24.765455 
L 136.170744 24.765455 
L 138.939155 24.765455 
L 141.707567 24.765455 
L 144.475978 24.765455 
L 147.244389 24.765455 
L 150.012801 24.765455 
L 152.781212 24.765455 
L 155.549624 24.765455 
L 158.318035 24.765455 
L 161.086446 24.765455 
L 163.854858 24.765455 
L 166.623269 24.765455 
L 169.39168 24.765455 
L 172.160092 24.765455 
L 174.928503 24.765455 
L 177.696915 24.765455 
L 180.465326 24.765455 
L 183.233737 24.765455 
L 186.002149 24.765455 
L 188.77056 24.765455 
L 191.538972 24.765455 
L 194.307383 24.765455 
L 197.075794 24.765455 
L 199.844206 24.765455 
L 202.612617 24.765455 
L 205.381028 24.765455 
L 208.14944 24.765455 
L 210.917851 24.765455 
L 213.686263 24.765455 
L 216.454674 24.765455 
L 219.223085 24.765455 
L 221.991497 24.765455 
L 224.759908 25.166736 
L 227.52832 26.169076 
L 230.296731 27.171415 
L 233.065142 28.173754 
L 235.833554 29.241551 
L 238.601965 30.702099 
L 241.370376 32.162646 
L 244.138788 33.623194 
L 246.907199 35.083741 
L 249.675611 36.544288 
L 252.444022 38.004836 
L 255.212433 39.465383 
L 257.980845 40.925931 
L 260.749256 42.386478 
L 263.517668 43.587051 
L 266.286079 45.545199 
L 269.05449 46.758205 
L 271.822902 49.157625 
L 274.591313 51.968183 
L 277.359725 52.482234 
L 280.128136 55.679278 
L 282.896547 63.014234 
L 285.664959 66.190379 
L 288.43337 71.802366 
L 291.201781 81.322381 
L 293.970193 96.573738 
L 296.738604 104.625716 
L 299.507016 114.563702 
L 302.275427 141.468014 
L 305.043838 151.44204 
L 307.81225 161.416065 
L 310.580661 172.071332 
L 313.349073 182.726599 
L 316.117484 194.063108 
L 318.885895 204.037133 
L 321.654307 214.011159 
L 324.422718 225.768952 
L 327.191129 239.409143 
L 329.959541 249.383169 
L 332.727952 260.038436 
L 335.496364 304.074545 
" clip-path="url(#pe46390cdb3)" style="fill: none; stroke: #f2cbb7; stroke-width: 1.5; stroke-linecap: square"/>
   </g>
   <g id="line2d_17">
    <path d="M 61.423636 24.765455 
L 64.192048 24.765455 
L 66.960459 24.765455 
L 69.728871 24.765455 
L 72.497282 24.765455 
L 75.265693 24.765455 
L 78.034105 24.765455 
L 80.802516 24.765455 
L 83.570927 24.765455 
L 86.339339 24.765455 
L 89.10775 24.765455 
L 91.876162 24.765455 
L 94.644573 24.765455 
L 97.412984 24.765455 
L 100.181396 24.765455 
L 102.949807 24.765455 
L 105.718219 24.765455 
L 108.48663 24.765455 
L 111.255041 24.765455 
L 114.023453 24.765455 
L 116.791864 24.765455 
L 119.560275 24.765455 
L 122.328687 24.765455 
L 125.097098 24.765455 
L 127.86551 24.765455 
L 130.633921 24.765455 
L 133.402332 24.765455 
L 136.170744 24.765455 
L 138.939155 24.765455 
L 141.707567 24.765455 
L 144.475978 24.765455 
L 147.244389 24.765455 
L 150.012801 24.765455 
L 152.781212 24.765455 
L 155.549624 24.765455 
L 158.318035 24.765455 
L 161.086446 24.765455 
L 163.854858 24.765455 
L 166.623269 24.765455 
L 169.39168 24.765455 
L 172.160092 24.765455 
L 174.928503 24.765455 
L 177.696915 24.765455 
L 180.465326 24.765455 
L 183.233737 24.765455 
L 186.002149 24.765455 
L 188.77056 24.765455 
L 191.538972 24.765455 
L 194.307383 24.765455 
L 197.075794 24.765455 
L 199.844206 24.765455 
L 202.612617 24.765455 
L 205.381028 24.765455 
L 208.14944 24.765455 
L 210.917851 24.765455 
L 213.686263 24.765455 
L 216.454674 24.765455 
L 219.223085 24.765455 
L 221.991497 24.765455 
L 224.759908 24.765455 
L 227.52832 24.765455 
L 230.296731 26.127938 
L 233.065142 26.81759 
L 235.833554 26.81759 
L 238.601965 27.498832 
L 241.370376 27.498832 
L 244.138788 27.498832 
L 246.907199 27.498832 
L 249.675611 28.188484 
L 252.444022 29.550967 
L 255.212433 29.550967 
L 257.980845 29.550967 
L 260.749256 30.232209 
L 263.517668 30.921861 
L 266.286079 30.921861 
L 269.05449 31.611513 
L 271.822902 31.611513 
L 274.591313 32.990817 
L 277.359725 34.370121 
L 280.128136 35.059773 
L 282.896547 35.059773 
L 285.664959 36.430667 
L 288.43337 38.499623 
L 291.201781 41.249821 
L 293.970193 46.767038 
L 296.738604 49.508825 
L 299.507016 50.879719 
L 302.275427 52.259023 
L 305.043838 54.32798 
L 307.81225 58.457482 
L 310.580661 62.586984 
L 313.349073 66.035244 
L 316.117484 75.648321 
L 318.885895 79.096582 
L 321.654307 99.735681 
L 324.422718 107.313444 
L 327.191129 141.728765 
L 329.959541 155.521806 
L 332.727952 171.333342 
L 335.496364 304.074545 
" clip-path="url(#pe46390cdb3)" style="fill: none; stroke: #ee8468; stroke-width: 1.5; stroke-linecap: square"/>
   </g>
   <g id="line2d_18">
    <path d="M 61.423636 24.765455 
L 64.192048 24.765455 
L 66.960459 24.765455 
L 69.728871 24.765455 
L 72.497282 24.765455 
L 75.265693 24.765455 
L 78.034105 24.765455 
L 80.802516 24.765455 
L 83.570927 24.765455 
L 86.339339 24.765455 
L 89.10775 24.765455 
L 91.876162 24.765455 
L 94.644573 24.765455 
L 97.412984 24.765455 
L 100.181396 24.765455 
L 102.949807 24.765455 
L 105.718219 24.765455 
L 108.48663 24.765455 
L 111.255041 24.765455 
L 114.023453 24.765455 
L 116.791864 24.765455 
L 119.560275 24.765455 
L 122.328687 24.765455 
L 125.097098 24.765455 
L 127.86551 24.765455 
L 130.633921 24.765455 
L 133.402332 24.765455 
L 136.170744 24.765455 
L 138.939155 24.765455 
L 141.707567 24.765455 
L 144.475978 24.765455 
L 147.244389 24.765455 
L 150.012801 24.765455 
L 152.781212 24.765455 
L 155.549624 24.765455 
L 158.318035 24.765455 
L 161.086446 24.765455 
L 163.854858 24.765455 
L 166.623269 24.765455 
L 169.39168 24.765455 
L 172.160092 24.765455 
L 174.928503 24.765455 
L 177.696915 24.765455 
L 180.465326 24.765455 
L 183.233737 24.765455 
L 186.002149 24.765455 
L 188.77056 24.765455 
L 191.538972 24.765455 
L 194.307383 24.765455 
L 197.075794 24.765455 
L 199.844206 24.765455 
L 202.612617 24.765455 
L 205.381028 24.765455 
L 208.14944 24.765455 
L 210.917851 24.765455 
L 213.686263 24.765455 
L 216.454674 24.765455 
L 219.223085 24.765455 
L 221.991497 24.765455 
L 224.759908 24.765455 
L 227.52832 24.765455 
L 230.296731 24.765455 
L 233.065142 24.765455 
L 235.833554 24.765455 
L 238.601965 24.765455 
L 241.370376 24.765455 
L 244.138788 24.765455 
L 246.907199 24.765455 
L 249.675611 25.455108 
L 252.444022 25.455108 
L 255.212433 25.455108 
L 257.980845 25.455108 
L 260.749256 25.455108 
L 263.517668 25.455108 
L 266.286079 26.144762 
L 269.05449 26.144762 
L 271.822902 26.144762 
L 274.591313 26.834411 
L 277.359725 27.524059 
L 280.128136 27.524059 
L 282.896547 28.898295 
L 285.664959 32.33642 
L 288.43337 32.33642 
L 291.201781 35.08488 
L 293.970193 35.774528 
L 296.738604 38.523 
L 299.507016 39.902302 
L 302.275427 39.902302 
L 305.043838 43.325211 
L 307.81225 52.914411 
L 310.580661 56.362675 
L 313.349073 70.069509 
L 316.117484 76.266239 
L 318.885895 84.511631 
L 321.654307 91.403086 
L 324.422718 102.437515 
L 327.191129 108.63425 
L 329.959541 143.796365 
L 332.727952 210.535412 
L 335.496364 304.074545 
" clip-path="url(#pe46390cdb3)" style="fill: none; stroke: #b40426; stroke-opacity: 0.8; stroke-width: 1.5; stroke-linecap: square"/>
   </g>
   <g id="patch_3">
    <path d="M 47.72 318.04 
L 47.72 10.8 
" style="fill: none; stroke: #000000; stroke-width: 0.8; stroke-linejoin: miter; stroke-linecap: square"/>
   </g>
   <g id="patch_4">
    <path d="M 47.72 318.04 
L 349.2 318.04 
" style="fill: none; stroke: #000000; stroke-width: 0.8; stroke-linejoin: miter; stroke-linecap: square"/>
   </g>
   <g id="legend_1">
    <g id="text_15">
     <!-- AUC -->
     <g transform="translate(154.453594 218.891563)scale(0.1 -0.1)">
      <defs>
       <path id="DejaVuSans-41" d="M 2188 4044 
L 1331 1722 
L 3047 1722 
L 2188 4044 
z
M 1831 4666 
L 2547 4666 
L 4325 0 
L 3669 0 
L 3244 1197 
L 1141 1197 
L 716 0 
L 50 0 
L 1831 4666 
z
" transform="scale(0.015625)"/>
       <path id="DejaVuSans-55" d="M 556 4666 
L 1191 4666 
L 1191 1831 
Q 1191 1081 1462 751 
Q 1734 422 2344 422 
Q 2950 422 3222 751 
Q 3494 1081 3494 1831 
L 3494 4666 
L 4128 4666 
L 4128 1753 
Q 4128 841 3676 375 
Q 3225 -91 2344 -91 
Q 1459 -91 1007 375 
Q 556 841 556 1753 
L 556 4666 
z
" transform="scale(0.015625)"/>
       <path id="DejaVuSans-43" d="M 4122 4306 
L 4122 3641 
Q 3803 3938 3442 4084 
Q 3081 4231 2675 4231 
Q 1875 4231 1450 3742 
Q 1025 3253 1025 2328 
Q 1025 1406 1450 917 
Q 1875 428 2675 428 
Q 3081 428 3442 575 
Q 3803 722 4122 1019 
L 4122 359 
Q 3791 134 3420 21 
Q 3050 -91 2638 -91 
Q 1578 -91 968 557 
Q 359 1206 359 2328 
Q 359 3453 968 4101 
Q 1578 4750 2638 4750 
Q 3056 4750 3426 4639 
Q 3797 4528 4122 4306 
z
" transform="scale(0.015625)"/>
      </defs>
      <use xlink:href="#DejaVuSans-41"/>
      <use xlink:href="#DejaVuSans-55" x="68.408203"/>
      <use xlink:href="#DejaVuSans-43" x="141.601562"/>
     </g>
    </g>
    <g id="line2d_19">
     <path d="M 56.72 230.069688 
L 66.72 230.069688 
L 76.72 230.069688 
" style="fill: none; stroke: #3b4cc0; stroke-width: 1.5; stroke-linecap: square"/>
    </g>
    <g id="text_16">
     <!-- Support Vector Machine: 0.95   0.02 -->
     <g transform="translate(84.72 233.569688)scale(0.1 -0.1)">
      <defs>
       <path id="DejaVuSans-53" d="M 3425 4513 
L 3425 3897 
Q 3066 4069 2747 4153 
Q 2428 4238 2131 4238 
Q 1616 4238 1336 4038 
Q 1056 3838 1056 3469 
Q 1056 3159 1242 3001 
Q 1428 2844 1947 2747 
L 2328 2669 
Q 3034 2534 3370 2195 
Q 3706 1856 3706 1288 
Q 3706 609 3251 259 
Q 2797 -91 1919 -91 
Q 1588 -91 1214 -16 
Q 841 59 441 206 
L 441 856 
Q 825 641 1194 531 
Q 1563 422 1919 422 
Q 2459 422 2753 634 
Q 3047 847 3047 1241 
Q 3047 1584 2836 1778 
Q 2625 1972 2144 2069 
L 1759 2144 
Q 1053 2284 737 2584 
Q 422 2884 422 3419 
Q 422 4038 858 4394 
Q 1294 4750 2059 4750 
Q 2388 4750 2728 4690 
Q 3069 4631 3425 4513 
z
" transform="scale(0.015625)"/>
       <path id="DejaVuSans-75" d="M 544 1381 
L 544 3500 
L 1119 3500 
L 1119 1403 
Q 1119 906 1312 657 
Q 1506 409 1894 409 
Q 2359 409 2629 706 
Q 2900 1003 2900 1516 
L 2900 3500 
L 3475 3500 
L 3475 0 
L 2900 0 
L 2900 538 
Q 2691 219 2414 64 
Q 2138 -91 1772 -91 
Q 1169 -91 856 284 
Q 544 659 544 1381 
z
M 1991 3584 
L 1991 3584 
z
" transform="scale(0.015625)"/>
       <path id="DejaVuSans-70" d="M 1159 525 
L 1159 -1331 
L 581 -1331 
L 581 3500 
L 1159 3500 
L 1159 2969 
Q 1341 3281 1617 3432 
Q 1894 3584 2278 3584 
Q 2916 3584 3314 3078 
Q 3713 2572 3713 1747 
Q 3713 922 3314 415 
Q 2916 -91 2278 -91 
Q 1894 -91 1617 61 
Q 1341 213 1159 525 
z
M 3116 1747 
Q 3116 2381 2855 2742 
Q 2594 3103 2138 3103 
Q 1681 3103 1420 2742 
Q 1159 2381 1159 1747 
Q 1159 1113 1420 752 
Q 1681 391 2138 391 
Q 2594 391 2855 752 
Q 3116 1113 3116 1747 
z
" transform="scale(0.015625)"/>
       <path id="DejaVuSans-74" d="M 1172 4494 
L 1172 3500 
L 2356 3500 
L 2356 3053 
L 1172 3053 
L 1172 1153 
Q 1172 725 1289 603 
Q 1406 481 1766 481 
L 2356 481 
L 2356 0 
L 1766 0 
Q 1100 0 847 248 
Q 594 497 594 1153 
L 594 3053 
L 172 3053 
L 172 3500 
L 594 3500 
L 594 4494 
L 1172 4494 
z
" transform="scale(0.015625)"/>
       <path id="DejaVuSans-20" transform="scale(0.015625)"/>
       <path id="DejaVuSans-56" d="M 1831 0 
L 50 4666 
L 709 4666 
L 2188 738 
L 3669 4666 
L 4325 4666 
L 2547 0 
L 1831 0 
z
" transform="scale(0.015625)"/>
       <path id="DejaVuSans-4d" d="M 628 4666 
L 1569 4666 
L 2759 1491 
L 3956 4666 
L 4897 4666 
L 4897 0 
L 4281 0 
L 4281 4097 
L 3078 897 
L 2444 897 
L 1241 4097 
L 1241 0 
L 628 0 
L 628 4666 
z
" transform="scale(0.015625)"/>
       <path id="DejaVuSans-68" d="M 3513 2113 
L 3513 0 
L 2938 0 
L 2938 2094 
Q 2938 2591 2744 2837 
Q 2550 3084 2163 3084 
Q 1697 3084 1428 2787 
Q 1159 2491 1159 1978 
L 1159 0 
L 581 0 
L 581 4863 
L 1159 4863 
L 1159 2956 
Q 1366 3272 1645 3428 
Q 1925 3584 2291 3584 
Q 2894 3584 3203 3211 
Q 3513 2838 3513 2113 
z
" transform="scale(0.015625)"/>
       <path id="DejaVuSans-3a" d="M 750 794 
L 1409 794 
L 1409 0 
L 750 0 
L 750 794 
z
M 750 3309 
L 1409 3309 
L 1409 2516 
L 750 2516 
L 750 3309 
z
" transform="scale(0.015625)"/>
       <path id="DejaVuSans-39" d="M 703 97 
L 703 672 
Q 941 559 1184 500 
Q 1428 441 1663 441 
Q 2288 441 2617 861 
Q 2947 1281 2994 2138 
Q 2813 1869 2534 1725 
Q 2256 1581 1919 1581 
Q 1219 1581 811 2004 
Q 403 2428 403 3163 
Q 403 3881 828 4315 
Q 1253 4750 1959 4750 
Q 2769 4750 3195 4129 
Q 3622 3509 3622 2328 
Q 3622 1225 3098 567 
Q 2575 -91 1691 -91 
Q 1453 -91 1209 -44 
Q 966 3 703 97 
z
M 1959 2075 
Q 2384 2075 2632 2365 
Q 2881 2656 2881 3163 
Q 2881 3666 2632 3958 
Q 2384 4250 1959 4250 
Q 1534 4250 1286 3958 
Q 1038 3666 1038 3163 
Q 1038 2656 1286 2365 
Q 1534 2075 1959 2075 
z
" transform="scale(0.015625)"/>
       <path id="DejaVuSans-35" d="M 691 4666 
L 3169 4666 
L 3169 4134 
L 1269 4134 
L 1269 2991 
Q 1406 3038 1543 3061 
Q 1681 3084 1819 3084 
Q 2600 3084 3056 2656 
Q 3513 2228 3513 1497 
Q 3513 744 3044 326 
Q 2575 -91 1722 -91 
Q 1428 -91 1123 -41 
Q 819 9 494 109 
L 494 744 
Q 775 591 1075 516 
Q 1375 441 1709 441 
Q 2250 441 2565 725 
Q 2881 1009 2881 1497 
Q 2881 1984 2565 2268 
Q 2250 2553 1709 2553 
Q 1456 2553 1204 2497 
Q 953 2441 691 2322 
L 691 4666 
z
" transform="scale(0.015625)"/>
       <path id="DejaVuSans-b1" d="M 2944 4013 
L 2944 2803 
L 4684 2803 
L 4684 2272 
L 2944 2272 
L 2944 1063 
L 2419 1063 
L 2419 2272 
L 678 2272 
L 678 2803 
L 2419 2803 
L 2419 4013 
L 2944 4013 
z
M 678 531 
L 4684 531 
L 4684 0 
L 678 0 
L 678 531 
z
" transform="scale(0.015625)"/>
      </defs>
      <use xlink:href="#DejaVuSans-53"/>
      <use xlink:href="#DejaVuSans-75" x="63.476562"/>
      <use xlink:href="#DejaVuSans-70" x="126.855469"/>
      <use xlink:href="#DejaVuSans-70" x="190.332031"/>
      <use xlink:href="#DejaVuSans-6f" x="253.808594"/>
      <use xlink:href="#DejaVuSans-72" x="314.990234"/>
      <use xlink:href="#DejaVuSans-74" x="356.103516"/>
      <use xlink:href="#DejaVuSans-20" x="395.3125"/>
      <use xlink:href="#DejaVuSans-56" x="427.099609"/>
      <use xlink:href="#DejaVuSans-65" x="487.757812"/>
      <use xlink:href="#DejaVuSans-63" x="549.28125"/>
      <use xlink:href="#DejaVuSans-74" x="604.261719"/>
      <use xlink:href="#DejaVuSans-6f" x="643.470703"/>
      <use xlink:href="#DejaVuSans-72" x="704.652344"/>
      <use xlink:href="#DejaVuSans-20" x="745.765625"/>
      <use xlink:href="#DejaVuSans-4d" x="777.552734"/>
      <use xlink:href="#DejaVuSans-61" x="863.832031"/>
      <use xlink:href="#DejaVuSans-63" x="925.111328"/>
      <use xlink:href="#DejaVuSans-68" x="980.091797"/>
      <use xlink:href="#DejaVuSans-69" x="1043.470703"/>
      <use xlink:href="#DejaVuSans-6e" x="1071.253906"/>
      <use xlink:href="#DejaVuSans-65" x="1134.632812"/>
      <use xlink:href="#DejaVuSans-3a" x="1196.15625"/>
      <use xlink:href="#DejaVuSans-20" x="1229.847656"/>
      <use xlink:href="#DejaVuSans-30" x="1261.634766"/>
      <use xlink:href="#DejaVuSans-2e" x="1325.257812"/>
      <use xlink:href="#DejaVuSans-39" x="1357.044922"/>
      <use xlink:href="#DejaVuSans-35" x="1420.667969"/>
      <use xlink:href="#DejaVuSans-20" x="1484.291016"/>
      <use xlink:href="#DejaVuSans-b1" x="1516.078125"/>
      <use xlink:href="#DejaVuSans-20" x="1599.867188"/>
      <use xlink:href="#DejaVuSans-20" x="1631.654297"/>
      <use xlink:href="#DejaVuSans-30" x="1663.441406"/>
      <use xlink:href="#DejaVuSans-2e" x="1727.064453"/>
      <use xlink:href="#DejaVuSans-30" x="1758.851562"/>
      <use xlink:href="#DejaVuSans-32" x="1822.474609"/>
     </g>
    </g>
    <g id="line2d_20">
     <path d="M 56.72 244.747813 
L 66.72 244.747813 
L 76.72 244.747813 
" style="fill: none; stroke: #7b9ff9; stroke-width: 1.5; stroke-linecap: square"/>
    </g>
    <g id="text_17">
     <!-- K-Nearest Neighbour: 0.95   0.02 -->
     <g transform="translate(84.72 248.247813)scale(0.1 -0.1)">
      <defs>
       <path id="DejaVuSans-4b" d="M 628 4666 
L 1259 4666 
L 1259 2694 
L 3353 4666 
L 4166 4666 
L 1850 2491 
L 4331 0 
L 3500 0 
L 1259 2247 
L 1259 0 
L 628 0 
L 628 4666 
z
" transform="scale(0.015625)"/>
       <path id="DejaVuSans-2d" d="M 313 2009 
L 1997 2009 
L 1997 1497 
L 313 1497 
L 313 2009 
z
" transform="scale(0.015625)"/>
       <path id="DejaVuSans-4e" d="M 628 4666 
L 1478 4666 
L 3547 763 
L 3547 4666 
L 4159 4666 
L 4159 0 
L 3309 0 
L 1241 3903 
L 1241 0 
L 628 0 
L 628 4666 
z
" transform="scale(0.015625)"/>
       <path id="DejaVuSans-67" d="M 2906 1791 
Q 2906 2416 2648 2759 
Q 2391 3103 1925 3103 
Q 1463 3103 1205 2759 
Q 947 2416 947 1791 
Q 947 1169 1205 825 
Q 1463 481 1925 481 
Q 2391 481 2648 825 
Q 2906 1169 2906 1791 
z
M 3481 434 
Q 3481 -459 3084 -895 
Q 2688 -1331 1869 -1331 
Q 1566 -1331 1297 -1286 
Q 1028 -1241 775 -1147 
L 775 -588 
Q 1028 -725 1275 -790 
Q 1522 -856 1778 -856 
Q 2344 -856 2625 -561 
Q 2906 -266 2906 331 
L 2906 616 
Q 2728 306 2450 153 
Q 2172 0 1784 0 
Q 1141 0 747 490 
Q 353 981 353 1791 
Q 353 2603 747 3093 
Q 1141 3584 1784 3584 
Q 2172 3584 2450 3431 
Q 2728 3278 2906 2969 
L 2906 3500 
L 3481 3500 
L 3481 434 
z
" transform="scale(0.015625)"/>
       <path id="DejaVuSans-62" d="M 3116 1747 
Q 3116 2381 2855 2742 
Q 2594 3103 2138 3103 
Q 1681 3103 1420 2742 
Q 1159 2381 1159 1747 
Q 1159 1113 1420 752 
Q 1681 391 2138 391 
Q 2594 391 2855 752 
Q 3116 1113 3116 1747 
z
M 1159 2969 
Q 1341 3281 1617 3432 
Q 1894 3584 2278 3584 
Q 2916 3584 3314 3078 
Q 3713 2572 3713 1747 
Q 3713 922 3314 415 
Q 2916 -91 2278 -91 
Q 1894 -91 1617 61 
Q 1341 213 1159 525 
L 1159 0 
L 581 0 
L 581 4863 
L 1159 4863 
L 1159 2969 
z
" transform="scale(0.015625)"/>
      </defs>
      <use xlink:href="#DejaVuSans-4b"/>
      <use xlink:href="#DejaVuSans-2d" x="55.076172"/>
      <use xlink:href="#DejaVuSans-4e" x="91.160156"/>
      <use xlink:href="#DejaVuSans-65" x="165.964844"/>
      <use xlink:href="#DejaVuSans-61" x="227.488281"/>
      <use xlink:href="#DejaVuSans-72" x="288.767578"/>
      <use xlink:href="#DejaVuSans-65" x="327.630859"/>
      <use xlink:href="#DejaVuSans-73" x="389.154297"/>
      <use xlink:href="#DejaVuSans-74" x="441.253906"/>
      <use xlink:href="#DejaVuSans-20" x="480.462891"/>
      <use xlink:href="#DejaVuSans-4e" x="512.25"/>
      <use xlink:href="#DejaVuSans-65" x="587.054688"/>
      <use xlink:href="#DejaVuSans-69" x="648.578125"/>
      <use xlink:href="#DejaVuSans-67" x="676.361328"/>
      <use xlink:href="#DejaVuSans-68" x="739.837891"/>
      <use xlink:href="#DejaVuSans-62" x="803.216797"/>
      <use xlink:href="#DejaVuSans-6f" x="866.693359"/>
      <use xlink:href="#DejaVuSans-75" x="927.875"/>
      <use xlink:href="#DejaVuSans-72" x="991.253906"/>
      <use xlink:href="#DejaVuSans-3a" x="1030.617188"/>
      <use xlink:href="#DejaVuSans-20" x="1064.308594"/>
      <use xlink:href="#DejaVuSans-30" x="1096.095703"/>
      <use xlink:href="#DejaVuSans-2e" x="1159.71875"/>
      <use xlink:href="#DejaVuSans-39" x="1191.505859"/>
      <use xlink:href="#DejaVuSans-35" x="1255.128906"/>
      <use xlink:href="#DejaVuSans-20" x="1318.751953"/>
      <use xlink:href="#DejaVuSans-b1" x="1350.539062"/>
      <use xlink:href="#DejaVuSans-20" x="1434.328125"/>
      <use xlink:href="#DejaVuSans-20" x="1466.115234"/>
      <use xlink:href="#DejaVuSans-30" x="1497.902344"/>
      <use xlink:href="#DejaVuSans-2e" x="1561.525391"/>
      <use xlink:href="#DejaVuSans-30" x="1593.3125"/>
      <use xlink:href="#DejaVuSans-32" x="1656.935547"/>
     </g>
    </g>
    <g id="line2d_21">
     <path d="M 56.72 259.425938 
L 66.72 259.425938 
L 76.72 259.425938 
" style="fill: none; stroke: #c0d4f5; stroke-width: 1.5; stroke-linecap: square"/>
    </g>
    <g id="text_18">
     <!-- Random Forest: 0.93   0.02 -->
     <g transform="translate(84.72 262.925938)scale(0.1 -0.1)">
      <defs>
       <path id="DejaVuSans-64" d="M 2906 2969 
L 2906 4863 
L 3481 4863 
L 3481 0 
L 2906 0 
L 2906 525 
Q 2725 213 2448 61 
Q 2172 -91 1784 -91 
Q 1150 -91 751 415 
Q 353 922 353 1747 
Q 353 2572 751 3078 
Q 1150 3584 1784 3584 
Q 2172 3584 2448 3432 
Q 2725 3281 2906 2969 
z
M 947 1747 
Q 947 1113 1208 752 
Q 1469 391 1925 391 
Q 2381 391 2643 752 
Q 2906 1113 2906 1747 
Q 2906 2381 2643 2742 
Q 2381 3103 1925 3103 
Q 1469 3103 1208 2742 
Q 947 2381 947 1747 
z
" transform="scale(0.015625)"/>
       <path id="DejaVuSans-6d" d="M 3328 2828 
Q 3544 3216 3844 3400 
Q 4144 3584 4550 3584 
Q 5097 3584 5394 3201 
Q 5691 2819 5691 2113 
L 5691 0 
L 5113 0 
L 5113 2094 
Q 5113 2597 4934 2840 
Q 4756 3084 4391 3084 
Q 3944 3084 3684 2787 
Q 3425 2491 3425 1978 
L 3425 0 
L 2847 0 
L 2847 2094 
Q 2847 2600 2669 2842 
Q 2491 3084 2119 3084 
Q 1678 3084 1418 2786 
Q 1159 2488 1159 1978 
L 1159 0 
L 581 0 
L 581 3500 
L 1159 3500 
L 1159 2956 
Q 1356 3278 1631 3431 
Q 1906 3584 2284 3584 
Q 2666 3584 2933 3390 
Q 3200 3197 3328 2828 
z
" transform="scale(0.015625)"/>
       <path id="DejaVuSans-46" d="M 628 4666 
L 3309 4666 
L 3309 4134 
L 1259 4134 
L 1259 2759 
L 3109 2759 
L 3109 2228 
L 1259 2228 
L 1259 0 
L 628 0 
L 628 4666 
z
" transform="scale(0.015625)"/>
       <path id="DejaVuSans-33" d="M 2597 2516 
Q 3050 2419 3304 2112 
Q 3559 1806 3559 1356 
Q 3559 666 3084 287 
Q 2609 -91 1734 -91 
Q 1441 -91 1130 -33 
Q 819 25 488 141 
L 488 750 
Q 750 597 1062 519 
Q 1375 441 1716 441 
Q 2309 441 2620 675 
Q 2931 909 2931 1356 
Q 2931 1769 2642 2001 
Q 2353 2234 1838 2234 
L 1294 2234 
L 1294 2753 
L 1863 2753 
Q 2328 2753 2575 2939 
Q 2822 3125 2822 3475 
Q 2822 3834 2567 4026 
Q 2313 4219 1838 4219 
Q 1578 4219 1281 4162 
Q 984 4106 628 3988 
L 628 4550 
Q 988 4650 1302 4700 
Q 1616 4750 1894 4750 
Q 2613 4750 3031 4423 
Q 3450 4097 3450 3541 
Q 3450 3153 3228 2886 
Q 3006 2619 2597 2516 
z
" transform="scale(0.015625)"/>
      </defs>
      <use xlink:href="#DejaVuSans-52"/>
      <use xlink:href="#DejaVuSans-61" x="67.232422"/>
      <use xlink:href="#DejaVuSans-6e" x="128.511719"/>
      <use xlink:href="#DejaVuSans-64" x="191.890625"/>
      <use xlink:href="#DejaVuSans-6f" x="255.367188"/>
      <use xlink:href="#DejaVuSans-6d" x="316.548828"/>
      <use xlink:href="#DejaVuSans-20" x="413.960938"/>
      <use xlink:href="#DejaVuSans-46" x="445.748047"/>
      <use xlink:href="#DejaVuSans-6f" x="499.642578"/>
      <use xlink:href="#DejaVuSans-72" x="560.824219"/>
      <use xlink:href="#DejaVuSans-65" x="599.6875"/>
      <use xlink:href="#DejaVuSans-73" x="661.210938"/>
      <use xlink:href="#DejaVuSans-74" x="713.310547"/>
      <use xlink:href="#DejaVuSans-3a" x="752.519531"/>
      <use xlink:href="#DejaVuSans-20" x="786.210938"/>
      <use xlink:href="#DejaVuSans-30" x="817.998047"/>
      <use xlink:href="#DejaVuSans-2e" x="881.621094"/>
      <use xlink:href="#DejaVuSans-39" x="913.408203"/>
      <use xlink:href="#DejaVuSans-33" x="977.03125"/>
      <use xlink:href="#DejaVuSans-20" x="1040.654297"/>
      <use xlink:href="#DejaVuSans-b1" x="1072.441406"/>
      <use xlink:href="#DejaVuSans-20" x="1156.230469"/>
      <use xlink:href="#DejaVuSans-20" x="1188.017578"/>
      <use xlink:href="#DejaVuSans-30" x="1219.804688"/>
      <use xlink:href="#DejaVuSans-2e" x="1283.427734"/>
      <use xlink:href="#DejaVuSans-30" x="1315.214844"/>
      <use xlink:href="#DejaVuSans-32" x="1378.837891"/>
     </g>
    </g>
    <g id="line2d_22">
     <path d="M 56.72 274.104063 
L 66.72 274.104063 
L 76.72 274.104063 
" style="fill: none; stroke: #f2cbb7; stroke-width: 1.5; stroke-linecap: square"/>
    </g>
    <g id="text_19">
     <!-- LightGBM: 0.89   0.02 -->
     <g transform="translate(84.72 277.604063)scale(0.1 -0.1)">
      <defs>
       <path id="DejaVuSans-4c" d="M 628 4666 
L 1259 4666 
L 1259 531 
L 3531 531 
L 3531 0 
L 628 0 
L 628 4666 
z
" transform="scale(0.015625)"/>
       <path id="DejaVuSans-47" d="M 3809 666 
L 3809 1919 
L 2778 1919 
L 2778 2438 
L 4434 2438 
L 4434 434 
Q 4069 175 3628 42 
Q 3188 -91 2688 -91 
Q 1594 -91 976 548 
Q 359 1188 359 2328 
Q 359 3472 976 4111 
Q 1594 4750 2688 4750 
Q 3144 4750 3555 4637 
Q 3966 4525 4313 4306 
L 4313 3634 
Q 3963 3931 3569 4081 
Q 3175 4231 2741 4231 
Q 1884 4231 1454 3753 
Q 1025 3275 1025 2328 
Q 1025 1384 1454 906 
Q 1884 428 2741 428 
Q 3075 428 3337 486 
Q 3600 544 3809 666 
z
" transform="scale(0.015625)"/>
       <path id="DejaVuSans-42" d="M 1259 2228 
L 1259 519 
L 2272 519 
Q 2781 519 3026 730 
Q 3272 941 3272 1375 
Q 3272 1813 3026 2020 
Q 2781 2228 2272 2228 
L 1259 2228 
z
M 1259 4147 
L 1259 2741 
L 2194 2741 
Q 2656 2741 2882 2914 
Q 3109 3088 3109 3444 
Q 3109 3797 2882 3972 
Q 2656 4147 2194 4147 
L 1259 4147 
z
M 628 4666 
L 2241 4666 
Q 2963 4666 3353 4366 
Q 3744 4066 3744 3513 
Q 3744 3084 3544 2831 
Q 3344 2578 2956 2516 
Q 3422 2416 3680 2098 
Q 3938 1781 3938 1306 
Q 3938 681 3513 340 
Q 3088 0 2303 0 
L 628 0 
L 628 4666 
z
" transform="scale(0.015625)"/>
      </defs>
      <use xlink:href="#DejaVuSans-4c"/>
      <use xlink:href="#DejaVuSans-69" x="55.712891"/>
      <use xlink:href="#DejaVuSans-67" x="83.496094"/>
      <use xlink:href="#DejaVuSans-68" x="146.972656"/>
      <use xlink:href="#DejaVuSans-74" x="210.351562"/>
      <use xlink:href="#DejaVuSans-47" x="249.560547"/>
      <use xlink:href="#DejaVuSans-42" x="327.050781"/>
      <use xlink:href="#DejaVuSans-4d" x="395.654297"/>
      <use xlink:href="#DejaVuSans-3a" x="481.933594"/>
      <use xlink:href="#DejaVuSans-20" x="515.625"/>
      <use xlink:href="#DejaVuSans-30" x="547.412109"/>
      <use xlink:href="#DejaVuSans-2e" x="611.035156"/>
      <use xlink:href="#DejaVuSans-38" x="642.822266"/>
      <use xlink:href="#DejaVuSans-39" x="706.445312"/>
      <use xlink:href="#DejaVuSans-20" x="770.068359"/>
      <use xlink:href="#DejaVuSans-b1" x="801.855469"/>
      <use xlink:href="#DejaVuSans-20" x="885.644531"/>
      <use xlink:href="#DejaVuSans-20" x="917.431641"/>
      <use xlink:href="#DejaVuSans-30" x="949.21875"/>
      <use xlink:href="#DejaVuSans-2e" x="1012.841797"/>
      <use xlink:href="#DejaVuSans-30" x="1044.628906"/>
      <use xlink:href="#DejaVuSans-32" x="1108.251953"/>
     </g>
    </g>
    <g id="line2d_23">
     <path d="M 56.72 288.782188 
L 66.72 288.782188 
L 76.72 288.782188 
" style="fill: none; stroke: #ee8468; stroke-width: 1.5; stroke-linecap: square"/>
    </g>
    <g id="text_20">
     <!-- XGBoost: 0.96   0.02 -->
     <g transform="translate(84.72 292.282188)scale(0.1 -0.1)">
      <defs>
       <path id="DejaVuSans-58" d="M 403 4666 
L 1081 4666 
L 2241 2931 
L 3406 4666 
L 4084 4666 
L 2584 2425 
L 4184 0 
L 3506 0 
L 2194 1984 
L 872 0 
L 191 0 
L 1856 2491 
L 403 4666 
z
" transform="scale(0.015625)"/>
      </defs>
      <use xlink:href="#DejaVuSans-58"/>
      <use xlink:href="#DejaVuSans-47" x="68.505859"/>
      <use xlink:href="#DejaVuSans-42" x="145.996094"/>
      <use xlink:href="#DejaVuSans-6f" x="214.599609"/>
      <use xlink:href="#DejaVuSans-6f" x="275.78125"/>
      <use xlink:href="#DejaVuSans-73" x="336.962891"/>
      <use xlink:href="#DejaVuSans-74" x="389.0625"/>
      <use xlink:href="#DejaVuSans-3a" x="428.271484"/>
      <use xlink:href="#DejaVuSans-20" x="461.962891"/>
      <use xlink:href="#DejaVuSans-30" x="493.75"/>
      <use xlink:href="#DejaVuSans-2e" x="557.373047"/>
      <use xlink:href="#DejaVuSans-39" x="589.160156"/>
      <use xlink:href="#DejaVuSans-36" x="652.783203"/>
      <use xlink:href="#DejaVuSans-20" x="716.40625"/>
      <use xlink:href="#DejaVuSans-b1" x="748.193359"/>
      <use xlink:href="#DejaVuSans-20" x="831.982422"/>
      <use xlink:href="#DejaVuSans-20" x="863.769531"/>
      <use xlink:href="#DejaVuSans-30" x="895.556641"/>
      <use xlink:href="#DejaVuSans-2e" x="959.179688"/>
      <use xlink:href="#DejaVuSans-30" x="990.966797"/>
      <use xlink:href="#DejaVuSans-32" x="1054.589844"/>
     </g>
    </g>
    <g id="line2d_24">
     <path d="M 56.72 303.460313 
L 66.72 303.460313 
L 76.72 303.460313 
" style="fill: none; stroke: #b40426; stroke-opacity: 0.8; stroke-width: 1.5; stroke-linecap: square"/>
    </g>
    <g id="text_21">
     <!-- BINN:  0.96   0.01 -->
     <g transform="translate(84.72 306.960313)scale(0.1 -0.1)">
      <defs>
       <path id="DejaVuSans-49" d="M 628 4666 
L 1259 4666 
L 1259 0 
L 628 0 
L 628 4666 
z
" transform="scale(0.015625)"/>
      </defs>
      <use xlink:href="#DejaVuSans-42"/>
      <use xlink:href="#DejaVuSans-49" x="68.603516"/>
      <use xlink:href="#DejaVuSans-4e" x="98.095703"/>
      <use xlink:href="#DejaVuSans-4e" x="172.900391"/>
      <use xlink:href="#DejaVuSans-3a" x="247.705078"/>
      <use xlink:href="#DejaVuSans-20" x="281.396484"/>
      <use xlink:href="#DejaVuSans-20" x="313.183594"/>
      <use xlink:href="#DejaVuSans-30" x="344.970703"/>
      <use xlink:href="#DejaVuSans-2e" x="408.59375"/>
      <use xlink:href="#DejaVuSans-39" x="440.380859"/>
      <use xlink:href="#DejaVuSans-36" x="504.003906"/>
      <use xlink:href="#DejaVuSans-20" x="567.626953"/>
      <use xlink:href="#DejaVuSans-b1" x="599.414062"/>
      <use xlink:href="#DejaVuSans-20" x="683.203125"/>
      <use xlink:href="#DejaVuSans-20" x="714.990234"/>
      <use xlink:href="#DejaVuSans-30" x="746.777344"/>
      <use xlink:href="#DejaVuSans-2e" x="810.400391"/>
      <use xlink:href="#DejaVuSans-30" x="842.1875"/>
      <use xlink:href="#DejaVuSans-31" x="905.810547"/>
     </g>
    </g>
   </g>
  </g>
 </g>
 <defs>
  <clipPath id="pe46390cdb3">
   <rect x="47.72" y="10.8" width="301.48" height="307.24"/>
  </clipPath>
 </defs>
</svg>
