<?xml version="1.0" encoding="utf-8" standalone="no"?>
<!DOCTYPE svg PUBLIC "-//W3C//DTD SVG 1.1//EN"
  "http://www.w3.org/Graphics/SVG/1.1/DTD/svg11.dtd">
<svg xmlns:xlink="http://www.w3.org/1999/xlink" width="360pt" height="360pt" viewBox="0 0 360 360" xmlns="http://www.w3.org/2000/svg" version="1.1">
 <metadata>
  <rdf:RDF xmlns:dc="http://purl.org/dc/elements/1.1/" xmlns:cc="http://creativecommons.org/ns#" xmlns:rdf="http://www.w3.org/1999/02/22-rdf-syntax-ns#">
   <cc:Work>
    <dc:type rdf:resource="http://purl.org/dc/dcmitype/StillImage"/>
    <dc:date>2022-12-11T04:24:33.737294</dc:date>
    <dc:format>image/svg+xml</dc:format>
    <dc:creator>
     <cc:Agent>
      <dc:title>Matplotlib v3.5.2, https://matplotlib.org/</dc:title>
     </cc:Agent>
    </dc:creator>
   </cc:Work>
  </rdf:RDF>
 </metadata>
 <defs>
  <style type="text/css">*{stroke-linejoin: round; stroke-linecap: butt}</style>
 </defs>
 <g id="figure_1">
  <g id="patch_1">
   <path d="M 0 360 
L 360 360 
L 360 0 
L 0 0 
z
" style="fill: #ffffff"/>
  </g>
  <g id="axes_1">
   <g id="patch_2">
    <path d="M 47.72 318.04 
L 349.2 318.04 
L 349.2 10.8 
L 47.72 10.8 
z
" style="fill: #ffffff"/>
   </g>
   <g id="PolyCollection_1">
    <defs>
     <path id="mda2d474a75" d="M 61.423636 -55.925455 
L 61.423636 -55.925455 
L 64.192048 -95.955536 
L 66.960459 -126.16046 
L 69.728871 -126.16046 
L 72.497282 -160.187795 
L 75.265693 -160.187795 
L 78.034105 -214.739834 
L 80.802516 -213.9326 
L 83.570927 -239.265715 
L 86.339339 -255.998545 
L 89.10775 -255.998545 
L 91.876162 -269.260573 
L 94.644573 -269.260573 
L 97.412984 -287.375599 
L 100.181396 -287.375599 
L 102.949807 -294.874291 
L 105.718219 -297.244636 
L 108.48663 -297.244636 
L 111.255041 -303.749713 
L 114.023453 -303.749713 
L 116.791864 -303.930149 
L 119.560275 -303.930149 
L 122.328687 -310.285139 
L 125.097098 -311.771467 
L 127.86551 -311.771467 
L 130.633921 -314.35097 
L 133.402332 -314.35097 
L 136.170744 -315.829206 
L 138.939155 -315.829206 
L 141.707567 -321.625929 
L 144.475978 -321.625929 
L 147.244389 -321.625929 
L 150.012801 -322.787298 
L 152.781212 -322.787298 
L 155.549624 -323.669304 
L 158.318035 -323.669304 
L 161.086446 -323.669304 
L 163.854858 -323.669304 
L 166.623269 -323.669304 
L 169.39168 -325.306961 
L 172.160092 -325.704981 
L 174.928503 -327.027996 
L 177.696915 -327.027996 
L 180.465326 -327.027996 
L 183.233737 -327.027996 
L 186.002149 -328.754895 
L 188.77056 -329.767791 
L 191.538972 -329.767791 
L 194.307383 -329.767791 
L 197.075794 -329.648732 
L 199.844206 -329.648732 
L 202.612617 -329.648732 
L 205.381028 -329.93921 
L 208.14944 -329.93921 
L 210.917851 -330.453189 
L 213.686263 -330.453189 
L 216.454674 -330.453189 
L 219.223085 -332.184604 
L 221.991497 -332.184604 
L 224.759908 -332.184604 
L 227.52832 -332.184604 
L 230.296731 -332.184604 
L 233.065142 -332.184604 
L 235.833554 -332.184604 
L 238.601965 -332.184604 
L 241.370376 -332.184604 
L 244.138788 -335.234545 
L 246.907199 -335.234545 
L 249.675611 -335.234545 
L 252.444022 -335.234545 
L 255.212433 -335.234545 
L 257.980845 -335.234545 
L 260.749256 -335.234545 
L 263.517668 -335.234545 
L 266.286079 -335.234545 
L 269.05449 -335.234545 
L 271.822902 -335.234545 
L 274.591313 -335.234545 
L 277.359725 -335.234545 
L 280.128136 -335.234545 
L 282.896547 -335.234545 
L 285.664959 -335.234545 
L 288.43337 -335.234545 
L 291.201781 -335.234545 
L 293.970193 -335.234545 
L 296.738604 -335.234545 
L 299.507016 -335.234545 
L 302.275427 -335.234545 
L 305.043838 -335.234545 
L 307.81225 -335.234545 
L 310.580661 -335.234545 
L 313.349073 -335.234545 
L 316.117484 -335.234545 
L 318.885895 -335.234545 
L 321.654307 -335.234545 
L 324.422718 -335.234545 
L 327.191129 -335.234545 
L 329.959541 -335.234545 
L 332.727952 -335.234545 
L 335.496364 -335.234545 
L 335.496364 -335.234545 
L 335.496364 -335.234545 
L 332.727952 -335.234545 
L 329.959541 -335.234545 
L 327.191129 -335.234545 
L 324.422718 -335.234545 
L 321.654307 -335.234545 
L 318.885895 -335.234545 
L 316.117484 -335.234545 
L 313.349073 -335.234545 
L 310.580661 -335.234545 
L 307.81225 -335.234545 
L 305.043838 -335.234545 
L 302.275427 -335.234545 
L 299.507016 -335.234545 
L 296.738604 -335.234545 
L 293.970193 -335.234545 
L 291.201781 -335.234545 
L 288.43337 -335.234545 
L 285.664959 -335.234545 
L 282.896547 -335.234545 
L 280.128136 -335.234545 
L 277.359725 -335.234545 
L 274.591313 -335.234545 
L 271.822902 -335.234545 
L 269.05449 -335.234545 
L 266.286079 -335.234545 
L 263.517668 -335.234545 
L 260.749256 -335.234545 
L 257.980845 -335.234545 
L 255.212433 -335.234545 
L 252.444022 -335.234545 
L 249.675611 -335.234545 
L 246.907199 -335.234545 
L 244.138788 -335.234545 
L 241.370376 -335.234545 
L 238.601965 -335.234545 
L 235.833554 -335.234545 
L 233.065142 -335.234545 
L 230.296731 -335.234545 
L 227.52832 -335.234545 
L 224.759908 -335.234545 
L 221.991497 -335.234545 
L 219.223085 -335.234545 
L 216.454674 -335.234545 
L 213.686263 -335.234545 
L 210.917851 -335.234545 
L 208.14944 -335.046306 
L 205.381028 -335.046306 
L 202.612617 -333.95748 
L 199.844206 -333.95748 
L 197.075794 -333.95748 
L 194.307383 -332.459116 
L 191.538972 -332.459116 
L 188.77056 -332.459116 
L 186.002149 -332.092708 
L 183.233737 -332.457124 
L 180.465326 -332.457124 
L 177.696915 -332.457124 
L 174.928503 -332.457124 
L 172.160092 -332.400835 
L 169.39168 -331.419551 
L 166.623269 -331.677904 
L 163.854858 -331.677904 
L 161.086446 -331.677904 
L 158.318035 -331.677904 
L 155.549624 -331.677904 
L 152.781212 -329.801302 
L 150.012801 -329.801302 
L 147.244389 -329.600187 
L 144.475978 -329.600187 
L 141.707567 -329.600187 
L 138.939155 -329.913335 
L 136.170744 -329.913335 
L 133.402332 -328.649783 
L 130.633921 -328.649783 
L 127.86551 -325.71207 
L 125.097098 -325.71207 
L 122.328687 -325.835914 
L 119.560275 -326.673688 
L 116.791864 -326.673688 
L 114.023453 -325.47482 
L 111.255041 -325.47482 
L 108.48663 -325.100197 
L 105.718219 -325.100197 
L 102.949807 -320.590841 
L 100.181396 -319.813709 
L 97.412984 -319.813709 
L 94.644573 -318.635297 
L 91.876162 -318.635297 
L 89.10775 -316.72498 
L 86.339339 -316.72498 
L 83.570927 -307.251031 
L 80.802516 -289.87618 
L 78.034105 -283.551729 
L 75.265693 -276.035081 
L 72.497282 -276.035081 
L 69.728871 -264.612662 
L 66.960459 -264.612662 
L 64.192048 -228.930582 
L 61.423636 -55.925455 
z
" style="stroke: #3b4cc0; stroke-opacity: 0.1"/>
    </defs>
    <g clip-path="url(#pa483070ef4)">
     <use xlink:href="#mda2d474a75" x="0" y="360" style="fill: #3b4cc0; fill-opacity: 0.1; stroke: #3b4cc0; stroke-opacity: 0.1"/>
    </g>
   </g>
   <g id="PolyCollection_2">
    <defs>
     <path id="m7a4982613c" d="M 61.423636 -55.925455 
L 61.423636 -55.925455 
L 64.192048 -89.075809 
L 66.960459 -135.463666 
L 69.728871 -172.027646 
L 72.497282 -195.946981 
L 75.265693 -208.563109 
L 78.034105 -219.966253 
L 80.802516 -229.958296 
L 83.570927 -239.511038 
L 86.339339 -248.460137 
L 89.10775 -256.097622 
L 91.876162 -261.941113 
L 94.644573 -266.326149 
L 97.412984 -269.573632 
L 100.181396 -272.148578 
L 102.949807 -274.683005 
L 105.718219 -277.192104 
L 108.48663 -279.812898 
L 111.255041 -282.467263 
L 114.023453 -285.290167 
L 116.791864 -288.018897 
L 119.560275 -290.671793 
L 122.328687 -293.322718 
L 125.097098 -295.9713 
L 127.86551 -298.617069 
L 130.633921 -301.114303 
L 133.402332 -303.335289 
L 136.170744 -305.54044 
L 138.939155 -307.726069 
L 141.707567 -309.921355 
L 144.475978 -312.099613 
L 147.244389 -314.165051 
L 150.012801 -316.08013 
L 152.781212 -317.568799 
L 155.549624 -319.045379 
L 158.318035 -320.505183 
L 161.086446 -321.470389 
L 163.854858 -322.074682 
L 166.623269 -322.572947 
L 169.39168 -322.993296 
L 172.160092 -323.338743 
L 174.928503 -323.615628 
L 177.696915 -323.832278 
L 180.465326 -324.086503 
L 183.233737 -324.394094 
L 186.002149 -324.697497 
L 188.77056 -324.996579 
L 191.538972 -325.291212 
L 194.307383 -325.581276 
L 197.075794 -325.86666 
L 199.844206 -326.147262 
L 202.612617 -326.396352 
L 205.381028 -326.62326 
L 208.14944 -326.843037 
L 210.917851 -327.055599 
L 213.686263 -327.25773 
L 216.454674 -327.439299 
L 219.223085 -327.599645 
L 221.991497 -327.739879 
L 224.759908 -327.87993 
L 227.52832 -328.019787 
L 230.296731 -328.159436 
L 233.065142 -328.298864 
L 235.833554 -328.438055 
L 238.601965 -328.659569 
L 241.370376 -329.028214 
L 244.138788 -329.394423 
L 246.907199 -329.757649 
L 249.675611 -330.117177 
L 252.444022 -330.472065 
L 255.212433 -330.821048 
L 257.980845 -331.162416 
L 260.749256 -331.49383 
L 263.517668 -331.812082 
L 266.286079 -332.112806 
L 269.05449 -332.390221 
L 271.822902 -332.637131 
L 274.591313 -332.894535 
L 277.359725 -333.14898 
L 280.128136 -333.358385 
L 282.896547 -333.493536 
L 285.664959 -333.585168 
L 288.43337 -333.6768 
L 291.201781 -333.768432 
L 293.970193 -333.860064 
L 296.738604 -333.951696 
L 299.507016 -334.043328 
L 302.275427 -334.13496 
L 305.043838 -334.226592 
L 307.81225 -334.318225 
L 310.580661 -334.409857 
L 313.349073 -334.501489 
L 316.117484 -334.593121 
L 318.885895 -334.684753 
L 321.654307 -334.776385 
L 324.422718 -334.868017 
L 327.191129 -334.959649 
L 329.959541 -335.051281 
L 332.727952 -335.142913 
L 335.496364 -335.234545 
L 335.496364 -335.234545 
L 335.496364 -335.234545 
L 332.727952 -335.234545 
L 329.959541 -335.234545 
L 327.191129 -335.234545 
L 324.422718 -335.234545 
L 321.654307 -335.234545 
L 318.885895 -335.234545 
L 316.117484 -335.234545 
L 313.349073 -335.234545 
L 310.580661 -335.234545 
L 307.81225 -335.234545 
L 305.043838 -335.234545 
L 302.275427 -335.234545 
L 299.507016 -335.234545 
L 296.738604 -335.234545 
L 293.970193 -335.234545 
L 291.201781 -335.234545 
L 288.43337 -335.234545 
L 285.664959 -335.234545 
L 282.896547 -335.234545 
L 280.128136 -335.234545 
L 277.359725 -335.234545 
L 274.591313 -335.234545 
L 271.822902 -335.234545 
L 269.05449 -335.234545 
L 266.286079 -335.234545 
L 263.517668 -335.234545 
L 260.749256 -335.234545 
L 257.980845 -335.234545 
L 255.212433 -335.234545 
L 252.444022 -335.234545 
L 249.675611 -335.234545 
L 246.907199 -335.234545 
L 244.138788 -335.234545 
L 241.370376 -335.234545 
L 238.601965 -335.234545 
L 235.833554 -335.234545 
L 233.065142 -335.234545 
L 230.296731 -335.234545 
L 227.52832 -335.234545 
L 224.759908 -335.234545 
L 221.991497 -335.234545 
L 219.223085 -335.234545 
L 216.454674 -335.234545 
L 213.686263 -335.234545 
L 210.917851 -335.234545 
L 208.14944 -335.234545 
L 205.381028 -335.234545 
L 202.612617 -335.234545 
L 199.844206 -335.234545 
L 197.075794 -335.234545 
L 194.307383 -335.234545 
L 191.538972 -335.036707 
L 188.77056 -334.829223 
L 186.002149 -334.626187 
L 183.233737 -334.427473 
L 180.465326 -334.232946 
L 177.696915 -333.790001 
L 174.928503 -333.04941 
L 172.160092 -332.369054 
L 169.39168 -331.75726 
L 166.623269 -331.220367 
L 163.854858 -330.761391 
L 161.086446 -330.294247 
L 158.318035 -329.866164 
L 155.549624 -329.581736 
L 152.781212 -329.314084 
L 150.012801 -329.058521 
L 147.244389 -328.756331 
L 144.475978 -328.483753 
L 141.707567 -328.007532 
L 138.939155 -327.484647 
L 136.170744 -326.792879 
L 133.402332 -326.120633 
L 130.633921 -325.464221 
L 127.86551 -324.731258 
L 125.097098 -323.823977 
L 122.328687 -322.919508 
L 119.560275 -322.017382 
L 116.791864 -321.117229 
L 114.023453 -320.23071 
L 111.255041 -319.361239 
L 108.48663 -318.039192 
L 105.718219 -316.549029 
L 102.949807 -314.202786 
L 100.181396 -311.80889 
L 97.412984 -309.455514 
L 94.644573 -307.291919 
L 91.876162 -305.461282 
L 89.10775 -300.851339 
L 86.339339 -294.938342 
L 83.570927 -289.215777 
L 80.802516 -283.492054 
L 78.034105 -273.136252 
L 75.265693 -264.13582 
L 72.497282 -256.139388 
L 69.728871 -243.48324 
L 66.960459 -229.637204 
L 64.192048 -215.430486 
L 61.423636 -55.925455 
z
" style="stroke: #7b9ff9; stroke-opacity: 0.1"/>
    </defs>
    <g clip-path="url(#pa483070ef4)">
     <use xlink:href="#m7a4982613c" x="0" y="360" style="fill: #7b9ff9; fill-opacity: 0.1; stroke: #7b9ff9; stroke-opacity: 0.1"/>
    </g>
   </g>
   <g id="PolyCollection_3">
    <defs>
     <path id="m5bfd99c8ce" d="M 61.423636 -55.925455 
L 61.423636 -55.925455 
L 64.192048 -100.552206 
L 66.960459 -119.158958 
L 69.728871 -138.210907 
L 72.497282 -154.512423 
L 75.265693 -167.536171 
L 78.034105 -180.011929 
L 80.802516 -192.014957 
L 83.570927 -201.474961 
L 86.339339 -212.799228 
L 89.10775 -233.933841 
L 91.876162 -250.65613 
L 94.644573 -262.608209 
L 97.412984 -268.598343 
L 100.181396 -271.861198 
L 102.949807 -275.214604 
L 105.718219 -278.500375 
L 108.48663 -281.676714 
L 111.255041 -284.435101 
L 114.023453 -286.521258 
L 116.791864 -288.595649 
L 119.560275 -290.657007 
L 122.328687 -292.703923 
L 125.097098 -294.734832 
L 127.86551 -296.748007 
L 130.633921 -298.741553 
L 133.402332 -300.713412 
L 136.170744 -302.679696 
L 138.939155 -304.639761 
L 141.707567 -306.113478 
L 144.475978 -307.409602 
L 147.244389 -308.499953 
L 150.012801 -309.55785 
L 152.781212 -310.593264 
L 155.549624 -311.604054 
L 158.318035 -312.588051 
L 161.086446 -313.543117 
L 163.854858 -314.467234 
L 166.623269 -315.358596 
L 169.39168 -316.218499 
L 172.160092 -317.041777 
L 174.928503 -317.826443 
L 177.696915 -318.572054 
L 180.465326 -319.039788 
L 183.233737 -319.31873 
L 186.002149 -319.596021 
L 188.77056 -319.871612 
L 191.538972 -320.145457 
L 194.307383 -320.400992 
L 197.075794 -320.60978 
L 199.844206 -320.817073 
L 202.612617 -321.026185 
L 205.381028 -321.236193 
L 208.14944 -321.445234 
L 210.917851 -321.653273 
L 213.686263 -321.860275 
L 216.454674 -322.066203 
L 219.223085 -322.271018 
L 221.991497 -322.474682 
L 224.759908 -322.806401 
L 227.52832 -323.189467 
L 230.296731 -323.554194 
L 233.065142 -323.900158 
L 235.833554 -324.2271 
L 238.601965 -324.53227 
L 241.370376 -324.811931 
L 244.138788 -325.039242 
L 246.907199 -325.240477 
L 249.675611 -325.44154 
L 252.444022 -325.642423 
L 255.212433 -325.843113 
L 257.980845 -326.043601 
L 260.749256 -326.243872 
L 263.517668 -326.553945 
L 266.286079 -326.966383 
L 269.05449 -327.378787 
L 271.822902 -327.791153 
L 274.591313 -328.203474 
L 277.359725 -328.623204 
L 280.128136 -329.06996 
L 282.896547 -329.516116 
L 285.664959 -329.961529 
L 288.43337 -330.406004 
L 291.201781 -330.849277 
L 293.970193 -331.290974 
L 296.738604 -331.730553 
L 299.507016 -332.167202 
L 302.275427 -332.599649 
L 305.043838 -333.025819 
L 307.81225 -333.307801 
L 310.580661 -333.500476 
L 313.349073 -333.69315 
L 316.117484 -333.885825 
L 318.885895 -334.078499 
L 321.654307 -334.271173 
L 324.422718 -334.463848 
L 327.191129 -334.656522 
L 329.959541 -334.849197 
L 332.727952 -335.041871 
L 335.496364 -335.234545 
L 335.496364 -335.234545 
L 335.496364 -335.234545 
L 332.727952 -335.234545 
L 329.959541 -335.234545 
L 327.191129 -335.234545 
L 324.422718 -335.234545 
L 321.654307 -335.234545 
L 318.885895 -335.234545 
L 316.117484 -335.234545 
L 313.349073 -335.234545 
L 310.580661 -335.234545 
L 307.81225 -335.234545 
L 305.043838 -335.234545 
L 302.275427 -335.234545 
L 299.507016 -335.234545 
L 296.738604 -335.234545 
L 293.970193 -335.234545 
L 291.201781 -335.234545 
L 288.43337 -335.234545 
L 285.664959 -335.234545 
L 282.896547 -335.234545 
L 280.128136 -335.234545 
L 277.359725 -335.234545 
L 274.591313 -335.234545 
L 271.822902 -335.234545 
L 269.05449 -335.234545 
L 266.286079 -335.234545 
L 263.517668 -335.234545 
L 260.749256 -335.234545 
L 257.980845 -335.234545 
L 255.212433 -335.234545 
L 252.444022 -335.234545 
L 249.675611 -335.234545 
L 246.907199 -335.234545 
L 244.138788 -335.234545 
L 241.370376 -335.234545 
L 238.601965 -335.234545 
L 235.833554 -335.234545 
L 233.065142 -335.234545 
L 230.296731 -335.234545 
L 227.52832 -335.234545 
L 224.759908 -335.213904 
L 221.991497 -335.036481 
L 219.223085 -334.978337 
L 216.454674 -334.921345 
L 213.686263 -334.865465 
L 210.917851 -334.810659 
L 208.14944 -334.756891 
L 205.381028 -334.704124 
L 202.612617 -334.652325 
L 199.844206 -334.557832 
L 197.075794 -334.389869 
L 194.307383 -334.2234 
L 191.538972 -334.071434 
L 188.77056 -333.925982 
L 186.002149 -333.782277 
L 183.233737 -333.640271 
L 180.465326 -333.499916 
L 177.696915 -333.079297 
L 174.928503 -332.311146 
L 172.160092 -331.582051 
L 169.39168 -330.891567 
L 166.623269 -330.228155 
L 163.854858 -329.560376 
L 161.086446 -328.925352 
L 158.318035 -328.321277 
L 155.549624 -327.746132 
L 152.781212 -327.197782 
L 150.012801 -326.674054 
L 147.244389 -326.17281 
L 144.475978 -325.691634 
L 141.707567 -325.072016 
L 138.939155 -324.30351 
L 136.170744 -323.487278 
L 133.402332 -322.443819 
L 130.633921 -321.188591 
L 127.86551 -319.95505 
L 125.097098 -318.741139 
L 122.328687 -317.544961 
L 119.560275 -316.36479 
L 116.791864 -315.199061 
L 114.023453 -314.046364 
L 111.255041 -312.905435 
L 108.48663 -311.18375 
L 105.718219 -309.2865 
L 102.949807 -307.498681 
L 100.181396 -305.806363 
L 97.412984 -304.190681 
L 94.644573 -300.500964 
L 91.876162 -294.311235 
L 89.10775 -289.575812 
L 86.339339 -287.10713 
L 83.570927 -283.202381 
L 80.802516 -278.412815 
L 78.034105 -270.913772 
L 75.265693 -262.249726 
L 72.497282 -250.376518 
L 69.728871 -240.782876 
L 66.960459 -233.074558 
L 64.192048 -221.995245 
L 61.423636 -55.925455 
z
" style="stroke: #c0d4f5; stroke-opacity: 0.1"/>
    </defs>
    <g clip-path="url(#pa483070ef4)">
     <use xlink:href="#m5bfd99c8ce" x="0" y="360" style="fill: #c0d4f5; fill-opacity: 0.1; stroke: #c0d4f5; stroke-opacity: 0.1"/>
    </g>
   </g>
   <g id="PolyCollection_4">
    <defs>
     <path id="m7bcefac997" d="M 61.423636 -55.925455 
L 61.423636 -55.925455 
L 64.192048 -55.925455 
L 66.960459 -55.925455 
L 69.728871 -57.322434 
L 72.497282 -64.172511 
L 75.265693 -75.550314 
L 78.034105 -86.492726 
L 80.802516 -98.192587 
L 83.570927 -109.849127 
L 86.339339 -120.139728 
L 89.10775 -131.697112 
L 91.876162 -141.907577 
L 94.644573 -153.326612 
L 97.412984 -164.631645 
L 100.181396 -175.788 
L 102.949807 -186.748077 
L 105.718219 -196.684741 
L 108.48663 -206.536297 
L 111.255041 -215.989431 
L 114.023453 -225.629141 
L 116.791864 -236.639935 
L 119.560275 -243.613085 
L 122.328687 -250.158684 
L 125.097098 -257.889656 
L 127.86551 -262.248843 
L 130.633921 -273.398259 
L 133.402332 -277.814689 
L 136.170744 -282.980233 
L 138.939155 -284.137614 
L 141.707567 -285.820065 
L 144.475978 -286.145129 
L 147.244389 -290.783795 
L 150.012801 -293.121458 
L 152.781212 -293.515083 
L 155.549624 -294.508466 
L 158.318035 -294.904689 
L 161.086446 -295.452279 
L 163.854858 -295.731252 
L 166.623269 -296.109106 
L 169.39168 -297.072335 
L 172.160092 -297.485205 
L 174.928503 -298.947201 
L 177.696915 -299.679427 
L 180.465326 -300.315077 
L 183.233737 -301.054464 
L 186.002149 -301.790427 
L 188.77056 -302.522773 
L 191.538972 -303.251301 
L 194.307383 -303.975796 
L 197.075794 -304.696031 
L 199.844206 -305.411768 
L 202.612617 -306.122756 
L 205.381028 -306.830631 
L 208.14944 -307.537339 
L 210.917851 -308.242591 
L 213.686263 -308.946271 
L 216.454674 -309.64825 
L 219.223085 -310.348386 
L 221.991497 -311.04652 
L 224.759908 -311.742479 
L 227.52832 -312.436069 
L 230.296731 -313.127073 
L 233.065142 -313.815252 
L 235.833554 -314.50034 
L 238.601965 -315.182037 
L 241.370376 -315.860013 
L 244.138788 -316.533894 
L 246.907199 -317.203268 
L 249.675611 -317.86767 
L 252.444022 -318.526586 
L 255.212433 -319.17944 
L 257.980845 -319.825594 
L 260.749256 -320.464342 
L 263.517668 -321.090567 
L 266.286079 -321.634566 
L 269.05449 -322.178565 
L 271.822902 -322.722565 
L 274.591313 -323.266564 
L 277.359725 -323.810563 
L 280.128136 -324.354562 
L 282.896547 -324.898561 
L 285.664959 -325.44256 
L 288.43337 -325.98656 
L 291.201781 -326.530559 
L 293.970193 -327.074558 
L 296.738604 -327.618557 
L 299.507016 -328.162556 
L 302.275427 -328.706555 
L 305.043838 -329.250555 
L 307.81225 -329.794554 
L 310.580661 -330.338553 
L 313.349073 -330.882552 
L 316.117484 -331.426551 
L 318.885895 -331.97055 
L 321.654307 -332.51455 
L 324.422718 -333.058549 
L 327.191129 -333.602548 
L 329.959541 -334.146547 
L 332.727952 -334.690546 
L 335.496364 -335.234545 
L 335.496364 -335.234545 
L 335.496364 -335.234545 
L 332.727952 -335.12816 
L 329.959541 -335.021775 
L 327.191129 -334.915389 
L 324.422718 -334.809004 
L 321.654307 -334.702619 
L 318.885895 -334.596233 
L 316.117484 -334.489848 
L 313.349073 -334.383463 
L 310.580661 -334.277077 
L 307.81225 -334.170692 
L 305.043838 -334.064307 
L 302.275427 -333.957921 
L 299.507016 -333.851536 
L 296.738604 -333.745151 
L 293.970193 -333.638765 
L 291.201781 -333.53238 
L 288.43337 -333.425994 
L 285.664959 -333.319609 
L 282.896547 -333.213224 
L 280.128136 -333.106838 
L 277.359725 -333.000453 
L 274.591313 -332.894068 
L 271.822902 -332.787682 
L 269.05449 -332.681297 
L 266.286079 -332.574912 
L 263.517668 -332.468526 
L 260.749256 -332.227902 
L 257.980845 -331.987775 
L 255.212433 -331.755054 
L 252.444022 -331.529032 
L 249.675611 -331.309073 
L 246.907199 -331.0946 
L 244.138788 -330.885098 
L 241.370376 -330.680104 
L 238.601965 -330.479204 
L 235.833554 -330.282026 
L 233.065142 -330.088238 
L 230.296731 -329.897543 
L 227.52832 -329.709672 
L 224.759908 -329.524386 
L 221.991497 -329.341469 
L 219.223085 -329.160729 
L 216.454674 -328.981989 
L 213.686263 -328.805093 
L 210.917851 -328.629898 
L 208.14944 -328.456274 
L 205.381028 -328.284107 
L 202.612617 -328.074405 
L 199.844206 -327.762035 
L 197.075794 -327.454412 
L 194.307383 -327.151288 
L 191.538972 -326.852424 
L 188.77056 -326.557593 
L 186.002149 -326.26658 
L 183.233737 -325.979184 
L 180.465326 -325.695212 
L 177.696915 -323.928198 
L 174.928503 -323.637066 
L 172.160092 -318.730318 
L 169.39168 -318.696678 
L 166.623269 -317.851691 
L 163.854858 -317.719826 
L 161.086446 -316.923426 
L 158.318035 -315.294986 
L 155.549624 -315.396048 
L 152.781212 -314.714966 
L 150.012801 -314.81343 
L 147.244389 -309.959412 
L 144.475978 -306.027092 
L 141.707567 -306.056995 
L 138.939155 -306.064981 
L 136.170744 -305.547897 
L 133.402332 -304.55647 
L 130.633921 -305.348833 
L 127.86551 -297.116676 
L 125.097098 -297.071584 
L 122.328687 -290.436634 
L 119.560275 -289.457104 
L 116.791864 -288.905125 
L 114.023453 -283.696993 
L 111.255041 -281.84085 
L 108.48663 -278.418826 
L 105.718219 -276.774529 
L 102.949807 -247.868443 
L 100.181396 -243.033242 
L 97.412984 -238.39432 
L 94.644573 -233.904076 
L 91.876162 -229.527834 
L 89.10775 -221.218055 
L 86.339339 -216.980162 
L 83.570927 -208.750519 
L 80.802516 -204.611781 
L 78.034105 -200.516365 
L 75.265693 -194.067055 
L 72.497282 -188.878883 
L 69.728871 -170.038475 
L 66.960459 -166.042713 
L 64.192048 -162.068357 
L 61.423636 -55.925455 
z
" style="stroke: #f2cbb7; stroke-opacity: 0.1"/>
    </defs>
    <g clip-path="url(#pa483070ef4)">
     <use xlink:href="#m7bcefac997" x="0" y="360" style="fill: #f2cbb7; fill-opacity: 0.1; stroke: #f2cbb7; stroke-opacity: 0.1"/>
    </g>
   </g>
   <g id="PolyCollection_5">
    <defs>
     <path id="mc95072455e" d="M 61.423636 -55.925455 
L 61.423636 -55.925455 
L 64.192048 -150.741896 
L 66.960459 -193.955986 
L 69.728871 -193.955986 
L 72.497282 -234.08738 
L 75.265693 -234.08738 
L 78.034105 -243.866456 
L 80.802516 -241.907223 
L 83.570927 -262.365202 
L 86.339339 -273.889509 
L 89.10775 -273.889509 
L 91.876162 -282.568738 
L 94.644573 -282.568738 
L 97.412984 -287.051633 
L 100.181396 -287.051633 
L 102.949807 -293.106357 
L 105.718219 -295.712558 
L 108.48663 -295.712558 
L 111.255041 -295.8748 
L 114.023453 -295.8748 
L 116.791864 -297.998822 
L 119.560275 -297.998822 
L 122.328687 -299.30757 
L 125.097098 -305.671043 
L 127.86551 -305.671043 
L 130.633921 -311.82214 
L 133.402332 -311.82214 
L 136.170744 -313.499596 
L 138.939155 -313.807473 
L 141.707567 -314.025739 
L 144.475978 -314.025739 
L 147.244389 -318.399795 
L 150.012801 -318.477105 
L 152.781212 -318.477105 
L 155.549624 -318.477105 
L 158.318035 -318.477105 
L 161.086446 -318.477105 
L 163.854858 -319.026484 
L 166.623269 -320.016337 
L 169.39168 -320.711513 
L 172.160092 -320.711513 
L 174.928503 -320.711513 
L 177.696915 -320.711513 
L 180.465326 -321.251518 
L 183.233737 -321.251518 
L 186.002149 -321.251518 
L 188.77056 -321.251518 
L 191.538972 -321.813898 
L 194.307383 -321.813898 
L 197.075794 -321.813898 
L 199.844206 -321.813898 
L 202.612617 -321.813898 
L 205.381028 -323.829107 
L 208.14944 -323.829107 
L 210.917851 -324.135052 
L 213.686263 -324.135052 
L 216.454674 -324.135052 
L 219.223085 -324.135052 
L 221.991497 -324.135052 
L 224.759908 -324.135052 
L 227.52832 -324.135052 
L 230.296731 -324.135052 
L 233.065142 -324.135052 
L 235.833554 -324.135052 
L 238.601965 -328.080145 
L 241.370376 -328.080145 
L 244.138788 -328.527403 
L 246.907199 -328.527403 
L 249.675611 -328.527403 
L 252.444022 -328.527403 
L 255.212433 -328.527403 
L 257.980845 -328.527403 
L 260.749256 -328.527403 
L 263.517668 -328.527403 
L 266.286079 -328.527403 
L 269.05449 -328.527403 
L 271.822902 -328.527403 
L 274.591313 -328.527403 
L 277.359725 -330.453189 
L 280.128136 -330.453189 
L 282.896547 -330.453189 
L 285.664959 -330.453189 
L 288.43337 -330.453189 
L 291.201781 -330.453189 
L 293.970193 -330.453189 
L 296.738604 -330.453189 
L 299.507016 -331.147095 
L 302.275427 -331.147095 
L 305.043838 -331.147095 
L 307.81225 -331.147095 
L 310.580661 -331.147095 
L 313.349073 -331.147095 
L 316.117484 -331.147095 
L 318.885895 -331.147095 
L 321.654307 -335.234545 
L 324.422718 -335.234545 
L 327.191129 -335.234545 
L 329.959541 -335.234545 
L 332.727952 -335.234545 
L 335.496364 -335.234545 
L 335.496364 -335.234545 
L 335.496364 -335.234545 
L 332.727952 -335.234545 
L 329.959541 -335.234545 
L 327.191129 -335.234545 
L 324.422718 -335.234545 
L 321.654307 -335.234545 
L 318.885895 -335.234545 
L 316.117484 -335.234545 
L 313.349073 -335.234545 
L 310.580661 -335.234545 
L 307.81225 -335.234545 
L 305.043838 -335.234545 
L 302.275427 -335.234545 
L 299.507016 -335.234545 
L 296.738604 -335.234545 
L 293.970193 -335.234545 
L 291.201781 -335.234545 
L 288.43337 -335.234545 
L 285.664959 -335.234545 
L 282.896547 -335.234545 
L 280.128136 -335.234545 
L 277.359725 -335.234545 
L 274.591313 -335.234545 
L 271.822902 -335.234545 
L 269.05449 -335.234545 
L 266.286079 -335.234545 
L 263.517668 -335.234545 
L 260.749256 -335.234545 
L 257.980845 -335.234545 
L 255.212433 -335.234545 
L 252.444022 -335.234545 
L 249.675611 -335.234545 
L 246.907199 -335.234545 
L 244.138788 -335.234545 
L 241.370376 -335.234545 
L 238.601965 -335.234545 
L 235.833554 -335.234545 
L 233.065142 -335.234545 
L 230.296731 -335.234545 
L 227.52832 -335.234545 
L 224.759908 -335.234545 
L 221.991497 -335.234545 
L 219.223085 -335.234545 
L 216.454674 -335.234545 
L 213.686263 -335.234545 
L 210.917851 -335.234545 
L 208.14944 -335.234545 
L 205.381028 -335.234545 
L 202.612617 -335.234545 
L 199.844206 -335.234545 
L 197.075794 -335.234545 
L 194.307383 -335.234545 
L 191.538972 -335.234545 
L 188.77056 -335.234545 
L 186.002149 -335.234545 
L 183.233737 -335.234545 
L 180.465326 -335.234545 
L 177.696915 -333.306853 
L 174.928503 -333.306853 
L 172.160092 -333.306853 
L 169.39168 -333.306853 
L 166.623269 -332.622725 
L 163.854858 -332.233273 
L 161.086446 -331.403348 
L 158.318035 -331.403348 
L 155.549624 -331.403348 
L 152.781212 -331.403348 
L 150.012801 -331.403348 
L 147.244389 -330.101354 
L 144.475978 -328.975015 
L 141.707567 -328.975015 
L 138.939155 -326.434672 
L 136.170744 -325.363245 
L 133.402332 -325.678218 
L 130.633921 -325.678218 
L 127.86551 -323.553489 
L 125.097098 -323.553489 
L 122.328687 -323.054083 
L 119.560275 -321.604223 
L 116.791864 -321.604223 
L 114.023453 -319.607153 
L 111.255041 -319.607153 
L 108.48663 -318.390092 
L 105.718219 -318.390092 
L 102.949807 -314.099772 
L 100.181396 -313.274796 
L 97.412984 -313.274796 
L 94.644573 -310.87799 
L 91.876162 -310.87799 
L 89.10775 -305.831461 
L 86.339339 -305.831461 
L 83.570927 -304.958851 
L 80.802516 -291.035151 
L 78.034105 -282.179398 
L 75.265693 -271.285733 
L 72.497282 -271.285733 
L 69.728871 -249.483006 
L 66.960459 -249.483006 
L 64.192048 -226.59142 
L 61.423636 -55.925455 
z
" style="stroke: #ee8468; stroke-opacity: 0.1"/>
    </defs>
    <g clip-path="url(#pa483070ef4)">
     <use xlink:href="#mc95072455e" x="0" y="360" style="fill: #ee8468; fill-opacity: 0.1; stroke: #ee8468; stroke-opacity: 0.1"/>
    </g>
   </g>
   <g id="PolyCollection_6">
    <defs>
     <path id="m5d5be3527b" d="M 61.423636 -55.925455 
L 61.423636 -55.925455 
L 64.192048 -142.995953 
L 66.960459 -161.55607 
L 69.728871 -227.73809 
L 72.497282 -232.088164 
L 75.265693 -233.515276 
L 78.034105 -241.399035 
L 80.802516 -253.472406 
L 83.570927 -254.910453 
L 86.339339 -258.793955 
L 89.10775 -270.218032 
L 91.876162 -273.926663 
L 94.644573 -289.367069 
L 97.412984 -289.649015 
L 100.181396 -294.600508 
L 102.949807 -303.906311 
L 105.718219 -312.169931 
L 108.48663 -312.289807 
L 111.255041 -318.465188 
L 114.023453 -319.096342 
L 116.791864 -319.096342 
L 119.560275 -319.096342 
L 122.328687 -320.52579 
L 125.097098 -320.52579 
L 127.86551 -321.125717 
L 130.633921 -323.23174 
L 133.402332 -323.225446 
L 136.170744 -324.646889 
L 138.939155 -324.646889 
L 141.707567 -326.666751 
L 144.475978 -326.666751 
L 147.244389 -326.666751 
L 150.012801 -327.336083 
L 152.781212 -329.434558 
L 155.549624 -329.406196 
L 158.318035 -330.808876 
L 161.086446 -330.808876 
L 163.854858 -330.525313 
L 166.623269 -330.525313 
L 169.39168 -330.525313 
L 172.160092 -330.525313 
L 174.928503 -331.476296 
L 177.696915 -332.87992 
L 180.465326 -332.87992 
L 183.233737 -332.87992 
L 186.002149 -332.87992 
L 188.77056 -332.87992 
L 191.538972 -332.87992 
L 194.307383 -332.87992 
L 197.075794 -333.569574 
L 199.844206 -333.569574 
L 202.612617 -333.569574 
L 205.381028 -333.569574 
L 208.14944 -333.569574 
L 210.917851 -333.569574 
L 213.686263 -333.569574 
L 216.454674 -333.569574 
L 219.223085 -333.569574 
L 221.991497 -333.569574 
L 224.759908 -333.569574 
L 227.52832 -333.569574 
L 230.296731 -333.569574 
L 233.065142 -333.569574 
L 235.833554 -333.569574 
L 238.601965 -333.569574 
L 241.370376 -333.569574 
L 244.138788 -333.569574 
L 246.907199 -333.569574 
L 249.675611 -335.234545 
L 252.444022 -335.234545 
L 255.212433 -335.234545 
L 257.980845 -335.234545 
L 260.749256 -335.234545 
L 263.517668 -335.234545 
L 266.286079 -335.234545 
L 269.05449 -335.234545 
L 271.822902 -335.234545 
L 274.591313 -335.234545 
L 277.359725 -335.234545 
L 280.128136 -335.234545 
L 282.896547 -335.234545 
L 285.664959 -335.234545 
L 288.43337 -335.234545 
L 291.201781 -335.234545 
L 293.970193 -335.234545 
L 296.738604 -335.234545 
L 299.507016 -335.234545 
L 302.275427 -335.234545 
L 305.043838 -335.234545 
L 307.81225 -335.234545 
L 310.580661 -335.234545 
L 313.349073 -335.234545 
L 316.117484 -335.234545 
L 318.885895 -335.234545 
L 321.654307 -335.234545 
L 324.422718 -335.234545 
L 327.191129 -335.234545 
L 329.959541 -335.234545 
L 332.727952 -335.234545 
L 335.496364 -335.234545 
L 335.496364 -335.234545 
L 335.496364 -335.234545 
L 332.727952 -335.234545 
L 329.959541 -335.234545 
L 327.191129 -335.234545 
L 324.422718 -335.234545 
L 321.654307 -335.234545 
L 318.885895 -335.234545 
L 316.117484 -335.234545 
L 313.349073 -335.234545 
L 310.580661 -335.234545 
L 307.81225 -335.234545 
L 305.043838 -335.234545 
L 302.275427 -335.234545 
L 299.507016 -335.234545 
L 296.738604 -335.234545 
L 293.970193 -335.234545 
L 291.201781 -335.234545 
L 288.43337 -335.234545 
L 285.664959 -335.234545 
L 282.896547 -335.234545 
L 280.128136 -335.234545 
L 277.359725 -335.234545 
L 274.591313 -335.234545 
L 271.822902 -335.234545 
L 269.05449 -335.234545 
L 266.286079 -335.234545 
L 263.517668 -335.234545 
L 260.749256 -335.234545 
L 257.980845 -335.234545 
L 255.212433 -335.234545 
L 252.444022 -335.234545 
L 249.675611 -335.234545 
L 246.907199 -335.234545 
L 244.138788 -335.234545 
L 241.370376 -335.234545 
L 238.601965 -335.234545 
L 235.833554 -335.234545 
L 233.065142 -335.234545 
L 230.296731 -335.234545 
L 227.52832 -335.234545 
L 224.759908 -335.234545 
L 221.991497 -335.234545 
L 219.223085 -335.234545 
L 216.454674 -335.234545 
L 213.686263 -335.234545 
L 210.917851 -335.234545 
L 208.14944 -335.234545 
L 205.381028 -335.234545 
L 202.612617 -335.234545 
L 199.844206 -335.234545 
L 197.075794 -335.234545 
L 194.307383 -334.830556 
L 191.538972 -334.830556 
L 188.77056 -334.830556 
L 186.002149 -334.830556 
L 183.233737 -334.830556 
L 180.465326 -334.830556 
L 177.696915 -334.830556 
L 174.928503 -334.854883 
L 172.160092 -334.426569 
L 169.39168 -334.426569 
L 166.623269 -334.426569 
L 163.854858 -334.426569 
L 161.086446 -332.773842 
L 158.318035 -332.773842 
L 155.549624 -332.797215 
L 152.781212 -331.399689 
L 150.012801 -330.739548 
L 147.244389 -328.660409 
L 144.475978 -328.660409 
L 141.707567 -328.660409 
L 138.939155 -326.562659 
L 136.170744 -326.562659 
L 133.402332 -326.604794 
L 130.633921 -325.219204 
L 127.86551 -324.566611 
L 125.097098 -322.428211 
L 122.328687 -322.428211 
L 119.560275 -321.099054 
L 116.791864 -321.099054 
L 114.023453 -321.099054 
L 111.255041 -320.361045 
L 108.48663 -321.059772 
L 105.718219 -319.800351 
L 102.949807 -321.218164 
L 100.181396 -316.781633 
L 97.412984 -317.625636 
L 94.644573 -316.528274 
L 91.876162 -316.887615 
L 89.10775 -309.571951 
L 86.339339 -308.653289 
L 83.570927 -304.281255 
L 80.802516 -300.202083 
L 78.034105 -297.163956 
L 75.265693 -285.747606 
L 72.497282 -276.140278 
L 69.728871 -273.614102 
L 66.960459 -212.920434 
L 64.192048 -155.933222 
L 61.423636 -55.925455 
z
" style="stroke: #b40426; stroke-opacity: 0.1"/>
    </defs>
    <g clip-path="url(#pa483070ef4)">
     <use xlink:href="#m5d5be3527b" x="0" y="360" style="fill: #b40426; fill-opacity: 0.1; stroke: #b40426; stroke-opacity: 0.1"/>
    </g>
   </g>
   <g id="matplotlib.axis_1">
    <g id="xtick_1">
     <g id="line2d_1">
      <defs>
       <path id="m8add88bbdd" d="M 0 0 
L 0 3.5 
" style="stroke: #000000; stroke-width: 0.8"/>
      </defs>
      <g>
       <use xlink:href="#m8add88bbdd" x="61.423636" y="318.04" style="stroke: #000000; stroke-width: 0.8"/>
      </g>
     </g>
     <g id="text_1">
      <!-- 0.0 -->
      <g transform="translate(53.472074 332.638438)scale(0.1 -0.1)">
       <defs>
        <path id="DejaVuSans-30" d="M 2034 4250 
Q 1547 4250 1301 3770 
Q 1056 3291 1056 2328 
Q 1056 1369 1301 889 
Q 1547 409 2034 409 
Q 2525 409 2770 889 
Q 3016 1369 3016 2328 
Q 3016 3291 2770 3770 
Q 2525 4250 2034 4250 
z
M 2034 4750 
Q 2819 4750 3233 4129 
Q 3647 3509 3647 2328 
Q 3647 1150 3233 529 
Q 2819 -91 2034 -91 
Q 1250 -91 836 529 
Q 422 1150 422 2328 
Q 422 3509 836 4129 
Q 1250 4750 2034 4750 
z
" transform="scale(0.015625)"/>
        <path id="DejaVuSans-2e" d="M 684 794 
L 1344 794 
L 1344 0 
L 684 0 
L 684 794 
z
" transform="scale(0.015625)"/>
       </defs>
       <use xlink:href="#DejaVuSans-30"/>
       <use xlink:href="#DejaVuSans-2e" x="63.623047"/>
       <use xlink:href="#DejaVuSans-30" x="95.410156"/>
      </g>
     </g>
    </g>
    <g id="xtick_2">
     <g id="line2d_2">
      <g>
       <use xlink:href="#m8add88bbdd" x="116.238182" y="318.04" style="stroke: #000000; stroke-width: 0.8"/>
      </g>
     </g>
     <g id="text_2">
      <!-- 0.2 -->
      <g transform="translate(108.286619 332.638438)scale(0.1 -0.1)">
       <defs>
        <path id="DejaVuSans-32" d="M 1228 531 
L 3431 531 
L 3431 0 
L 469 0 
L 469 531 
Q 828 903 1448 1529 
Q 2069 2156 2228 2338 
Q 2531 2678 2651 2914 
Q 2772 3150 2772 3378 
Q 2772 3750 2511 3984 
Q 2250 4219 1831 4219 
Q 1534 4219 1204 4116 
Q 875 4013 500 3803 
L 500 4441 
Q 881 4594 1212 4672 
Q 1544 4750 1819 4750 
Q 2544 4750 2975 4387 
Q 3406 4025 3406 3419 
Q 3406 3131 3298 2873 
Q 3191 2616 2906 2266 
Q 2828 2175 2409 1742 
Q 1991 1309 1228 531 
z
" transform="scale(0.015625)"/>
       </defs>
       <use xlink:href="#DejaVuSans-30"/>
       <use xlink:href="#DejaVuSans-2e" x="63.623047"/>
       <use xlink:href="#DejaVuSans-32" x="95.410156"/>
      </g>
     </g>
    </g>
    <g id="xtick_3">
     <g id="line2d_3">
      <g>
       <use xlink:href="#m8add88bbdd" x="171.052727" y="318.04" style="stroke: #000000; stroke-width: 0.8"/>
      </g>
     </g>
     <g id="text_3">
      <!-- 0.4 -->
      <g transform="translate(163.101165 332.638438)scale(0.1 -0.1)">
       <defs>
        <path id="DejaVuSans-34" d="M 2419 4116 
L 825 1625 
L 2419 1625 
L 2419 4116 
z
M 2253 4666 
L 3047 4666 
L 3047 1625 
L 3713 1625 
L 3713 1100 
L 3047 1100 
L 3047 0 
L 2419 0 
L 2419 1100 
L 313 1100 
L 313 1709 
L 2253 4666 
z
" transform="scale(0.015625)"/>
       </defs>
       <use xlink:href="#DejaVuSans-30"/>
       <use xlink:href="#DejaVuSans-2e" x="63.623047"/>
       <use xlink:href="#DejaVuSans-34" x="95.410156"/>
      </g>
     </g>
    </g>
    <g id="xtick_4">
     <g id="line2d_4">
      <g>
       <use xlink:href="#m8add88bbdd" x="225.867273" y="318.04" style="stroke: #000000; stroke-width: 0.8"/>
      </g>
     </g>
     <g id="text_4">
      <!-- 0.6 -->
      <g transform="translate(217.91571 332.638438)scale(0.1 -0.1)">
       <defs>
        <path id="DejaVuSans-36" d="M 2113 2584 
Q 1688 2584 1439 2293 
Q 1191 2003 1191 1497 
Q 1191 994 1439 701 
Q 1688 409 2113 409 
Q 2538 409 2786 701 
Q 3034 994 3034 1497 
Q 3034 2003 2786 2293 
Q 2538 2584 2113 2584 
z
M 3366 4563 
L 3366 3988 
Q 3128 4100 2886 4159 
Q 2644 4219 2406 4219 
Q 1781 4219 1451 3797 
Q 1122 3375 1075 2522 
Q 1259 2794 1537 2939 
Q 1816 3084 2150 3084 
Q 2853 3084 3261 2657 
Q 3669 2231 3669 1497 
Q 3669 778 3244 343 
Q 2819 -91 2113 -91 
Q 1303 -91 875 529 
Q 447 1150 447 2328 
Q 447 3434 972 4092 
Q 1497 4750 2381 4750 
Q 2619 4750 2861 4703 
Q 3103 4656 3366 4563 
z
" transform="scale(0.015625)"/>
       </defs>
       <use xlink:href="#DejaVuSans-30"/>
       <use xlink:href="#DejaVuSans-2e" x="63.623047"/>
       <use xlink:href="#DejaVuSans-36" x="95.410156"/>
      </g>
     </g>
    </g>
    <g id="xtick_5">
     <g id="line2d_5">
      <g>
       <use xlink:href="#m8add88bbdd" x="280.681818" y="318.04" style="stroke: #000000; stroke-width: 0.8"/>
      </g>
     </g>
     <g id="text_5">
      <!-- 0.8 -->
      <g transform="translate(272.730256 332.638438)scale(0.1 -0.1)">
       <defs>
        <path id="DejaVuSans-38" d="M 2034 2216 
Q 1584 2216 1326 1975 
Q 1069 1734 1069 1313 
Q 1069 891 1326 650 
Q 1584 409 2034 409 
Q 2484 409 2743 651 
Q 3003 894 3003 1313 
Q 3003 1734 2745 1975 
Q 2488 2216 2034 2216 
z
M 1403 2484 
Q 997 2584 770 2862 
Q 544 3141 544 3541 
Q 544 4100 942 4425 
Q 1341 4750 2034 4750 
Q 2731 4750 3128 4425 
Q 3525 4100 3525 3541 
Q 3525 3141 3298 2862 
Q 3072 2584 2669 2484 
Q 3125 2378 3379 2068 
Q 3634 1759 3634 1313 
Q 3634 634 3220 271 
Q 2806 -91 2034 -91 
Q 1263 -91 848 271 
Q 434 634 434 1313 
Q 434 1759 690 2068 
Q 947 2378 1403 2484 
z
M 1172 3481 
Q 1172 3119 1398 2916 
Q 1625 2713 2034 2713 
Q 2441 2713 2670 2916 
Q 2900 3119 2900 3481 
Q 2900 3844 2670 4047 
Q 2441 4250 2034 4250 
Q 1625 4250 1398 4047 
Q 1172 3844 1172 3481 
z
" transform="scale(0.015625)"/>
       </defs>
       <use xlink:href="#DejaVuSans-30"/>
       <use xlink:href="#DejaVuSans-2e" x="63.623047"/>
       <use xlink:href="#DejaVuSans-38" x="95.410156"/>
      </g>
     </g>
    </g>
    <g id="xtick_6">
     <g id="line2d_6">
      <g>
       <use xlink:href="#m8add88bbdd" x="335.496364" y="318.04" style="stroke: #000000; stroke-width: 0.8"/>
      </g>
     </g>
     <g id="text_6">
      <!-- 1.0 -->
      <g transform="translate(327.544801 332.638438)scale(0.1 -0.1)">
       <defs>
        <path id="DejaVuSans-31" d="M 794 531 
L 1825 531 
L 1825 4091 
L 703 3866 
L 703 4441 
L 1819 4666 
L 2450 4666 
L 2450 531 
L 3481 531 
L 3481 0 
L 794 0 
L 794 531 
z
" transform="scale(0.015625)"/>
       </defs>
       <use xlink:href="#DejaVuSans-31"/>
       <use xlink:href="#DejaVuSans-2e" x="63.623047"/>
       <use xlink:href="#DejaVuSans-30" x="95.410156"/>
      </g>
     </g>
    </g>
    <g id="text_7">
     <!-- 1-specificity -->
     <g transform="translate(168.274062 346.316563)scale(0.1 -0.1)">
      <defs>
       <path id="DejaVuSans-2d" d="M 313 2009 
L 1997 2009 
L 1997 1497 
L 313 1497 
L 313 2009 
z
" transform="scale(0.015625)"/>
       <path id="DejaVuSans-73" d="M 2834 3397 
L 2834 2853 
Q 2591 2978 2328 3040 
Q 2066 3103 1784 3103 
Q 1356 3103 1142 2972 
Q 928 2841 928 2578 
Q 928 2378 1081 2264 
Q 1234 2150 1697 2047 
L 1894 2003 
Q 2506 1872 2764 1633 
Q 3022 1394 3022 966 
Q 3022 478 2636 193 
Q 2250 -91 1575 -91 
Q 1294 -91 989 -36 
Q 684 19 347 128 
L 347 722 
Q 666 556 975 473 
Q 1284 391 1588 391 
Q 1994 391 2212 530 
Q 2431 669 2431 922 
Q 2431 1156 2273 1281 
Q 2116 1406 1581 1522 
L 1381 1569 
Q 847 1681 609 1914 
Q 372 2147 372 2553 
Q 372 3047 722 3315 
Q 1072 3584 1716 3584 
Q 2034 3584 2315 3537 
Q 2597 3491 2834 3397 
z
" transform="scale(0.015625)"/>
       <path id="DejaVuSans-70" d="M 1159 525 
L 1159 -1331 
L 581 -1331 
L 581 3500 
L 1159 3500 
L 1159 2969 
Q 1341 3281 1617 3432 
Q 1894 3584 2278 3584 
Q 2916 3584 3314 3078 
Q 3713 2572 3713 1747 
Q 3713 922 3314 415 
Q 2916 -91 2278 -91 
Q 1894 -91 1617 61 
Q 1341 213 1159 525 
z
M 3116 1747 
Q 3116 2381 2855 2742 
Q 2594 3103 2138 3103 
Q 1681 3103 1420 2742 
Q 1159 2381 1159 1747 
Q 1159 1113 1420 752 
Q 1681 391 2138 391 
Q 2594 391 2855 752 
Q 3116 1113 3116 1747 
z
" transform="scale(0.015625)"/>
       <path id="DejaVuSans-65" d="M 3597 1894 
L 3597 1613 
L 953 1613 
Q 991 1019 1311 708 
Q 1631 397 2203 397 
Q 2534 397 2845 478 
Q 3156 559 3463 722 
L 3463 178 
Q 3153 47 2828 -22 
Q 2503 -91 2169 -91 
Q 1331 -91 842 396 
Q 353 884 353 1716 
Q 353 2575 817 3079 
Q 1281 3584 2069 3584 
Q 2775 3584 3186 3129 
Q 3597 2675 3597 1894 
z
M 3022 2063 
Q 3016 2534 2758 2815 
Q 2500 3097 2075 3097 
Q 1594 3097 1305 2825 
Q 1016 2553 972 2059 
L 3022 2063 
z
" transform="scale(0.015625)"/>
       <path id="DejaVuSans-63" d="M 3122 3366 
L 3122 2828 
Q 2878 2963 2633 3030 
Q 2388 3097 2138 3097 
Q 1578 3097 1268 2742 
Q 959 2388 959 1747 
Q 959 1106 1268 751 
Q 1578 397 2138 397 
Q 2388 397 2633 464 
Q 2878 531 3122 666 
L 3122 134 
Q 2881 22 2623 -34 
Q 2366 -91 2075 -91 
Q 1284 -91 818 406 
Q 353 903 353 1747 
Q 353 2603 823 3093 
Q 1294 3584 2113 3584 
Q 2378 3584 2631 3529 
Q 2884 3475 3122 3366 
z
" transform="scale(0.015625)"/>
       <path id="DejaVuSans-69" d="M 603 3500 
L 1178 3500 
L 1178 0 
L 603 0 
L 603 3500 
z
M 603 4863 
L 1178 4863 
L 1178 4134 
L 603 4134 
L 603 4863 
z
" transform="scale(0.015625)"/>
       <path id="DejaVuSans-66" d="M 2375 4863 
L 2375 4384 
L 1825 4384 
Q 1516 4384 1395 4259 
Q 1275 4134 1275 3809 
L 1275 3500 
L 2222 3500 
L 2222 3053 
L 1275 3053 
L 1275 0 
L 697 0 
L 697 3053 
L 147 3053 
L 147 3500 
L 697 3500 
L 697 3744 
Q 697 4328 969 4595 
Q 1241 4863 1831 4863 
L 2375 4863 
z
" transform="scale(0.015625)"/>
       <path id="DejaVuSans-74" d="M 1172 4494 
L 1172 3500 
L 2356 3500 
L 2356 3053 
L 1172 3053 
L 1172 1153 
Q 1172 725 1289 603 
Q 1406 481 1766 481 
L 2356 481 
L 2356 0 
L 1766 0 
Q 1100 0 847 248 
Q 594 497 594 1153 
L 594 3053 
L 172 3053 
L 172 3500 
L 594 3500 
L 594 4494 
L 1172 4494 
z
" transform="scale(0.015625)"/>
       <path id="DejaVuSans-79" d="M 2059 -325 
Q 1816 -950 1584 -1140 
Q 1353 -1331 966 -1331 
L 506 -1331 
L 506 -850 
L 844 -850 
Q 1081 -850 1212 -737 
Q 1344 -625 1503 -206 
L 1606 56 
L 191 3500 
L 800 3500 
L 1894 763 
L 2988 3500 
L 3597 3500 
L 2059 -325 
z
" transform="scale(0.015625)"/>
      </defs>
      <use xlink:href="#DejaVuSans-31"/>
      <use xlink:href="#DejaVuSans-2d" x="63.623047"/>
      <use xlink:href="#DejaVuSans-73" x="99.707031"/>
      <use xlink:href="#DejaVuSans-70" x="151.806641"/>
      <use xlink:href="#DejaVuSans-65" x="215.283203"/>
      <use xlink:href="#DejaVuSans-63" x="276.806641"/>
      <use xlink:href="#DejaVuSans-69" x="331.787109"/>
      <use xlink:href="#DejaVuSans-66" x="359.570312"/>
      <use xlink:href="#DejaVuSans-69" x="394.775391"/>
      <use xlink:href="#DejaVuSans-63" x="422.558594"/>
      <use xlink:href="#DejaVuSans-69" x="477.539062"/>
      <use xlink:href="#DejaVuSans-74" x="505.322266"/>
      <use xlink:href="#DejaVuSans-79" x="544.53125"/>
     </g>
    </g>
   </g>
   <g id="matplotlib.axis_2">
    <g id="ytick_1">
     <g id="line2d_7">
      <defs>
       <path id="med290755fc" d="M 0 0 
L -3.5 0 
" style="stroke: #000000; stroke-width: 0.8"/>
      </defs>
      <g>
       <use xlink:href="#med290755fc" x="47.72" y="304.074545" style="stroke: #000000; stroke-width: 0.8"/>
      </g>
     </g>
     <g id="text_8">
      <!-- 0.0 -->
      <g transform="translate(24.816875 307.873764)scale(0.1 -0.1)">
       <use xlink:href="#DejaVuSans-30"/>
       <use xlink:href="#DejaVuSans-2e" x="63.623047"/>
       <use xlink:href="#DejaVuSans-30" x="95.410156"/>
      </g>
     </g>
    </g>
    <g id="ytick_2">
     <g id="line2d_8">
      <g>
       <use xlink:href="#med290755fc" x="47.72" y="248.212727" style="stroke: #000000; stroke-width: 0.8"/>
      </g>
     </g>
     <g id="text_9">
      <!-- 0.2 -->
      <g transform="translate(24.816875 252.011946)scale(0.1 -0.1)">
       <use xlink:href="#DejaVuSans-30"/>
       <use xlink:href="#DejaVuSans-2e" x="63.623047"/>
       <use xlink:href="#DejaVuSans-32" x="95.410156"/>
      </g>
     </g>
    </g>
    <g id="ytick_3">
     <g id="line2d_9">
      <g>
       <use xlink:href="#med290755fc" x="47.72" y="192.350909" style="stroke: #000000; stroke-width: 0.8"/>
      </g>
     </g>
     <g id="text_10">
      <!-- 0.4 -->
      <g transform="translate(24.816875 196.150128)scale(0.1 -0.1)">
       <use xlink:href="#DejaVuSans-30"/>
       <use xlink:href="#DejaVuSans-2e" x="63.623047"/>
       <use xlink:href="#DejaVuSans-34" x="95.410156"/>
      </g>
     </g>
    </g>
    <g id="ytick_4">
     <g id="line2d_10">
      <g>
       <use xlink:href="#med290755fc" x="47.72" y="136.489091" style="stroke: #000000; stroke-width: 0.8"/>
      </g>
     </g>
     <g id="text_11">
      <!-- 0.6 -->
      <g transform="translate(24.816875 140.28831)scale(0.1 -0.1)">
       <use xlink:href="#DejaVuSans-30"/>
       <use xlink:href="#DejaVuSans-2e" x="63.623047"/>
       <use xlink:href="#DejaVuSans-36" x="95.410156"/>
      </g>
     </g>
    </g>
    <g id="ytick_5">
     <g id="line2d_11">
      <g>
       <use xlink:href="#med290755fc" x="47.72" y="80.627273" style="stroke: #000000; stroke-width: 0.8"/>
      </g>
     </g>
     <g id="text_12">
      <!-- 0.8 -->
      <g transform="translate(24.816875 84.426491)scale(0.1 -0.1)">
       <use xlink:href="#DejaVuSans-30"/>
       <use xlink:href="#DejaVuSans-2e" x="63.623047"/>
       <use xlink:href="#DejaVuSans-38" x="95.410156"/>
      </g>
     </g>
    </g>
    <g id="ytick_6">
     <g id="line2d_12">
      <g>
       <use xlink:href="#med290755fc" x="47.72" y="24.765455" style="stroke: #000000; stroke-width: 0.8"/>
      </g>
     </g>
     <g id="text_13">
      <!-- 1.0 -->
      <g transform="translate(24.816875 28.564673)scale(0.1 -0.1)">
       <use xlink:href="#DejaVuSans-31"/>
       <use xlink:href="#DejaVuSans-2e" x="63.623047"/>
       <use xlink:href="#DejaVuSans-30" x="95.410156"/>
      </g>
     </g>
    </g>
    <g id="text_14">
     <!-- Sensitivity -->
     <g transform="translate(18.737188 190.450469)rotate(-90)scale(0.1 -0.1)">
      <defs>
       <path id="DejaVuSans-53" d="M 3425 4513 
L 3425 3897 
Q 3066 4069 2747 4153 
Q 2428 4238 2131 4238 
Q 1616 4238 1336 4038 
Q 1056 3838 1056 3469 
Q 1056 3159 1242 3001 
Q 1428 2844 1947 2747 
L 2328 2669 
Q 3034 2534 3370 2195 
Q 3706 1856 3706 1288 
Q 3706 609 3251 259 
Q 2797 -91 1919 -91 
Q 1588 -91 1214 -16 
Q 841 59 441 206 
L 441 856 
Q 825 641 1194 531 
Q 1563 422 1919 422 
Q 2459 422 2753 634 
Q 3047 847 3047 1241 
Q 3047 1584 2836 1778 
Q 2625 1972 2144 2069 
L 1759 2144 
Q 1053 2284 737 2584 
Q 422 2884 422 3419 
Q 422 4038 858 4394 
Q 1294 4750 2059 4750 
Q 2388 4750 2728 4690 
Q 3069 4631 3425 4513 
z
" transform="scale(0.015625)"/>
       <path id="DejaVuSans-6e" d="M 3513 2113 
L 3513 0 
L 2938 0 
L 2938 2094 
Q 2938 2591 2744 2837 
Q 2550 3084 2163 3084 
Q 1697 3084 1428 2787 
Q 1159 2491 1159 1978 
L 1159 0 
L 581 0 
L 581 3500 
L 1159 3500 
L 1159 2956 
Q 1366 3272 1645 3428 
Q 1925 3584 2291 3584 
Q 2894 3584 3203 3211 
Q 3513 2838 3513 2113 
z
" transform="scale(0.015625)"/>
       <path id="DejaVuSans-76" d="M 191 3500 
L 800 3500 
L 1894 563 
L 2988 3500 
L 3597 3500 
L 2284 0 
L 1503 0 
L 191 3500 
z
" transform="scale(0.015625)"/>
      </defs>
      <use xlink:href="#DejaVuSans-53"/>
      <use xlink:href="#DejaVuSans-65" x="63.476562"/>
      <use xlink:href="#DejaVuSans-6e" x="125"/>
      <use xlink:href="#DejaVuSans-73" x="188.378906"/>
      <use xlink:href="#DejaVuSans-69" x="240.478516"/>
      <use xlink:href="#DejaVuSans-74" x="268.261719"/>
      <use xlink:href="#DejaVuSans-69" x="307.470703"/>
      <use xlink:href="#DejaVuSans-76" x="335.253906"/>
      <use xlink:href="#DejaVuSans-69" x="394.433594"/>
      <use xlink:href="#DejaVuSans-74" x="422.216797"/>
      <use xlink:href="#DejaVuSans-79" x="461.425781"/>
     </g>
    </g>
   </g>
   <g id="line2d_13">
    <path d="M 61.423636 304.074545 
L 64.192048 197.556941 
L 66.960459 164.613439 
L 69.728871 164.613439 
L 72.497282 141.888562 
L 75.265693 141.888562 
L 78.034105 110.854219 
L 80.802516 108.09561 
L 83.570927 86.741627 
L 86.339339 73.638238 
L 89.10775 73.638238 
L 91.876162 66.052065 
L 94.644573 66.052065 
L 97.412984 56.405346 
L 100.181396 56.405346 
L 102.949807 52.267434 
L 105.718219 48.827584 
L 108.48663 48.827584 
L 111.255041 45.387734 
L 114.023453 45.387734 
L 116.791864 44.698082 
L 119.560275 44.698082 
L 122.328687 41.939473 
L 125.097098 41.258232 
L 127.86551 41.258232 
L 130.633921 38.499623 
L 133.402332 38.499623 
L 136.170744 37.12873 
L 138.939155 37.12873 
L 141.707567 34.386942 
L 144.475978 34.386942 
L 147.244389 34.386942 
L 150.012801 33.7057 
L 152.781212 33.7057 
L 155.549624 32.326396 
L 158.318035 32.326396 
L 161.086446 32.326396 
L 163.854858 32.326396 
L 166.623269 32.326396 
L 169.39168 31.636744 
L 172.160092 30.947092 
L 174.928503 30.25744 
L 177.696915 30.25744 
L 180.465326 30.25744 
L 183.233737 30.25744 
L 186.002149 29.576198 
L 188.77056 28.886546 
L 191.538972 28.886546 
L 194.307383 28.886546 
L 197.075794 28.196894 
L 199.844206 28.196894 
L 202.612617 28.196894 
L 205.381028 27.507242 
L 208.14944 27.507242 
L 210.917851 26.81759 
L 213.686263 26.81759 
L 216.454674 26.81759 
L 219.223085 26.136348 
L 221.991497 26.136348 
L 224.759908 26.136348 
L 227.52832 26.136348 
L 230.296731 26.136348 
L 233.065142 26.136348 
L 235.833554 26.136348 
L 238.601965 26.136348 
L 241.370376 26.136348 
L 244.138788 24.765455 
L 246.907199 24.765455 
L 249.675611 24.765455 
L 252.444022 24.765455 
L 255.212433 24.765455 
L 257.980845 24.765455 
L 260.749256 24.765455 
L 263.517668 24.765455 
L 266.286079 24.765455 
L 269.05449 24.765455 
L 271.822902 24.765455 
L 274.591313 24.765455 
L 277.359725 24.765455 
L 280.128136 24.765455 
L 282.896547 24.765455 
L 285.664959 24.765455 
L 288.43337 24.765455 
L 291.201781 24.765455 
L 293.970193 24.765455 
L 296.738604 24.765455 
L 299.507016 24.765455 
L 302.275427 24.765455 
L 305.043838 24.765455 
L 307.81225 24.765455 
L 310.580661 24.765455 
L 313.349073 24.765455 
L 316.117484 24.765455 
L 318.885895 24.765455 
L 321.654307 24.765455 
L 324.422718 24.765455 
L 327.191129 24.765455 
L 329.959541 24.765455 
L 332.727952 24.765455 
L 335.496364 24.765455 
" clip-path="url(#pa483070ef4)" style="fill: none; stroke: #3b4cc0; stroke-width: 1.5; stroke-linecap: square"/>
   </g>
   <g id="line2d_14">
    <path d="M 61.423636 304.074545 
L 64.192048 207.746852 
L 66.960459 177.449565 
L 69.728871 152.244557 
L 72.497282 133.956816 
L 75.265693 123.650535 
L 78.034105 113.448748 
L 80.802516 103.274825 
L 83.570927 95.636593 
L 86.339339 88.300761 
L 89.10775 81.525519 
L 91.876162 76.298803 
L 94.644573 73.190966 
L 97.412984 70.485427 
L 100.181396 68.021266 
L 102.949807 65.557105 
L 105.718219 63.129433 
L 108.48663 61.073955 
L 111.255041 59.085749 
L 114.023453 57.239562 
L 116.791864 55.431937 
L 119.560275 53.655412 
L 122.328687 51.878887 
L 125.097098 50.102362 
L 127.86551 48.325837 
L 130.633921 46.710738 
L 133.402332 45.272039 
L 136.170744 43.833341 
L 138.939155 42.394642 
L 141.707567 41.035557 
L 144.475978 39.708317 
L 147.244389 38.539309 
L 150.012801 37.430674 
L 152.781212 36.558558 
L 155.549624 35.686443 
L 158.318035 34.814327 
L 161.086446 34.117682 
L 163.854858 33.581964 
L 166.623269 33.103343 
L 169.39168 32.624722 
L 172.160092 32.146102 
L 174.928503 31.667481 
L 177.696915 31.18886 
L 180.465326 30.840275 
L 183.233737 30.589217 
L 186.002149 30.338158 
L 188.77056 30.087099 
L 191.538972 29.836041 
L 194.307383 29.584982 
L 197.075794 29.333923 
L 199.844206 29.082865 
L 202.612617 28.863154 
L 205.381028 28.661729 
L 208.14944 28.460304 
L 210.917851 28.25888 
L 213.686263 28.068402 
L 216.454674 27.922707 
L 219.223085 27.818809 
L 221.991497 27.77064 
L 224.759908 27.722472 
L 227.52832 27.674303 
L 230.296731 27.626134 
L 233.065142 27.577966 
L 235.833554 27.529797 
L 238.601965 27.452957 
L 241.370376 27.324507 
L 244.138788 27.196058 
L 246.907199 27.067608 
L 249.675611 26.939158 
L 252.444022 26.810709 
L 255.212433 26.682259 
L 257.980845 26.55381 
L 260.749256 26.42536 
L 263.517668 26.29691 
L 266.286079 26.168461 
L 269.05449 26.040011 
L 271.822902 25.911561 
L 274.591313 25.765428 
L 277.359725 25.606435 
L 280.128136 25.447441 
L 282.896547 25.345791 
L 285.664959 25.315247 
L 288.43337 25.284703 
L 291.201781 25.254159 
L 293.970193 25.223615 
L 296.738604 25.193071 
L 299.507016 25.162527 
L 302.275427 25.131983 
L 305.043838 25.101439 
L 307.81225 25.070895 
L 310.580661 25.040351 
L 313.349073 25.009807 
L 316.117484 24.979263 
L 318.885895 24.948719 
L 321.654307 24.918175 
L 324.422718 24.887631 
L 327.191129 24.857087 
L 329.959541 24.826543 
L 332.727952 24.795999 
L 335.496364 24.765455 
" clip-path="url(#pa483070ef4)" style="fill: none; stroke: #7b9ff9; stroke-width: 1.5; stroke-linecap: square"/>
   </g>
   <g id="line2d_15">
    <path d="M 61.423636 304.074545 
L 64.192048 198.726274 
L 66.960459 183.883242 
L 69.728871 170.503109 
L 72.497282 157.555529 
L 75.265693 145.107052 
L 78.034105 134.53715 
L 80.802516 124.786114 
L 83.570927 117.661329 
L 86.339339 110.046821 
L 89.10775 98.245173 
L 91.876162 87.516318 
L 94.644573 78.445413 
L 97.412984 73.605488 
L 100.181396 71.16622 
L 102.949807 68.643357 
L 105.718219 66.106562 
L 108.48663 63.569768 
L 111.255041 61.329732 
L 114.023453 59.716189 
L 116.791864 58.102645 
L 119.560275 56.489102 
L 122.328687 54.875558 
L 125.097098 53.262015 
L 127.86551 51.648471 
L 130.633921 50.034928 
L 133.402332 48.421384 
L 136.170744 46.916513 
L 138.939155 45.528365 
L 141.707567 44.407253 
L 144.475978 43.449382 
L 147.244389 42.663618 
L 150.012801 41.884048 
L 152.781212 41.104477 
L 155.549624 40.324907 
L 158.318035 39.545336 
L 161.086446 38.765765 
L 163.854858 37.986195 
L 166.623269 37.206624 
L 169.39168 36.444967 
L 172.160092 35.688086 
L 174.928503 34.931205 
L 177.696915 34.174325 
L 180.465326 33.730148 
L 183.233737 33.5205 
L 186.002149 33.310851 
L 188.77056 33.101203 
L 191.538972 32.891555 
L 194.307383 32.687804 
L 197.075794 32.500176 
L 199.844206 32.312547 
L 202.612617 32.160745 
L 205.381028 32.029841 
L 208.14944 31.898937 
L 210.917851 31.768034 
L 213.686263 31.63713 
L 216.454674 31.506226 
L 219.223085 31.375322 
L 221.991497 31.244418 
L 224.759908 30.989847 
L 227.52832 30.671771 
L 230.296731 30.353695 
L 233.065142 30.035619 
L 235.833554 29.717543 
L 238.601965 29.411077 
L 241.370376 29.12551 
L 244.138788 28.954885 
L 246.907199 28.864371 
L 249.675611 28.773857 
L 252.444022 28.683343 
L 255.212433 28.592829 
L 257.980845 28.502315 
L 260.749256 28.411801 
L 263.517668 28.283276 
L 266.286079 28.119363 
L 269.05449 27.955449 
L 271.822902 27.791535 
L 274.591313 27.627621 
L 277.359725 27.457374 
L 280.128136 27.263907 
L 282.896547 27.07044 
L 285.664959 26.876972 
L 288.43337 26.683505 
L 291.201781 26.490038 
L 293.970193 26.296571 
L 296.738604 26.103103 
L 299.507016 25.909636 
L 302.275427 25.716169 
L 305.043838 25.522701 
L 307.81225 25.407703 
L 310.580661 25.343478 
L 313.349073 25.279253 
L 316.117484 25.215028 
L 318.885895 25.150803 
L 321.654307 25.086579 
L 324.422718 25.022354 
L 327.191129 24.958129 
L 329.959541 24.893904 
L 332.727952 24.829679 
L 335.496364 24.765455 
" clip-path="url(#pa483070ef4)" style="fill: none; stroke: #c0d4f5; stroke-width: 1.5; stroke-linecap: square"/>
   </g>
   <g id="line2d_16">
    <path d="M 61.423636 304.074545 
L 64.192048 262.114823 
L 66.960459 254.217184 
L 69.728871 246.319545 
L 72.497282 233.474303 
L 75.265693 225.191316 
L 78.034105 216.495454 
L 80.802516 208.597816 
L 83.570927 200.700177 
L 86.339339 191.440055 
L 89.10775 183.542417 
L 91.876162 174.282295 
L 94.644573 166.384656 
L 97.412984 158.487017 
L 100.181396 150.589379 
L 102.949807 142.69174 
L 105.718219 123.270365 
L 108.48663 117.522438 
L 111.255041 111.08486 
L 114.023453 105.336933 
L 116.791864 97.22747 
L 119.560275 93.464905 
L 122.328687 89.702341 
L 125.097098 82.51938 
L 127.86551 80.31724 
L 130.633921 70.626454 
L 133.402332 68.814421 
L 136.170744 65.735935 
L 138.939155 64.898702 
L 141.707567 64.06147 
L 144.475978 63.91389 
L 147.244389 59.628397 
L 150.012801 56.032556 
L 152.781212 55.884976 
L 155.549624 55.047743 
L 158.318035 54.900163 
L 161.086446 53.812148 
L 163.854858 53.274461 
L 166.623269 53.019601 
L 169.39168 52.115494 
L 172.160092 51.892238 
L 174.928503 48.707867 
L 177.696915 48.196187 
L 180.465326 46.994856 
L 183.233737 46.483176 
L 186.002149 45.971497 
L 188.77056 45.459817 
L 191.538972 44.948137 
L 194.307383 44.436458 
L 197.075794 43.924778 
L 199.844206 43.413099 
L 202.612617 42.901419 
L 205.381028 42.442631 
L 208.14944 42.003193 
L 210.917851 41.563756 
L 213.686263 41.124318 
L 216.454674 40.68488 
L 219.223085 40.245443 
L 221.991497 39.806005 
L 224.759908 39.366568 
L 227.52832 38.92713 
L 230.296731 38.487692 
L 233.065142 38.048255 
L 235.833554 37.608817 
L 238.601965 37.169379 
L 241.370376 36.729942 
L 244.138788 36.290504 
L 246.907199 35.851066 
L 249.675611 35.411629 
L 252.444022 34.972191 
L 255.212433 34.532753 
L 257.980845 34.093316 
L 260.749256 33.653878 
L 263.517668 33.220453 
L 266.286079 32.895261 
L 269.05449 32.570069 
L 271.822902 32.244877 
L 274.591313 31.919684 
L 277.359725 31.594492 
L 280.128136 31.2693 
L 282.896547 30.944107 
L 285.664959 30.618915 
L 288.43337 30.293723 
L 291.201781 29.968531 
L 293.970193 29.643338 
L 296.738604 29.318146 
L 299.507016 28.992954 
L 302.275427 28.667762 
L 305.043838 28.342569 
L 307.81225 28.017377 
L 310.580661 27.692185 
L 313.349073 27.366993 
L 316.117484 27.0418 
L 318.885895 26.716608 
L 321.654307 26.391416 
L 324.422718 26.066224 
L 327.191129 25.741031 
L 329.959541 25.415839 
L 332.727952 25.090647 
L 335.496364 24.765455 
" clip-path="url(#pa483070ef4)" style="fill: none; stroke: #f2cbb7; stroke-width: 1.5; stroke-linecap: square"/>
   </g>
   <g id="line2d_17">
    <path d="M 61.423636 304.074545 
L 64.192048 171.333342 
L 66.960459 138.280504 
L 69.728871 138.280504 
L 72.497282 107.313444 
L 75.265693 107.313444 
L 78.034105 96.977073 
L 80.802516 93.528813 
L 83.570927 76.337973 
L 86.339339 70.139515 
L 89.10775 70.139515 
L 91.876162 63.276636 
L 94.644573 63.276636 
L 97.412984 59.836786 
L 100.181396 59.836786 
L 102.949807 56.396936 
L 105.718219 52.948675 
L 108.48663 52.948675 
L 111.255041 52.259023 
L 114.023453 52.259023 
L 116.791864 50.198477 
L 119.560275 50.198477 
L 122.328687 48.819173 
L 125.097098 45.387734 
L 127.86551 45.387734 
L 130.633921 41.249821 
L 133.402332 41.249821 
L 136.170744 40.56858 
L 138.939155 39.878927 
L 141.707567 38.499623 
L 144.475978 38.499623 
L 147.244389 35.749425 
L 150.012801 35.059773 
L 152.781212 35.059773 
L 155.549624 35.059773 
L 158.318035 35.059773 
L 161.086446 35.059773 
L 163.854858 34.370121 
L 166.623269 33.680469 
L 169.39168 32.990817 
L 172.160092 32.990817 
L 174.928503 32.990817 
L 177.696915 32.990817 
L 180.465326 31.611513 
L 183.233737 31.611513 
L 186.002149 31.611513 
L 188.77056 31.611513 
L 191.538972 30.921861 
L 194.307383 30.921861 
L 197.075794 30.921861 
L 199.844206 30.921861 
L 202.612617 30.921861 
L 205.381028 30.240619 
L 208.14944 30.240619 
L 210.917851 29.550967 
L 213.686263 29.550967 
L 216.454674 29.550967 
L 219.223085 29.550967 
L 221.991497 29.550967 
L 224.759908 29.550967 
L 227.52832 29.550967 
L 230.296731 29.550967 
L 233.065142 29.550967 
L 235.833554 29.550967 
L 238.601965 28.188484 
L 241.370376 28.188484 
L 244.138788 27.498832 
L 246.907199 27.498832 
L 249.675611 27.498832 
L 252.444022 27.498832 
L 255.212433 27.498832 
L 257.980845 27.498832 
L 260.749256 27.498832 
L 263.517668 27.498832 
L 266.286079 27.498832 
L 269.05449 27.498832 
L 271.822902 27.498832 
L 274.591313 27.498832 
L 277.359725 26.81759 
L 280.128136 26.81759 
L 282.896547 26.81759 
L 285.664959 26.81759 
L 288.43337 26.81759 
L 291.201781 26.81759 
L 293.970193 26.81759 
L 296.738604 26.81759 
L 299.507016 26.127938 
L 302.275427 26.127938 
L 305.043838 26.127938 
L 307.81225 26.127938 
L 310.580661 26.127938 
L 313.349073 26.127938 
L 316.117484 26.127938 
L 318.885895 26.127938 
L 321.654307 24.765455 
L 324.422718 24.765455 
L 327.191129 24.765455 
L 329.959541 24.765455 
L 332.727952 24.765455 
L 335.496364 24.765455 
" clip-path="url(#pa483070ef4)" style="fill: none; stroke: #ee8468; stroke-width: 1.5; stroke-linecap: square"/>
   </g>
   <g id="line2d_18">
    <path d="M 61.423636 304.074545 
L 64.192048 210.535412 
L 66.960459 172.761748 
L 69.728871 109.323904 
L 72.497282 105.885779 
L 75.265693 100.368559 
L 78.034105 90.718505 
L 80.802516 83.162756 
L 83.570927 80.404146 
L 86.339339 76.276378 
L 89.10775 70.105009 
L 91.876162 64.592861 
L 94.644573 57.052328 
L 97.412984 56.362675 
L 100.181396 54.308929 
L 102.949807 47.437762 
L 105.718219 44.014859 
L 108.48663 43.325211 
L 111.255041 40.586884 
L 114.023453 39.902302 
L 116.791864 39.902302 
L 119.560275 39.902302 
L 122.328687 38.523 
L 125.097098 38.523 
L 127.86551 37.153836 
L 130.633921 35.774528 
L 133.402332 35.08488 
L 136.170744 34.395226 
L 138.939155 34.395226 
L 141.707567 32.33642 
L 144.475978 32.33642 
L 147.244389 32.33642 
L 150.012801 30.962184 
L 152.781212 29.582876 
L 155.549624 28.898295 
L 158.318035 28.208641 
L 161.086446 28.208641 
L 163.854858 27.524059 
L 166.623269 27.524059 
L 169.39168 27.524059 
L 172.160092 27.524059 
L 174.928503 26.834411 
L 177.696915 26.144762 
L 180.465326 26.144762 
L 183.233737 26.144762 
L 186.002149 26.144762 
L 188.77056 26.144762 
L 191.538972 26.144762 
L 194.307383 26.144762 
L 197.075794 25.455108 
L 199.844206 25.455108 
L 202.612617 25.455108 
L 205.381028 25.455108 
L 208.14944 25.455108 
L 210.917851 25.455108 
L 213.686263 25.455108 
L 216.454674 25.455108 
L 219.223085 25.455108 
L 221.991497 25.455108 
L 224.759908 25.455108 
L 227.52832 25.455108 
L 230.296731 25.455108 
L 233.065142 25.455108 
L 235.833554 25.455108 
L 238.601965 25.455108 
L 241.370376 25.455108 
L 244.138788 25.455108 
L 246.907199 25.455108 
L 249.675611 24.765455 
L 252.444022 24.765455 
L 255.212433 24.765455 
L 257.980845 24.765455 
L 260.749256 24.765455 
L 263.517668 24.765455 
L 266.286079 24.765455 
L 269.05449 24.765455 
L 271.822902 24.765455 
L 274.591313 24.765455 
L 277.359725 24.765455 
L 280.128136 24.765455 
L 282.896547 24.765455 
L 285.664959 24.765455 
L 288.43337 24.765455 
L 291.201781 24.765455 
L 293.970193 24.765455 
L 296.738604 24.765455 
L 299.507016 24.765455 
L 302.275427 24.765455 
L 305.043838 24.765455 
L 307.81225 24.765455 
L 310.580661 24.765455 
L 313.349073 24.765455 
L 316.117484 24.765455 
L 318.885895 24.765455 
L 321.654307 24.765455 
L 324.422718 24.765455 
L 327.191129 24.765455 
L 329.959541 24.765455 
L 332.727952 24.765455 
L 335.496364 24.765455 
" clip-path="url(#pa483070ef4)" style="fill: none; stroke: #b40426; stroke-opacity: 0.8; stroke-width: 1.5; stroke-linecap: square"/>
   </g>
   <g id="line2d_19">
    <path d="M 61.423636 304.074545 
L 64.192048 301.253242 
L 66.960459 298.431938 
L 69.728871 295.610634 
L 72.497282 292.78933 
L 75.265693 289.968026 
L 78.034105 287.146722 
L 80.802516 284.325418 
L 83.570927 281.504114 
L 86.339339 278.68281 
L 89.10775 275.861506 
L 91.876162 273.040202 
L 94.644573 270.218898 
L 97.412984 267.397594 
L 100.181396 264.57629 
L 102.949807 261.754986 
L 105.718219 258.933682 
L 108.48663 256.112378 
L 111.255041 253.291074 
L 114.023453 250.46977 
L 116.791864 247.648466 
L 119.560275 244.827163 
L 122.328687 242.005859 
L 125.097098 239.184555 
L 127.86551 236.363251 
L 130.633921 233.541947 
L 133.402332 230.720643 
L 136.170744 227.899339 
L 138.939155 225.078035 
L 141.707567 222.256731 
L 144.475978 219.435427 
L 147.244389 216.614123 
L 150.012801 213.792819 
L 152.781212 210.971515 
L 155.549624 208.150211 
L 158.318035 205.328907 
L 161.086446 202.507603 
L 163.854858 199.686299 
L 166.623269 196.864995 
L 169.39168 194.043691 
L 172.160092 191.222388 
L 174.928503 188.401084 
L 177.696915 185.57978 
L 180.465326 182.758476 
L 183.233737 179.937172 
L 186.002149 177.115868 
L 188.77056 174.294564 
L 191.538972 171.47326 
L 194.307383 168.651956 
L 197.075794 165.830652 
L 199.844206 163.009348 
L 202.612617 160.188044 
L 205.381028 157.36674 
L 208.14944 154.545436 
L 210.917851 151.724132 
L 213.686263 148.902828 
L 216.454674 146.081524 
L 219.223085 143.26022 
L 221.991497 140.438916 
L 224.759908 137.617612 
L 227.52832 134.796309 
L 230.296731 131.975005 
L 233.065142 129.153701 
L 235.833554 126.332397 
L 238.601965 123.511093 
L 241.370376 120.689789 
L 244.138788 117.868485 
L 246.907199 115.047181 
L 249.675611 112.225877 
L 252.444022 109.404573 
L 255.212433 106.583269 
L 257.980845 103.761965 
L 260.749256 100.940661 
L 263.517668 98.119357 
L 266.286079 95.298053 
L 269.05449 92.476749 
L 271.822902 89.655445 
L 274.591313 86.834141 
L 277.359725 84.012837 
L 280.128136 81.191534 
L 282.896547 78.37023 
L 285.664959 75.548926 
L 288.43337 72.727622 
L 291.201781 69.906318 
L 293.970193 67.085014 
L 296.738604 64.26371 
L 299.507016 61.442406 
L 302.275427 58.621102 
L 305.043838 55.799798 
L 307.81225 52.978494 
L 310.580661 50.15719 
L 313.349073 47.335886 
L 316.117484 44.514582 
L 318.885895 41.693278 
L 321.654307 38.871974 
L 324.422718 36.05067 
L 327.191129 33.229366 
L 329.959541 30.408062 
L 332.727952 27.586758 
L 335.496364 24.765455 
" clip-path="url(#pa483070ef4)" style="fill: none; stroke-dasharray: 9,3; stroke-dashoffset: 0; stroke: #808080; stroke-opacity: 0.5; stroke-width: 1.5"/>
   </g>
   <g id="patch_3">
    <path d="M 47.72 318.04 
L 47.72 10.8 
" style="fill: none; stroke: #000000; stroke-width: 0.8; stroke-linejoin: miter; stroke-linecap: square"/>
   </g>
   <g id="patch_4">
    <path d="M 47.72 318.04 
L 349.2 318.04 
" style="fill: none; stroke: #000000; stroke-width: 0.8; stroke-linejoin: miter; stroke-linecap: square"/>
   </g>
   <g id="legend_1">
    <g id="text_15">
     <!-- AUC -->
     <g transform="translate(221.324219 204.213438)scale(0.1 -0.1)">
      <defs>
       <path id="DejaVuSans-41" d="M 2188 4044 
L 1331 1722 
L 3047 1722 
L 2188 4044 
z
M 1831 4666 
L 2547 4666 
L 4325 0 
L 3669 0 
L 3244 1197 
L 1141 1197 
L 716 0 
L 50 0 
L 1831 4666 
z
" transform="scale(0.015625)"/>
       <path id="DejaVuSans-55" d="M 556 4666 
L 1191 4666 
L 1191 1831 
Q 1191 1081 1462 751 
Q 1734 422 2344 422 
Q 2950 422 3222 751 
Q 3494 1081 3494 1831 
L 3494 4666 
L 4128 4666 
L 4128 1753 
Q 4128 841 3676 375 
Q 3225 -91 2344 -91 
Q 1459 -91 1007 375 
Q 556 841 556 1753 
L 556 4666 
z
" transform="scale(0.015625)"/>
       <path id="DejaVuSans-43" d="M 4122 4306 
L 4122 3641 
Q 3803 3938 3442 4084 
Q 3081 4231 2675 4231 
Q 1875 4231 1450 3742 
Q 1025 3253 1025 2328 
Q 1025 1406 1450 917 
Q 1875 428 2675 428 
Q 3081 428 3442 575 
Q 3803 722 4122 1019 
L 4122 359 
Q 3791 134 3420 21 
Q 3050 -91 2638 -91 
Q 1578 -91 968 557 
Q 359 1206 359 2328 
Q 359 3453 968 4101 
Q 1578 4750 2638 4750 
Q 3056 4750 3426 4639 
Q 3797 4528 4122 4306 
z
" transform="scale(0.015625)"/>
      </defs>
      <use xlink:href="#DejaVuSans-41"/>
      <use xlink:href="#DejaVuSans-55" x="68.408203"/>
      <use xlink:href="#DejaVuSans-43" x="141.601562"/>
     </g>
    </g>
    <g id="line2d_20">
     <path d="M 123.590625 215.391563 
L 133.590625 215.391563 
L 143.590625 215.391563 
" style="fill: none; stroke: #3b4cc0; stroke-width: 1.5; stroke-linecap: square"/>
    </g>
    <g id="text_16">
     <!-- Support Vector Machine: 0.94   0.02 -->
     <g transform="translate(151.590625 218.891563)scale(0.1 -0.1)">
      <defs>
       <path id="DejaVuSans-75" d="M 544 1381 
L 544 3500 
L 1119 3500 
L 1119 1403 
Q 1119 906 1312 657 
Q 1506 409 1894 409 
Q 2359 409 2629 706 
Q 2900 1003 2900 1516 
L 2900 3500 
L 3475 3500 
L 3475 0 
L 2900 0 
L 2900 538 
Q 2691 219 2414 64 
Q 2138 -91 1772 -91 
Q 1169 -91 856 284 
Q 544 659 544 1381 
z
M 1991 3584 
L 1991 3584 
z
" transform="scale(0.015625)"/>
       <path id="DejaVuSans-6f" d="M 1959 3097 
Q 1497 3097 1228 2736 
Q 959 2375 959 1747 
Q 959 1119 1226 758 
Q 1494 397 1959 397 
Q 2419 397 2687 759 
Q 2956 1122 2956 1747 
Q 2956 2369 2687 2733 
Q 2419 3097 1959 3097 
z
M 1959 3584 
Q 2709 3584 3137 3096 
Q 3566 2609 3566 1747 
Q 3566 888 3137 398 
Q 2709 -91 1959 -91 
Q 1206 -91 779 398 
Q 353 888 353 1747 
Q 353 2609 779 3096 
Q 1206 3584 1959 3584 
z
" transform="scale(0.015625)"/>
       <path id="DejaVuSans-72" d="M 2631 2963 
Q 2534 3019 2420 3045 
Q 2306 3072 2169 3072 
Q 1681 3072 1420 2755 
Q 1159 2438 1159 1844 
L 1159 0 
L 581 0 
L 581 3500 
L 1159 3500 
L 1159 2956 
Q 1341 3275 1631 3429 
Q 1922 3584 2338 3584 
Q 2397 3584 2469 3576 
Q 2541 3569 2628 3553 
L 2631 2963 
z
" transform="scale(0.015625)"/>
       <path id="DejaVuSans-20" transform="scale(0.015625)"/>
       <path id="DejaVuSans-56" d="M 1831 0 
L 50 4666 
L 709 4666 
L 2188 738 
L 3669 4666 
L 4325 4666 
L 2547 0 
L 1831 0 
z
" transform="scale(0.015625)"/>
       <path id="DejaVuSans-4d" d="M 628 4666 
L 1569 4666 
L 2759 1491 
L 3956 4666 
L 4897 4666 
L 4897 0 
L 4281 0 
L 4281 4097 
L 3078 897 
L 2444 897 
L 1241 4097 
L 1241 0 
L 628 0 
L 628 4666 
z
" transform="scale(0.015625)"/>
       <path id="DejaVuSans-61" d="M 2194 1759 
Q 1497 1759 1228 1600 
Q 959 1441 959 1056 
Q 959 750 1161 570 
Q 1363 391 1709 391 
Q 2188 391 2477 730 
Q 2766 1069 2766 1631 
L 2766 1759 
L 2194 1759 
z
M 3341 1997 
L 3341 0 
L 2766 0 
L 2766 531 
Q 2569 213 2275 61 
Q 1981 -91 1556 -91 
Q 1019 -91 701 211 
Q 384 513 384 1019 
Q 384 1609 779 1909 
Q 1175 2209 1959 2209 
L 2766 2209 
L 2766 2266 
Q 2766 2663 2505 2880 
Q 2244 3097 1772 3097 
Q 1472 3097 1187 3025 
Q 903 2953 641 2809 
L 641 3341 
Q 956 3463 1253 3523 
Q 1550 3584 1831 3584 
Q 2591 3584 2966 3190 
Q 3341 2797 3341 1997 
z
" transform="scale(0.015625)"/>
       <path id="DejaVuSans-68" d="M 3513 2113 
L 3513 0 
L 2938 0 
L 2938 2094 
Q 2938 2591 2744 2837 
Q 2550 3084 2163 3084 
Q 1697 3084 1428 2787 
Q 1159 2491 1159 1978 
L 1159 0 
L 581 0 
L 581 4863 
L 1159 4863 
L 1159 2956 
Q 1366 3272 1645 3428 
Q 1925 3584 2291 3584 
Q 2894 3584 3203 3211 
Q 3513 2838 3513 2113 
z
" transform="scale(0.015625)"/>
       <path id="DejaVuSans-3a" d="M 750 794 
L 1409 794 
L 1409 0 
L 750 0 
L 750 794 
z
M 750 3309 
L 1409 3309 
L 1409 2516 
L 750 2516 
L 750 3309 
z
" transform="scale(0.015625)"/>
       <path id="DejaVuSans-39" d="M 703 97 
L 703 672 
Q 941 559 1184 500 
Q 1428 441 1663 441 
Q 2288 441 2617 861 
Q 2947 1281 2994 2138 
Q 2813 1869 2534 1725 
Q 2256 1581 1919 1581 
Q 1219 1581 811 2004 
Q 403 2428 403 3163 
Q 403 3881 828 4315 
Q 1253 4750 1959 4750 
Q 2769 4750 3195 4129 
Q 3622 3509 3622 2328 
Q 3622 1225 3098 567 
Q 2575 -91 1691 -91 
Q 1453 -91 1209 -44 
Q 966 3 703 97 
z
M 1959 2075 
Q 2384 2075 2632 2365 
Q 2881 2656 2881 3163 
Q 2881 3666 2632 3958 
Q 2384 4250 1959 4250 
Q 1534 4250 1286 3958 
Q 1038 3666 1038 3163 
Q 1038 2656 1286 2365 
Q 1534 2075 1959 2075 
z
" transform="scale(0.015625)"/>
       <path id="DejaVuSans-b1" d="M 2944 4013 
L 2944 2803 
L 4684 2803 
L 4684 2272 
L 2944 2272 
L 2944 1063 
L 2419 1063 
L 2419 2272 
L 678 2272 
L 678 2803 
L 2419 2803 
L 2419 4013 
L 2944 4013 
z
M 678 531 
L 4684 531 
L 4684 0 
L 678 0 
L 678 531 
z
" transform="scale(0.015625)"/>
      </defs>
      <use xlink:href="#DejaVuSans-53"/>
      <use xlink:href="#DejaVuSans-75" x="63.476562"/>
      <use xlink:href="#DejaVuSans-70" x="126.855469"/>
      <use xlink:href="#DejaVuSans-70" x="190.332031"/>
      <use xlink:href="#DejaVuSans-6f" x="253.808594"/>
      <use xlink:href="#DejaVuSans-72" x="314.990234"/>
      <use xlink:href="#DejaVuSans-74" x="356.103516"/>
      <use xlink:href="#DejaVuSans-20" x="395.3125"/>
      <use xlink:href="#DejaVuSans-56" x="427.099609"/>
      <use xlink:href="#DejaVuSans-65" x="487.757812"/>
      <use xlink:href="#DejaVuSans-63" x="549.28125"/>
      <use xlink:href="#DejaVuSans-74" x="604.261719"/>
      <use xlink:href="#DejaVuSans-6f" x="643.470703"/>
      <use xlink:href="#DejaVuSans-72" x="704.652344"/>
      <use xlink:href="#DejaVuSans-20" x="745.765625"/>
      <use xlink:href="#DejaVuSans-4d" x="777.552734"/>
      <use xlink:href="#DejaVuSans-61" x="863.832031"/>
      <use xlink:href="#DejaVuSans-63" x="925.111328"/>
      <use xlink:href="#DejaVuSans-68" x="980.091797"/>
      <use xlink:href="#DejaVuSans-69" x="1043.470703"/>
      <use xlink:href="#DejaVuSans-6e" x="1071.253906"/>
      <use xlink:href="#DejaVuSans-65" x="1134.632812"/>
      <use xlink:href="#DejaVuSans-3a" x="1196.15625"/>
      <use xlink:href="#DejaVuSans-20" x="1229.847656"/>
      <use xlink:href="#DejaVuSans-30" x="1261.634766"/>
      <use xlink:href="#DejaVuSans-2e" x="1325.257812"/>
      <use xlink:href="#DejaVuSans-39" x="1357.044922"/>
      <use xlink:href="#DejaVuSans-34" x="1420.667969"/>
      <use xlink:href="#DejaVuSans-20" x="1484.291016"/>
      <use xlink:href="#DejaVuSans-b1" x="1516.078125"/>
      <use xlink:href="#DejaVuSans-20" x="1599.867188"/>
      <use xlink:href="#DejaVuSans-20" x="1631.654297"/>
      <use xlink:href="#DejaVuSans-30" x="1663.441406"/>
      <use xlink:href="#DejaVuSans-2e" x="1727.064453"/>
      <use xlink:href="#DejaVuSans-30" x="1758.851562"/>
      <use xlink:href="#DejaVuSans-32" x="1822.474609"/>
     </g>
    </g>
    <g id="line2d_21">
     <path d="M 123.590625 230.069688 
L 133.590625 230.069688 
L 143.590625 230.069688 
" style="fill: none; stroke: #7b9ff9; stroke-width: 1.5; stroke-linecap: square"/>
    </g>
    <g id="text_17">
     <!-- K-Nearest Neighbour: 0.93   0.02 -->
     <g transform="translate(151.590625 233.569688)scale(0.1 -0.1)">
      <defs>
       <path id="DejaVuSans-4b" d="M 628 4666 
L 1259 4666 
L 1259 2694 
L 3353 4666 
L 4166 4666 
L 1850 2491 
L 4331 0 
L 3500 0 
L 1259 2247 
L 1259 0 
L 628 0 
L 628 4666 
z
" transform="scale(0.015625)"/>
       <path id="DejaVuSans-4e" d="M 628 4666 
L 1478 4666 
L 3547 763 
L 3547 4666 
L 4159 4666 
L 4159 0 
L 3309 0 
L 1241 3903 
L 1241 0 
L 628 0 
L 628 4666 
z
" transform="scale(0.015625)"/>
       <path id="DejaVuSans-67" d="M 2906 1791 
Q 2906 2416 2648 2759 
Q 2391 3103 1925 3103 
Q 1463 3103 1205 2759 
Q 947 2416 947 1791 
Q 947 1169 1205 825 
Q 1463 481 1925 481 
Q 2391 481 2648 825 
Q 2906 1169 2906 1791 
z
M 3481 434 
Q 3481 -459 3084 -895 
Q 2688 -1331 1869 -1331 
Q 1566 -1331 1297 -1286 
Q 1028 -1241 775 -1147 
L 775 -588 
Q 1028 -725 1275 -790 
Q 1522 -856 1778 -856 
Q 2344 -856 2625 -561 
Q 2906 -266 2906 331 
L 2906 616 
Q 2728 306 2450 153 
Q 2172 0 1784 0 
Q 1141 0 747 490 
Q 353 981 353 1791 
Q 353 2603 747 3093 
Q 1141 3584 1784 3584 
Q 2172 3584 2450 3431 
Q 2728 3278 2906 2969 
L 2906 3500 
L 3481 3500 
L 3481 434 
z
" transform="scale(0.015625)"/>
       <path id="DejaVuSans-62" d="M 3116 1747 
Q 3116 2381 2855 2742 
Q 2594 3103 2138 3103 
Q 1681 3103 1420 2742 
Q 1159 2381 1159 1747 
Q 1159 1113 1420 752 
Q 1681 391 2138 391 
Q 2594 391 2855 752 
Q 3116 1113 3116 1747 
z
M 1159 2969 
Q 1341 3281 1617 3432 
Q 1894 3584 2278 3584 
Q 2916 3584 3314 3078 
Q 3713 2572 3713 1747 
Q 3713 922 3314 415 
Q 2916 -91 2278 -91 
Q 1894 -91 1617 61 
Q 1341 213 1159 525 
L 1159 0 
L 581 0 
L 581 4863 
L 1159 4863 
L 1159 2969 
z
" transform="scale(0.015625)"/>
       <path id="DejaVuSans-33" d="M 2597 2516 
Q 3050 2419 3304 2112 
Q 3559 1806 3559 1356 
Q 3559 666 3084 287 
Q 2609 -91 1734 -91 
Q 1441 -91 1130 -33 
Q 819 25 488 141 
L 488 750 
Q 750 597 1062 519 
Q 1375 441 1716 441 
Q 2309 441 2620 675 
Q 2931 909 2931 1356 
Q 2931 1769 2642 2001 
Q 2353 2234 1838 2234 
L 1294 2234 
L 1294 2753 
L 1863 2753 
Q 2328 2753 2575 2939 
Q 2822 3125 2822 3475 
Q 2822 3834 2567 4026 
Q 2313 4219 1838 4219 
Q 1578 4219 1281 4162 
Q 984 4106 628 3988 
L 628 4550 
Q 988 4650 1302 4700 
Q 1616 4750 1894 4750 
Q 2613 4750 3031 4423 
Q 3450 4097 3450 3541 
Q 3450 3153 3228 2886 
Q 3006 2619 2597 2516 
z
" transform="scale(0.015625)"/>
      </defs>
      <use xlink:href="#DejaVuSans-4b"/>
      <use xlink:href="#DejaVuSans-2d" x="55.076172"/>
      <use xlink:href="#DejaVuSans-4e" x="91.160156"/>
      <use xlink:href="#DejaVuSans-65" x="165.964844"/>
      <use xlink:href="#DejaVuSans-61" x="227.488281"/>
      <use xlink:href="#DejaVuSans-72" x="288.767578"/>
      <use xlink:href="#DejaVuSans-65" x="327.630859"/>
      <use xlink:href="#DejaVuSans-73" x="389.154297"/>
      <use xlink:href="#DejaVuSans-74" x="441.253906"/>
      <use xlink:href="#DejaVuSans-20" x="480.462891"/>
      <use xlink:href="#DejaVuSans-4e" x="512.25"/>
      <use xlink:href="#DejaVuSans-65" x="587.054688"/>
      <use xlink:href="#DejaVuSans-69" x="648.578125"/>
      <use xlink:href="#DejaVuSans-67" x="676.361328"/>
      <use xlink:href="#DejaVuSans-68" x="739.837891"/>
      <use xlink:href="#DejaVuSans-62" x="803.216797"/>
      <use xlink:href="#DejaVuSans-6f" x="866.693359"/>
      <use xlink:href="#DejaVuSans-75" x="927.875"/>
      <use xlink:href="#DejaVuSans-72" x="991.253906"/>
      <use xlink:href="#DejaVuSans-3a" x="1030.617188"/>
      <use xlink:href="#DejaVuSans-20" x="1064.308594"/>
      <use xlink:href="#DejaVuSans-30" x="1096.095703"/>
      <use xlink:href="#DejaVuSans-2e" x="1159.71875"/>
      <use xlink:href="#DejaVuSans-39" x="1191.505859"/>
      <use xlink:href="#DejaVuSans-33" x="1255.128906"/>
      <use xlink:href="#DejaVuSans-20" x="1318.751953"/>
      <use xlink:href="#DejaVuSans-b1" x="1350.539062"/>
      <use xlink:href="#DejaVuSans-20" x="1434.328125"/>
      <use xlink:href="#DejaVuSans-20" x="1466.115234"/>
      <use xlink:href="#DejaVuSans-30" x="1497.902344"/>
      <use xlink:href="#DejaVuSans-2e" x="1561.525391"/>
      <use xlink:href="#DejaVuSans-30" x="1593.3125"/>
      <use xlink:href="#DejaVuSans-32" x="1656.935547"/>
     </g>
    </g>
    <g id="line2d_22">
     <path d="M 123.590625 244.747813 
L 133.590625 244.747813 
L 143.590625 244.747813 
" style="fill: none; stroke: #c0d4f5; stroke-width: 1.5; stroke-linecap: square"/>
    </g>
    <g id="text_18">
     <!-- Random Forest: 0.91   0.03 -->
     <g transform="translate(151.590625 248.247813)scale(0.1 -0.1)">
      <defs>
       <path id="DejaVuSans-52" d="M 2841 2188 
Q 3044 2119 3236 1894 
Q 3428 1669 3622 1275 
L 4263 0 
L 3584 0 
L 2988 1197 
Q 2756 1666 2539 1819 
Q 2322 1972 1947 1972 
L 1259 1972 
L 1259 0 
L 628 0 
L 628 4666 
L 2053 4666 
Q 2853 4666 3247 4331 
Q 3641 3997 3641 3322 
Q 3641 2881 3436 2590 
Q 3231 2300 2841 2188 
z
M 1259 4147 
L 1259 2491 
L 2053 2491 
Q 2509 2491 2742 2702 
Q 2975 2913 2975 3322 
Q 2975 3731 2742 3939 
Q 2509 4147 2053 4147 
L 1259 4147 
z
" transform="scale(0.015625)"/>
       <path id="DejaVuSans-64" d="M 2906 2969 
L 2906 4863 
L 3481 4863 
L 3481 0 
L 2906 0 
L 2906 525 
Q 2725 213 2448 61 
Q 2172 -91 1784 -91 
Q 1150 -91 751 415 
Q 353 922 353 1747 
Q 353 2572 751 3078 
Q 1150 3584 1784 3584 
Q 2172 3584 2448 3432 
Q 2725 3281 2906 2969 
z
M 947 1747 
Q 947 1113 1208 752 
Q 1469 391 1925 391 
Q 2381 391 2643 752 
Q 2906 1113 2906 1747 
Q 2906 2381 2643 2742 
Q 2381 3103 1925 3103 
Q 1469 3103 1208 2742 
Q 947 2381 947 1747 
z
" transform="scale(0.015625)"/>
       <path id="DejaVuSans-6d" d="M 3328 2828 
Q 3544 3216 3844 3400 
Q 4144 3584 4550 3584 
Q 5097 3584 5394 3201 
Q 5691 2819 5691 2113 
L 5691 0 
L 5113 0 
L 5113 2094 
Q 5113 2597 4934 2840 
Q 4756 3084 4391 3084 
Q 3944 3084 3684 2787 
Q 3425 2491 3425 1978 
L 3425 0 
L 2847 0 
L 2847 2094 
Q 2847 2600 2669 2842 
Q 2491 3084 2119 3084 
Q 1678 3084 1418 2786 
Q 1159 2488 1159 1978 
L 1159 0 
L 581 0 
L 581 3500 
L 1159 3500 
L 1159 2956 
Q 1356 3278 1631 3431 
Q 1906 3584 2284 3584 
Q 2666 3584 2933 3390 
Q 3200 3197 3328 2828 
z
" transform="scale(0.015625)"/>
       <path id="DejaVuSans-46" d="M 628 4666 
L 3309 4666 
L 3309 4134 
L 1259 4134 
L 1259 2759 
L 3109 2759 
L 3109 2228 
L 1259 2228 
L 1259 0 
L 628 0 
L 628 4666 
z
" transform="scale(0.015625)"/>
      </defs>
      <use xlink:href="#DejaVuSans-52"/>
      <use xlink:href="#DejaVuSans-61" x="67.232422"/>
      <use xlink:href="#DejaVuSans-6e" x="128.511719"/>
      <use xlink:href="#DejaVuSans-64" x="191.890625"/>
      <use xlink:href="#DejaVuSans-6f" x="255.367188"/>
      <use xlink:href="#DejaVuSans-6d" x="316.548828"/>
      <use xlink:href="#DejaVuSans-20" x="413.960938"/>
      <use xlink:href="#DejaVuSans-46" x="445.748047"/>
      <use xlink:href="#DejaVuSans-6f" x="499.642578"/>
      <use xlink:href="#DejaVuSans-72" x="560.824219"/>
      <use xlink:href="#DejaVuSans-65" x="599.6875"/>
      <use xlink:href="#DejaVuSans-73" x="661.210938"/>
      <use xlink:href="#DejaVuSans-74" x="713.310547"/>
      <use xlink:href="#DejaVuSans-3a" x="752.519531"/>
      <use xlink:href="#DejaVuSans-20" x="786.210938"/>
      <use xlink:href="#DejaVuSans-30" x="817.998047"/>
      <use xlink:href="#DejaVuSans-2e" x="881.621094"/>
      <use xlink:href="#DejaVuSans-39" x="913.408203"/>
      <use xlink:href="#DejaVuSans-31" x="977.03125"/>
      <use xlink:href="#DejaVuSans-20" x="1040.654297"/>
      <use xlink:href="#DejaVuSans-b1" x="1072.441406"/>
      <use xlink:href="#DejaVuSans-20" x="1156.230469"/>
      <use xlink:href="#DejaVuSans-20" x="1188.017578"/>
      <use xlink:href="#DejaVuSans-30" x="1219.804688"/>
      <use xlink:href="#DejaVuSans-2e" x="1283.427734"/>
      <use xlink:href="#DejaVuSans-30" x="1315.214844"/>
      <use xlink:href="#DejaVuSans-33" x="1378.837891"/>
     </g>
    </g>
    <g id="line2d_23">
     <path d="M 123.590625 259.425938 
L 133.590625 259.425938 
L 143.590625 259.425938 
" style="fill: none; stroke: #f2cbb7; stroke-width: 1.5; stroke-linecap: square"/>
    </g>
    <g id="text_19">
     <!-- LightGBM: 0.83   0.02 -->
     <g transform="translate(151.590625 262.925938)scale(0.1 -0.1)">
      <defs>
       <path id="DejaVuSans-4c" d="M 628 4666 
L 1259 4666 
L 1259 531 
L 3531 531 
L 3531 0 
L 628 0 
L 628 4666 
z
" transform="scale(0.015625)"/>
       <path id="DejaVuSans-47" d="M 3809 666 
L 3809 1919 
L 2778 1919 
L 2778 2438 
L 4434 2438 
L 4434 434 
Q 4069 175 3628 42 
Q 3188 -91 2688 -91 
Q 1594 -91 976 548 
Q 359 1188 359 2328 
Q 359 3472 976 4111 
Q 1594 4750 2688 4750 
Q 3144 4750 3555 4637 
Q 3966 4525 4313 4306 
L 4313 3634 
Q 3963 3931 3569 4081 
Q 3175 4231 2741 4231 
Q 1884 4231 1454 3753 
Q 1025 3275 1025 2328 
Q 1025 1384 1454 906 
Q 1884 428 2741 428 
Q 3075 428 3337 486 
Q 3600 544 3809 666 
z
" transform="scale(0.015625)"/>
       <path id="DejaVuSans-42" d="M 1259 2228 
L 1259 519 
L 2272 519 
Q 2781 519 3026 730 
Q 3272 941 3272 1375 
Q 3272 1813 3026 2020 
Q 2781 2228 2272 2228 
L 1259 2228 
z
M 1259 4147 
L 1259 2741 
L 2194 2741 
Q 2656 2741 2882 2914 
Q 3109 3088 3109 3444 
Q 3109 3797 2882 3972 
Q 2656 4147 2194 4147 
L 1259 4147 
z
M 628 4666 
L 2241 4666 
Q 2963 4666 3353 4366 
Q 3744 4066 3744 3513 
Q 3744 3084 3544 2831 
Q 3344 2578 2956 2516 
Q 3422 2416 3680 2098 
Q 3938 1781 3938 1306 
Q 3938 681 3513 340 
Q 3088 0 2303 0 
L 628 0 
L 628 4666 
z
" transform="scale(0.015625)"/>
      </defs>
      <use xlink:href="#DejaVuSans-4c"/>
      <use xlink:href="#DejaVuSans-69" x="55.712891"/>
      <use xlink:href="#DejaVuSans-67" x="83.496094"/>
      <use xlink:href="#DejaVuSans-68" x="146.972656"/>
      <use xlink:href="#DejaVuSans-74" x="210.351562"/>
      <use xlink:href="#DejaVuSans-47" x="249.560547"/>
      <use xlink:href="#DejaVuSans-42" x="327.050781"/>
      <use xlink:href="#DejaVuSans-4d" x="395.654297"/>
      <use xlink:href="#DejaVuSans-3a" x="481.933594"/>
      <use xlink:href="#DejaVuSans-20" x="515.625"/>
      <use xlink:href="#DejaVuSans-30" x="547.412109"/>
      <use xlink:href="#DejaVuSans-2e" x="611.035156"/>
      <use xlink:href="#DejaVuSans-38" x="642.822266"/>
      <use xlink:href="#DejaVuSans-33" x="706.445312"/>
      <use xlink:href="#DejaVuSans-20" x="770.068359"/>
      <use xlink:href="#DejaVuSans-b1" x="801.855469"/>
      <use xlink:href="#DejaVuSans-20" x="885.644531"/>
      <use xlink:href="#DejaVuSans-20" x="917.431641"/>
      <use xlink:href="#DejaVuSans-30" x="949.21875"/>
      <use xlink:href="#DejaVuSans-2e" x="1012.841797"/>
      <use xlink:href="#DejaVuSans-30" x="1044.628906"/>
      <use xlink:href="#DejaVuSans-32" x="1108.251953"/>
     </g>
    </g>
    <g id="line2d_24">
     <path d="M 123.590625 274.104063 
L 133.590625 274.104063 
L 143.590625 274.104063 
" style="fill: none; stroke: #ee8468; stroke-width: 1.5; stroke-linecap: square"/>
    </g>
    <g id="text_20">
     <!-- XGBoost: 0.94   0.02 -->
     <g transform="translate(151.590625 277.604063)scale(0.1 -0.1)">
      <defs>
       <path id="DejaVuSans-58" d="M 403 4666 
L 1081 4666 
L 2241 2931 
L 3406 4666 
L 4084 4666 
L 2584 2425 
L 4184 0 
L 3506 0 
L 2194 1984 
L 872 0 
L 191 0 
L 1856 2491 
L 403 4666 
z
" transform="scale(0.015625)"/>
      </defs>
      <use xlink:href="#DejaVuSans-58"/>
      <use xlink:href="#DejaVuSans-47" x="68.505859"/>
      <use xlink:href="#DejaVuSans-42" x="145.996094"/>
      <use xlink:href="#DejaVuSans-6f" x="214.599609"/>
      <use xlink:href="#DejaVuSans-6f" x="275.78125"/>
      <use xlink:href="#DejaVuSans-73" x="336.962891"/>
      <use xlink:href="#DejaVuSans-74" x="389.0625"/>
      <use xlink:href="#DejaVuSans-3a" x="428.271484"/>
      <use xlink:href="#DejaVuSans-20" x="461.962891"/>
      <use xlink:href="#DejaVuSans-30" x="493.75"/>
      <use xlink:href="#DejaVuSans-2e" x="557.373047"/>
      <use xlink:href="#DejaVuSans-39" x="589.160156"/>
      <use xlink:href="#DejaVuSans-34" x="652.783203"/>
      <use xlink:href="#DejaVuSans-20" x="716.40625"/>
      <use xlink:href="#DejaVuSans-b1" x="748.193359"/>
      <use xlink:href="#DejaVuSans-20" x="831.982422"/>
      <use xlink:href="#DejaVuSans-20" x="863.769531"/>
      <use xlink:href="#DejaVuSans-30" x="895.556641"/>
      <use xlink:href="#DejaVuSans-2e" x="959.179688"/>
      <use xlink:href="#DejaVuSans-30" x="990.966797"/>
      <use xlink:href="#DejaVuSans-32" x="1054.589844"/>
     </g>
    </g>
    <g id="line2d_25">
     <path d="M 123.590625 288.782188 
L 133.590625 288.782188 
L 143.590625 288.782188 
" style="fill: none; stroke: #b40426; stroke-opacity: 0.8; stroke-width: 1.5; stroke-linecap: square"/>
    </g>
    <g id="text_21">
     <!-- BINN:  0.95   0.01 -->
     <g transform="translate(151.590625 292.282188)scale(0.1 -0.1)">
      <defs>
       <path id="DejaVuSans-49" d="M 628 4666 
L 1259 4666 
L 1259 0 
L 628 0 
L 628 4666 
z
" transform="scale(0.015625)"/>
       <path id="DejaVuSans-35" d="M 691 4666 
L 3169 4666 
L 3169 4134 
L 1269 4134 
L 1269 2991 
Q 1406 3038 1543 3061 
Q 1681 3084 1819 3084 
Q 2600 3084 3056 2656 
Q 3513 2228 3513 1497 
Q 3513 744 3044 326 
Q 2575 -91 1722 -91 
Q 1428 -91 1123 -41 
Q 819 9 494 109 
L 494 744 
Q 775 591 1075 516 
Q 1375 441 1709 441 
Q 2250 441 2565 725 
Q 2881 1009 2881 1497 
Q 2881 1984 2565 2268 
Q 2250 2553 1709 2553 
Q 1456 2553 1204 2497 
Q 953 2441 691 2322 
L 691 4666 
z
" transform="scale(0.015625)"/>
      </defs>
      <use xlink:href="#DejaVuSans-42"/>
      <use xlink:href="#DejaVuSans-49" x="68.603516"/>
      <use xlink:href="#DejaVuSans-4e" x="98.095703"/>
      <use xlink:href="#DejaVuSans-4e" x="172.900391"/>
      <use xlink:href="#DejaVuSans-3a" x="247.705078"/>
      <use xlink:href="#DejaVuSans-20" x="281.396484"/>
      <use xlink:href="#DejaVuSans-20" x="313.183594"/>
      <use xlink:href="#DejaVuSans-30" x="344.970703"/>
      <use xlink:href="#DejaVuSans-2e" x="408.59375"/>
      <use xlink:href="#DejaVuSans-39" x="440.380859"/>
      <use xlink:href="#DejaVuSans-35" x="504.003906"/>
      <use xlink:href="#DejaVuSans-20" x="567.626953"/>
      <use xlink:href="#DejaVuSans-b1" x="599.414062"/>
      <use xlink:href="#DejaVuSans-20" x="683.203125"/>
      <use xlink:href="#DejaVuSans-20" x="714.990234"/>
      <use xlink:href="#DejaVuSans-30" x="746.777344"/>
      <use xlink:href="#DejaVuSans-2e" x="810.400391"/>
      <use xlink:href="#DejaVuSans-30" x="842.1875"/>
      <use xlink:href="#DejaVuSans-31" x="905.810547"/>
     </g>
    </g>
    <g id="line2d_26">
     <path d="M 123.590625 303.460312 
L 133.590625 303.460312 
L 143.590625 303.460312 
" style="fill: none; stroke-dasharray: 9,3; stroke-dashoffset: 0; stroke: #808080; stroke-opacity: 0.5; stroke-width: 1.5"/>
    </g>
    <g id="text_22">
     <!-- Random -->
     <g transform="translate(151.590625 306.960312)scale(0.1 -0.1)">
      <use xlink:href="#DejaVuSans-52"/>
      <use xlink:href="#DejaVuSans-61" x="67.232422"/>
      <use xlink:href="#DejaVuSans-6e" x="128.511719"/>
      <use xlink:href="#DejaVuSans-64" x="191.890625"/>
      <use xlink:href="#DejaVuSans-6f" x="255.367188"/>
      <use xlink:href="#DejaVuSans-6d" x="316.548828"/>
     </g>
    </g>
   </g>
  </g>
 </g>
 <defs>
  <clipPath id="pa483070ef4">
   <rect x="47.72" y="10.8" width="301.48" height="307.24"/>
  </clipPath>
 </defs>
</svg>
